<?xml version="1.0" standalone="no"?>
<!DOCTYPE svg PUBLIC "-//W3C//DTD SVG 1.1//EN" "http://www.w3.org/Graphics/SVG/1.1/DTD/svg11.dtd" >
<svg xmlns="http://www.w3.org/2000/svg">
<metadata>
Created by FontForge 20120702 at Thu Sep 05 10:06:41 2013

(URW)++,Copyright 2013 by (URW)++ Design &#38; Development
</metadata>
<defs>
<font id="FuturaRoundLight" horiz-adv-x="1120" vert-adv-y="2048" >
  <font-face 
    font-family="Futura Round Light"
    font-weight="300"
    font-stretch="normal"
    units-per-em="2048"
    panose-1="0 0 0 0 0 0 0 0 0 0"
    ascent="1529"
    descent="-519"
    x-height="835"
    cap-height="1365"
    bbox="-288 -523 2085 2018"
    underline-thickness="85"
    underline-position="-154"
    unicode-range="U+0020-FB04"
  />
<missing-glyph horiz-adv-x="512" vert-adv-y="2457" 
d="M51 0v1365h410v-1365h-410zM410 51v1263h-308v-1263h308z" />
    <glyph glyph-name=".notdef" horiz-adv-x="512" vert-adv-y="2457" 
d="M51 0v1365h410v-1365h-410zM410 51v1263h-308v-1263h308z" />
    <glyph glyph-name="glyph1" horiz-adv-x="0" vert-adv-y="0" 
 />
    <glyph glyph-name="glyph2" horiz-adv-x="512" vert-adv-y="2457" 
 />
    <glyph glyph-name="space" unicode=" " horiz-adv-x="512" vert-adv-y="2457" 
 />
    <glyph glyph-name="space" unicode="&#xa0;" horiz-adv-x="512" vert-adv-y="2457" 
 />
    <glyph glyph-name="exclam" unicode="!" horiz-adv-x="531" vert-adv-y="2457" 
d="M266 135q31 0 52.5 -21.5t21.5 -52.5t-22 -53t-52 -22q-31 0 -53 22t-22 53t22 52.5t53 21.5zM221 312v985q0 41 8 51q13 17 37 17q26 0 35 -14t9 -54v-985q0 -41 -8 -51q-13 -17 -36 -17q-27 0 -36 14t-9 54z" />
    <glyph glyph-name="quotedbl" unicode="&#x22;" horiz-adv-x="737" vert-adv-y="2457" 
d="M229 965l-11 330q0 44 7 53q12 17 38 17q44 0 44 -48v-22l-11 -330q-1 -37 -8.5 -51.5t-25.5 -14.5q-17 0 -24.5 14.5t-8.5 51.5zM441 965l-11 330v19q0 51 46 51q44 0 44 -48l-1 -22l-10 -330q-2 -37 -9.5 -51.5t-24.5 -14.5q-18 0 -25.5 14.5t-8.5 51.5z" />
    <glyph glyph-name="numbersign" unicode="#" horiz-adv-x="1229" vert-adv-y="2457" 
d="M893 860l-40 -327h165q39 0 53.5 -8.5t14.5 -32.5t-14.5 -32.5t-53.5 -8.5h-176l-48 -388q-4 -38 -13 -50.5t-31 -12.5q-47 0 -47 41q0 7 4 33l47 377h-332l-48 -388q-5 -38 -13.5 -50.5t-30.5 -12.5q-47 0 -47 40q0 8 4 34l47 377h-174q-39 0 -53.5 8.5t-14.5 32.5
q0 23 15 32t53 9h184l40 327h-172q-40 0 -54.5 8.5t-14.5 32.5t14.5 32.5t54.5 8.5h183l44 360q4 37 13 50t31 13q46 0 46 -39q0 -14 -3 -35l-43 -349h329l45 360q5 38 13.5 50.5t30.5 12.5q47 0 47 -41q0 -7 -3 -33l-44 -349h167q39 0 53.5 -9t14.5 -32q0 -24 -14.5 -32.5
t-53.5 -8.5h-175zM802 860h-329l-40 -327h330z" />
    <glyph glyph-name="dollar" unicode="$" vert-adv-y="2457" 
d="M626 1374q107 -19 186 -80q79 -62 79 -100q0 -17 -13.5 -30.5t-31.5 -13.5q-19 0 -35 19q-82 105 -185 122v-541q161 -78 215 -118q129 -95 129 -251t-114 -270q-96 -96 -230 -120v-141q0 -39 -8.5 -53.5t-31.5 -14.5q-22 0 -30.5 14.5t-8.5 53.5v134q-158 7 -261 92
q-49 41 -87 95.5t-38 84.5q0 17 14 29.5t33 12.5q14 0 20.5 -8.5t33.5 -57.5q40 -74 119 -120t166 -46v626q-22 11 -33 17q-110 54 -156 87q-70 52 -100.5 109.5t-30.5 137.5q0 197 171 292q64 35 149 42v122q0 39 8.5 53.5t30.5 14.5q23 0 31.5 -14.5t8.5 -53.5v-125z
M626 654v-579q38 9 67 23q84 42 135 115q52 76 52 166q0 89 -55 148t-199 127zM547 788v507q-61 -5 -103 -30q-58 -35 -92.5 -96.5t-34.5 -128.5q0 -116 108 -185q41 -27 122 -67z" />
    <glyph glyph-name="percent" unicode="%" horiz-adv-x="1238" vert-adv-y="2457" 
d="M343 1377q136 0 216 -99q59 -75 59 -169q0 -111 -78 -190q-77 -78 -200 -78q-134 0 -213 99q-59 75 -59 173q0 106 78 186q76 78 197 78zM343 1303q-80 0 -136 -57q-57 -57 -57 -139q0 -78 57 -134.5t136 -56.5q80 0 137 57q56 56 56 136q0 81 -56.5 137.5t-136.5 56.5z
M1016 1303l-741 -1275q-17 -29 -25.5 -36.5t-23.5 -7.5q-27 0 -27 34q0 10 19 43l740 1277q17 28 26 36t24 8q28 0 28 -35q0 -10 -20 -44zM895 524q136 0 215 -99q60 -75 60 -169q0 -111 -78 -190q-77 -78 -200 -78q-134 0 -213 99q-59 75 -59 173q0 106 78 186
q77 78 197 78zM894 449q-80 0 -136 -57q-57 -57 -57 -139q0 -78 57 -134.5t136 -56.5q81 0 138 57q56 56 56 137q0 80 -56.5 136.5t-137.5 56.5z" />
    <glyph glyph-name="ampersand" unicode="&#x26;" horiz-adv-x="1288" vert-adv-y="2457" 
d="M662 798l334 -450q56 56 139 155q14 17 34 17q18 0 31 -12.5t13 -30.5q0 -17 -47.5 -74.5t-118.5 -126.5l142 -191q25 -34 25 -49t-15 -27t-34 -12q-16 0 -24.5 6t-28.5 33l-133 178q-82 -68 -135 -105q-198 -137 -359 -137q-73 0 -144.5 32.5t-122.5 88.5
q-88 96 -88 234q0 137 94 251.5t313 243.5q-80 121 -108.5 184t-28.5 118q0 115 82 192q79 74 185 74q117 0 189 -88q59 -73 59 -165q0 -129 -122 -239q-38 -34 -131 -100zM586 754q-24 -17 -128 -84q-121 -77 -179.5 -159.5t-58.5 -176.5q0 -132 93 -213q77 -67 175 -67
q172 0 440 233zM611 868q19 14 28 21q114 82 145 123q42 56 42 127q0 75 -51 120q-52 46 -116 46q-77 0 -127 -63q-44 -55 -44 -125q0 -65 62 -156q42 -61 61 -93z" />
    <glyph glyph-name="quotesingle" unicode="'" horiz-adv-x="503" vert-adv-y="2457" 
d="M213 965l-11 330q0 44 7 53q12 17 38 17q44 0 44 -48v-22l-11 -330q-1 -37 -8.5 -51.5t-25.5 -14.5q-17 0 -24.5 14.5t-8.5 51.5z" />
    <glyph glyph-name="parenleft" unicode="(" horiz-adv-x="552" vert-adv-y="2457" 
d="M353 1498q9 0 19 -13.5t10 -25.5q0 -10 -8 -37q-48 -154 -79.5 -394.5t-31.5 -444.5q0 -243 38 -483q39 -247 73 -357q8 -27 8 -37q0 -12 -10 -25.5t-19 -13.5q-34 0 -46 20q-20 32 -66 251q-63 307 -63 647q0 220 32 457t85 409q9 29 20 38t38 9z" />
    <glyph glyph-name="parenright" unicode=")" horiz-adv-x="552" vert-adv-y="2457" 
d="M199 1498q33 2 46 -20q20 -31 66 -251q63 -306 63 -647q0 -221 -32 -455.5t-85 -409.5q-9 -29 -20 -38t-38 -9q-9 0 -19 13t-10 25q0 14 8 38q39 109 83 418q28 200 28 417q0 246 -38 487q-39 246 -73 356q-8 27 -8 37q0 13 9.5 25.5t19.5 13.5z" />
    <glyph glyph-name="asterisk" unicode="*" vert-adv-y="2457" 
d="M523 1221l-5 203l-1 22q0 48 43 48q24 0 33.5 -13t9.5 -45v-12l-5 -203l192 68q32 11 43 11q15 0 27 -14t12 -32t-10.5 -27t-45.5 -19l-195 -58l124 -162q25 -33 25 -46q0 -17 -13.5 -30.5t-31.5 -13.5q-14 0 -22 6.5t-27 33.5l-116 168l-116 -168q-17 -25 -26 -32.5
t-23 -7.5q-18 0 -31 13.5t-13 31.5q0 12 25 45l124 162l-196 58q-34 10 -44.5 19t-10.5 27t12 32t28 14q9 0 42 -11z" />
    <glyph glyph-name="plus" unicode="+" vert-adv-y="2457" 
d="M519 737v380q0 39 9 53.5t32 14.5t32 -14.5t9 -53.5v-380h386q40 0 54.5 -9t14.5 -32t-14.5 -32t-54.5 -9h-386v-380q0 -39 -9 -53.5t-32 -14.5t-32 14.5t-9 53.5v380h-386q-40 0 -54.5 8.5t-14.5 32.5t14.5 32.5t54.5 8.5h386z" />
    <glyph glyph-name="comma" unicode="," horiz-adv-x="415" vert-adv-y="2457" 
d="M259 43l-104 -280q-11 -32 -20 -42t-25 -10q-9 0 -16 10t-7 21q0 9 9 40l85 286q10 35 19 45.5t28 10.5q17 0 30 -12t13 -27q0 -10 -12 -42z" />
    <glyph glyph-name="hyphen" unicode="-" horiz-adv-x="344" vert-adv-y="2457" 
d="M68 464h208q39 0 53.5 -9t14.5 -32t-14.5 -32t-53.5 -9h-208q-39 0 -53.5 9t-14.5 32t14.5 32t53.5 9z" />
    <glyph glyph-name="hyphen" unicode="&#x2011;" horiz-adv-x="344" vert-adv-y="2457" 
d="M68 464h208q39 0 53.5 -9t14.5 -32t-14.5 -32t-53.5 -9h-208q-39 0 -53.5 9t-14.5 32t14.5 32t53.5 9z" />
    <glyph glyph-name="hyphen" unicode="&#xad;" horiz-adv-x="344" vert-adv-y="2457" 
d="M68 464h208q39 0 53.5 -9t14.5 -32t-14.5 -32t-53.5 -9h-208q-39 0 -53.5 9t-14.5 32t14.5 32t53.5 9z" />
    <glyph glyph-name="period" unicode="." horiz-adv-x="416" vert-adv-y="2457" 
d="M208 135q31 0 53 -21.5t22 -52.5t-22 -53t-53 -22t-53 22t-22 53q0 30 22 52t53 22z" />
    <glyph glyph-name="slash" unicode="/" horiz-adv-x="1113" vert-adv-y="2457" 
d="M1096 1454l-998 -1777q-23 -40 -44 -40q-14 0 -25.5 10t-11.5 22q0 14 17 44l999 1776q23 40 44 40q13 0 24.5 -10t11.5 -22q0 -14 -17 -43z" />
    <glyph glyph-name="zero" unicode="0" vert-adv-y="2457" 
d="M566 1381q141 0 263 -110q120 -110 181 -290q45 -136 45 -292q0 -294 -146 -503q-67 -98 -173 -157q-86 -48 -176 -48q-147 0 -277 121q-108 101 -167 267q-52 147 -52 317q0 131 38.5 261t107.5 227q64 93 156 150q91 57 200 57zM560 1298q-113 0 -212 -90
q-92 -84 -144 -231q-50 -141 -50 -312q0 -236 112 -414q52 -83 129 -136q76 -51 168 -51q161 0 278 175q125 188 125 439q0 243 -105 420q-59 97 -150 156q-70 44 -151 44z" />
    <glyph glyph-name="one" unicode="1" horiz-adv-x="1117" vert-adv-y="2457" 
d="M553 1283h-121q-36 0 -47 5q-23 12 -23 37q0 19 22 34q9 6 48 6h141q46 0 57.5 -11.5t11.5 -56.5v-1229q0 -41 -8 -51q-13 -17 -37 -17q-44 0 -44 50v18v1215z" />
    <glyph glyph-name="two" unicode="2" vert-adv-y="2457" 
d="M317 82h579q40 0 54.5 -9t14.5 -32t-14.5 -32t-54.5 -9h-652q-38 0 -53 9t-15 32q0 16 29 48l443 488q131 144 182 235t51 181q0 138 -106 227q-94 78 -216 78q-138 0 -232 -94q-73 -72 -79 -179q-3 -46 -46 -46q-45 0 -45 47q0 125 90 220q60 63 145 99t172 36
q174 0 298 -124q109 -110 109 -270q0 -78 -27.5 -148t-91.5 -154q-50 -66 -177 -204z" />
    <glyph glyph-name="three" unicode="3" vert-adv-y="2457" 
d="M710 713q75 -31 124 -81q100 -103 100 -254q0 -183 -131 -296q-118 -101 -271 -101q-103 0 -193.5 48.5t-137.5 129.5q-41 71 -41 132q0 45 43 45q23 0 31.5 -12.5t23.5 -68.5q20 -77 92 -129q87 -62 184 -62q126 0 223 97q87 88 87 217q0 114 -72 194q-57 61 -122 79
q-6 2 -78 12q-35 4 -35 44q0 42 52 47q102 10 177 104q59 73 59 170q0 131 -97 213q-67 57 -169 57q-110 0 -184 -65q-65 -57 -77 -147q-6 -46 -44 -46q-15 0 -26.5 12.5t-11.5 29.5q0 70 42 141q94 158 296 158q163 0 265 -110q96 -104 96 -244q0 -104 -52 -184t-153 -130z
" />
    <glyph glyph-name="four" unicode="4" vert-adv-y="2457" 
d="M844 341h124q40 0 54.5 -9t14.5 -32q0 -24 -14.5 -32.5t-54.5 -8.5h-124v-191q0 -41 -8 -51q-13 -17 -36 -17q-25 0 -34 14t-9 54v191h-627q-37 0 -49 6q-20 10 -20 32q0 16 24 49l669 939q28 39 49 39q23 0 32 -15t9 -53v-915zM757 341v803l-572 -803h572z" />
    <glyph glyph-name="five" unicode="5" vert-adv-y="2457" 
d="M504 1283l-114 -368q53 14 101 14q198 0 331 -134q135 -135 135 -335q0 -227 -170 -368q-135 -111 -320 -111q-160 0 -291 98q-91 68 -91 111q0 16 12 28t28 12q21 0 37 -21q55 -67 137 -106t170 -39q179 0 296 128q102 111 102 266q0 180 -133 293q-110 95 -275 95
q-40 0 -57.5 -4t-56.5 -21q-8 -3 -18 -3q-16 0 -27.5 11.5t-11.5 27.5q0 10 9 40l127 413q12 40 22.5 47.5t52.5 7.5h393q39 0 53.5 -9t14.5 -32t-14.5 -32t-53.5 -9h-388z" />
    <glyph glyph-name="six" unicode="6" vert-adv-y="2457" 
d="M383 901q98 37 183 37q199 0 334 -139q142 -145 142 -339q0 -121 -62 -232q-67 -120 -180 -184q-109 -63 -242 -63q-218 0 -359 156q-125 138 -125 326q0 155 87 279l413 583q28 40 49 40q18 0 32 -14t14 -32q0 -11 -24 -44zM559 855q-164 0 -279 -116
q-116 -116 -116 -279q0 -164 116 -280q115 -116 279 -116t278 116q116 117 116 285q0 73 -31.5 147.5t-84.5 126.5q-117 116 -278 116z" />
    <glyph glyph-name="seven" unicode="7" vert-adv-y="2457" 
d="M956 1283h-762q-39 0 -53.5 9t-14.5 32t14.5 32t53.5 9h816q68 0 68 -38q0 -16 -23 -49l-875 -1236q-19 -26 -27 -32.5t-22 -6.5q-18 0 -30.5 13t-12.5 31q0 12 23 44z" />
    <glyph glyph-name="eight" unicode="8" vert-adv-y="2457" 
d="M387 709q-189 109 -189 314q0 154 112 262q100 96 253 96q166 0 272 -113q95 -102 95 -242q0 -120 -83 -222q-47 -58 -116 -95q225 -106 225 -340q0 -185 -138 -296q-114 -92 -259 -92q-111 0 -208 57q-186 108 -186 324q0 119 54 203.5t168 143.5zM564 1298
q-115 0 -195 -81q-81 -81 -81 -197q0 -110 81 -192q80 -81 194 -81q115 0 195 81q81 81 81 195q0 116 -81 195q-82 80 -194 80zM560 669q-128 0 -217 -89t-89 -217q0 -120 89 -210q89 -89 217 -89q127 0 216 89t89 213q0 128 -89 214q-92 89 -216 89z" />
    <glyph glyph-name="nine" unicode="9" vert-adv-y="2457" 
d="M737 465q-100 -35 -182 -35q-199 0 -335 138q-142 145 -142 337q0 121 63 231q66 119 179 183q109 62 242 62q218 0 359 -155q125 -137 125 -324q0 -154 -87 -277l-413 -585q-18 -27 -26.5 -33.5t-23.5 -6.5q-17 0 -31 14t-14 32q0 11 24 45zM562 1298q-165 0 -279 -115
q-116 -117 -116 -283q0 -72 31 -145t85 -127q114 -116 279 -116q164 0 280 116q115 115 115 277q0 165 -115 278q-119 115 -280 115z" />
    <glyph glyph-name="colon" unicode=":" horiz-adv-x="416" vert-adv-y="2457" 
d="M208 135q31 0 53 -21.5t22 -52.5t-22 -53t-53 -22t-53 22t-22 53q0 30 22 52t53 22zM208 854q31 0 53 -21.5t22 -52.5t-22 -53t-53 -22t-53 22t-22 53q0 30 22 52t53 22z" />
    <glyph glyph-name="semicolon" unicode=";" horiz-adv-x="415" vert-adv-y="2457" 
d="M259 43l-104 -280q-11 -32 -20 -42t-25 -10q-9 0 -16 10t-7 21q0 9 9 40l85 286q10 35 19 45.5t28 10.5q17 0 30 -12t13 -27q0 -10 -12 -42zM215 854q31 0 53 -21.5t22 -52.5t-22 -53t-53 -22q-30 0 -52 22t-22 53t22 52.5t52 21.5z" />
    <glyph glyph-name="less" unicode="&#x3c;" horiz-adv-x="1024" vert-adv-y="2457" 
d="M165 686l758 -333q32 -15 32 -42q0 -15 -11.5 -27.5t-25.5 -12.5q-12 0 -28 7l-772 345q-50 22 -50 63q0 40 50 63l772 344q15 7 28 7q14 0 25.5 -12.5t11.5 -27.5q0 -27 -32 -41z" />
    <glyph glyph-name="equal" unicode="=" vert-adv-y="2457" 
d="M132 847h855q39 0 53.5 -9t14.5 -32q0 -24 -14.5 -32.5t-53.5 -8.5h-855q-39 0 -53.5 9t-14.5 32t14.5 32t53.5 9zM132 628h855q39 0 53.5 -8.5t14.5 -32.5t-14.5 -32.5t-53.5 -8.5h-855q-39 0 -53.5 9t-14.5 32t14.5 32t53.5 9z" />
    <glyph glyph-name="greater" unicode="&#x3e;" horiz-adv-x="1024" vert-adv-y="2457" 
d="M858 686l-756 333q-33 14 -33 41q0 15 11.5 27.5t26.5 12.5q12 0 28 -7l771 -345q50 -22 50 -62q0 -41 -50 -63l-771 -345q-16 -7 -28 -7q-15 0 -26.5 12.5t-11.5 27.5q0 27 33 42z" />
    <glyph glyph-name="question" unicode="?" horiz-adv-x="952" vert-adv-y="2457" 
d="M710 525q42 0 42 -47q0 -104 -81 -180q-76 -72 -196 -72q-134 0 -213 91q-71 81 -71 189q0 107 63 174.5t195 103.5q101 27 132 39t59 36q74 62 74 183q0 105 -63 174q-73 79 -179 79q-102 0 -169.5 -69t-67.5 -174q0 -12 1 -23q3 -21 3 -31q0 -15 -12 -26.5t-27 -11.5
q-50 0 -50 92q0 163 107 250q92 75 219 75q164 0 257 -120q68 -89 68 -209q0 -126 -71 -217q-53 -66 -160 -100q-13 -4 -125 -34q-166 -44 -166 -194q0 -89 65 -148q55 -50 131 -50q57 0 103.5 29t70.5 79q10 21 18 77q6 35 43 35zM472 136q31 0 52.5 -22t21.5 -53t-22 -53
t-52 -22q-31 0 -53 22t-22 54q0 30 22 52t53 22z" />
    <glyph glyph-name="at" unicode="@" horiz-adv-x="1573" vert-adv-y="2457" 
d="M1008 464q-61 -70 -104 -97q-73 -46 -165 -46q-140 0 -231 94q-91 95 -91 243q0 178 116 293q101 99 247 99q92 0 154.5 -36t122.5 -124l10 79q4 38 13 51t31 13q16 0 27.5 -12t11.5 -30q0 -8 -3 -31l-46 -385l-17 -109q0 -29 22 -48.5t55 -19.5q73 0 137 78
q43 52 69 133.5t26 165.5q0 241 -169 390q-86 77 -208 115q-97 31 -199 31q-269 0 -453 -184q-181 -181 -181 -444q0 -250 161 -429q182 -201 505 -201q210 0 372 81q34 17 55 17q14 0 25 -11t11 -25q0 -26 -40 -44q-197 -90 -453 -90q-203 0 -370 96q-153 87 -245 242
q-98 166 -98 365q0 195 95 357q89 152 246 244q169 99 372 99q199 0 359 -95q134 -80 209 -209q80 -136 80 -295q0 -106 -36.5 -206t-99.5 -168q-80 -86 -188 -86q-56 0 -96 35.5t-40 84.5q0 8 1 19zM790 973q-121 0 -204 -86q-85 -88 -85 -223q0 -115 68 -189
q70 -77 176 -77q121 0 207 97q87 97 87 232q0 108 -71 176q-74 70 -178 70z" />
    <glyph glyph-name="A" unicode="A" horiz-adv-x="1197" vert-adv-y="2457" 
d="M890 449h-582l-160 -398q-14 -34 -24.5 -43.5t-34.5 -9.5q-14 0 -27.5 12.5t-13.5 26.5q0 12 13 45l486 1205q20 50 29.5 64t24.5 14q16 0 26 -14t30 -64l480 -1205q13 -33 13 -45q0 -14 -13.5 -26.5t-27.5 -12.5q-24 0 -34.5 9.5t-24.5 43.5zM857 531l-256 673
l-260 -673h516z" />
    <glyph glyph-name="B" unicode="B" horiz-adv-x="1091" vert-adv-y="2457" 
d="M698 725q102 -28 160 -75q124 -101 124 -271q0 -177 -138 -289q-111 -90 -287 -90h-305q-45 0 -56.5 11.5t-11.5 56.5v1229q0 45 11.5 56.5t56.5 11.5h228q189 0 285 -104q92 -99 92 -254q0 -99 -36 -163t-123 -119zM273 747h173q95 0 140.5 11t89.5 46q90 71 90 205
q0 146 -91 217q-41 31 -92.5 44t-136.5 13h-173v-536zM273 82h229q122 0 182.5 16.5t113.5 65.5q94 84 94 215q0 113 -72 192q-47 51 -124 72.5t-210 21.5h-213v-583z" />
    <glyph glyph-name="C" unicode="C" horiz-adv-x="1386" vert-adv-y="2457" 
d="M1241 213q15 0 25.5 -12t10.5 -29q0 -20 -10 -30q-31 -33 -139 -89q-145 -76 -302 -76q-166 0 -318 76q-207 103 -315 298q-84 153 -84 328q0 176 87 334q97 177 274 278q164 93 349 93q113 0 228 -40.5t197 -109.5q34 -28 34 -52q0 -17 -11.5 -32t-23.5 -15
q-10 0 -104 69q-55 41 -150 69t-178 28q-151 0 -294 -83q-159 -93 -244 -253q-73 -137 -73 -300q0 -141 69 -270q89 -167 272 -263q137 -72 273 -72q140 0 299 78q21 10 77 50q34 25 51 25z" />
    <glyph glyph-name="D" unicode="D" horiz-adv-x="1264" vert-adv-y="2457" 
d="M184 68v1229q0 45 11.5 56.5t56.5 11.5h202q309 0 500 -189q201 -199 201 -493t-201 -493q-191 -190 -500 -190h-202q-45 0 -56.5 11.5t-11.5 56.5zM273 82h180q260 0 427 157q184 174 184 444q0 269 -184 443q-167 157 -427 157h-180v-1201z" />
    <glyph glyph-name="E" unicode="E" horiz-adv-x="948" vert-adv-y="2457" 
d="M273 1283v-494h483q40 0 54.5 -9t14.5 -32t-14.5 -32t-54.5 -9h-483v-625h497q39 0 53.5 -9t14.5 -32t-14.5 -32t-53.5 -9h-518q-45 0 -56.5 11.5t-11.5 56.5v1229q0 45 11.5 56.5t56.5 11.5h518q39 0 53.5 -9t14.5 -32t-14.5 -32t-53.5 -9h-497z" />
    <glyph glyph-name="F" unicode="F" horiz-adv-x="831" vert-adv-y="2457" 
d="M273 1283v-494h381q39 0 53.5 -8.5t14.5 -32.5t-14.5 -32.5t-53.5 -8.5h-381v-639q0 -41 -8 -51q-13 -17 -36 -17q-27 0 -36 14t-9 54v1229q0 45 11.5 56.5t56.5 11.5h416q39 0 53.5 -9t14.5 -32t-14.5 -32t-53.5 -9h-395z" />
    <glyph glyph-name="G" unicode="G" horiz-adv-x="1580" vert-adv-y="2457" 
d="M1376 573h-412q-38 0 -53 9t-15 32q0 24 14.5 32.5t53.5 8.5h438q39 0 53.5 -9t14.5 -32v-8q0 -241 -135 -399q-85 -99 -219 -162q-147 -68 -301 -68q-190 0 -359 100q-166 98 -258 261q-89 158 -89 339q0 194 103 364q99 163 265 255q160 88 343 88q278 0 484 -197
q91 -87 91 -121q0 -14 -14.5 -27.5t-30.5 -13.5q-13 0 -23 9.5t-57 65.5q-74 88 -201 144.5t-250 56.5q-153 0 -289 -74q-159 -87 -249 -247q-82 -145 -82 -305q0 -145 66 -274q81 -159 235 -252q148 -89 313 -89q203 0 376 129q97 73 138.5 157.5t48.5 226.5z" />
    <glyph glyph-name="H" unicode="H" horiz-adv-x="1374" vert-adv-y="2457" 
d="M273 786h827v511q0 41 8 51q13 17 37 17q26 0 35 -14t9 -54v-1229q0 -41 -8 -51q-13 -17 -36 -17q-27 0 -36 14t-9 54v636h-827v-636q0 -41 -8 -51q-13 -17 -36 -17q-27 0 -36 14t-9 54v1229q0 41 8 51q13 17 37 17q26 0 35 -14t9 -54v-511z" />
    <glyph glyph-name="I" unicode="I" horiz-adv-x="457" vert-adv-y="2457" 
d="M273 1297v-1229q0 -41 -8 -51q-13 -17 -36 -17q-27 0 -36 14t-9 54v1229q0 41 8 51q13 17 37 17q26 0 35 -14t9 -54z" />
    <glyph glyph-name="J" unicode="J" horiz-adv-x="543" vert-adv-y="2457" 
d="M358 1297v-1294q0 -131 -46 -197q-63 -92 -191 -92q-59 0 -113 26t-86 71q-18 25 -18 41q0 17 12 29t29 12q19 0 34 -18q35 -43 68.5 -60.5t77.5 -17.5q144 0 144 206v1294q0 41 8 51q13 17 37 17q26 0 35 -14t9 -54z" />
    <glyph glyph-name="K" unicode="K" horiz-adv-x="1104" vert-adv-y="2457" 
d="M273 730l610 604q23 22 30 26.5t21 4.5q18 0 30.5 -12t12.5 -29t-32 -48l-578 -569l620 -618q32 -31 32 -48t-13.5 -29.5t-32.5 -12.5q-18 0 -26 4.5t-32 28.5l-608 617l-34 -33v-548q0 -41 -8 -51q-13 -17 -36 -17q-27 0 -36 14t-9 54v1229q0 41 8 51q13 17 37 17
q26 0 35 -14t9 -54v-567z" />
    <glyph glyph-name="L" unicode="L" horiz-adv-x="646" vert-adv-y="2457" 
d="M273 82h277q39 0 53.5 -9t14.5 -32t-14.5 -32t-53.5 -9h-298q-45 0 -56.5 11.5t-11.5 56.5v1229q0 41 8 51q13 17 37 17q26 0 35 -14t9 -54v-1215z" />
    <glyph glyph-name="M" unicode="M" horiz-adv-x="1837" vert-adv-y="2457" 
d="M915 149l522 1169q21 49 48 49q22 0 31 -13t13 -51l130 -1230q2 -21 2 -32q0 -41 -45 -41q-24 0 -33.5 12.5t-13.5 50.5l-116 1096l-489 -1104q-16 -35 -25 -45t-24 -10q-16 0 -24.5 10t-24.5 45l-487 1104l-112 -1095q-4 -39 -13.5 -51.5t-33.5 -12.5q-44 0 -44 42
q0 5 3 30l128 1230q3 36 12.5 49.5t30.5 13.5q28 0 49 -48z" />
    <glyph glyph-name="N" unicode="N" horiz-adv-x="1603" vert-adv-y="2457" 
d="M1329 152v1145q0 41 8 51q13 17 36 17q27 0 36 -14t9 -54v-1230q0 -38 -9 -53t-32 -15q-19 0 -49 33l-1055 1153v-1117q0 -41 -8 -51q-13 -17 -36 -17q-27 0 -36 14t-9 54v1230q0 39 9 54t33 15q18 0 48 -33z" />
    <glyph glyph-name="O" unicode="O" horiz-adv-x="1634" vert-adv-y="2457" 
d="M817 1384q195 0 362 -102q157 -96 248 -247q98 -163 98 -354q0 -190 -98 -355q-92 -153 -248 -247q-170 -102 -367 -102q-186 0 -357 102q-157 94 -248 247q-98 166 -98 366q0 184 98 343q98 157 248 247q170 102 362 102zM812 1301q-164 0 -311 -90q-141 -87 -220 -225
q-81 -140 -81 -315q0 -155 81 -296q80 -140 220 -225q150 -90 316 -90t316 90q141 86 221 225q80 142 80 305q0 269 -200 454q-97 91 -223 134q-99 33 -199 33z" />
    <glyph glyph-name="P" unicode="P" horiz-adv-x="912" vert-adv-y="2457" 
d="M273 648v-580q0 -41 -8 -51q-13 -17 -36 -17q-27 0 -36 14t-9 54v1229q0 45 11.5 56.5t56.5 11.5h195q104 0 175 -25t124 -80q98 -102 98 -254q0 -165 -105 -263q-101 -95 -290 -95h-176zM273 730h179q141 0 224 81q77 75 77 195q0 127 -74 201q-77 76 -241 76h-165v-553
z" />
    <glyph glyph-name="Q" unicode="Q" horiz-adv-x="1634" vert-adv-y="2457" 
d="M1264 139q-212 -162 -452 -162q-191 0 -359 100q-156 93 -248 249q-96 164 -96 352q0 182 91 344q89 157 242 253q173 109 376 109q198 0 370 -105q170 -105 260 -279q77 -150 77 -318q0 -136 -46 -249t-154 -242l96 -102q30 -32 30 -48q0 -17 -13 -29t-31 -12
q-14 0 -21.5 5t-28.5 29zM1203 203l-255 266q-31 33 -31 50q0 16 15 28t34 12q13 0 20 -5t29 -29l247 -270q89 104 124 185q48 109 48 233q0 263 -180 444q-182 184 -434 184q-176 0 -329 -96q-143 -91 -221 -240q-70 -134 -70 -288q0 -271 198 -450q98 -89 222 -133
q98 -34 197 -34q198 0 386 143z" />
    <glyph glyph-name="R" unicode="R" horiz-adv-x="956" vert-adv-y="2457" 
d="M414 645l387 -558q23 -34 23 -49t-15 -26.5t-34 -11.5q-16 0 -23.5 6.5t-26.5 33.5l-412 605h-40v-577q0 -41 -8 -51q-13 -17 -36 -17q-27 0 -36 14t-9 54v1229q0 45 11.5 56.5t56.5 11.5h126q104 0 169.5 -16t119.5 -53q137 -96 137 -293q0 -223 -173 -314
q-70 -37 -217 -44zM273 726h131q141 0 218 64q92 76 92 215q0 79 -32.5 143t-88.5 94q-75 41 -208 41h-112v-557z" />
    <glyph glyph-name="S" unicode="S" horiz-adv-x="1049" vert-adv-y="2457" 
d="M539 1384q82 0 157 -33.5t130 -94.5q33 -37 33 -57q0 -18 -14 -31.5t-32 -13.5t-35 20q-35 43 -49 56q-77 71 -193 71q-123 0 -194 -87q-63 -77 -63 -172q0 -82 51 -136.5t192 -122.5q203 -97 272 -142q145 -95 145 -262q0 -183 -147 -303q-121 -99 -281 -99
q-188 0 -317 145q-29 32 -51 71t-22 58q0 17 14 30t32 13t26 -9t36 -61q37 -68 99 -108q84 -56 185 -56q137 0 236 94t99 224q0 133 -134 211q-47 27 -255 129q-159 78 -211 144q-60 74 -60 188q0 154 113 250q97 84 238 84z" />
    <glyph glyph-name="T" unicode="T" horiz-adv-x="849" vert-adv-y="2457" 
d="M467 1283v-1215q0 -41 -8 -51q-13 -17 -36 -17q-27 0 -36 14t-9 54v1215h-283q-39 0 -53.5 9t-14.5 32t14.5 32t53.5 9h659q39 0 53.5 -9t14.5 -32t-14.5 -32t-53.5 -9h-287z" />
    <glyph glyph-name="U" unicode="U" horiz-adv-x="1297" vert-adv-y="2457" 
d="M273 1297v-786q0 -126 10 -187t39 -107q45 -70 143 -116q88 -41 183 -41q135 0 247 78q78 55 103 128t25 245v786q0 41 8 51q13 17 37 17q26 0 35 -14t9 -54v-810q0 -161 -22 -227q-46 -140 -190 -219q-115 -64 -252 -64q-164 0 -292 88q-129 89 -160 230q-12 57 -12 192
v810q0 41 8 51q13 17 37 17q26 0 35 -14t9 -54z" />
    <glyph glyph-name="V" unicode="V" horiz-adv-x="1041" vert-adv-y="2457" 
d="M526 185l375 1126q12 35 22 45.5t33 10.5q15 0 28 -12.5t13 -26.5q0 -11 -11 -43l-413 -1231q-11 -34 -20 -44t-28 -10q-29 0 -47 53l-422 1232q-11 32 -11 42q0 16 13.5 28t31.5 12q23 0 33 -10.5t22 -44.5z" />
    <glyph glyph-name="W" unicode="W" horiz-adv-x="2011" vert-adv-y="2457" 
d="M499 186l445 1128q20 51 48 51q29 0 48 -52l416 -1128l407 1125q13 35 23 45t34 10q17 0 31 -12t14 -28q0 -12 -12 -43l-450 -1230q-11 -32 -20.5 -42t-26.5 -10q-18 0 -27 10t-21 42l-414 1133l-455 -1133q-21 -50 -49 -50q-18 0 -27 10.5t-20 43.5l-390 1227
q-10 31 -10 41q0 17 13.5 28.5t33.5 11.5q24 0 33.5 -10t21.5 -46z" />
    <glyph glyph-name="X" unicode="X" horiz-adv-x="947" vert-adv-y="2457" 
d="M421 697l-313 584q-18 32 -18 45q0 16 12 28t28 12q21 0 30.5 -8t26.5 -39l285 -528l282 528q17 32 26.5 40t31.5 8q16 0 28.5 -12t12.5 -28q0 -13 -18 -46l-312 -584l331 -613q17 -32 17 -45q0 -16 -12 -28t-29 -12q-21 0 -30.5 8t-25.5 39l-302 559l-300 -559
q-8 -14 -9 -17q-16 -31 -48 -31q-16 0 -28 12.5t-12 28.5q0 12 18 45z" />
    <glyph glyph-name="Y" unicode="Y" horiz-adv-x="1052" vert-adv-y="2457" 
d="M474 583l-398 697q-19 32 -19 46q0 16 13 28t30 12q20 0 29 -7.5t27 -37.5l364 -641l374 641q18 30 26 37t25 7q19 0 34 -11.5t15 -26.5q0 -14 -20 -47l-411 -697v-515q0 -41 -8 -51q-13 -17 -37 -17q-26 0 -35 14t-9 54v515z" />
    <glyph glyph-name="Z" unicode="Z" horiz-adv-x="1137" vert-adv-y="2457" 
d="M228 82h741q39 0 53.5 -9t14.5 -32t-14.5 -32t-53.5 -9h-791q-36 0 -48 6q-20 10 -20 32q0 15 21 48l778 1197h-686q-39 0 -53.5 9t-14.5 32t14.5 32t53.5 9h736q37 0 49 -6q20 -10 20 -32q0 -15 -22 -48z" />
    <glyph glyph-name="bracketleft" unicode="[" horiz-adv-x="567" vert-adv-y="2457" 
d="M266 1412v-1659h150q39 0 53.5 -8.5t14.5 -32.5q0 -23 -14.5 -31.5t-53.5 -8.5h-171q-45 0 -56.5 11.5t-11.5 57.5v1685q0 45 11.5 56.5t56.5 11.5h171q39 0 53.5 -9t14.5 -32t-14.5 -32t-53.5 -9h-150z" />
    <glyph glyph-name="backslash" unicode="\" horiz-adv-x="1113" vert-adv-y="2457" 
d="M83 1484l994 -1766q9 -17 9 -28q0 -13 -11.5 -23.5t-25.5 -10.5q-22 0 -36 26l-993 1767q-9 15 -9 27q0 13 11 23.5t25 10.5q21 0 36 -26z" />
    <glyph glyph-name="bracketright" unicode="]" horiz-adv-x="567" vert-adv-y="2457" 
d="M300 -246v1659h-150q-39 0 -53.5 8.5t-14.5 32.5q0 23 14.5 31.5t53.5 8.5h171q45 0 56.5 -11.5t11.5 -57.5v-1685q0 -45 -11.5 -56.5t-56.5 -11.5h-171q-39 0 -53.5 9t-14.5 32t14.5 32t53.5 9h150z" />
    <glyph glyph-name="asciicircum" unicode="^" horiz-adv-x="1024" vert-adv-y="2457" 
d="M510 1297l-318 -490q-17 -28 -40 -28q-17 0 -30 12.5t-13 29.5q0 13 12 32l288 444q25 39 48 54.5t55 15.5q33 0 56 -15.5t48 -54.5l286 -443q13 -19 13 -33q0 -17 -13 -29.5t-31 -12.5q-23 0 -42 28z" />
    <glyph glyph-name="underscore" unicode="_" horiz-adv-x="1024" vert-adv-y="2457" 
d="M68 -154h888q39 0 53.5 -9t14.5 -33q0 -25 -14.5 -34t-53.5 -9h-888q-39 0 -53.5 9t-14.5 34q0 24 14.5 33t53.5 9z" />
    <glyph glyph-name="grave" unicode="`" horiz-adv-x="1024" vert-adv-y="2457" 
d="M418 1215l110 -166q23 -33 23 -45q0 -15 -10.5 -25.5t-24.5 -10.5q-18 0 -47 35l-129 157q-27 32 -27 46q0 18 17.5 34t37.5 16q15 0 23.5 -7t26.5 -34z" />
    <glyph glyph-name="a" unicode="a" horiz-adv-x="1054" vert-adv-y="2457" 
d="M826 150q-44 -66 -98 -103q-103 -69 -228 -69q-191 0 -311 145q-98 119 -98 299q0 220 142 339q112 93 265 93q203 0 328 -163v77q0 39 9 53.5t32 14.5t32 -14.5t9 -53.5v-700q0 -39 -9 -53.5t-32 -14.5q-24 0 -32.5 14.5t-8.5 53.5v82zM500 778q-138 0 -238 -109
q-87 -95 -87 -253q0 -159 100 -263q94 -99 230 -99q156 0 252 125q74 96 74 247q0 173 -104 263q-101 89 -227 89z" />
    <glyph glyph-name="b" unicode="b" horiz-adv-x="1054" vert-adv-y="2457" 
d="M228 691q124 163 328 163q181 0 297 -123q110 -117 110 -309q0 -208 -129 -332q-116 -112 -279 -112q-105 0 -188.5 44t-138.5 128v-82q0 -38 -9 -53t-32 -15t-32 14.5t-9 53.5v1358q0 39 8.5 53.5t32.5 14.5t32.5 -14.5t8.5 -53.5v-735zM552 778q-144 0 -252 -115
q-77 -82 -77 -237q0 -178 103 -279q93 -93 225 -93q157 0 254 128q73 97 73 245q0 170 -113 269q-94 82 -213 82z" />
    <glyph glyph-name="c" unicode="c" horiz-adv-x="902" vert-adv-y="2457" 
d="M794 153q30 0 30 -37q0 -17 -9 -27q-26 -30 -105 -68q-91 -43 -188 -43q-135 0 -242 71q-105 70 -155 189q-34 81 -34 172q0 190 127 321q118 123 304 123q77 0 156.5 -28t122.5 -70q13 -13 13 -32q0 -15 -9 -27t-20 -12q-10 0 -26 10q-86 55 -124 69t-104 14
q-165 0 -265 -117q-90 -106 -90 -253q0 -143 98 -247q102 -107 246 -107q112 0 221 72q42 27 53 27z" />
    <glyph glyph-name="d" unicode="d" horiz-adv-x="1054" vert-adv-y="2457" 
d="M826 150q-44 -66 -98 -103q-103 -69 -228 -69q-191 0 -311 145q-98 119 -98 299q0 220 142 339q112 93 265 93q203 0 328 -163v735q0 39 8.5 53.5t32.5 14.5t32.5 -14.5t8.5 -53.5v-1358q0 -39 -9 -53.5t-32 -14.5q-24 0 -32.5 14.5t-8.5 53.5v82zM500 778
q-138 0 -238 -109q-87 -95 -87 -253q0 -159 100 -263q94 -99 230 -99q156 0 252 125q74 96 74 247q0 173 -104 263q-101 89 -227 89z" />
    <glyph glyph-name="e" unicode="e" horiz-adv-x="990" vert-adv-y="2457" 
d="M180 407q5 -116 46 -189q42 -74 119 -119q76 -45 161 -45q119 0 211 80q23 19 63 80q13 18 35 18q17 0 28.5 -12t11.5 -30q0 -23 -44 -75q-118 -137 -309 -137q-183 0 -298 126q-113 125 -113 309q0 176 105 303q115 138 303 138q146 0 250 -90q102 -87 136 -230
q11 -49 11 -79q0 -28 -14.5 -38t-54.5 -10h-647zM804 485q-15 93 -60 157q-44 63 -109 99q-67 37 -137 37q-117 0 -205 -82.5t-107 -210.5h618z" />
    <glyph glyph-name="f" unicode="f" horiz-adv-x="436" vert-adv-y="2457" 
d="M229 761v-693q0 -39 -9 -53.5t-32 -14.5t-32 14.5t-9 53.5v693h-25q-38 0 -52.5 8t-14.5 29q0 22 14.5 30t52.5 8h25v397q0 138 42 197q61 87 178 87q73 0 73 -46q0 -13 -13.5 -24t-30.5 -11q-66 0 -91 -10t-46 -46q-30 -52 -30 -164v-380h142q38 0 52.5 -8t14.5 -30
q0 -21 -14.5 -29t-52.5 -8h-142z" />
    <glyph glyph-name="g" unicode="g" horiz-adv-x="1067" vert-adv-y="2457" 
d="M839 143q-139 -164 -331 -164q-181 0 -302 141q-106 124 -106 297q0 189 125 316q119 121 296 121q99 0 171.5 -37.5t146.5 -126.5v78v18q0 50 41 50q23 0 32 -14.5t9 -53.5v-751q0 -126 -20 -202t-70 -141q-119 -152 -331 -152q-169 0 -283 96q-49 42 -83 104.5
t-34 111.5q0 20 12 33.5t30 13.5q28 0 39 -46q27 -109 106 -170q89 -67 215 -67q175 0 263 126q74 105 74 293v126zM509 777q-154 0 -253 -133q-71 -96 -71 -236q0 -142 83 -240q94 -113 241 -113q154 0 257 121q78 92 78 245q0 166 -102 260q-103 96 -233 96z" />
    <glyph glyph-name="h" unicode="h" horiz-adv-x="902" vert-adv-y="2457" 
d="M228 706q39 60 75 88q76 60 180 60q100 0 176 -56q53 -40 75 -101.5t22 -170.5v-458q0 -39 -9 -53.5t-32 -14.5q-24 0 -32.5 14.5t-8.5 53.5v458q0 120 -30 171q-22 37 -68.5 59t-102.5 22q-136 0 -201 -114q-25 -44 -34.5 -94t-9.5 -135v-367q0 -39 -9 -53.5t-32 -14.5
t-32 14.5t-9 53.5v1358q0 39 8.5 53.5t32.5 14.5t32.5 -14.5t8.5 -53.5v-720z" />
    <glyph glyph-name="i" unicode="i" horiz-adv-x="374" vert-adv-y="2457" 
d="M228 768v-700q0 -39 -9 -53.5t-32 -14.5t-32 14.5t-9 53.5v700q0 39 9 53.5t32 14.5t32 -14.5t9 -53.5zM186 1189q31 0 52.5 -21.5t21.5 -53.5q0 -31 -21.5 -53t-51.5 -22q-31 0 -52.5 22t-21.5 54q0 30 21.5 52t51.5 22z" />
    <glyph glyph-name="j" unicode="j" horiz-adv-x="374" vert-adv-y="2457" 
d="M229 768v-1189q0 -39 -9 -53.5t-32 -14.5t-32 14.5t-9 53.5v1189q0 39 9 53.5t32 14.5t32 -14.5t9 -53.5zM187 1189q31 0 52.5 -21.5t21.5 -53.5q0 -31 -21.5 -53t-51.5 -22q-31 0 -52.5 22t-21.5 54q0 30 21.5 52t51.5 22z" />
    <glyph glyph-name="k" unicode="k" horiz-adv-x="812" vert-adv-y="2457" 
d="M228 482l310 322l13 13q17 19 33 19q15 0 27 -11.5t12 -26.5q0 -18 -32 -51l-265 -273l381 -385q32 -32 32 -51q0 -14 -13 -26t-28 -12q-16 0 -47 31l-380 383l-43 -43v-303q0 -39 -9 -53.5t-32 -14.5t-32 14.5t-9 53.5v1358q0 39 8.5 53.5t32.5 14.5t32.5 -14.5
t8.5 -53.5v-944z" />
    <glyph glyph-name="l" unicode="l" horiz-adv-x="374" vert-adv-y="2457" 
d="M228 1425v-1357q0 -39 -9 -53.5t-32 -14.5t-32 14.5t-9 53.5v1357q0 40 8.5 54.5t32.5 14.5t32.5 -14.5t8.5 -54.5z" />
    <glyph glyph-name="m" unicode="m" horiz-adv-x="1327" vert-adv-y="2457" 
d="M228 731q75 123 216 123q158 0 233 -152q33 65 72 96q72 56 173 56q136 0 207 -91q30 -38 41 -84.5t11 -131.5v-479q0 -39 -9 -53.5t-32 -14.5t-32 14.5t-9 53.5v490q0 65 -7.5 97t-29.5 60q-48 62 -143 62q-103 0 -157.5 -70t-54.5 -203v-436q0 -39 -9 -53.5t-32 -14.5
q-24 0 -32.5 14.5t-8.5 53.5v470q0 97 -30 151q-49 89 -155 89q-55 0 -104 -30t-73 -78q-35 -70 -35 -187v-415q0 -39 -9 -53.5t-32 -14.5t-32 14.5t-9 53.5v700q0 39 9 53.5t32 14.5t32 -14.5t9 -53.5v-37z" />
    <glyph glyph-name="n" unicode="n" horiz-adv-x="901" vert-adv-y="2457" 
d="M228 706q39 60 75 88q75 60 179 60q101 0 176 -56q53 -40 75 -101t22 -170v-459q0 -39 -9 -53.5t-32 -14.5t-32 14.5t-9 53.5v459q0 119 -30 170q-48 81 -171 81q-135 0 -200 -114q-25 -44 -34.5 -93.5t-9.5 -135.5v-367q0 -39 -9 -53.5t-32 -14.5t-32 14.5t-9 53.5v700
q0 39 9 53.5t32 14.5t32 -14.5t9 -53.5v-62z" />
    <glyph glyph-name="o" unicode="o" horiz-adv-x="1058" vert-adv-y="2457" 
d="M530 854q186 0 317 -135q119 -122 119 -303q0 -208 -153 -335q-124 -103 -287 -103q-119 0 -225 64q-107 64 -162 172q-48 93 -48 209q0 180 134 309q128 122 305 122zM522 778q-160 0 -264 -127q-82 -101 -82 -241q0 -149 106 -255q100 -101 243 -101q168 0 277 130
q79 96 79 232q0 159 -107 261q-106 101 -252 101z" />
    <glyph glyph-name="p" unicode="p" horiz-adv-x="1054" vert-adv-y="2457" 
d="M228 686q44 65 98 100q103 68 228 68q191 0 311 -144q98 -119 98 -299q0 -220 -142 -339q-112 -94 -264 -94q-204 0 -329 167v-566q0 -39 -9 -53.5t-32 -14.5t-32 14.5t-9 53.5v1189q0 39 9 53.5t32 14.5t32 -14.5t9 -53.5v-82zM549 778q-154 0 -251 -124
q-75 -96 -75 -246q0 -173 104 -265q102 -89 227 -89q140 0 239 109q86 95 86 255q0 158 -99 262q-94 98 -231 98z" />
    <glyph glyph-name="q" unicode="q" horiz-adv-x="1054" vert-adv-y="2457" 
d="M826 145q-125 -167 -329 -167q-179 0 -296 124q-110 117 -110 309q0 209 129 332q116 111 280 111q104 0 187 -43t139 -125v82q0 39 9 53.5t32 14.5t32 -14.5t9 -53.5v-1189q0 -39 -9 -53.5t-32 -14.5t-32 14.5t-9 53.5v566zM503 778q-155 0 -253 -128q-74 -96 -74 -244
q0 -170 113 -269q95 -83 213 -83q146 0 252 115q77 84 77 239q0 175 -103 278q-93 92 -225 92z" />
    <glyph glyph-name="r" unicode="r" horiz-adv-x="532" vert-adv-y="2457" 
d="M228 727q65 127 190 127q63 0 63 -48q0 -14 -10 -24t-23 -10q-4 0 -23 5q-11 2 -24 2q-75 0 -128 -69q-27 -36 -36 -86.5t-9 -174.5v-381q0 -39 -9 -53.5t-32 -14.5t-32 14.5t-9 53.5v700q0 39 9 53.5t32 14.5t32 -14.5t9 -53.5v-41z" />
    <glyph glyph-name="s" unicode="s" horiz-adv-x="700" vert-adv-y="2457" 
d="M138 215q16 0 23.5 -7.5t22.5 -37.5q58 -116 180 -116q90 0 144 66q43 53 43 119q0 64 -34.5 100.5t-125.5 69.5q-137 50 -191 101t-54 130q0 100 77 162q66 52 148 52q66 0 133 -41t67 -82q0 -15 -9.5 -26t-21.5 -11t-28 16q-65 68 -135 68q-61 0 -103.5 -39.5
t-42.5 -97.5q0 -47 36 -79t127 -67q118 -44 160 -75q82 -62 82 -177q0 -130 -91 -204q-76 -61 -180 -61q-142 0 -224 105q-45 58 -45 97q0 14 12.5 24.5t29.5 10.5z" />
    <glyph glyph-name="t" unicode="t" horiz-adv-x="398" vert-adv-y="2457" 
d="M236 761v-693q0 -39 -9 -53.5t-32 -14.5t-32 14.5t-9 53.5v693h-25q-38 0 -52.5 8t-14.5 29q0 22 14.5 30t52.5 8h25v231q0 39 9 53.5t32 14.5t32 -14.5t9 -53.5v-231h78q38 0 52.5 -8t14.5 -30q0 -21 -14.5 -29t-52.5 -8h-78z" />
    <glyph glyph-name="u" unicode="u" horiz-adv-x="893" vert-adv-y="2457" 
d="M228 768v-430q0 -131 28 -184q23 -45 75.5 -72.5t115.5 -27.5q62 0 114.5 27.5t75.5 72.5q28 53 28 184v430q0 39 9 53.5t32 14.5q24 0 32.5 -14.5t8.5 -53.5v-459q0 -88 -13 -137.5t-48 -90.5q-86 -103 -239 -103q-154 0 -241 103q-34 40 -47 90t-13 138v459
q0 39 9 53.5t32 14.5t32 -14.5t9 -53.5z" />
    <glyph glyph-name="v" unicode="v" horiz-adv-x="800" vert-adv-y="2457" 
d="M402 149l267 637q14 33 23.5 42t29.5 9q16 0 28 -12t12 -28q0 -11 -14 -43l-298 -704q-21 -50 -49 -50q-27 0 -48 50l-301 704q-14 32 -14 43q0 16 12.5 28t28.5 12q21 0 31 -9t24 -42z" />
    <glyph glyph-name="w" unicode="w" horiz-adv-x="1376" vert-adv-y="2457" 
d="M395 150l241 632q20 51 48 51q29 0 48 -51l241 -632l270 636q15 33 24.5 42t29.5 9q16 0 29 -11.5t13 -26.5q0 -13 -15 -45l-301 -704q-21 -50 -48 -50q-29 0 -48 51l-243 639l-242 -638q-20 -51 -48 -51t-49 50l-293 703q-14 33 -14 45q0 14 13 26t29 12q20 0 29.5 -9
t23.5 -42z" />
    <glyph glyph-name="x" unicode="x" horiz-adv-x="820" vert-adv-y="2457" 
d="M357 438l-243 310q-26 33 -26 49q0 15 14 26t33 11q15 0 21.5 -5t26.5 -31l228 -296l224 296q29 37 47 37q19 0 34 -12t15 -26q0 -15 -26 -49l-237 -310l268 -350q26 -34 26 -49t-15 -26.5t-33 -11.5q-16 0 -45 37l-258 337l-257 -337q-20 -26 -28 -32t-23 -6
q-19 0 -32 11.5t-13 28.5q0 15 26 48z" />
    <glyph glyph-name="y" unicode="y" horiz-adv-x="877" vert-adv-y="2457" 
d="M412 -14l-357 767q-15 32 -15 45q0 16 13 27.5t29 11.5q20 0 28.5 -8.5t24.5 -41.5l320 -693l290 692q14 33 23 42t28 9q17 0 30 -12t13 -27q0 -13 -13 -44l-505 -1193q-5 -13 -7 -17q-14 -34 -43 -34q-16 0 -29 11.5t-13 26.5q0 12 14 45z" />
    <glyph glyph-name="z" unicode="z" horiz-adv-x="927" vert-adv-y="2457" 
d="M213 75h604q39 0 53.5 -8t14.5 -29q0 -22 -14.5 -30t-53.5 -8h-661q-39 0 -54 9t-15 32q0 15 29 47l603 673h-505q-38 0 -52.5 8t-14.5 29q0 22 14.5 30t52.5 8h557q39 0 54 -9t15 -32q0 -15 -29 -47z" />
    <glyph glyph-name="braceleft" unicode="{" horiz-adv-x="575" vert-adv-y="2457" 
d="M178 566l22 -12q53 -30 69 -42.5t32 -39.5q31 -50 31 -148v-371q0 -89 13.5 -130.5t49.5 -61.5q38 -21 96 -20q3 0 3 -9v-56q0 -7 -2 -8t-14 -1q-133 0 -182 54q-58 63 -58 220v378q0 90 -25 136.5t-88 73.5q-4 2 -4 12v59q0 11 4 12q56 15 84.5 66t28.5 134v401
q0 137 53 195.5t177 58.5h15q4 -1 6 -1q5 1 5 -9v-64q-10 -2 -22 -2q-76 0 -108 -46.5t-32 -157.5v-384q0 -117 -42 -166q-19 -22 -90 -59z" />
    <glyph glyph-name="bar" unicode="|" horiz-adv-x="1024" vert-adv-y="2457" 
d="M557 1311v-1598q0 -55 -44 -55q-45 0 -45 55v1598q0 54 44 54q45 0 45 -54z" />
    <glyph glyph-name="braceright" unicode="}" horiz-adv-x="575" vert-adv-y="2457" 
d="M396 567l-22 12q-53 30 -69 42.5t-32 39.5q-31 50 -31 148v371q0 89 -13.5 130.5t-49.5 61.5q-38 21 -96 20q-3 0 -3 9v56q0 7 2 8t14 1q133 0 182 -54q58 -63 58 -220v-378q0 -90 25 -136.5t88 -73.5q4 -2 4 -12v-59q0 -11 -4 -12q-56 -15 -84.5 -66t-28.5 -134v-401
q0 -137 -53 -195.5t-177 -58.5q-10 0 -15 1h-6q-5 -1 -5 9v64q10 2 22 2q76 0 108 46.5t32 157.5v384q0 117 42 165q19 23 90 60z" />
    <glyph glyph-name="asciitilde" unicode="~" horiz-adv-x="1365" vert-adv-y="2457" 
d="M462 1463q80 0 235 -79q86 -43 129 -57.5t85 -14.5q104 0 181 121q13 21 33 21q34 0 34 -34q0 -20 -49 -85q-83 -111 -202 -111q-51 0 -103 18.5t-169 76.5q-112 57 -187 57q-99 0 -177 -128q-12 -19 -31 -19q-14 0 -24 10.5t-10 24.5q0 23 50 89q81 110 205 110z" />
    <glyph glyph-name="Adieresis" unicode="&#xc4;" horiz-adv-x="1197" vert-adv-y="2457" 
d="M890 449h-582l-160 -398q-14 -34 -24.5 -43.5t-34.5 -9.5q-14 0 -27.5 12.5t-13.5 26.5q0 12 13 45l486 1205q20 50 29.5 64t24.5 14q16 0 26 -14t30 -64l480 -1205q13 -33 13 -45q0 -14 -13.5 -26.5t-27.5 -12.5q-24 0 -34.5 9.5t-24.5 43.5zM857 531l-256 673
l-260 -673h516zM409 1675q32 0 55 -23t23 -55q0 -33 -23 -56t-55 -23q-33 0 -56 23t-23 57q0 31 23 54t56 23zM790 1675q32 0 55 -23t23 -55q0 -33 -23 -56t-55 -23q-33 0 -56 23t-23 57q0 31 23 54t56 23z" />
    <glyph glyph-name="Aring" unicode="&#xc5;" horiz-adv-x="1197" vert-adv-y="2457" 
d="M890 449h-582l-160 -398q-14 -34 -24.5 -43.5t-34.5 -9.5q-14 0 -27.5 12.5t-13.5 26.5q0 12 13 45l486 1205q20 50 29.5 64t24.5 14q16 0 26 -14t30 -64l480 -1205q13 -33 13 -45q0 -14 -13.5 -26.5t-27.5 -12.5q-24 0 -34.5 9.5t-24.5 43.5zM857 531l-256 673
l-260 -673h516zM599 1775q68 0 116 -48t48 -116t-48 -116t-116 -48t-116 48.5t-48 117.5q0 66 48.5 114t115.5 48zM599 1694q-36 0 -60.5 -24.5t-24.5 -60.5q0 -34 25 -58.5t60 -24.5t60 24.5t25 59.5t-25 59.5t-60 24.5z" />
    <glyph glyph-name="Ccedilla" unicode="&#xc7;" horiz-adv-x="1386" vert-adv-y="2457" 
d="M1241 213q15 0 25.5 -12t10.5 -29q0 -20 -10 -30q-31 -33 -139 -89q-145 -76 -302 -76q-166 0 -318 76q-207 103 -315 298q-84 153 -84 328q0 176 87 334q97 177 274 278q164 93 349 93q113 0 228 -40.5t197 -109.5q34 -28 34 -52q0 -17 -11.5 -32t-23.5 -15
q-10 0 -104 69q-55 41 -150 69t-178 28q-151 0 -294 -83q-159 -93 -244 -253q-73 -137 -73 -300q0 -141 69 -270q89 -167 272 -263q137 -72 273 -72q140 0 299 78q21 10 77 50q34 25 51 25zM856 -220l-128 -151q-30 -35 -48 -35q-19 0 -32 13t-13 31q0 11 22 44l105 160
q29 44 54 44t46.5 -19.5t21.5 -40.5q0 -14 -28 -46z" />
    <glyph glyph-name="Eacute" unicode="&#xc9;" horiz-adv-x="948" vert-adv-y="2457" 
d="M273 1283v-494h483q40 0 54.5 -9t14.5 -32t-14.5 -32t-54.5 -9h-483v-625h497q39 0 53.5 -9t14.5 -32t-14.5 -32t-53.5 -9h-518q-45 0 -56.5 11.5t-11.5 56.5v1229q0 45 11.5 56.5t56.5 11.5h518q39 0 53.5 -9t14.5 -32t-14.5 -32t-53.5 -9h-497zM633 1619l-164 -123
q-11 -8 -15 -11q-18 -14 -31 -14q-20 0 -34 14t-14 32t34 48l147 132q32 28 55 28t41.5 -17t18.5 -38q0 -22 -38 -51z" />
    <glyph glyph-name="Ntilde" unicode="&#xd1;" horiz-adv-x="1603" vert-adv-y="2457" 
d="M1329 152v1145q0 41 8 51q13 17 36 17q27 0 36 -14t9 -54v-1230q0 -38 -9 -53t-32 -15q-19 0 -49 33l-1055 1153v-1117q0 -41 -8 -51q-13 -17 -36 -17q-27 0 -36 14t-9 54v1230q0 39 9 54t33 15q18 0 48 -33zM688 1637q37 0 119 -36q86 -37 120 -37q31 0 52 29
q22 30 43 30q36 0 36 -38t-47 -74.5t-96 -36.5q-29 0 -115 36q-90 37 -125 37q-36 0 -70 -46q-8 -10 -24 -10q-34 0 -34 37q0 24 31 57q47 52 110 52z" />
    <glyph glyph-name="Odieresis" unicode="&#xd6;" horiz-adv-x="1634" vert-adv-y="2457" 
d="M817 1384q195 0 362 -102q157 -96 248 -247q98 -163 98 -354q0 -190 -98 -355q-92 -153 -248 -247q-170 -102 -367 -102q-186 0 -357 102q-157 94 -248 247q-98 166 -98 366q0 184 98 343q98 157 248 247q170 102 362 102zM812 1301q-164 0 -311 -90q-141 -87 -220 -225
q-81 -140 -81 -315q0 -155 81 -296q80 -140 220 -225q150 -90 316 -90t316 90q141 86 221 225q80 142 80 305q0 269 -200 454q-97 91 -223 134q-99 33 -199 33zM627 1675q32 0 55 -23t23 -55q0 -33 -23 -56t-55 -23q-33 0 -56 23t-23 57q0 31 23 54t56 23zM1008 1675
q32 0 55 -23t23 -55q0 -33 -23 -56t-55 -23q-33 0 -56 23t-23 57q0 31 23 54t56 23z" />
    <glyph glyph-name="Udieresis" unicode="&#xdc;" horiz-adv-x="1297" vert-adv-y="2457" 
d="M273 1297v-786q0 -126 10 -187t39 -107q45 -70 143 -116q88 -41 183 -41q135 0 247 78q78 55 103 128t25 245v786q0 41 8 51q13 17 37 17q26 0 35 -14t9 -54v-810q0 -161 -22 -227q-46 -140 -190 -219q-115 -64 -252 -64q-164 0 -292 88q-129 89 -160 230q-12 57 -12 192
v810q0 41 8 51q13 17 37 17q26 0 35 -14t9 -54zM458 1675q32 0 55 -23t23 -55q0 -33 -23 -56t-55 -23q-33 0 -56 23t-23 57q0 31 23 54t56 23zM839 1675q32 0 55 -23t23 -55q0 -33 -23 -56t-55 -23q-33 0 -56 23t-23 57q0 31 23 54t56 23z" />
    <glyph glyph-name="aacute" unicode="&#xe1;" horiz-adv-x="1054" vert-adv-y="2457" 
d="M826 150q-44 -66 -98 -103q-103 -69 -228 -69q-191 0 -311 145q-98 119 -98 299q0 220 142 339q112 93 265 93q203 0 328 -163v77q0 39 9 53.5t32 14.5t32 -14.5t9 -53.5v-700q0 -39 -9 -53.5t-32 -14.5q-24 0 -32.5 14.5t-8.5 53.5v82zM500 778q-138 0 -238 -109
q-87 -95 -87 -253q0 -159 100 -263q94 -99 230 -99q156 0 252 125q74 96 74 247q0 173 -104 263q-101 89 -227 89zM681 1160l-129 -157q-7 -8 -12 -14q-18 -22 -37 -22q-33 0 -33 37q0 12 22 45l111 166q18 28 26.5 34.5t23.5 6.5q20 0 37 -16t17 -34q0 -14 -26 -46z" />
    <glyph glyph-name="agrave" unicode="&#xe0;" horiz-adv-x="1054" vert-adv-y="2457" 
d="M826 150q-44 -66 -98 -103q-103 -69 -228 -69q-191 0 -311 145q-98 119 -98 299q0 220 142 339q112 93 265 93q203 0 328 -163v77q0 39 9 53.5t32 14.5t32 -14.5t9 -53.5v-700q0 -39 -9 -53.5t-32 -14.5q-24 0 -32.5 14.5t-8.5 53.5v82zM500 778q-138 0 -238 -109
q-87 -95 -87 -253q0 -159 100 -263q94 -99 230 -99q156 0 252 125q74 96 74 247q0 173 -104 263q-101 89 -227 89zM420 1215l111 -166q22 -33 22 -45q0 -15 -10.5 -25.5t-24.5 -10.5q-18 0 -47 35l-129 157q-27 32 -27 46q0 18 17.5 34t37.5 16q15 0 23.5 -7t26.5 -34z" />
    <glyph glyph-name="acircumflex" unicode="&#xe2;" horiz-adv-x="1054" vert-adv-y="2457" 
d="M826 150q-44 -66 -98 -103q-103 -69 -228 -69q-191 0 -311 145q-98 119 -98 299q0 220 142 339q112 93 265 93q203 0 328 -163v77q0 39 9 53.5t32 14.5t32 -14.5t9 -53.5v-700q0 -39 -9 -53.5t-32 -14.5q-24 0 -32.5 14.5t-8.5 53.5v82zM500 778q-138 0 -238 -109
q-87 -95 -87 -253q0 -159 100 -263q94 -99 230 -99q156 0 252 125q74 96 74 247q0 173 -104 263q-101 89 -227 89zM507 1095l-137 -103q-32 -25 -46 -25q-18 0 -29.5 11.5t-11.5 28.5q0 20 38 49l139 108q33 25 46 25q15 0 47 -25l139 -107q38 -29 38 -49q0 -17 -12.5 -29.5
t-29.5 -12.5q-13 0 -46 25z" />
    <glyph glyph-name="adieresis" unicode="&#xe4;" horiz-adv-x="1054" vert-adv-y="2457" 
d="M826 150q-44 -66 -98 -103q-103 -69 -228 -69q-191 0 -311 145q-98 119 -98 299q0 220 142 339q112 93 265 93q203 0 328 -163v77q0 39 9 53.5t32 14.5t32 -14.5t9 -53.5v-700q0 -39 -9 -53.5t-32 -14.5q-24 0 -32.5 14.5t-8.5 53.5v82zM500 778q-138 0 -238 -109
q-87 -95 -87 -253q0 -159 100 -263q94 -99 230 -99q156 0 252 125q74 96 74 247q0 173 -104 263q-101 89 -227 89zM345 1151q31 0 52.5 -21.5t21.5 -52.5t-22 -53t-52 -22q-31 0 -53 22t-22 54q0 30 22 51.5t53 21.5zM685 1151q30 0 52 -21.5t22 -52.5t-22 -53t-52 -22
q-32 0 -53.5 22t-21.5 54q0 30 22 51.5t53 21.5z" />
    <glyph glyph-name="atilde" unicode="&#xe3;" horiz-adv-x="1054" vert-adv-y="2457" 
d="M826 150q-44 -66 -98 -103q-103 -69 -228 -69q-191 0 -311 145q-98 119 -98 299q0 220 142 339q112 93 265 93q203 0 328 -163v77q0 39 9 53.5t32 14.5t32 -14.5t9 -53.5v-700q0 -39 -9 -53.5t-32 -14.5q-24 0 -32.5 14.5t-8.5 53.5v82zM500 778q-138 0 -238 -109
q-87 -95 -87 -253q0 -159 100 -263q94 -99 230 -99q156 0 252 125q74 96 74 247q0 173 -104 263q-101 89 -227 89zM394 1154q36 0 117 -36q85 -37 117 -37q37 0 75 48q8 9 22 9q33 0 33 -34q0 -35 -45.5 -70t-92.5 -35q-28 0 -113 35q-90 38 -127 38q-36 0 -58 -30
q-18 -24 -38 -24q-26 0 -26 31q0 23 29 55q45 50 107 50z" />
    <glyph glyph-name="aring" unicode="&#xe5;" horiz-adv-x="1054" vert-adv-y="2457" 
d="M826 150q-44 -66 -98 -103q-103 -69 -228 -69q-191 0 -311 145q-98 119 -98 299q0 220 142 339q112 93 265 93q203 0 328 -163v77q0 39 9 53.5t32 14.5t32 -14.5t9 -53.5v-700q0 -39 -9 -53.5t-32 -14.5q-24 0 -32.5 14.5t-8.5 53.5v82zM500 778q-138 0 -238 -109
q-87 -95 -87 -253q0 -159 100 -263q94 -99 230 -99q156 0 252 125q74 96 74 247q0 173 -104 263q-101 89 -227 89zM507 1282q65 0 111 -45.5t46 -111.5q0 -65 -46 -111t-111 -46t-111 46.5t-46 112.5q0 63 46.5 109t110.5 46zM507 1208q-36 0 -60.5 -24.5t-24.5 -60.5
q0 -34 25 -58.5t60 -24.5t60 24.5t25 59.5t-24.5 59.5t-60.5 24.5z" />
    <glyph glyph-name="ccedilla" unicode="&#xe7;" horiz-adv-x="902" vert-adv-y="2457" 
d="M795 153q30 0 30 -37q0 -17 -9 -27q-26 -30 -105 -68q-91 -43 -188 -43q-135 0 -242 71q-105 70 -155 189q-34 81 -34 172q0 190 127 321q118 123 304 123q77 0 156.5 -28t122.5 -70q13 -13 13 -32q0 -15 -9 -27t-20 -12q-10 0 -26 10q-86 55 -124 69t-104 14
q-165 0 -265 -117q-90 -106 -90 -253q0 -143 98 -247q102 -107 246 -107q112 0 221 72q42 27 53 27zM549 -207l-113 -143q-20 -25 -27.5 -31t-21.5 -6q-15 0 -26.5 12t-11.5 28q0 11 21 45l96 148q29 46 49 46q24 0 42 -16t18 -37q0 -13 -26 -46z" />
    <glyph glyph-name="eacute" unicode="&#xe9;" horiz-adv-x="990" vert-adv-y="2457" 
d="M180 407q5 -116 46 -189q42 -74 119 -119q76 -45 161 -45q119 0 211 80q23 19 63 80q13 18 35 18q17 0 28.5 -12t11.5 -30q0 -23 -44 -75q-118 -137 -309 -137q-183 0 -298 126q-113 125 -113 309q0 176 105 303q115 138 303 138q146 0 250 -90q102 -87 136 -230
q11 -49 11 -79q0 -28 -14.5 -38t-54.5 -10h-647zM804 485q-15 93 -60 157q-44 63 -109 99q-67 37 -137 37q-117 0 -205 -82.5t-107 -210.5h618zM668 1160l-128 -157q-7 -8 -12 -14q-18 -22 -38 -22q-32 0 -32 37q0 12 22 45l111 166q18 28 26 34.5t23 6.5q21 0 38 -16
t17 -34q0 -14 -27 -46z" />
    <glyph glyph-name="egrave" unicode="&#xe8;" horiz-adv-x="990" vert-adv-y="2457" 
d="M180 407q5 -116 46 -189q42 -74 119 -119q76 -45 161 -45q119 0 211 80q23 19 63 80q13 18 35 18q17 0 28.5 -12t11.5 -30q0 -23 -44 -75q-118 -137 -309 -137q-183 0 -298 126q-113 125 -113 309q0 176 105 303q115 138 303 138q146 0 250 -90q102 -87 136 -230
q11 -49 11 -79q0 -28 -14.5 -38t-54.5 -10h-647zM804 485q-15 93 -60 157q-44 63 -109 99q-67 37 -137 37q-117 0 -205 -82.5t-107 -210.5h618zM401 1215l110 -166q23 -33 23 -45q0 -15 -10.5 -25.5t-25.5 -10.5q-17 0 -46 35l-129 157q-27 32 -27 46q0 18 17.5 34t37.5 16
q15 0 23 -7t27 -34z" />
    <glyph glyph-name="ecircumflex" unicode="&#xea;" horiz-adv-x="990" vert-adv-y="2457" 
d="M180 407q5 -116 46 -189q42 -74 119 -119q76 -45 161 -45q119 0 211 80q23 19 63 80q13 18 35 18q17 0 28.5 -12t11.5 -30q0 -23 -44 -75q-118 -137 -309 -137q-183 0 -298 126q-113 125 -113 309q0 176 105 303q115 138 303 138q146 0 250 -90q102 -87 136 -230
q11 -49 11 -79q0 -28 -14.5 -38t-54.5 -10h-647zM804 485q-15 93 -60 157q-44 63 -109 99q-67 37 -137 37q-117 0 -205 -82.5t-107 -210.5h618zM494 1095l-136 -103q-33 -25 -47 -25q-17 0 -28.5 11.5t-11.5 28.5q0 20 37 49l140 108q33 25 46 25q14 0 47 -25l139 -107
q38 -29 38 -49q0 -17 -12.5 -29.5t-29.5 -12.5q-14 0 -47 25z" />
    <glyph glyph-name="edieresis" unicode="&#xeb;" horiz-adv-x="990" vert-adv-y="2457" 
d="M180 407q5 -116 46 -189q42 -74 119 -119q76 -45 161 -45q119 0 211 80q23 19 63 80q13 18 35 18q17 0 28.5 -12t11.5 -30q0 -23 -44 -75q-118 -137 -309 -137q-183 0 -298 126q-113 125 -113 309q0 176 105 303q115 138 303 138q146 0 250 -90q102 -87 136 -230
q11 -49 11 -79q0 -28 -14.5 -38t-54.5 -10h-647zM804 485q-15 93 -60 157q-44 63 -109 99q-67 37 -137 37q-117 0 -205 -82.5t-107 -210.5h618zM324 1151q32 0 53.5 -21.5t21.5 -52.5t-22 -53t-52 -22q-31 0 -53 22t-22 54q0 30 22 51.5t52 21.5zM664 1151q31 0 53 -21.5
t22 -52.5t-22 -53t-53 -22t-52.5 22t-21.5 54q0 30 22 51.5t52 21.5z" />
    <glyph glyph-name="iacute" unicode="&#xed;" horiz-adv-x="374" vert-adv-y="2457" 
d="M228 768v-700q0 -39 -9 -53.5t-32 -14.5t-32 14.5t-9 53.5v700q0 39 9 53.5t32 14.5t32 -14.5t9 -53.5zM367 1160l-128 -157q-7 -8 -12 -14q-18 -22 -37 -22q-33 0 -33 37q0 12 22 45l111 166q18 28 26 34.5t23 6.5q21 0 38 -16t17 -34q0 -14 -27 -46z" />
    <glyph glyph-name="igrave" unicode="&#xec;" horiz-adv-x="374" vert-adv-y="2457" 
d="M228 768v-700q0 -39 -8.5 -53.5t-32.5 -14.5q-23 0 -32 14.5t-9 53.5v700q0 39 9 53.5t32 14.5q24 0 32.5 -14.5t8.5 -53.5zM93 1215l110 -166q23 -33 23 -45q0 -15 -10.5 -25.5t-24.5 -10.5q-18 0 -47 35l-129 157q-27 32 -27 46q0 18 17.5 34t37.5 16q15 0 23.5 -7
t26.5 -34z" />
    <glyph glyph-name="icircumflex" unicode="&#xee;" horiz-adv-x="374" vert-adv-y="2457" 
d="M228 768v-700q0 -39 -9 -53.5t-32 -14.5q-24 0 -32.5 14.5t-8.5 53.5v700q0 39 8.5 53.5t32.5 14.5q23 0 32 -14.5t9 -53.5zM186 1095l-136 -103q-33 -25 -47 -25q-17 0 -28.5 11.5t-11.5 28.5q0 20 38 49l139 108q33 25 46 25q14 0 47 -25l139 -107q38 -29 38 -49
q0 -17 -12.5 -29.5t-29.5 -12.5q-14 0 -47 25z" />
    <glyph glyph-name="idieresis" unicode="&#xef;" horiz-adv-x="374" vert-adv-y="2457" 
d="M228 768v-700q0 -39 -9 -53.5t-32 -14.5t-32 14.5t-9 53.5v700q0 39 9 53.5t32 14.5t32 -14.5t9 -53.5zM65 1151q31 0 52.5 -21.5t21.5 -52.5t-22 -53t-52 -22q-31 0 -53 22t-22 54q0 30 22 51.5t53 21.5zM309 1151q31 0 52.5 -21.5t21.5 -52.5t-22 -53t-52 -22
q-31 0 -53 22t-22 54q0 30 22 51.5t53 21.5z" />
    <glyph glyph-name="ntilde" unicode="&#xf1;" horiz-adv-x="901" vert-adv-y="2457" 
d="M228 706q39 60 75 88q75 60 179 60q101 0 176 -56q53 -40 75 -101t22 -170v-459q0 -39 -9 -53.5t-32 -14.5t-32 14.5t-9 53.5v459q0 119 -30 170q-48 81 -171 81q-135 0 -200 -114q-25 -44 -34.5 -93.5t-9.5 -135.5v-367q0 -39 -9 -53.5t-32 -14.5t-32 14.5t-9 53.5v700
q0 39 9 53.5t32 14.5t32 -14.5t9 -53.5v-62zM337 1154q37 0 118 -36q85 -37 117 -37q37 0 75 48q8 9 22 9q33 0 33 -34q0 -35 -46 -70t-92 -35q-29 0 -113 35q-91 38 -127 38q-37 0 -59 -30q-18 -24 -38 -24q-26 0 -26 31q0 23 29 55q45 50 107 50z" />
    <glyph glyph-name="oacute" unicode="&#xf3;" horiz-adv-x="1058" vert-adv-y="2457" 
d="M530 854q186 0 317 -135q119 -122 119 -303q0 -208 -153 -335q-124 -103 -287 -103q-119 0 -225 64q-107 64 -162 172q-48 93 -48 209q0 180 134 309q128 122 305 122zM522 778q-160 0 -264 -127q-82 -101 -82 -241q0 -149 106 -255q100 -101 243 -101q168 0 277 130
q79 96 79 232q0 159 -107 261q-106 101 -252 101zM682 1160l-129 -157l-12 -14q-18 -22 -37 -22q-33 0 -33 37q0 12 22 45l111 166q18 28 26.5 34.5t23.5 6.5q20 0 37 -16t17 -34q0 -14 -26 -46z" />
    <glyph glyph-name="ograve" unicode="&#xf2;" horiz-adv-x="1058" vert-adv-y="2457" 
d="M530 854q186 0 317 -135q119 -122 119 -303q0 -208 -153 -335q-124 -103 -287 -103q-119 0 -225 64q-107 64 -162 172q-48 93 -48 209q0 180 134 309q128 122 305 122zM522 778q-160 0 -264 -127q-82 -101 -82 -241q0 -149 106 -255q100 -101 243 -101q168 0 277 130
q79 96 79 232q0 159 -107 261q-106 101 -252 101zM435 1215l110 -166q23 -33 23 -45q0 -15 -10.5 -25.5t-25.5 -10.5q-17 0 -46 35l-129 157q-27 32 -27 46q0 18 17.5 34t37.5 16q15 0 23 -7t27 -34z" />
    <glyph glyph-name="ocircumflex" unicode="&#xf4;" horiz-adv-x="1058" vert-adv-y="2457" 
d="M530 854q186 0 317 -135q119 -122 119 -303q0 -208 -153 -335q-124 -103 -287 -103q-119 0 -225 64q-107 64 -162 172q-48 93 -48 209q0 180 134 309q128 122 305 122zM522 778q-160 0 -264 -127q-82 -101 -82 -241q0 -149 106 -255q100 -101 243 -101q168 0 277 130
q79 96 79 232q0 159 -107 261q-106 101 -252 101zM528 1095l-136 -103q-6 -5 -15 -11q-17 -14 -31 -14q-41 0 -41 43q0 17 37 46l139 108q33 25 47 25t47 -25l139 -107q37 -29 37 -47q0 -44 -43 -44q-12 0 -45 25z" />
    <glyph glyph-name="odieresis" unicode="&#xf6;" horiz-adv-x="1058" vert-adv-y="2457" 
d="M530 854q186 0 317 -135q119 -122 119 -303q0 -208 -153 -335q-124 -103 -287 -103q-119 0 -225 64q-107 64 -162 172q-48 93 -48 209q0 180 134 309q128 122 305 122zM522 778q-160 0 -264 -127q-82 -101 -82 -241q0 -149 106 -255q100 -101 243 -101q168 0 277 130
q79 96 79 232q0 159 -107 261q-106 101 -252 101zM358 1151q32 0 53.5 -21.5t21.5 -52.5t-22 -53t-52 -22q-31 0 -53 22t-22 54q0 30 22 51.5t52 21.5zM698 1151q31 0 53 -21.5t22 -52.5t-22 -53t-53 -22t-52.5 22t-21.5 54q0 30 22 51.5t52 21.5z" />
    <glyph glyph-name="otilde" unicode="&#xf5;" horiz-adv-x="1058" vert-adv-y="2457" 
d="M530 854q186 0 317 -135q119 -122 119 -303q0 -208 -153 -335q-124 -103 -287 -103q-119 0 -225 64q-107 64 -162 172q-48 93 -48 209q0 180 134 309q128 122 305 122zM522 778q-160 0 -264 -127q-82 -101 -82 -241q0 -149 106 -255q100 -101 243 -101q168 0 277 130
q79 96 79 232q0 159 -107 261q-106 101 -252 101zM415 1154q37 0 118 -36q85 -37 117 -37q37 0 75 48q8 9 22 9q33 0 33 -34q0 -35 -46 -70t-92 -35q-29 0 -113 35q-91 38 -127 38q-37 0 -59 -30q-18 -24 -38 -24q-26 0 -26 31q0 23 29 55q45 50 107 50z" />
    <glyph glyph-name="uacute" unicode="&#xfa;" horiz-adv-x="893" vert-adv-y="2457" 
d="M228 768v-430q0 -131 28 -184q23 -45 75.5 -72.5t115.5 -27.5q62 0 114.5 27.5t75.5 72.5q28 53 28 184v430q0 39 9 53.5t32 14.5q24 0 32.5 -14.5t8.5 -53.5v-459q0 -88 -13 -137.5t-48 -90.5q-86 -103 -239 -103q-154 0 -241 103q-34 40 -47 90t-13 138v459
q0 39 9 53.5t32 14.5t32 -14.5t9 -53.5zM627 1160l-129 -157l-12 -14q-17 -22 -37 -22q-33 0 -33 37q0 12 22 45l111 166q18 28 26.5 34.5t23.5 6.5q20 0 37 -16t17 -34q0 -15 -26 -46z" />
    <glyph glyph-name="ugrave" unicode="&#xf9;" horiz-adv-x="893" vert-adv-y="2457" 
d="M228 768v-430q0 -131 28 -184q23 -45 75.5 -72.5t115.5 -27.5q62 0 114.5 27.5t75.5 72.5q28 53 28 184v430q0 39 9 53.5t32 14.5q24 0 32.5 -14.5t8.5 -53.5v-459q0 -88 -13 -137.5t-48 -90.5q-86 -103 -239 -103q-154 0 -241 103q-34 40 -47 90t-13 138v459
q0 39 9 53.5t32 14.5t32 -14.5t9 -53.5zM352 1215l111 -166q22 -33 22 -45q0 -15 -10.5 -25.5t-24.5 -10.5q-17 0 -47 35l-128 157q-27 32 -27 46q0 18 17.5 34t37.5 16q15 0 23 -7t26 -34z" />
    <glyph glyph-name="ucircumflex" unicode="&#xfb;" horiz-adv-x="893" vert-adv-y="2457" 
d="M228 768v-430q0 -131 28 -184q23 -45 75.5 -72.5t115.5 -27.5q62 0 114.5 27.5t75.5 72.5q28 53 28 184v430q0 39 9 53.5t32 14.5q24 0 32.5 -14.5t8.5 -53.5v-459q0 -88 -13 -137.5t-48 -90.5q-86 -103 -239 -103q-154 0 -241 103q-34 40 -47 90t-13 138v459
q0 39 9 53.5t32 14.5t32 -14.5t9 -53.5zM446 1095l-137 -103q-32 -25 -45 -25q-42 0 -42 43q0 17 38 46l139 108q33 25 47 25t47 -25l139 -107q37 -29 37 -47q0 -44 -43 -44q-12 0 -45 25z" />
    <glyph glyph-name="udieresis" unicode="&#xfc;" horiz-adv-x="893" vert-adv-y="2457" 
d="M228 768v-430q0 -131 28 -184q23 -45 75.5 -72.5t115.5 -27.5q62 0 114.5 27.5t75.5 72.5q28 53 28 184v430q0 39 9 53.5t32 14.5q24 0 32.5 -14.5t8.5 -53.5v-459q0 -88 -13 -137.5t-48 -90.5q-86 -103 -239 -103q-154 0 -241 103q-34 40 -47 90t-13 138v459
q0 39 9 53.5t32 14.5t32 -14.5t9 -53.5zM277 1151q31 0 52.5 -21.5t21.5 -52.5t-22 -53t-52 -22q-31 0 -53 22t-22 54q0 30 22 51.5t53 21.5zM616 1151q31 0 53 -21.5t22 -52.5t-22 -53t-53 -22t-52.5 22t-21.5 54q0 30 22 51.5t52 21.5z" />
    <glyph glyph-name="dagger" unicode="&#x2020;" horiz-adv-x="635" vert-adv-y="2457" 
d="M368 1132h165q42 0 52 -8q17 -13 17 -37q0 -26 -14 -35t-55 -9h-165v-975q0 -41 -8 -51q-13 -17 -37 -17q-26 0 -35 14t-9 54v975h-176q-42 0 -52 8q-17 13 -17 36q0 27 14 36t55 9h176v165q0 41 8 51q13 17 36 17q27 0 36 -14t9 -54v-165z" />
    <glyph glyph-name="degree" unicode="&#xb0;" horiz-adv-x="642" vert-adv-y="2457" 
d="M321 1365q102 0 174 -72q72 -71 72 -173t-72 -174t-174 -72q-103 0 -174 72q-72 73 -72 176q0 100 72 171q73 72 174 72zM321 1297q-74 0 -125 -52q-53 -53 -53 -127q0 -72 52.5 -124t124.5 -52q75 0 127 52t52 126q0 73 -52 125t-126 52z" />
    <glyph glyph-name="cent" unicode="&#xa2;" vert-adv-y="2457" 
d="M652 1133q110 -6 218 -72q45 -27 45 -50q0 -17 -12 -31.5t-26 -14.5q-12 0 -133 72q-20 11 -92 19v-721q91 8 182 66q47 30 61 30q12 0 21.5 -13t9.5 -28q0 -21 -37 -45q-124 -80 -237 -86v-163q0 -39 -8.5 -53.5t-30.5 -14.5q-23 0 -31.5 14.5t-8.5 53.5v165
q-110 14 -190 68q-106 71 -156 188q-34 81 -34 174q0 176 104.5 297t275.5 143v143q0 38 8.5 52.5t31.5 14.5q22 0 30.5 -14.5t8.5 -52.5v-141zM573 338v716q-69 -12 -117 -40q-85 -48 -134 -137q-46 -85 -46 -184q0 -192 156 -300q67 -47 141 -55z" />
    <glyph glyph-name="sterling" unicode="&#xa3;" vert-adv-y="2457" 
d="M564 515h177q40 0 54.5 -8.5t14.5 -32.5t-14.5 -32.5t-54.5 -8.5h-162q6 -34 6 -58q0 -124 -104 -232q76 -24 133 -44q105 -36 148 -36q101 0 171 109q13 19 35 19q18 0 31.5 -13t13.5 -31q0 -19 -31 -57q-94 -116 -209 -116q-67 0 -224 56q-122 44 -170 44
q-79 0 -158 -67q-11 -10 -26 -10q-18 0 -30.5 12.5t-12.5 30.5q0 39 78 80.5t152 41.5q115 109 115 219q0 16 -5 52h-156q-39 0 -53.5 8.5t-14.5 32.5t14.5 32.5t53.5 8.5h134q-57 113 -147 251q-55 85 -76.5 143.5t-21.5 122.5q0 164 127 267q100 81 236 81q206 0 306 -181
q40 -71 40 -134q0 -47 -43 -47q-37 0 -43 39q-19 117 -83 173q-77 67 -185 67q-121 0 -195 -88q-70 -83 -70 -181q0 -46 17.5 -92t62.5 -119q142 -230 169 -302z" />
    <glyph glyph-name="section" unicode="&#xa7;" vert-adv-y="2457" 
d="M425 914q-70 36 -107 72q-81 79 -81 214q0 153 102 236q93 77 238 77q115 0 195 -49q90 -55 114 -169q12 -54 12 -91q0 -43 -45 -43q-26 0 -34.5 13t-12.5 63q-9 91 -70.5 142.5t-160.5 51.5q-110 0 -174 -58q-73 -67 -73 -180q0 -107 83 -170q35 -27 66.5 -40.5
t129.5 -43.5q143 -44 206 -100q102 -90 102 -254q0 -215 -221 -329q74 -32 113 -70q86 -82 86 -228q0 -145 -86 -223q-91 -82 -249 -82q-320 0 -320 310q0 44 45 44q28 0 36 -14t11 -67q5 -93 64 -140q62 -51 164 -51q118 0 181 63q62 62 62 164q0 135 -113 199
q-50 28 -206 82q-121 43 -181 100q-96 94 -96 239q0 230 220 332zM561 848q-110 0 -187 -77q-77 -78 -77 -189q0 -105 77 -184q77 -77 186 -77q110 0 187 77q77 78 77 187q0 111 -77 186q-79 77 -186 77z" />
    <glyph glyph-name="bullet" unicode="&#x2022;" horiz-adv-x="1365" vert-adv-y="2457" 
d="M687 983q112 0 194 -83q83 -84 83 -203t-82 -203q-83 -84 -199 -84q-115 0 -198 83q-84 85 -84 203q0 122 84 204q84 83 202 83z" />
    <glyph glyph-name="paragraph" unicode="&#xb6;" vert-adv-y="2457" 
d="M542 -208h-82v900h-28q-157 0 -244 111q-72 92 -72 222q0 152 96 250q87 90 276 90h498l-36 -75h-91v-1498h-82v1498h-235v-1498z" />
    <glyph glyph-name="germandbls" unicode="&#xdf;" horiz-adv-x="1007" vert-adv-y="2457" 
d="M147 760h-20q-39 0 -53.5 8.5t-14.5 29.5t14.5 29.5t53.5 8.5h20v363q0 154 77 233q84 85 220 85t222 -95q71 -78 71 -196q0 -178 -159 -251q111 -40 174 -96q71 -63 116 -162q48 -107 48 -217q0 -152 -88 -278q-95 -137 -255 -199q-68 -26 -107 -26q-17 0 -29 12t-12 29
q0 36 49 43q78 12 152 59t125 118q80 108 80 247q0 174 -117 296q-98 102 -244 124q-44 7 -44 43q0 32 33 42q90 27 104 34q36 20 62.5 74.5t26.5 110.5q0 100 -69 162q-56 50 -144 50q-54 0 -100.5 -21.5t-70.5 -57.5q-39 -60 -39 -193v-1101q0 -39 -9 -53.5t-32 -14.5
t-32 14.5t-9 53.5v692z" />
    <glyph glyph-name="registered" unicode="&#xae;" horiz-adv-x="1515" vert-adv-y="2457" 
d="M764 643l200 -290q12 -17 12 -29q0 -15 -11.5 -26t-27.5 -11q-20 0 -35 23l-227 332v-309q0 -46 -38 -46t-38 46v649q0 83 83 83h37q109 0 167 -40q81 -57 81 -173q0 -97 -62 -156q-46 -43 -141 -53zM675 714h58q156 0 156 139q0 140 -167 140h-47v-279zM769 1385
q180 0 340 -94q164 -97 258 -257q94 -162 94 -351t-94 -352t-258 -257q-163 -94 -351 -94t-351 94q-164 95 -258 257q-94 164 -94 357q0 304 233 516q198 181 481 181zM748 1287q-155 0 -292 -81q-142 -83 -222 -221q-81 -140 -81 -302q0 -163 81 -303t222 -221
q140 -81 302 -81t302 81q141 81 222 221q81 141 81 307q0 261 -201 444q-170 156 -414 156z" />
    <glyph glyph-name="copyright" unicode="&#xa9;" horiz-adv-x="1516" vert-adv-y="2457" 
d="M784 1002q-141 0 -242 -116q-81 -93 -81 -215q0 -146 113 -242q98 -83 211 -83q54 0 114.5 23t99.5 58q24 22 32 22q21 0 21 -23q0 -39 -49 -80q-86 -72 -217 -72q-81 0 -159.5 35t-136.5 97q-107 114 -107 268q0 176 132 296q117 106 269 106q134 0 223 -74
q48 -40 48 -73t-24 -33q-9 0 -32 23q-38 37 -98 60t-117 23zM769 1386q180 0 340 -94q164 -97 258 -258q94 -162 94 -351q0 -188 -94 -351q-94 -164 -258 -258q-163 -94 -351 -94t-352 94q-163 95 -257 258q-94 164 -94 357q0 303 233 516q198 181 481 181zM748 1288
q-155 0 -293 -81q-140 -83 -221 -222t-81 -302q0 -162 81 -302q81 -141 221 -222q141 -81 303 -81t303 81q140 81 221 222t81 307q0 261 -201 444q-170 156 -414 156z" />
    <glyph glyph-name="trademark" unicode="&#x2122;" horiz-adv-x="1451" vert-adv-y="2457" 
d="M317 1315v-702q0 -21 -5.5 -26.5t-26.5 -5.5h-28q-21 0 -26.5 5.5t-5.5 26.5v702h-166q-21 0 -26.5 5.5t-5.5 26.5v21q0 22 5 27t27 5h425q21 0 26.5 -5.5t5.5 -26.5v-21q0 -21 -5.5 -26.5t-26.5 -5.5h-167zM979 754l289 623q11 23 22 23q17 0 22 -30l110 -754
q2 -13 2 -17q0 -18 -32 -18h-29q-20 0 -25.5 4.5t-7.5 24.5l-73 541l-256 -554q-11 -23 -22 -23q-14 0 -24 23l-252 554l-77 -541q-3 -20 -8 -24.5t-25 -4.5h-29q-32 0 -32 18q0 5 2 17l118 755q5 29 22 29q11 0 22 -24z" />
    <glyph glyph-name="acute" unicode="&#xb4;" horiz-adv-x="1024" vert-adv-y="2457" 
d="M665 1160l-129 -157q-30 -36 -49 -36q-33 0 -33 37q0 12 22 45l111 166q18 27 26.5 34t23.5 7q20 0 37.5 -16t17.5 -34q0 -14 -27 -46z" />
    <glyph glyph-name="dieresis" unicode="&#xa8;" horiz-adv-x="1024" vert-adv-y="2457" 
d="M343 1151q31 0 52.5 -21.5t21.5 -52.5t-22 -53t-52 -22q-31 0 -53 22t-22 54q0 30 22 51.5t53 21.5zM683 1151q30 0 52 -22t22 -52q0 -31 -22 -53t-52 -22q-32 0 -53.5 22t-21.5 54q0 30 22 51.5t53 21.5z" />
    <glyph glyph-name="notequal" unicode="&#x2260;" vert-adv-y="2457" 
d="M597 847l114 242q13 27 36 27q14 0 24.5 -10t10.5 -23q0 -10 -7 -25l-99 -211h329q50 0 50 -41t-50 -41h-368l-64 -137h432q50 0 50 -41t-50 -41h-471l-119 -254q-13 -27 -35 -27q-14 0 -24.5 10t-10.5 23q0 12 6 25l105 223h-342q-50 0 -50 41t50 41h381l64 137h-445
q-50 0 -50 41t50 41h483z" />
    <glyph glyph-name="AE" unicode="&#xc6;" horiz-adv-x="1741" vert-adv-y="2457" 
d="M887 448h-585l-156 -397q-14 -34 -24.5 -43.5t-33.5 -9.5q-14 0 -27.5 12.5t-13.5 25.5q0 14 13 46l498 1232q15 38 24.5 44.5t50.5 6.5h484q41 0 51 -7q19 -14 19 -34q0 -26 -23 -36q-11 -5 -47 -5h-475l202 -495h494q40 0 50 -7q20 -14 20 -34q0 -25 -23 -36
q-11 -5 -47 -5h-460l253 -624h510q40 0 50 -7q20 -14 20 -34q0 -25 -24 -36q-10 -5 -46 -5h-518q-41 0 -50.5 6.5t-24.5 44.5zM853 530l-261 642l-255 -642h516z" />
    <glyph glyph-name="Oslash" unicode="&#xd8;" horiz-adv-x="1634" vert-adv-y="2457" 
d="M286 217q-177 204 -177 466q0 188 98 352q92 154 248 247q170 102 360 102q253 0 462 -172l117 117q31 32 49 32q16 0 26.5 -10.5t10.5 -26.5q0 -18 -31 -49l-116 -117q192 -208 192 -479q0 -188 -98 -353q-92 -153 -248 -247q-170 -102 -361 -102q-259 0 -478 186
l-116 -117q-31 -32 -49 -32q-37 0 -37 37q0 18 31 49zM350 276l864 877q-179 148 -399 148q-165 0 -314 -90q-141 -85 -220 -225q-81 -141 -81 -303q0 -231 150 -407zM1269 1101l-865 -879q185 -162 415 -162q165 0 314 90q141 86 221 225q80 141 80 304q0 243 -165 422z
" />
    <glyph glyph-name="infinity" unicode="&#x221e;" horiz-adv-x="1365" vert-adv-y="2457" 
d="M684 635q-161 -242 -347 -242q-99 0 -171 48q-127 85 -127 261q0 159 118 243q79 57 180 57q186 0 344 -242q48 74 89 117q114 125 260 125q155 0 237 -114q58 -80 58 -192q0 -146 -93 -229q-83 -74 -202 -74q-101 0 -182.5 57t-163.5 185zM728 698q40 -63 75 -105
q101 -122 222 -122q99 0 160 73q51 61 51 153q0 120 -82 182q-59 45 -131 45q-125 0 -229 -132q-27 -34 -66 -94zM636 697q-39 62 -75 105q-102 122 -222 122q-99 0 -160 -73q-51 -62 -51 -153q0 -121 82 -183q59 -45 132 -45q83 0 147 49t147 178z" />
    <glyph glyph-name="plusminus" unicode="&#xb1;" vert-adv-y="2457" 
d="M519 737v380q0 39 9 53.5t32 14.5t32 -14.5t9 -53.5v-380h386q40 0 54.5 -9t14.5 -32t-14.5 -32t-54.5 -9h-386v-380q0 -39 -9 -53.5t-32 -14.5t-32 14.5t-9 53.5v380h-386q-40 0 -54.5 8.5t-14.5 32.5t14.5 32.5t54.5 8.5h386zM132 94h855q39 0 53.5 -9t14.5 -32
t-14.5 -32t-53.5 -9h-855q-39 0 -53.5 9t-14.5 32t14.5 32t53.5 9z" />
    <glyph glyph-name="lessequal" unicode="&#x2264;" horiz-adv-x="1024" vert-adv-y="2457" 
d="M165 755l758 -329q32 -13 32 -40q0 -15 -11 -27t-25 -12q-13 0 -27 6l-774 339q-50 22 -50 63q0 40 50 62l774 340q14 7 26 7q15 0 26 -12t11 -27q0 -27 -32 -41zM905 181h-786q-51 0 -51 41q0 42 51 42h786q50 0 50 -41q0 -42 -50 -42z" />
    <glyph glyph-name="greaterequal" unicode="&#x2265;" horiz-adv-x="1024" vert-adv-y="2457" 
d="M858 756l-758 328q-32 14 -32 41q0 15 11 27t26 12q12 0 27 -7l774 -340q49 -22 49 -63t-50 -62l-773 -339q-14 -6 -27 -6q-15 0 -26 12t-11 27q0 26 32 40zM119 264h786q50 0 50 -41q0 -42 -50 -42h-786q-51 0 -51 41q0 42 51 42z" />
    <glyph glyph-name="yen" unicode="&#xa5;" vert-adv-y="2457" 
d="M727 801l-125 -211h371q50 0 50 -41t-50 -41h-375v-454q0 -54 -44 -54q-45 0 -45 54v454h-360q-51 0 -51 41t51 41h356l-121 211h-235q-51 0 -51 41t51 41h189l-233 406q-11 20 -11 34q0 17 14 29.5t31 12.5q27 0 45 -31l371 -654l381 654q18 31 44 31q18 0 32 -13
t14 -29q0 -15 -12 -35l-239 -405h198q50 0 50 -41t-50 -41h-246z" />
    <glyph glyph-name="mu" unicode="&#xb5;" horiz-adv-x="893" vert-adv-y="2457" 
d="M228 65v-504q0 -50 -41 -50t-41 50v1225q0 50 41 50t41 -50v-448q0 -131 28 -184q23 -45 75.5 -72.5t115.5 -27.5q62 0 114.5 27.5t75.5 72.5q28 53 28 184v448q0 50 41 50t41 -50v-477q0 -88 -13 -137.5t-48 -90.5q-86 -103 -237 -103q-128 0 -221 87z" />
    <glyph glyph-name="partialdiff" unicode="&#x2202;" horiz-adv-x="1024" vert-adv-y="2457" 
d="M836 713q-52 149 -86 214.5t-100 137.5q-75 82 -183 143t-207 78q-56 9 -56 45q0 17 12 29t31 12q30 0 137 -32q222 -67 369 -258q93 -120 144 -279t51 -328q0 -183 -78 -303q-65 -101 -172 -154q-87 -43 -183 -43q-156 0 -279 108q-158 139 -158 353q0 155 89 281
q67 94 171 140q82 37 172 37q139 0 237 -77q40 -31 89 -104zM523 823q-122 0 -219 -81q-55 -46 -91 -118q-45 -91 -45 -191q0 -173 117 -288q99 -98 230 -98q122 0 216 85q127 114 127 313q0 196 -120 299q-92 79 -215 79z" />
    <glyph glyph-name="summation" unicode="&#x2211;" horiz-adv-x="1365" vert-adv-y="2457" 
d="M1113 1451h-950l484 -832q23 -40 23 -65q0 -24 -21 -63l-486 -920h969l3 305q1 52 43 52q43 0 43 -53v-303q0 -84 -83 -84h-979q-45 0 -69.5 20t-24.5 56q0 19 17 51l497 941l-496 859q-18 31 -18 49q0 72 88 72h966q83 0 83 -84v-310q0 -51 -42 -51q-41 0 -42 51z" />
    <glyph glyph-name="product" unicode="&#x220f;" horiz-adv-x="1395" vert-adv-y="2457" 
d="M1165 1453v-1882h108q50 0 50 -42q0 -41 -50 -41h-317q-51 0 -51 41q0 42 51 42h120v1882h-757v-1882h119q50 0 50 -42q0 -41 -50 -41h-315q-51 0 -51 41q0 42 51 42h107v1882h-107q-51 0 -51 41q0 42 51 42h1150q50 0 50 -41q0 -42 -50 -42h-108z" />
    <glyph glyph-name="glyph155" horiz-adv-x="512" vert-adv-y="2457" 
 />
    <glyph glyph-name="integral" unicode="&#x222b;" horiz-adv-x="1024" vert-adv-y="2457" 
d="M467 -198v1405q0 122 6 169.5t25 77.5q52 82 170 82q100 0 100 -48q0 -6 -2 -13v-1q-8 -25 -35 -25q-4 0 -34 4q-12 2 -26 2q-70 0 -96 -49q-11 -22 -15 -64.5t-4 -149.5v-1376q0 -115 -5 -161t-21 -75q-51 -91 -191 -91q-83 0 -83 48q0 16 10.5 27t25.5 11q4 0 34 -5
q12 -2 27 -2q70 0 95 49q19 37 19 185z" />
    <glyph glyph-name="ordfeminine" unicode="&#xaa;" horiz-adv-x="1054" vert-adv-y="2457" 
d="M704 924q-71 -108 -205 -108q-120 0 -195 91q-62 75 -62 188q0 139 90 213q70 59 166 59q128 0 206 -102v48q0 43 26 43t26 -43v-440q0 -43 -26 -43t-26 43v51zM500 1319q-89 0 -147 -64.5t-58 -163.5q0 -100 63 -165q59 -62 145 -62q98 0 158 78q47 61 47 156
q0 108 -65 165q-64 56 -143 56z" />
    <glyph glyph-name="ordmasculine" unicode="&#xba;" horiz-adv-x="718" vert-adv-y="2457" 
d="M360 1382q120 0 206 -87q77 -79 77 -196q0 -134 -99 -216q-80 -67 -186 -67q-131 0 -217 101q-65 77 -65 187q0 116 87 199q83 79 197 79zM355 1332q-104 0 -171 -82q-53 -65 -53 -155q0 -96 69 -165q65 -65 157 -65q109 0 179 84q52 61 52 149q0 103 -70 169
q-69 65 -163 65z" />
    <glyph glyph-name="uni2126" unicode="&#x2126;" horiz-adv-x="1365" vert-adv-y="2457" 
d="M470 81q-111 63 -187 137q-225 218 -225 521q0 310 215 503q175 157 410 157q161 0 300 -78q150 -85 237 -237q88 -155 88 -346q0 -208 -105 -375.5t-307 -281.5h363q49 0 49 -40q0 -41 -49 -41h-418q-58 0 -58 48q0 18 8.5 27.5t43.5 29.5q195 114 295 292
q87 155 87 334q0 286 -206 465q-141 122 -327 122q-232 0 -388 -175q-79 -90 -118 -215q-29 -95 -29 -195q0 -314 246 -529q64 -56 156 -110q33 -19 33 -46q0 -48 -58 -48h-419q-49 0 -49 40q0 41 49 41h363z" />
    <glyph glyph-name="ae" unicode="&#xe6;" horiz-adv-x="1624" vert-adv-y="2457" 
d="M813 406q5 -107 42 -180q41 -79 118 -126q73 -45 160 -45q119 0 214 80q22 18 64 76q13 17 34 17q17 0 30 -13t13 -31q0 -26 -56 -81q-129 -125 -299 -125q-114 0 -205 55t-139 153q-23 -71 -73 -116q-104 -92 -274 -92q-172 0 -270 88q-81 73 -81 172q0 126 119 205
q90 60 249 60q85 0 145 -19.5t118 -67.5q-1 141 -51 232q-33 61 -95 95t-140 34q-114 0 -211 -44q-25 -11 -38 -11q-16 0 -27.5 10.5t-11.5 24.5q0 23 26 38q41 24 120.5 41.5t147.5 17.5q239 0 330 -232q41 79 84 122q52 51 126 80.5t149 29.5q139 0 249 -89
q97 -80 132 -214q15 -60 15 -102q0 -25 -14 -34t-54 -9h-646zM1439 484q-15 88 -49 144q-41 67 -112 108q-72 42 -150 42q-119 0 -203 -80.5t-104 -213.5h618zM452 426q-129 0 -202.5 -51t-73.5 -141q0 -87 79 -134q74 -45 189 -45q138 0 210 62q64 55 64 129q0 84 -78 136
q-67 44 -188 44z" />
    <glyph glyph-name="oslash" unicode="&#xf8;" horiz-adv-x="1073" vert-adv-y="2457" 
d="M203 138q-98 120 -98 280q0 188 134 314q129 122 303 122q153 0 279 -98l61 62q31 32 48 32q34 0 34 -34q0 -18 -32 -49l-60 -59q108 -125 108 -293q0 -206 -153 -333q-124 -104 -282 -104q-160 0 -293 110l-63 -62q-31 -31 -49 -31q-31 0 -31 32q0 17 32 49zM262 193
l498 509q-103 76 -221 76q-164 0 -267 -127q-82 -101 -82 -233q0 -128 72 -225zM811 653l-501 -512q102 -87 230 -87q97 0 183 51q172 103 172 310q0 135 -84 238z" />
    <glyph glyph-name="questiondown" unicode="&#xbf;" horiz-adv-x="952" vert-adv-y="2457" 
d="M475 811q134 0 213 -91q71 -81 71 -190q0 -107 -63 -174.5t-194 -103.5q-102 -27 -132.5 -39t-58.5 -36q-74 -62 -74 -183q0 -106 63 -175q73 -79 179 -79q102 0 169 69.5t67 174.5q0 14 -1 24q-2 20 -2 31q0 15 12 26.5t28 11.5q49 0 49 -100q0 -154 -106 -242
q-92 -75 -220 -75q-164 0 -257 120q-68 88 -68 209q0 126 71 216q52 67 160 101q12 4 124 34q166 44 166 194q0 89 -64 148q-56 50 -132 50q-57 0 -103.5 -29t-70.5 -79q-10 -21 -18 -77q-5 -35 -43 -35q-42 0 -42 47q0 103 81 180q76 72 196 72zM476 1051q31 0 52.5 -22
t21.5 -54q0 -30 -22 -52t-52 -22q-31 0 -53 22t-22 53t22 53t53 22z" />
    <glyph glyph-name="exclamdown" unicode="&#xa1;" horiz-adv-x="531" vert-adv-y="2457" 
d="M266 1051q31 0 52.5 -22t21.5 -53q0 -30 -22 -52t-52 -22q-31 0 -53 22t-22 53q0 30 22 52t53 22zM310 725v-984q0 -42 -8 -52q-13 -17 -36 -17q-27 0 -36 14t-9 55v984q0 41 8 51q13 17 37 17q26 0 35 -14t9 -54z" />
    <glyph glyph-name="logicalnot" unicode="&#xac;" horiz-adv-x="1024" vert-adv-y="2457" 
d="M866 463h-748q-51 0 -51 41q0 42 51 42h753q84 0 84 -84v-408q0 -54 -44 -54q-45 0 -45 54v409z" />
    <glyph glyph-name="radical" unicode="&#x221a;" horiz-adv-x="1365" vert-adv-y="2457" 
d="M945 1612l-477 -1552q-18 -60 -66 -60q-49 0 -67 60l-177 582h-107q-51 0 -51 41q0 42 51 42h107q42 0 61.5 -14.5t31.5 -54.5l74 -239q8 -24 34 -122q35 -129 41 -152h4q11 40 54 189l36 127l134 440l222 727q12 40 31 54.5t61 14.5h373q50 0 50 -41q0 -42 -50 -42h-370
z" />
    <glyph glyph-name="florin" unicode="&#x192;" vert-adv-y="2457" 
d="M602 879h132q44 0 54 -10q16 -14 16 -31q0 -20 -23 -33q-8 -4 -46 -4h-148l-133 -713q-34 -177 -66 -235q-59 -106 -184 -106q-65 0 -101 15.5t-36 43.5q0 13 12 23.5t27 10.5q7 0 37 -8q22 -7 52 -7q80 0 111 49q31 51 52 158l147 769h-48q-49 0 -59 15q-11 17 -11 26
q0 15 16 28q11 9 53 9h63l77 409q19 105 52 152q55 77 171 77q106 0 106 -54q0 -14 -12 -25.5t-26 -11.5q-6 0 -15 2q-50 10 -66 10q-31 0 -59.5 -17.5t-42.5 -44.5q-16 -34 -37 -146z" />
    <glyph glyph-name="approxequal" unicode="&#x2248;" horiz-adv-x="1024" vert-adv-y="2457" 
d="M291 960q78 0 236 -81q88 -45 129 -59.5t80 -14.5q93 0 161 90q32 42 39.5 49t19.5 7q13 0 23 -10.5t10 -24.5q0 -17 -35 -66q-93 -130 -226 -130q-46 0 -96.5 18.5t-186.5 86.5q-101 51 -161 51q-89 0 -158 -93q-30 -41 -38 -48.5t-20 -7.5q-13 0 -23 10.5t-10 24.5
t25 51q51 78 105.5 112.5t125.5 34.5zM291 656q78 0 236 -81q88 -45 129 -59.5t81 -14.5q91 0 160 89q32 42 39 49t19 7q14 0 24 -10t10 -25q0 -17 -35 -66q-94 -129 -226 -129q-46 0 -100 20t-183 85q-100 51 -161 51q-89 0 -158 -94q-31 -42 -38.5 -49t-19.5 -7
q-13 0 -23 10.5t-10 24.5q0 13 25 52q50 77 105 112t126 35z" />
    <glyph glyph-name="Delta" unicode="&#x2206;" horiz-adv-x="1365" vert-adv-y="2457" 
d="M101 81l510 1226q24 58 70 58q47 0 71 -58l511 -1226q9 -21 9 -33q0 -22 -17 -35t-46 -13h-1053q-29 0 -46 13t-17 35q0 13 8 33zM196 83h972l-486 1174z" />
    <glyph glyph-name="guillemotleft" unicode="&#xab;" horiz-adv-x="711" vert-adv-y="2457" 
d="M384 423l176 -206q27 -32 27 -48q0 -33 -33 -33q-19 0 -49 35l-178 205q-28 32 -28 47t28 48l178 205q30 35 49 35q33 0 33 -34q0 -15 -28 -48zM167 423l175 -206l12 -14q16 -18 16 -34q0 -33 -33 -33q-20 0 -50 35l-177 205q-28 32 -28 47t28 48l177 205q31 35 50 35
q33 0 33 -34q0 -15 -28 -48z" />
    <glyph glyph-name="guillemotright" unicode="&#xbb;" horiz-adv-x="711" vert-adv-y="2457" 
d="M328 423l-176 206q-27 33 -27 49q0 33 33 33q19 0 49 -35l178 -205q5 -7 12 -14q16 -18 16 -34q0 -15 -28 -47l-178 -205q-30 -35 -49 -35q-33 0 -33 33q0 16 27 48zM545 423l-175 206q-28 33 -28 49q0 33 33 33q20 0 50 -35l177 -205q28 -33 28 -48t-28 -47l-177 -205
q-30 -35 -50 -35q-33 0 -33 33q0 16 28 48z" />
    <glyph glyph-name="ellipsis" unicode="&#x2026;" horiz-adv-x="1312" vert-adv-y="2457" 
d="M219 135q31 0 52.5 -21.5t21.5 -52.5t-22 -53t-52 -22q-31 0 -53 22t-22 53t22 52.5t53 21.5zM655 135q32 0 53.5 -21.5t21.5 -52.5t-22 -53t-52 -22q-31 0 -53 22t-22 53t22 52.5t52 21.5zM1093 135q31 0 53 -21.5t22 -52.5t-22 -53t-53 -22t-53 22t-22 53t22 52.5
t53 21.5z" />
    <glyph glyph-name="glyph172" vert-adv-y="1120" 
 />
    <glyph glyph-name="Agrave" unicode="&#xc0;" horiz-adv-x="1197" vert-adv-y="2457" 
d="M890 449h-582l-160 -398q-14 -34 -24.5 -43.5t-34.5 -9.5q-14 0 -27.5 12.5t-13.5 26.5q0 12 13 45l486 1205q20 50 29.5 64t24.5 14q16 0 26 -14t30 -64l480 -1205q13 -33 13 -45q0 -14 -13.5 -26.5t-27.5 -12.5q-24 0 -34.5 9.5t-24.5 43.5zM857 531l-256 673
l-260 -673h516zM474 1697l148 -131q34 -31 34 -49t-14.5 -32t-33.5 -14q-13 0 -46 25l-164 123q-39 29 -39 51t19 39t44 17q19 0 52 -29z" />
    <glyph glyph-name="Atilde" unicode="&#xc3;" horiz-adv-x="1197" vert-adv-y="2457" 
d="M890 449h-582l-160 -398q-14 -34 -24.5 -43.5t-34.5 -9.5q-14 0 -27.5 12.5t-13.5 26.5q0 12 13 45l486 1205q20 50 29.5 64t24.5 14q16 0 26 -14t30 -64l480 -1205q13 -33 13 -45q0 -14 -13.5 -26.5t-27.5 -12.5q-24 0 -34.5 9.5t-24.5 43.5zM857 531l-256 673
l-260 -673h516zM486 1637q36 0 119 -36q85 -37 119 -37q31 0 52 29q22 30 43 30q36 0 36 -38t-47 -74.5t-96 -36.5q-29 0 -114 36q-90 37 -125 37q-36 0 -70 -46q-8 -10 -24 -10q-34 0 -34 37q0 24 31 57q47 52 110 52z" />
    <glyph glyph-name="Otilde" unicode="&#xd5;" horiz-adv-x="1634" vert-adv-y="2457" 
d="M817 1384q195 0 362 -102q157 -96 248 -247q98 -163 98 -354q0 -190 -98 -355q-92 -153 -248 -247q-170 -102 -367 -102q-186 0 -357 102q-157 94 -248 247q-98 166 -98 366q0 184 98 343q98 157 248 247q170 102 362 102zM812 1301q-164 0 -311 -90q-141 -87 -220 -225
q-81 -140 -81 -315q0 -155 81 -296q80 -140 220 -225q150 -90 316 -90t316 90q141 86 221 225q80 142 80 305q0 269 -200 454q-97 91 -223 134q-99 33 -199 33zM704 1637q36 0 119 -36q85 -37 119 -37q31 0 52 29q22 30 43 30q36 0 36 -38t-47 -74.5t-96 -36.5
q-29 0 -114 36q-90 37 -125 37q-36 0 -70 -46q-8 -10 -24 -10q-34 0 -34 37q0 24 31 57q47 52 110 52z" />
    <glyph glyph-name="OE" unicode="&#x152;" horiz-adv-x="2194" vert-adv-y="2457" 
d="M1521 1283v-495h482q39 0 53.5 -9t14.5 -32t-14.5 -32t-53.5 -9h-482v-624h496q39 0 53.5 -9t14.5 -32t-14.5 -32t-53.5 -9h-517q-45 0 -56.5 11.5t-11.5 56.5v283q-69 -131 -179 -219q-195 -155 -432 -155q-180 0 -345 93q-187 105 -285 286q-82 153 -82 325
q0 158 71 302q85 176 249 283q179 118 391 118q258 0 459 -177q93 -82 153 -197v287q0 45 11.5 56.5t56.5 11.5h517q39 0 53.5 -9t14.5 -32t-14.5 -32t-53.5 -9h-496zM816 1301q-170 0 -319 -95q-143 -91 -222 -236q-75 -137 -75 -301q0 -149 77 -286q85 -151 240 -240
q144 -83 299 -83q167 0 318 93q144 89 222 231q75 137 75 297q0 268 -196 453q-177 167 -419 167z" />
    <glyph glyph-name="oe" unicode="&#x153;" horiz-adv-x="1778" vert-adv-y="2457" 
d="M969 412q3 -109 39 -180q41 -81 120 -129q79 -49 171 -49q81 0 151.5 38t106.5 100q24 41 47 41q15 0 27 -12t12 -29q0 -28 -51 -83q-120 -131 -302 -131q-126 0 -221 63.5t-147 183.5q-41 -77 -89 -124q-126 -123 -306 -123q-192 0 -322 141q-114 124 -114 294
q0 193 140 325q125 116 300 116q130 0 230.5 -63t160.5 -182q30 76 79 128q113 117 283 117q124 0 222 -62q90 -58 141 -177q37 -88 37 -160q0 -25 -14 -34t-54 -9h-647zM1596 490q-15 85 -50 143q-40 68 -108.5 106t-151.5 38q-124 0 -204 -73.5t-107 -213.5h621zM525 778
q-160 0 -262 -125q-87 -106 -87 -245q0 -153 116 -261q99 -93 234 -93q104 0 196 60q161 105 161 295q0 164 -118 276q-98 93 -240 93z" />
    <glyph glyph-name="endash" unicode="&#x2012;" vert-adv-y="2457" 
d="M323 464h473q39 0 53.5 -9t14.5 -32t-14.5 -32t-53.5 -9h-473q-39 0 -53.5 9t-14.5 32t14.5 32t53.5 9z" />
    <glyph glyph-name="endash" unicode="&#x2013;" vert-adv-y="2457" 
d="M323 464h473q39 0 53.5 -9t14.5 -32t-14.5 -32t-53.5 -9h-473q-39 0 -53.5 9t-14.5 32t14.5 32t53.5 9z" />
    <glyph glyph-name="emdash" unicode="&#x2014;" horiz-adv-x="1034" vert-adv-y="2457" 
d="M68 464h897q40 0 54.5 -9t14.5 -32t-14.5 -32t-54.5 -9h-897q-39 0 -53.5 9t-14.5 32t14.5 32t53.5 9z" />
    <glyph glyph-name="emdash" unicode="&#x2015;" horiz-adv-x="1034" vert-adv-y="2457" 
d="M68 464h897q40 0 54.5 -9t14.5 -32t-14.5 -32t-54.5 -9h-897q-39 0 -53.5 9t-14.5 32t14.5 32t53.5 9z" />
    <glyph glyph-name="quotedblleft" unicode="&#x201c;" horiz-adv-x="702" vert-adv-y="2457" 
d="M391 1101l103 279q12 32 20.5 42t24.5 10q9 0 16 -10t7 -21q0 -10 -9 -40l-85 -286q-10 -35 -18.5 -45.5t-28.5 -10.5q-16 0 -29 11.5t-13 27.5q0 11 12 43zM154 1101l103 279q12 32 21 42t25 10q9 0 16 -10t7 -21q0 -7 -10 -40l-84 -286q-11 -35 -19.5 -45.5
t-27.5 -10.5q-17 0 -30 11.5t-13 27.5q0 10 12 43z" />
    <glyph glyph-name="quotedblright" unicode="&#x201d;" horiz-adv-x="702" vert-adv-y="2457" 
d="M311 1352l-104 -279q-11 -32 -20 -42.5t-25 -10.5q-9 0 -16 10t-7 22q0 9 9 40l85 286q10 35 19 45.5t28 10.5q17 0 30 -12t13 -27q0 -10 -12 -43zM548 1352l-104 -279q-12 -32 -20.5 -42.5t-24.5 -10.5q-9 0 -16 10t-7 22q0 9 9 40l85 286q10 35 19 45.5t28 10.5
q16 0 29 -12t13 -27q0 -12 -11 -43z" />
    <glyph glyph-name="quoteleft" unicode="&#x2018;" horiz-adv-x="465" vert-adv-y="2457" 
d="M154 1101l103 279q12 32 21 42t25 10q9 0 16 -10t7 -21q0 -7 -10 -40l-84 -286q-11 -35 -19.5 -45.5t-27.5 -10.5q-17 0 -30 11.5t-13 27.5q0 10 12 43z" />
    <glyph glyph-name="quoteright" unicode="&#x2019;" horiz-adv-x="465" vert-adv-y="2457" 
d="M311 1352l-104 -279q-11 -32 -20 -42.5t-25 -10.5q-9 0 -16 10t-7 22q0 9 9 40l85 286q10 35 19 45.5t28 10.5q17 0 30 -12t13 -27q0 -10 -12 -43z" />
    <glyph glyph-name="divide" unicode="&#xf7;" vert-adv-y="2457" 
d="M132 737h855q39 0 53.5 -8.5t14.5 -32.5t-14.5 -32.5t-53.5 -8.5h-855q-39 0 -53.5 9t-14.5 32t14.5 32t53.5 9zM569 496q31 0 53 -21.5t22 -52.5t-22 -53t-53 -22t-53 22t-22 53t22 52.5t53 21.5zM569 1038q31 0 53 -22t22 -52q0 -31 -22 -53t-53 -22t-53 22t-22 53
q0 30 22.5 52t52.5 22z" />
    <glyph glyph-name="lozenge" unicode="&#x25ca;" horiz-adv-x="1365" vert-adv-y="2457" 
d="M734 1348l439 -607q24 -33 24 -58t-24 -58l-439 -607q-23 -32 -51 -32t-51 32l-439 607q-24 33 -24 58t24 58l439 607q23 32 51 32t51 -32zM683 1193l-371 -510l371 -510l371 510z" />
    <glyph glyph-name="ydieresis" unicode="&#xff;" horiz-adv-x="877" vert-adv-y="2457" 
d="M412 -14l-357 767q-15 32 -15 44q0 16 12 28t28 12q21 0 30.5 -8.5t24.5 -41.5l320 -693l290 692q14 33 23 42t30 9q16 0 28.5 -12t12.5 -27q0 -13 -13 -44l-505 -1193q-14 -33 -23 -42t-30 -9q-15 0 -27 12t-12 27q0 11 14 44zM282 1151q32 0 53.5 -21.5t21.5 -52.5
t-22 -53t-52 -22q-31 0 -53 22t-22 54q0 29 22 51t52 22zM622 1151q31 0 53 -21.5t22 -52.5t-22 -53t-53 -22t-52.5 22t-21.5 54q0 30 22 51.5t52 21.5z" />
    <glyph glyph-name="Ydieresis" unicode="&#x178;" horiz-adv-x="1052" vert-adv-y="2457" 
d="M474 583l-398 697q-19 32 -19 46q0 39 48 39q17 0 25.5 -7t25.5 -37l364 -641l374 641q19 33 29 39t44 6q3 0 6 -6q21 -21 21 -31q0 -15 -20 -49l-411 -697v-515q0 -41 -8 -51q-13 -17 -37 -17q-26 0 -35 14t-9 54v515zM336 1675q32 0 55 -23t23 -55q0 -33 -23 -56
t-55 -23q-33 0 -56 23t-23 57q0 31 23 54t56 23zM717 1675q32 0 55 -23t23 -55q0 -33 -23 -56t-55 -23q-33 0 -56 23t-23 57q0 31 23 54t56 23z" />
    <glyph glyph-name="fraction" unicode="&#x2044;" horiz-adv-x="267" vert-adv-y="2457" 
d="M546 1329l-768 -1325q-13 -23 -32 -23q-13 0 -23.5 9.5t-10.5 21.5t8 26l769 1324q13 23 33 23q13 0 23 -9.5t10 -21.5q0 -11 -9 -25z" />
    <glyph glyph-name="Euro" unicode="&#x20ac;" vert-adv-y="2457" 
d="M271 544q2 -11 4 -28q24 -177 124 -311q118 -156 294 -156q62 0 136 23.5t122 58.5q25 18 35 18q22 0 22 -31q0 -35 -46 -64q-118 -75 -274 -75q-288 0 -431 277q-68 130 -84 288h-80q-42 0 -42 34t42 34h75q-1 35 -1 64q0 51 3 92h-77q-42 0 -42 34t42 34h85
q25 171 85 290q65 129 173 200q116 77 267 77q105 0 187 -31.5t135 -91.5q17 -19 17 -38q0 -16 -9 -27.5t-23 -11.5q-11 0 -20 10q-108 119 -282 119q-184 0 -296.5 -127t-141.5 -369h585q42 0 42 -34t-42 -34h-590q-1 -43 -1 -82t2 -74h515q42 0 42 -34t-42 -34h-510z" />
    <glyph glyph-name="guilsinglleft" unicode="&#x2039;" horiz-adv-x="494" vert-adv-y="2457" 
d="M167 423l175 -206q28 -32 28 -48q0 -33 -33 -33q-20 0 -50 35l-177 205q-28 32 -28 47t28 48l177 205q31 35 50 35q33 0 33 -34q0 -15 -28 -48z" />
    <glyph glyph-name="guilsinglright" unicode="&#x203a;" horiz-adv-x="494" vert-adv-y="2457" 
d="M328 423l-176 206q-27 33 -27 49q0 33 33 33q19 0 49 -35l178 -205q5 -7 12 -14q16 -18 16 -34q0 -15 -28 -47l-178 -205q-30 -35 -49 -35q-33 0 -33 33q0 16 27 48z" />
    <glyph glyph-name="fi" unicode="&#xfb01;" horiz-adv-x="625" vert-adv-y="2457" 
d="M229 761v-693q0 -39 -9 -53.5t-32 -14.5t-32 14.5t-9 53.5v693h-25q-38 0 -52.5 8t-14.5 29q0 22 14.5 30t52.5 8h25v397q0 138 42 197q61 87 178 87q73 0 73 -46q0 -13 -13.5 -24t-30.5 -11q-66 0 -91 -10t-46 -46q-30 -52 -30 -164v-380h142q38 0 52.5 -8t14.5 -30
q0 -21 -14.5 -29t-52.5 -8h-142zM552 768v-700q0 -39 -9 -53.5t-32 -14.5t-32 14.5t-9 53.5v700q0 39 9 53.5t32 14.5t32 -14.5t9 -53.5zM510 1189q31 0 52.5 -21.5t21.5 -53.5q0 -31 -21.5 -53t-51.5 -22q-31 0 -52.5 22t-21.5 54q0 30 21.5 52t51.5 22z" />
    <glyph glyph-name="fl" unicode="&#xfb02;" horiz-adv-x="625" vert-adv-y="2457" 
d="M229 761v-693q0 -39 -9 -53.5t-32 -14.5t-32 14.5t-9 53.5v693h-25q-38 0 -52.5 8t-14.5 29q0 22 14.5 30t52.5 8h25v397q0 138 42 197q61 87 178 87q73 0 73 -46q0 -13 -13.5 -24t-30.5 -11q-66 0 -91 -10t-46 -46q-30 -52 -30 -164v-380h142q38 0 52.5 -8t14.5 -30
q0 -21 -14.5 -29t-52.5 -8h-142zM584 1425v-1357q0 -39 -9 -53.5t-32 -14.5t-32 14.5t-9 53.5v1357q0 40 8.5 54.5t32.5 14.5q23 0 32 -14.5t9 -54.5z" />
    <glyph glyph-name="daggerdbl" unicode="&#x2021;" horiz-adv-x="635" vert-adv-y="2457" 
d="M368 373h169q41 0 51 -8q17 -13 17 -37q0 -26 -14 -35t-54 -9h-169v-216q0 -41 -8 -51q-13 -17 -37 -17q-26 0 -35 14t-9 54v216h-173q-41 0 -51 8q-17 13 -17 36q0 27 14 36t54 9h173v670h-176q-42 0 -52 8q-17 13 -17 36q0 27 14 36t55 9h176v165q0 41 8 51
q13 17 36 17q27 0 36 -14t9 -54v-165h165q42 0 52 -8q17 -13 17 -37q0 -26 -14 -35t-55 -9h-165v-670z" />
    <glyph glyph-name="periodcentered" unicode="&#xb7;" horiz-adv-x="422" vert-adv-y="2457" 
d="M212 498q31 0 52.5 -22t21.5 -53t-22 -53t-52 -22q-31 0 -53 22t-22 54q0 30 22 52t53 22z" />
    <glyph glyph-name="periodcentered" unicode="&#x2219;" horiz-adv-x="422" vert-adv-y="2457" 
d="M212 498q31 0 52.5 -22t21.5 -53t-22 -53t-52 -22q-31 0 -53 22t-22 54q0 30 22 52t53 22z" />
    <glyph glyph-name="quotesinglbase" unicode="&#x201a;" horiz-adv-x="465" vert-adv-y="2457" 
d="M311 43l-104 -280q-11 -32 -20 -42t-25 -10q-9 0 -16 10t-7 21q0 9 9 40l85 286q10 35 19 45.5t28 10.5q17 0 30 -12t13 -27q0 -10 -12 -42z" />
    <glyph glyph-name="quotedblbase" unicode="&#x201e;" horiz-adv-x="702" vert-adv-y="2457" 
d="M311 43l-104 -280q-11 -32 -20 -42t-25 -10q-9 0 -16 10t-7 21q0 9 9 40l85 286q10 35 19 45.5t28 10.5q17 0 30 -12t13 -27q0 -10 -12 -42zM548 43l-104 -280q-12 -32 -20.5 -42t-24.5 -10q-9 0 -16 10t-7 21q0 10 9 40l85 286q10 35 19 45.5t28 10.5q16 0 29 -12
t13 -27q0 -11 -11 -42z" />
    <glyph glyph-name="perthousand" unicode="&#x2030;" horiz-adv-x="1896" vert-adv-y="2457" 
d="M343 1377q136 0 216 -99q59 -75 59 -169q0 -111 -78 -190q-77 -78 -200 -78q-134 0 -213 99q-59 75 -59 173q0 106 78 186q76 78 197 78zM343 1303q-80 0 -136 -57q-57 -57 -57 -139q0 -78 57 -134.5t136 -56.5q80 0 137 57q56 56 56 136q0 81 -56.5 137.5t-136.5 56.5z
M1016 1303l-741 -1275q-17 -29 -25.5 -36.5t-23.5 -7.5q-27 0 -27 34q0 10 19 43l740 1277q17 28 26 36t24 8q28 0 28 -35q0 -10 -20 -44zM895 524q136 0 215 -99q60 -75 60 -169q0 -111 -78 -190q-77 -78 -200 -78q-134 0 -213 99q-59 75 -59 173q0 106 78 186
q77 78 197 78zM894 449q-80 0 -136 -57q-57 -57 -57 -139q0 -78 57 -134.5t136 -56.5q81 0 138 57q56 56 56 137q0 80 -56.5 136.5t-137.5 56.5zM1552 524q136 0 215 -99q60 -75 60 -169q0 -111 -78 -190q-77 -78 -200 -78q-134 0 -213 99q-59 75 -59 173q0 106 78 186
q77 78 197 78zM1551 449q-80 0 -136 -57q-57 -57 -57 -139q0 -78 57 -134.5t136 -56.5q81 0 138 57q56 56 56 137q0 80 -56.5 136.5t-137.5 56.5z" />
    <glyph glyph-name="Acircumflex" unicode="&#xc2;" horiz-adv-x="1197" vert-adv-y="2457" 
d="M890 449h-582l-160 -398q-14 -34 -24.5 -43.5t-34.5 -9.5q-14 0 -27.5 12.5t-13.5 26.5q0 12 13 45l486 1205q20 50 29.5 64t24.5 14q16 0 26 -14t30 -64l480 -1205q13 -33 13 -45q0 -14 -13.5 -26.5t-27.5 -12.5q-24 0 -34.5 9.5t-24.5 43.5zM857 531l-256 673
l-260 -673h516zM598 1609l-136 -103q-33 -25 -46 -25q-19 0 -33.5 14t-14.5 32q0 20 38 49l146 112q2 2 14 12q18 14 32 14t47 -25l146 -113q37 -29 37 -49q0 -19 -14.5 -33t-34.5 -14q-12 0 -46 26z" />
    <glyph glyph-name="Ecircumflex" unicode="&#xca;" horiz-adv-x="948" vert-adv-y="2457" 
d="M273 1283v-494h483q40 0 54.5 -9t14.5 -32t-14.5 -32t-54.5 -9h-483v-625h497q39 0 53.5 -9t14.5 -32t-14.5 -32t-53.5 -9h-518q-45 0 -56.5 11.5t-11.5 56.5v1229q0 45 11.5 56.5t56.5 11.5h518q39 0 53.5 -9t14.5 -32t-14.5 -32t-53.5 -9h-497zM514 1609l-137 -103
q-33 -25 -45 -25q-20 0 -34 14t-14 32q0 20 37 49l146 112q3 2 15 12q18 14 32 14q13 0 47 -25l145 -113q38 -29 38 -49q0 -18 -15 -32.5t-34 -14.5q-13 0 -46 26z" />
    <glyph glyph-name="Aacute" unicode="&#xc1;" horiz-adv-x="1197" vert-adv-y="2457" 
d="M890 449h-582l-160 -398q-14 -34 -24.5 -43.5t-34.5 -9.5q-14 0 -27.5 12.5t-13.5 26.5q0 12 13 45l486 1205q20 50 29.5 64t24.5 14q16 0 26 -14t30 -64l480 -1205q13 -33 13 -45q0 -14 -13.5 -26.5t-27.5 -12.5q-24 0 -34.5 9.5t-24.5 43.5zM857 531l-256 673
l-260 -673h516zM800 1619l-164 -123q-9 -7 -14 -11q-18 -14 -32 -14q-19 0 -33.5 14t-14.5 32t35 48l147 132q32 28 55 28t41.5 -17t18.5 -38q0 -22 -39 -51z" />
    <glyph glyph-name="Edieresis" unicode="&#xcb;" horiz-adv-x="948" vert-adv-y="2457" 
d="M273 1283v-494h483q40 0 54.5 -9t14.5 -32t-14.5 -32t-54.5 -9h-483v-625h497q39 0 53.5 -9t14.5 -32t-14.5 -32t-53.5 -9h-518q-45 0 -56.5 11.5t-11.5 56.5v1229q0 45 11.5 56.5t56.5 11.5h518q39 0 53.5 -9t14.5 -32t-14.5 -32t-53.5 -9h-497zM324 1675q32 0 55 -23
t23 -55q0 -33 -23 -56t-55 -23q-33 0 -56 23t-23 57q0 31 23 54t56 23zM705 1675q32 0 55 -23t23 -55q0 -33 -23 -56t-55 -23q-33 0 -56 23t-23 57q0 31 23 54t56 23z" />
    <glyph glyph-name="Egrave" unicode="&#xc8;" horiz-adv-x="948" vert-adv-y="2457" 
d="M273 1283v-494h483q40 0 54.5 -9t14.5 -32t-14.5 -32t-54.5 -9h-483v-625h497q39 0 53.5 -9t14.5 -32t-14.5 -32t-53.5 -9h-518q-45 0 -56.5 11.5t-11.5 56.5v1229q0 45 11.5 56.5t56.5 11.5h518q39 0 53.5 -9t14.5 -32t-14.5 -32t-53.5 -9h-497zM457 1697l148 -131
q34 -31 34 -49t-14.5 -32t-33.5 -14q-13 0 -46 25l-164 123q-38 28 -38 51q0 22 19 39t43 17q20 0 52 -29z" />
    <glyph glyph-name="Iacute" unicode="&#xcd;" horiz-adv-x="457" vert-adv-y="2457" 
d="M273 1297v-1229q0 -41 -8 -51q-13 -17 -37 -17q-26 0 -35 14t-9 54v1229q0 41 8 51q13 17 36 17q27 0 36 -14t9 -54zM430 1619l-164 -123q-10 -7 -15 -11q-18 -14 -31 -14q-20 0 -34 14t-14 32t34 48l148 132q31 28 54 28t41.5 -17t18.5 -38q0 -23 -38 -51z" />
    <glyph glyph-name="Icircumflex" unicode="&#xce;" horiz-adv-x="457" vert-adv-y="2457" 
d="M273 1297v-1229q0 -41 -8 -51q-13 -17 -37 -17q-26 0 -35 14t-9 54v1229q0 41 8 51q13 17 36 17q27 0 36 -14t9 -54zM228 1609l-136 -103q-33 -25 -46 -25q-20 0 -34 14t-14 32q0 20 38 49l145 112q3 2 15 12q18 14 32 14q13 0 47 -25l145 -113q38 -29 38 -49
q0 -19 -15 -33t-34 -14q-13 0 -46 26z" />
    <glyph glyph-name="Idieresis" unicode="&#xcf;" horiz-adv-x="458" vert-adv-y="2457" 
d="M273 1297v-1229q0 -41 -8 -51q-13 -17 -36 -17q-27 0 -36 14t-9 54v1229q0 41 8 51q13 17 37 17q26 0 35 -14t9 -54zM100 1675q32 0 55 -23t23 -55q0 -33 -23 -56t-55 -23q-33 0 -56 23t-23 57q0 31 23 54t56 23zM358 1675q32 0 55 -23t23 -56q0 -32 -23 -55t-55 -23
q-33 0 -56 23t-23 57q0 31 23.5 54t55.5 23z" />
    <glyph glyph-name="Igrave" unicode="&#xcc;" horiz-adv-x="457" vert-adv-y="2457" 
d="M273 1297v-1229q0 -41 -8 -51q-13 -17 -36 -17q-27 0 -36 14t-9 54v1229q0 41 8 51q13 17 37 17q26 0 35 -14t9 -54zM104 1697l147 -131q34 -31 34 -49t-14 -32t-34 -14q-12 0 -46 25l-164 123q-38 29 -38 51t19 39t43 17q20 0 53 -29z" />
    <glyph glyph-name="Oacute" unicode="&#xd3;" horiz-adv-x="1634" vert-adv-y="2457" 
d="M817 1384q195 0 362 -102q157 -96 248 -247q98 -163 98 -354q0 -190 -98 -355q-92 -153 -248 -247q-170 -102 -367 -102q-186 0 -357 102q-157 94 -248 247q-98 166 -98 366q0 184 98 343q98 157 248 247q170 102 362 102zM812 1301q-164 0 -311 -90q-141 -87 -220 -225
q-81 -140 -81 -315q0 -155 81 -296q80 -140 220 -225q150 -90 316 -90t316 90q141 86 221 225q80 142 80 305q0 269 -200 454q-97 91 -223 134q-99 33 -199 33zM1018 1619l-164 -123q-9 -7 -14 -11q-18 -14 -32 -14q-20 0 -34 14t-14 32t35 48l147 132q32 28 55 28t41.5 -17
t18.5 -38q0 -22 -39 -51z" />
    <glyph glyph-name="Ocircumflex" unicode="&#xd4;" horiz-adv-x="1634" vert-adv-y="2457" 
d="M817 1384q195 0 362 -102q157 -96 248 -247q98 -163 98 -354q0 -190 -98 -355q-92 -153 -248 -247q-170 -102 -367 -102q-186 0 -357 102q-157 94 -248 247q-98 166 -98 366q0 184 98 343q98 157 248 247q170 102 362 102zM812 1301q-164 0 -311 -90q-141 -87 -220 -225
q-81 -140 -81 -315q0 -155 81 -296q80 -140 220 -225q150 -90 316 -90t316 90q141 86 221 225q80 142 80 305q0 269 -200 454q-97 91 -223 134q-99 33 -199 33zM816 1609l-136 -103q-33 -25 -46 -25q-19 0 -33.5 14t-14.5 32q0 20 38 49l146 112q2 2 14 12q18 14 32 14
t47 -25l146 -113q37 -28 37 -49q0 -19 -14.5 -33t-34.5 -14q-12 0 -46 26z" />
    <glyph glyph-name="glyph210" horiz-adv-x="512" vert-adv-y="2457" 
 />
    <glyph glyph-name="Ograve" unicode="&#xd2;" horiz-adv-x="1634" vert-adv-y="2457" 
d="M817 1384q195 0 362 -102q157 -96 248 -247q98 -163 98 -354q0 -190 -98 -355q-92 -153 -248 -247q-170 -102 -367 -102q-186 0 -357 102q-157 94 -248 247q-98 166 -98 366q0 184 98 343q98 157 248 247q170 102 362 102zM812 1301q-164 0 -311 -90q-141 -87 -220 -225
q-81 -140 -81 -315q0 -155 81 -296q80 -140 220 -225q150 -90 316 -90t316 90q141 86 221 225q80 142 80 305q0 269 -200 454q-97 91 -223 134q-99 33 -199 33zM692 1697l148 -131q34 -31 34 -49t-14.5 -32t-33.5 -14q-13 0 -46 25l-164 123q-38 28 -38 51q0 22 19 39t43 17
q20 0 52 -29z" />
    <glyph glyph-name="Uacute" unicode="&#xda;" horiz-adv-x="1297" vert-adv-y="2457" 
d="M273 1297v-786q0 -126 10 -187t39 -107q45 -70 143 -116q88 -41 183 -41q135 0 247 78q78 55 103 128t25 245v786q0 41 8 51q13 17 37 17q26 0 35 -14t9 -54v-810q0 -161 -22 -227q-46 -140 -190 -219q-115 -64 -252 -64q-164 0 -292 88q-129 89 -160 230q-12 57 -12 192
v810q0 41 8 51q13 17 37 17q26 0 35 -14t9 -54zM850 1619l-165 -123q-10 -8 -14 -11q-18 -14 -31 -14q-20 0 -34 14t-14 32t34 48l147 132q32 28 55 28t41.5 -17t18.5 -38q0 -22 -38 -51z" />
    <glyph glyph-name="Ucircumflex" unicode="&#xdb;" horiz-adv-x="1297" vert-adv-y="2457" 
d="M273 1297v-786q0 -126 10 -187t39 -107q45 -70 143 -116q88 -41 183 -41q135 0 247 78q78 55 103 128t25 245v786q0 41 8 51q13 17 37 17q26 0 35 -14t9 -54v-810q0 -161 -22 -227q-46 -140 -190 -219q-115 -64 -252 -64q-164 0 -292 88q-129 89 -160 230q-12 57 -12 192
v810q0 41 8 51q13 17 37 17q26 0 35 -14t9 -54zM648 1609l-137 -103q-33 -25 -45 -25q-20 0 -34 14t-14 32q0 20 37 49l146 112q2 2 14 12q19 14 33 14q13 0 46 -25l146 -113q38 -29 38 -49q0 -19 -15 -33t-34 -14q-13 0 -46 26z" />
    <glyph glyph-name="Ugrave" unicode="&#xd9;" horiz-adv-x="1297" vert-adv-y="2457" 
d="M273 1297v-786q0 -126 10 -187t39 -107q45 -70 143 -116q88 -41 183 -41q135 0 247 78q78 55 103 128t25 245v786q0 41 8 51q13 17 37 17q26 0 35 -14t9 -54v-810q0 -161 -22 -227q-46 -140 -190 -219q-115 -64 -252 -64q-164 0 -292 88q-129 89 -160 230q-12 57 -12 192
v810q0 41 8 51q13 17 37 17q26 0 35 -14t9 -54zM524 1697l147 -131q34 -31 34 -49t-14.5 -32t-33.5 -14q-13 0 -46 25l-164 123q-38 28 -38 51q0 22 19 39t43 17q20 0 53 -29z" />
    <glyph glyph-name="dotlessi" unicode="&#x131;" horiz-adv-x="374" vert-adv-y="2457" 
d="M228 768v-700q0 -39 -9 -53.5t-32 -14.5t-32 14.5t-9 53.5v700q0 39 9 53.5t32 14.5t32 -14.5t9 -53.5z" />
    <glyph glyph-name="circumflex" unicode="&#x2c6;" horiz-adv-x="1024" vert-adv-y="2457" 
d="M511 1095l-136 -103q-33 -25 -47 -25q-17 0 -28.5 11.5t-11.5 28.5q0 20 38 49l139 108q33 25 46 25q14 0 47 -25l139 -107q38 -29 38 -49q0 -17 -12.5 -29.5t-29.5 -12.5q-14 0 -47 25z" />
    <glyph glyph-name="tilde" unicode="&#x2dc;" horiz-adv-x="1024" vert-adv-y="2457" 
d="M398 1154q37 0 118 -36q85 -37 117 -37q37 0 75 48q8 9 22 9q33 0 33 -34q0 -35 -46 -70t-92 -35q-29 0 -113 35q-91 38 -127 38q-37 0 -59 -30q-18 -24 -38 -24q-26 0 -26 31q0 23 29 55q45 50 107 50z" />
    <glyph glyph-name="macron" unicode="&#xaf;" horiz-adv-x="1024" vert-adv-y="2457" 
d="M304 1090h415q39 0 53.5 -8.5t14.5 -31.5q0 -24 -14.5 -32.5t-53.5 -8.5h-415q-39 0 -53.5 8.5t-14.5 32.5q0 23 14.5 31.5t53.5 8.5z" />
    <glyph glyph-name="macron" unicode="&#x2c9;" horiz-adv-x="1024" vert-adv-y="2457" 
d="M304 1090h415q39 0 53.5 -8.5t14.5 -31.5q0 -24 -14.5 -32.5t-53.5 -8.5h-415q-39 0 -53.5 8.5t-14.5 32.5q0 23 14.5 31.5t53.5 8.5z" />
    <glyph glyph-name="breve" unicode="&#x2d8;" horiz-adv-x="1024" vert-adv-y="2457" 
d="M312 1172q20 0 34 -27q44 -86 166 -86t166 86q14 27 34 27q41 0 41 -40q0 -33 -37 -71q-80 -81 -208 -81q-120 0 -200 81q-37 38 -37 71q0 40 41 40z" />
    <glyph glyph-name="dotaccent" unicode="&#x2d9;" horiz-adv-x="1024" vert-adv-y="2457" 
d="M512 1158q33 0 56 -22.5t23 -55.5q0 -32 -23 -55t-56 -23t-56 23t-23 56q0 32 23.5 54.5t55.5 22.5z" />
    <glyph glyph-name="ring" unicode="&#x2da;" horiz-adv-x="1024" vert-adv-y="2457" 
d="M512 1282q65 0 111 -45.5t46 -111.5q0 -65 -46 -111t-111 -46t-111 46.5t-46 112.5q0 63 46.5 109t110.5 46zM512 1208q-36 0 -60.5 -24.5t-24.5 -60.5q0 -34 25 -58.5t60 -24.5t60 24.5t25 59.5t-24.5 59.5t-60.5 24.5z" />
    <glyph glyph-name="cedilla" unicode="&#xb8;" horiz-adv-x="1024" vert-adv-y="2457" 
d="M596 -207l-112 -143q-20 -25 -28 -31t-21 -6q-16 0 -27.5 11.5t-11.5 28.5q0 11 22 45l95 148q30 46 49 46q24 0 42 -16t18 -37q0 -13 -26 -46z" />
    <glyph glyph-name="hungarumlaut" unicode="&#x2dd;" horiz-adv-x="1024" vert-adv-y="2457" 
d="M552 1160l-119 -154q-28 -37 -50 -37q-30 0 -30 36q0 9 21 43l101 164q4 7 9 15q17 28 41 28q19 0 35.5 -16t16.5 -34q0 -12 -25 -45zM779 1160l-119 -154q-19 -24 -28 -31t-22 -7q-30 0 -30 36q0 11 21 44l100 164l10 15q17 28 41 28q19 0 35.5 -16t16.5 -34
q0 -13 -25 -45z" />
    <glyph glyph-name="ogonek" unicode="&#x2db;" horiz-adv-x="1024" vert-adv-y="2457" 
d="M569 -1l75 1q-139 -114 -139 -196q0 -45 33 -74t83 -29q1 0 45 3q7 1 13 1q36 0 36 -36q0 -39 -99 -39q-86 0 -143 58q-46 47 -46 111q0 58 38 111.5t104 88.5z" />
    <glyph glyph-name="caron" unicode="&#x2c7;" horiz-adv-x="1024" vert-adv-y="2457" 
d="M512 1058l137 103q32 25 46 25q17 0 29 -12t12 -28q0 -20 -38 -49l-139 -108q-33 -25 -47 -25t-46 25l-139 107q-38 29 -38 49q0 17 12.5 29.5t29.5 12.5q13 0 46 -25z" />
    <glyph glyph-name="currency" unicode="&#xa4;" horiz-adv-x="1316" vert-adv-y="2457" 
d="M299 444q-62 86 -86 150.5t-24 143.5q0 75 21.5 136t74.5 139l11 15l-177 177q-10 10 -10 16q0 7 10 17l33 33q9 9 16 9t16 -9l177 -177q11 8 30 20q73 50 133 70t135 20q78 0 136.5 -20.5t141.5 -77.5l16 -10l176 174q10 10 17 10q5 0 15 -10l33 -33q10 -10 10 -16
t-10 -16l-175 -175l10 -14q55 -83 76 -143t21 -137q0 -79 -21 -136t-85 -154l177 -177q10 -10 10 -17q0 -6 -10 -16l-32 -33q-9 -9 -16 -9t-16 9l-178 178q-9 -7 -22 -16q-132 -93 -273 -93q-77 0 -137.5 21.5t-159.5 84.5l-175 -175q-9 -9 -16 -9q-8 0 -17 9l-32 33
q-9 9 -9 16t9 16zM654 1096q-144 0 -249 -106q-104 -105 -104 -252q0 -149 105 -253q104 -105 252 -105t253 105q104 104 104 251q0 152 -104 254q-107 106 -257 106z" />
    <glyph glyph-name="brokenbar" unicode="&#xa6;" horiz-adv-x="1024" vert-adv-y="2457" 
d="M557 1311v-559q0 -54 -44 -54q-45 0 -45 54v559q0 54 44 54q45 0 45 -54zM557 260v-547q0 -54 -44 -54q-45 0 -45 54v547q0 54 44 54q45 0 45 -54z" />
    <glyph glyph-name="twosuperior" unicode="&#xb2;" vert-adv-y="2457" 
d="M347 617h372q62 0 62 -37t-62 -37h-456q-62 0 -62 37q0 15 25 37l310 284q90 83 124.5 133t34.5 99q0 74 -70 122q-62 42 -142 42q-83 0 -139.5 -40.5t-64.5 -106.5q-5 -38 -46 -38q-45 0 -45 41q0 79 68 137q95 82 231 82q125 0 215 -74q83 -69 83 -167
q0 -72 -39.5 -128.5t-172.5 -176.5z" />
    <glyph glyph-name="threesuperior" unicode="&#xb3;" vert-adv-y="2457" 
d="M589 975q135 -67 135 -199q0 -115 -98 -185q-85 -62 -197 -62q-75 0 -141.5 30t-101.5 80q-31 46 -31 86q0 17 12.5 28.5t31.5 11.5q21 0 30 -10t21 -47q14 -43 66.5 -73t114.5 -30q82 0 142.5 51t60.5 120q0 95 -96 138q-25 10 -82 17q-37 4 -37 39q0 37 49 42
q63 6 108 49t45 98q0 63 -49 104.5t-123 41.5q-69 0 -115 -31t-55 -83q-7 -39 -44 -39q-16 0 -28.5 11.5t-12.5 26.5q0 46 32 91q71 100 219 100q119 0 193 -67q73 -66 73 -155q0 -115 -122 -184z" />
    <glyph glyph-name="onesuperior" unicode="&#xb9;" horiz-adv-x="1117" vert-adv-y="2457" 
d="M439 1290h-71q-63 0 -63 37t63 37h99q64 3 61 -53v-714q0 -53 -45 -53q-44 0 -44 53v693z" />
    <glyph glyph-name="onequarter" unicode="&#xbc;" horiz-adv-x="1260" vert-adv-y="2457" 
d="M1017 1303l-742 -1275q-17 -29 -25.5 -36.5t-23.5 -7.5q-27 0 -27 34q0 10 19 43l741 1277q16 28 25 36t24 8q28 0 28 -35q0 -10 -19 -44zM262 1290h-71q-63 0 -63 37t63 37h99q64 3 61 -53v-714q0 -53 -45 -53q-44 0 -44 53v693zM1077 219h73q62 0 62 -38t-62 -38h-73
v-101q0 -55 -44 -55t-44 55v101h-426q-61 0 -61 38q0 13 19 36l469 564q24 28 45 28q42 0 42 -55v-535zM989 219v430l-358 -430h358z" />
    <glyph glyph-name="onehalf" unicode="&#xbd;" horiz-adv-x="1412" vert-adv-y="2457" 
d="M1017 1303l-742 -1275q-17 -29 -25.5 -36.5t-23.5 -7.5q-27 0 -27 34q0 10 19 43l741 1277q16 28 25 36t24 8q28 0 28 -35q0 -10 -19 -44zM262 1290h-71q-63 0 -63 37t63 37h99q64 3 61 -53v-714q0 -53 -45 -53q-44 0 -44 53v693zM947 74h372q61 0 61 -37q0 -36 -61 -36
h-457q-61 0 -61 36q0 15 24 37l310 285q92 84 126 133.5t34 99.5q0 73 -70 122q-62 42 -142 42q-83 0 -140 -41t-64 -106q-5 -39 -46 -39q-45 0 -45 41q0 79 68 138q95 82 231 82q125 0 215 -75q83 -68 83 -167q0 -71 -40 -128.5t-172 -176.5z" />
    <glyph glyph-name="threequarters" unicode="&#xbe;" horiz-adv-x="1490" vert-adv-y="2457" 
d="M1247 1303l-742 -1275q-16 -29 -25 -36.5t-24 -7.5q-27 0 -27 34q0 9 20 43l740 1277q17 29 25.5 36.5t23.5 7.5q28 0 28 -35q0 -11 -19 -44zM1308 219h73q62 0 62 -38t-62 -38h-73v-101q0 -55 -44 -55t-44 55v101h-426q-61 0 -61 38q0 13 20 36l468 564q24 28 45 28
q42 0 42 -55v-535zM1220 219v430l-358 -430h358zM548 975q135 -67 135 -199q0 -115 -98 -185q-85 -62 -197 -62q-75 0 -141.5 30t-101.5 80q-31 46 -31 86q0 17 12.5 28.5t31.5 11.5q21 0 30 -10t21 -47q14 -43 66.5 -73t114.5 -30q82 0 142.5 51t60.5 120q0 95 -96 138
q-25 10 -82 17q-37 4 -37 39q0 37 49 42q63 6 108 49t45 98q0 63 -49 104.5t-123 41.5q-69 0 -115 -31t-55 -83q-7 -39 -44 -39q-16 0 -28.5 11.5t-12.5 26.5q0 46 32 91q71 100 219 100q119 0 193 -67q73 -66 73 -155q0 -115 -122 -184z" />
    <glyph glyph-name="Eth" unicode="&#xd0;" horiz-adv-x="1264" vert-adv-y="2457" 
d="M184 664h-75q-39 0 -53.5 9t-14.5 32t14.5 32t53.5 9h75v551q0 45 11.5 56.5t56.5 11.5h202q309 0 500 -189q201 -199 201 -493t-201 -493q-191 -190 -500 -190h-202q-45 0 -56.5 11.5t-11.5 56.5v596zM273 664v-582h180q260 0 427 157q184 174 184 444t-184 443
q-167 157 -427 157h-180v-537h260q40 0 54.5 -8.5t14.5 -32.5t-14.5 -32.5t-54.5 -8.5h-260z" />
    <glyph glyph-name="Eth" unicode="&#x110;" horiz-adv-x="1264" vert-adv-y="2457" 
d="M184 664h-75q-39 0 -53.5 9t-14.5 32t14.5 32t53.5 9h75v551q0 45 11.5 56.5t56.5 11.5h202q309 0 500 -189q201 -199 201 -493t-201 -493q-191 -190 -500 -190h-202q-45 0 -56.5 11.5t-11.5 56.5v596zM273 664v-582h180q260 0 427 157q184 174 184 444t-184 443
q-167 157 -427 157h-180v-537h260q40 0 54.5 -8.5t14.5 -32.5t-14.5 -32.5t-54.5 -8.5h-260z" />
    <glyph glyph-name="multiply" unicode="&#xd7;" vert-adv-y="2457" 
d="M560 752l299 299q31 31 49 31q16 0 27 -11t11 -27q0 -17 -31 -49l-299 -299l299 -298q31 -32 31 -48q0 -17 -11 -28t-27 -11q-18 0 -49 31l-299 299l-298 -299q-31 -31 -48 -31t-28 11t-11 28t31 48l299 298l-299 299q-31 31 -31 48t11 28t28 11t48 -31z" />
    <glyph glyph-name="Yacute" unicode="&#xdd;" horiz-adv-x="1052" vert-adv-y="2457" 
d="M474 583l-398 697q-19 32 -19 46q0 16 13 28t30 12q20 0 29 -7.5t27 -37.5l364 -641l374 641q18 30 26 37t25 7q19 0 34 -11.5t15 -26.5q0 -14 -20 -47l-411 -697v-515q0 -41 -8 -51q-13 -17 -37 -17q-26 0 -35 14t-9 54v515zM728 1619l-165 -123q-33 -25 -46 -25
q-19 0 -33.5 14t-14.5 32t35 48l147 132q32 28 55 28t41.5 -17t18.5 -38q0 -22 -38 -51z" />
    <glyph glyph-name="Thorn" unicode="&#xde;" horiz-adv-x="912" vert-adv-y="2457" 
d="M273 444v-390q0 -54 -44 -54q-45 0 -45 54v1257q0 54 44 54q45 0 45 -54v-150h174q104 0 175 -25t124 -80q98 -101 98 -253q0 -166 -105 -264q-101 -95 -290 -95h-176zM273 526h179q141 0 224 81q77 75 77 195q0 127 -74 201q-76 76 -241 76h-165v-553z" />
    <glyph glyph-name="eth" unicode="&#xf0;" horiz-adv-x="1058" vert-adv-y="2457" 
d="M507 1362l180 94q16 8 28 8q13 0 23.5 -11.5t10.5 -26.5q0 -22 -27 -37l-144 -78q147 -123 240 -292q70 -127 109.5 -279t39.5 -295q0 -241 -152 -367q-121 -100 -283 -100q-209 0 -339 154q-102 120 -102 283q0 188 133 314q129 123 303 123q175 0 314 -130
q-60 197 -135.5 317.5t-207.5 230.5l-176 -98q-16 -9 -29 -9t-24 11.5t-11 26.5q0 23 27 38l141 79q-106 69 -236 111q-23 8 -23 28q0 7 4 14l3 4q11 18 32 18q16 0 101 -32q109 -41 200 -99zM523 776q-161 0 -265 -127q-82 -100 -82 -240q0 -149 106 -255
q100 -100 244 -100q98 0 183 51q173 103 173 310q0 159 -108 261q-106 100 -251 100z" />
    <glyph glyph-name="yacute" unicode="&#xfd;" horiz-adv-x="877" vert-adv-y="2457" 
d="M412 -14l-357 767q-15 32 -15 45q0 16 13 27.5t29 11.5q20 0 28.5 -8.5t24.5 -41.5l320 -693l290 692q14 33 23 42t28 9q17 0 30 -12t13 -27q0 -13 -13 -44l-505 -1193q-5 -13 -7 -17q-14 -34 -43 -34q-16 0 -29 11.5t-13 26.5q0 12 14 45zM592 1160l-129 -157l-12 -14
q-18 -22 -37 -22q-33 0 -33 37q0 12 22 45l111 166q18 28 26 34.5t24 6.5q20 0 37 -16t17 -34q0 -14 -26 -46z" />
    <glyph glyph-name="thorn" unicode="&#xfe;" horiz-adv-x="1054" vert-adv-y="2457" 
d="M228 686q44 65 98 100q103 68 228 68q191 0 311 -144q98 -119 98 -296q0 -223 -142 -342q-112 -94 -264 -94q-204 0 -329 167v-584q0 -50 -41 -50t-41 50v1883q0 50 41 50t41 -50v-758zM549 778q-154 0 -251 -124q-75 -96 -75 -245q0 -174 104 -266q101 -89 227 -89
q139 0 238 109q86 95 86 255q0 158 -99 262q-94 98 -230 98z" />
    <glyph glyph-name="Amacron" unicode="&#x100;" horiz-adv-x="1197" vert-adv-y="2457" 
d="M890 449h-582l-160 -398q-14 -34 -24.5 -43.5t-34.5 -9.5q-14 0 -27.5 12.5t-13.5 26.5q0 12 13 45l486 1205q20 50 29.5 64t24.5 14q16 0 26 -14t30 -64l480 -1205q13 -33 13 -45q0 -14 -13.5 -26.5t-27.5 -12.5q-24 0 -34.5 9.5t-24.5 43.5zM857 531l-256 673
l-260 -673h516zM387 1614h424q41 0 51 -8q17 -13 17 -37q0 -26 -14 -35t-54 -9h-424q-41 0 -51 8q-17 13 -17 36q0 27 14 36t54 9z" />
    <glyph glyph-name="amacron" unicode="&#x101;" horiz-adv-x="1054" vert-adv-y="2457" 
d="M826 150q-44 -66 -98 -103q-103 -69 -228 -69q-191 0 -311 145q-98 119 -98 299q0 220 142 339q112 93 265 93q203 0 328 -163v77q0 39 9 53.5t32 14.5t32 -14.5t9 -53.5v-700q0 -39 -9 -53.5t-32 -14.5q-24 0 -32.5 14.5t-8.5 53.5v82zM500 778q-138 0 -238 -109
q-87 -95 -87 -253q0 -159 100 -263q94 -99 230 -99q156 0 252 125q74 96 74 247q0 173 -104 263q-101 89 -227 89zM320 1090h415q39 0 53.5 -8.5t14.5 -31.5q0 -24 -14.5 -32.5t-53.5 -8.5h-415q-39 0 -53.5 8.5t-14.5 32.5q0 23 14.5 31.5t53.5 8.5z" />
    <glyph glyph-name="Abreve" unicode="&#x102;" horiz-adv-x="1197" vert-adv-y="2457" 
d="M890 449h-582l-160 -398q-14 -34 -24.5 -43.5t-34.5 -9.5q-14 0 -27.5 12.5t-13.5 26.5q0 12 13 45l486 1205q20 50 29.5 64t24.5 14q16 0 26 -14t30 -64l480 -1205q13 -33 13 -45q0 -14 -13.5 -26.5t-27.5 -12.5q-24 0 -34.5 9.5t-24.5 43.5zM857 531l-256 673
l-260 -673h516zM396 1670q28 0 42 -32q15 -35 59.5 -57t101.5 -22q60 0 103.5 22.5t60.5 63.5q11 25 39 25q43 0 43 -42q0 -36 -40 -77q-79 -82 -210 -82q-122 0 -202 82q-40 41 -40 77q0 18 12.5 30t30.5 12z" />
    <glyph glyph-name="abreve" unicode="&#x103;" horiz-adv-x="1054" vert-adv-y="2457" 
d="M826 150q-44 -66 -98 -103q-103 -69 -228 -69q-191 0 -311 145q-98 119 -98 299q0 220 142 339q112 93 265 93q203 0 328 -163v77q0 39 9 53.5t32 14.5t32 -14.5t9 -53.5v-700q0 -39 -9 -53.5t-32 -14.5q-24 0 -32.5 14.5t-8.5 53.5v82zM500 778q-138 0 -238 -109
q-87 -95 -87 -253q0 -159 100 -263q94 -99 230 -99q156 0 252 125q74 96 74 247q0 173 -104 263q-101 89 -227 89zM328 1172q20 0 34 -27q44 -86 166 -86t166 86q14 27 34 27q41 0 41 -40q0 -33 -37 -71q-80 -81 -208 -81q-121 0 -200 81q-37 38 -37 71q0 40 41 40z" />
    <glyph glyph-name="Aogonek" unicode="&#x104;" horiz-adv-x="1197" vert-adv-y="2457" 
d="M1064 18l-174 431h-582l-160 -398q-14 -34 -24.5 -43.5t-34.5 -9.5q-14 0 -27.5 12.5t-13.5 26.5q0 12 13 45l486 1205q20 50 29.5 64t24.5 14q16 0 26 -14t30 -64l480 -1205q13 -33 13 -45q0 -20 -29 -37q-70 -41 -110.5 -89.5t-40.5 -90.5q0 -45 42 -76t104 -31
q6 0 50 4q9 1 15 1q37 0 37 -38q0 -41 -105 -41q-101 0 -168 60q-57 50 -57 115q0 60 46.5 114.5t129.5 89.5zM857 531l-256 673l-260 -673h516z" />
    <glyph glyph-name="aogonek" unicode="&#x105;" horiz-adv-x="1054" vert-adv-y="2457" 
d="M830 23q-4 13 -4 45v82q-44 -66 -98 -103q-103 -69 -228 -69q-191 0 -311 145q-98 119 -98 299q0 220 142 339q112 93 265 93q203 0 328 -163v77q0 39 9 53.5t32 14.5t32 -14.5t9 -53.5v-700q0 -32 -3.5 -40.5t-26.5 -27.5q-109 -91 -109 -171q0 -45 33 -74t83 -29
q2 0 46 3q7 1 13 1q36 0 36 -36q0 -39 -99 -39q-86 0 -143 58q-47 47 -47 111q0 58 37 110.5t102 88.5zM500 778q-138 0 -238 -109q-87 -95 -87 -253q0 -159 100 -263q94 -99 230 -99q156 0 252 125q74 96 74 247q0 173 -104 263q-101 89 -227 89z" />
    <glyph glyph-name="Cacute" unicode="&#x106;" horiz-adv-x="1386" vert-adv-y="2457" 
d="M1241 213q15 0 25.5 -12t10.5 -29q0 -20 -10 -30q-31 -33 -139 -89q-145 -76 -302 -76q-166 0 -318 76q-207 103 -315 298q-84 153 -84 328q0 176 87 334q97 177 274 278q164 93 349 93q113 0 228 -40.5t197 -109.5q34 -28 34 -52q0 -17 -11.5 -32t-23.5 -15
q-10 0 -104 69q-55 41 -150 69t-178 28q-151 0 -294 -83q-159 -93 -244 -253q-73 -137 -73 -300q0 -141 69 -270q89 -167 272 -263q137 -72 273 -72q140 0 299 78q21 10 77 50q34 25 51 25zM894 1619l-164 -123q-10 -7 -15 -11q-18 -14 -31 -14q-20 0 -34 14t-14 32t34 48
l148 132q31 28 54 28t41.5 -17t18.5 -38q0 -23 -38 -51z" />
    <glyph glyph-name="cacute" unicode="&#x107;" horiz-adv-x="902" vert-adv-y="2457" 
d="M794 153q30 0 30 -37q0 -17 -9 -27q-26 -30 -105 -68q-91 -43 -188 -43q-135 0 -242 71q-105 70 -155 189q-34 81 -34 172q0 190 127 321q118 123 304 123q77 0 156.5 -28t122.5 -70q13 -13 13 -32q0 -15 -9 -27t-20 -12q-10 0 -26 10q-86 55 -124 69t-104 14
q-165 0 -265 -117q-90 -106 -90 -253q0 -143 98 -247q102 -107 246 -107q112 0 221 72q42 27 53 27zM604 1160l-129 -157l-12 -14q-17 -22 -37 -22q-33 0 -33 37q0 12 22 45l111 166q18 27 26.5 34t23.5 7q20 0 37.5 -16t17.5 -34q0 -14 -27 -46z" />
    <glyph glyph-name="Ccircumflex" unicode="&#x108;" horiz-adv-x="1386" vert-adv-y="2457" 
d="M1241 213q15 0 25.5 -12t10.5 -29q0 -20 -10 -30q-31 -33 -139 -89q-145 -76 -302 -76q-166 0 -318 76q-207 103 -315 298q-84 153 -84 328q0 176 87 334q97 177 274 278q164 93 349 93q113 0 228 -40.5t197 -109.5q34 -28 34 -52q0 -17 -11.5 -32t-23.5 -15
q-10 0 -104 69q-55 41 -150 69t-178 28q-151 0 -294 -83q-159 -93 -244 -253q-73 -137 -73 -300q0 -141 69 -270q89 -167 272 -263q137 -72 273 -72q140 0 299 78q21 10 77 50q34 25 51 25zM786 1609l-136 -103q-33 -25 -46 -25q-20 0 -34 14t-14 32q0 20 38 49l146 112
q2 2 14 12q18 14 32 14t47 -25l145 -113q38 -29 38 -49q0 -19 -15 -33t-34 -14q-13 0 -46 26z" />
    <glyph glyph-name="ccircumflex" unicode="&#x109;" horiz-adv-x="902" vert-adv-y="2457" 
d="M794 153q30 0 30 -37q0 -17 -9 -27q-26 -30 -105 -68q-91 -43 -188 -43q-135 0 -242 71q-105 70 -155 189q-34 81 -34 172q0 190 127 321q118 123 304 123q77 0 156.5 -28t122.5 -70q13 -13 13 -32q0 -15 -9 -27t-20 -12q-10 0 -26 10q-86 55 -124 69t-104 14
q-165 0 -265 -117q-90 -106 -90 -253q0 -143 98 -247q102 -107 246 -107q112 0 221 72q42 27 53 27zM505 1095l-137 -103q-32 -25 -47 -25q-17 0 -28.5 11.5t-11.5 28.5q0 20 38 49l139 108q33 25 46 25q15 0 47 -25l139 -107q38 -29 38 -49q0 -17 -12.5 -29.5t-29.5 -12.5
q-13 0 -47 25z" />
    <glyph glyph-name="Cdotaccent" unicode="&#x10a;" horiz-adv-x="1386" vert-adv-y="2457" 
d="M1241 213q15 0 25.5 -12t10.5 -29q0 -20 -10 -30q-31 -33 -139 -89q-145 -76 -302 -76q-166 0 -318 76q-207 103 -315 298q-84 153 -84 328q0 176 87 334q97 177 274 278q164 93 349 93q113 0 228 -40.5t197 -109.5q34 -28 34 -52q0 -17 -11.5 -32t-23.5 -15
q-10 0 -104 69q-55 41 -150 69t-178 28q-151 0 -294 -83q-159 -93 -244 -253q-73 -137 -73 -300q0 -141 69 -270q89 -167 272 -263q137 -72 273 -72q140 0 299 78q21 10 77 50q34 25 51 25zM769 1683q35 0 59 -24t24 -58q0 -35 -24 -59t-59 -24t-59 24.5t-24 59.5
q0 33 24.5 57t58.5 24z" />
    <glyph glyph-name="cdotaccent" unicode="&#x10b;" horiz-adv-x="902" vert-adv-y="2457" 
d="M794 153q30 0 30 -37q0 -17 -9 -27q-26 -30 -105 -68q-91 -43 -188 -43q-135 0 -242 71q-105 70 -155 189q-34 81 -34 172q0 190 127 321q118 123 304 123q77 0 156.5 -28t122.5 -70q13 -13 13 -32q0 -15 -9 -27t-20 -12q-10 0 -26 10q-86 55 -124 69t-104 14
q-165 0 -265 -117q-90 -106 -90 -253q0 -143 98 -247q102 -107 246 -107q112 0 221 72q42 27 53 27zM505 1158q33 0 56 -22.5t23 -55.5q0 -32 -23 -55t-56 -23t-56 23t-23 56q0 32 23.5 54.5t55.5 22.5z" />
    <glyph glyph-name="Ccaron" unicode="&#x10c;" horiz-adv-x="1386" vert-adv-y="2457" 
d="M1241 213q15 0 25.5 -12t10.5 -29q0 -20 -10 -30q-31 -33 -139 -89q-145 -76 -302 -76q-166 0 -318 76q-207 103 -315 298q-84 153 -84 328q0 176 87 334q97 177 274 278q164 93 349 93q113 0 228 -40.5t197 -109.5q34 -28 34 -52q0 -17 -11.5 -32t-23.5 -15
q-10 0 -104 69q-55 41 -150 69t-178 28q-151 0 -294 -83q-159 -93 -244 -253q-73 -137 -73 -300q0 -141 69 -270q89 -167 272 -263q137 -72 273 -72q140 0 299 78q21 10 77 50q34 25 51 25zM755 1577l136 103q33 25 46 25q20 0 34 -14t14 -33t-38 -48l-146 -113
q-4 -3 -14 -11q-18 -14 -32 -14t-47 25l-146 112q-37 29 -37 49q0 19 14.5 33t34.5 14q13 0 46 -25z" />
    <glyph glyph-name="ccaron" unicode="&#x10d;" horiz-adv-x="902" vert-adv-y="2457" 
d="M794 153q30 0 30 -37q0 -17 -9 -27q-26 -30 -105 -68q-91 -43 -188 -43q-135 0 -242 71q-105 70 -155 189q-34 81 -34 172q0 190 127 321q118 123 304 123q77 0 156.5 -28t122.5 -70q13 -13 13 -32q0 -15 -9 -27t-20 -12q-10 0 -26 10q-86 55 -124 69t-104 14
q-165 0 -265 -117q-90 -106 -90 -253q0 -143 98 -247q102 -107 246 -107q112 0 221 72q42 27 53 27zM491 1058l137 103q33 25 46 25q17 0 29 -12t12 -28q0 -20 -38 -49l-139 -108q-33 -25 -47 -25t-47 25l-139 107q-37 29 -37 49q0 17 12.5 29.5t29.5 12.5q13 0 46 -25z" />
    <glyph glyph-name="Dcaron" unicode="&#x10e;" horiz-adv-x="1264" vert-adv-y="2457" 
d="M184 68v1229q0 45 11.5 56.5t56.5 11.5h202q309 0 500 -189q201 -199 201 -493t-201 -493q-191 -190 -500 -190h-202q-45 0 -56.5 11.5t-11.5 56.5zM273 82h180q260 0 427 157q184 174 184 444q0 269 -184 443q-167 157 -427 157h-180v-1201zM564 1577l136 103
q33 25 46 25q20 0 34 -14t14 -33t-38 -48l-145 -113q-5 -3 -15 -11q-18 -14 -32 -14t-47 25l-146 112q-37 29 -37 49q0 19 14.5 33t34.5 14q13 0 46 -25z" />
    <glyph glyph-name="dcaron" unicode="&#x10f;" horiz-adv-x="1054" vert-adv-y="2457" 
d="M826 150q-44 -66 -98 -103q-103 -69 -228 -69q-191 0 -311 145q-98 119 -98 299q0 220 142 339q112 93 265 93q203 0 328 -163v735q0 39 8.5 53.5t32.5 14.5t32.5 -14.5t8.5 -53.5v-1358q0 -39 -9 -53.5t-32 -14.5q-24 0 -32.5 14.5t-8.5 53.5v82zM500 778
q-138 0 -238 -109q-87 -95 -87 -253q0 -159 100 -263q94 -99 230 -99q156 0 252 125q74 96 74 247q0 173 -104 263q-101 89 -227 89zM1209 1414l-103 -280q-12 -31 -21 -41.5t-25 -10.5q-9 0 -16 10t-7 21q0 9 10 40l85 286q10 35 18.5 45.5t28.5 10.5q16 0 29 -11.5
t13 -27.5q0 -11 -12 -42z" />
    <glyph glyph-name="dcroat" unicode="&#x111;" horiz-adv-x="1054" vert-adv-y="2457" 
d="M826 1188h-164q-40 0 -54.5 8.5t-14.5 32.5t14.5 32.5t54.5 8.5h164v156q0 39 9 53.5t32 14.5t32 -14.5t9 -53.5v-156h66q39 0 53.5 -9t14.5 -32q0 -24 -14.5 -32.5t-53.5 -8.5h-66v-1120q0 -39 -9 -53.5t-32 -14.5q-24 0 -32.5 14.5t-8.5 53.5v82q-44 -66 -98 -103
q-103 -69 -228 -69q-191 0 -311 145q-98 119 -98 299q0 220 142 339q112 93 265 93q203 0 328 -163v497zM500 778q-138 0 -238 -109q-87 -95 -87 -253q0 -159 100 -263q94 -99 230 -99q156 0 252 125q74 96 74 247q0 173 -104 263q-101 89 -227 89z" />
    <glyph glyph-name="Emacron" unicode="&#x112;" horiz-adv-x="948" vert-adv-y="2457" 
d="M273 1283v-494h483q40 0 54.5 -9t14.5 -32t-14.5 -32t-54.5 -9h-483v-625h497q39 0 53.5 -9t14.5 -32t-14.5 -32t-53.5 -9h-518q-45 0 -56.5 11.5t-11.5 56.5v1229q0 45 11.5 56.5t56.5 11.5h518q39 0 53.5 -9t14.5 -32t-14.5 -32t-53.5 -9h-497zM298 1614h423
q42 0 52 -8q17 -13 17 -37q0 -26 -14 -35t-55 -9h-423q-41 0 -51 8q-17 13 -17 36q0 27 14 36t54 9z" />
    <glyph glyph-name="emacron" unicode="&#x113;" horiz-adv-x="990" vert-adv-y="2457" 
d="M180 407q5 -116 46 -189q42 -74 119 -119q76 -45 161 -45q119 0 211 80q23 19 63 80q13 18 35 18q17 0 28.5 -12t11.5 -30q0 -23 -44 -75q-118 -137 -309 -137q-183 0 -298 126q-113 125 -113 309q0 176 105 303q115 138 303 138q146 0 250 -90q102 -87 136 -230
q11 -49 11 -79q0 -28 -14.5 -38t-54.5 -10h-647zM804 485q-15 93 -60 157q-44 63 -109 99q-67 37 -137 37q-117 0 -205 -82.5t-107 -210.5h618zM287 1090h415q39 0 53.5 -8.5t14.5 -31.5q0 -24 -14.5 -32.5t-53.5 -8.5h-415q-39 0 -53.5 8.5t-14.5 32.5q0 23 14.5 31.5
t53.5 8.5z" />
    <glyph glyph-name="Ebreve" unicode="&#x114;" horiz-adv-x="948" vert-adv-y="2457" 
d="M273 1283v-494h483q40 0 54.5 -9t14.5 -32t-14.5 -32t-54.5 -9h-483v-625h497q39 0 53.5 -9t14.5 -32t-14.5 -32t-53.5 -9h-518q-45 0 -56.5 11.5t-11.5 56.5v1229q0 45 11.5 56.5t56.5 11.5h518q39 0 53.5 -9t14.5 -32t-14.5 -32t-53.5 -9h-497zM282 1670q27 0 41 -32
q15 -35 60 -57t102 -22q60 0 103.5 22.5t60.5 63.5q11 25 39 25q43 0 43 -42q0 -36 -40 -77q-80 -82 -210 -82q-123 0 -203 82q-40 41 -40 77q0 18 12.5 30t31.5 12z" />
    <glyph glyph-name="ebreve" unicode="&#x115;" horiz-adv-x="990" vert-adv-y="2457" 
d="M180 407q5 -116 46 -189q42 -74 119 -119q76 -45 161 -45q119 0 211 80q23 19 63 80q13 18 35 18q17 0 28.5 -12t11.5 -30q0 -23 -44 -75q-118 -137 -309 -137q-183 0 -298 126q-113 125 -113 309q0 176 105 303q115 138 303 138q146 0 250 -90q102 -87 136 -230
q11 -49 11 -79q0 -28 -14.5 -38t-54.5 -10h-647zM804 485q-15 93 -60 157q-44 63 -109 99q-67 37 -137 37q-117 0 -205 -82.5t-107 -210.5h618zM295 1172q20 0 34 -27q44 -86 166 -86t166 86q14 27 34 27q41 0 41 -40q0 -33 -37 -71q-80 -81 -208 -81q-120 0 -200 81
q-37 38 -37 71q0 40 41 40z" />
    <glyph glyph-name="Edotaccent" unicode="&#x116;" horiz-adv-x="948" vert-adv-y="2457" 
d="M273 1283v-494h483q40 0 54.5 -9t14.5 -32t-14.5 -32t-54.5 -9h-483v-625h497q39 0 53.5 -9t14.5 -32t-14.5 -32t-53.5 -9h-518q-45 0 -56.5 11.5t-11.5 56.5v1229q0 45 11.5 56.5t56.5 11.5h518q39 0 53.5 -9t14.5 -32t-14.5 -32t-53.5 -9h-497zM535 1683q35 0 59 -24
t24 -58q0 -35 -24 -59t-59 -24t-59 24.5t-24 59.5q0 33 24.5 57t58.5 24z" />
    <glyph glyph-name="edotaccent" unicode="&#x117;" horiz-adv-x="990" vert-adv-y="2457" 
d="M180 407q5 -116 46 -189q42 -74 119 -119q76 -45 161 -45q119 0 211 80q23 19 63 80q13 18 35 18q17 0 28.5 -12t11.5 -30q0 -23 -44 -75q-118 -137 -309 -137q-183 0 -298 126q-113 125 -113 309q0 176 105 303q115 138 303 138q146 0 250 -90q102 -87 136 -230
q11 -49 11 -79q0 -28 -14.5 -38t-54.5 -10h-647zM804 485q-15 93 -60 157q-44 63 -109 99q-67 37 -137 37q-117 0 -205 -82.5t-107 -210.5h618zM495 1158q33 0 56 -22.5t23 -55.5q0 -32 -23 -55t-56 -23t-56 23t-23 56q0 31 23.5 54t55.5 23z" />
    <glyph glyph-name="Eogonek" unicode="&#x118;" horiz-adv-x="948" vert-adv-y="2457" 
d="M733 0h-481q-45 0 -56.5 11.5t-11.5 56.5v1229q0 45 11.5 56.5t56.5 11.5h518q39 0 53.5 -9t14.5 -32t-14.5 -32t-53.5 -9h-497v-494h483q40 0 54.5 -9t14.5 -32t-14.5 -32t-54.5 -9h-483v-625h497q39 0 53.5 -8.5t14.5 -32.5q0 -27 -64 -67q-50 -30 -99 -88
q-36 -42 -36 -83q0 -46 42 -77t104 -31q2 0 50 3q8 1 14 1q38 0 38 -37q0 -41 -105 -41q-101 0 -168 60q-57 50 -57 115q0 60 46.5 114.5t129.5 89.5z" />
    <glyph glyph-name="eogonek" unicode="&#x119;" horiz-adv-x="990" vert-adv-y="2457" 
d="M548 -19q-25 -3 -46 -3q-183 0 -298 126q-113 125 -113 309q0 176 105 303q115 138 303 138q146 0 250 -90q102 -87 136 -230q11 -49 11 -79q0 -28 -14.5 -38t-54.5 -10h-647q5 -116 46 -189q42 -74 119 -119q76 -45 161 -45q119 0 211 80q23 19 63 80q13 18 35 18
q17 0 28.5 -12t11.5 -29q0 -10 -7 -22q-27 -48 -49.5 -68t-130.5 -93q-22 -15 -63 -61q-56 -63 -56 -118q0 -45 33 -74t83 -29q1 0 46 3q7 1 13 1q36 0 36 -36q0 -39 -99 -39q-86 0 -143 58q-47 47 -47 111q0 80 77 157zM804 485q-15 93 -60 157q-44 63 -109 99
q-67 37 -137 37q-117 0 -205 -82.5t-107 -210.5h618z" />
    <glyph glyph-name="Ecaron" unicode="&#x11a;" horiz-adv-x="948" vert-adv-y="2457" 
d="M273 1283v-494h483q40 0 54.5 -9t14.5 -32t-14.5 -32t-54.5 -9h-483v-625h497q39 0 53.5 -9t14.5 -32t-14.5 -32t-53.5 -9h-518q-45 0 -56.5 11.5t-11.5 56.5v1229q0 45 11.5 56.5t56.5 11.5h518q39 0 53.5 -9t14.5 -32t-14.5 -32t-53.5 -9h-497zM514 1577l136 103
q34 25 46 25q20 0 34 -14t14 -33t-38 -48l-145 -113q-33 -25 -46 -25l-54 2l21 12l-15 11l-146 112q-37 29 -37 49q0 19 14.5 33t34.5 14q13 0 46 -25z" />
    <glyph glyph-name="ecaron" unicode="&#x11b;" horiz-adv-x="990" vert-adv-y="2457" 
d="M180 407q5 -116 46 -189q42 -74 119 -119q76 -45 161 -45q119 0 211 80q23 19 63 80q13 18 35 18q17 0 28.5 -12t11.5 -30q0 -23 -44 -75q-118 -137 -309 -137q-183 0 -298 126q-113 125 -113 309q0 176 105 303q115 138 303 138q146 0 250 -90q102 -87 136 -230
q11 -49 11 -79q0 -28 -14.5 -38t-54.5 -10h-647zM804 485q-15 93 -60 157q-44 63 -109 99q-67 37 -137 37q-117 0 -205 -82.5t-107 -210.5h618zM495 1058l137 103q33 25 46 25q17 0 29 -12t12 -28q0 -20 -38 -49l-139 -108q-33 -25 -47 -25q-13 0 -46 25l-139 107
q-38 29 -38 49q0 17 12.5 29.5t29.5 12.5q13 0 47 -25z" />
    <glyph glyph-name="Gcircumflex" unicode="&#x11c;" horiz-adv-x="1580" vert-adv-y="2457" 
d="M1376 573h-412q-38 0 -53 9t-15 32q0 24 14.5 32.5t53.5 8.5h438q39 0 53.5 -9t14.5 -32v-8q0 -241 -135 -399q-85 -99 -219 -162q-147 -68 -301 -68q-190 0 -359 100q-166 98 -258 261q-89 158 -89 339q0 194 103 364q99 163 265 255q160 88 343 88q278 0 484 -197
q91 -87 91 -121q0 -14 -14.5 -27.5t-30.5 -13.5q-13 0 -23 9.5t-57 65.5q-74 88 -201 144.5t-250 56.5q-153 0 -289 -74q-159 -87 -249 -247q-82 -145 -82 -305q0 -145 66 -274q81 -159 235 -252q148 -89 313 -89q203 0 376 129q97 73 138.5 157.5t48.5 226.5zM825 1609
l-136 -103q-33 -25 -46 -25q-19 0 -33.5 14t-14.5 32q0 20 38 49l146 112q2 2 14 12q18 14 32 14t47 -25l145 -113q38 -29 38 -49q0 -19 -15 -33t-34 -14q-13 0 -46 26z" />
    <glyph glyph-name="gcircumflex" unicode="&#x11d;" horiz-adv-x="1067" vert-adv-y="2457" 
d="M839 143q-139 -164 -331 -164q-181 0 -302 141q-106 124 -106 297q0 189 125 316q119 121 296 121q99 0 171.5 -37.5t146.5 -126.5v78v18q0 50 41 50q23 0 32 -14.5t9 -53.5v-751q0 -126 -20 -202t-70 -141q-119 -152 -331 -152q-169 0 -283 96q-49 42 -83 104.5
t-34 111.5q0 20 12 33.5t30 13.5q28 0 39 -46q27 -109 106 -170q89 -67 215 -67q175 0 263 126q74 105 74 293v126zM509 777q-154 0 -253 -133q-71 -96 -71 -236q0 -142 83 -240q94 -113 241 -113q154 0 257 121q78 92 78 245q0 166 -102 260q-103 96 -233 96zM533 1095
l-137 -103q-32 -25 -46 -25q-18 0 -29.5 11.5t-11.5 28.5q0 20 38 49l139 108q33 25 47 25t46 -25l139 -107q38 -29 38 -49q0 -17 -12.5 -29.5t-29.5 -12.5q-13 0 -46 25z" />
    <glyph glyph-name="Gbreve" unicode="&#x11e;" horiz-adv-x="1580" vert-adv-y="2457" 
d="M1376 573h-412q-38 0 -53 9t-15 32q0 24 14.5 32.5t53.5 8.5h438q39 0 53.5 -9t14.5 -32v-8q0 -241 -135 -399q-85 -99 -219 -162q-147 -68 -301 -68q-190 0 -359 100q-166 98 -258 261q-89 158 -89 339q0 194 103 364q99 163 265 255q160 88 343 88q278 0 484 -197
q91 -87 91 -121q0 -14 -14.5 -27.5t-30.5 -13.5q-13 0 -23 9.5t-57 65.5q-74 88 -201 144.5t-250 56.5q-153 0 -289 -74q-159 -87 -249 -247q-82 -145 -82 -305q0 -145 66 -274q81 -159 235 -252q148 -89 313 -89q203 0 376 129q97 73 138.5 157.5t48.5 226.5zM587 1670
q27 0 41 -32q15 -35 60 -57t101 -22q61 0 104 22.5t61 63.5q11 25 39 25q43 0 43 -42q0 -36 -40 -77q-79 -82 -210 -82q-123 0 -203 82q-40 41 -40 77q0 18 12.5 30t31.5 12z" />
    <glyph glyph-name="gbreve" unicode="&#x11f;" horiz-adv-x="1067" vert-adv-y="2457" 
d="M839 143q-139 -164 -331 -164q-181 0 -302 141q-106 124 -106 297q0 189 125 316q119 121 296 121q99 0 171.5 -37.5t146.5 -126.5v78v18q0 50 41 50q23 0 32 -14.5t9 -53.5v-751q0 -126 -20 -202t-70 -141q-119 -152 -331 -152q-169 0 -283 96q-49 42 -83 104.5
t-34 111.5q0 20 12 33.5t30 13.5q28 0 39 -46q27 -109 106 -170q89 -67 215 -67q175 0 263 126q74 105 74 293v126zM509 777q-154 0 -253 -133q-71 -96 -71 -236q0 -142 83 -240q94 -113 241 -113q154 0 257 121q78 92 78 245q0 166 -102 260q-103 96 -233 96zM304 1172
q20 0 34 -27q44 -86 166 -86t166 86q14 27 34 27q41 0 41 -40q0 -33 -37 -71q-80 -81 -208 -81q-120 0 -200 81q-37 38 -37 71q0 40 41 40z" />
    <glyph glyph-name="Gdotaccent" unicode="&#x120;" horiz-adv-x="1580" vert-adv-y="2457" 
d="M1376 573h-412q-38 0 -53 9t-15 32q0 24 14.5 32.5t53.5 8.5h438q39 0 53.5 -9t14.5 -32v-8q0 -241 -135 -399q-85 -99 -219 -162q-147 -68 -301 -68q-190 0 -359 100q-166 98 -258 261q-89 158 -89 339q0 194 103 364q99 163 265 255q160 88 343 88q278 0 484 -197
q91 -87 91 -121q0 -14 -14.5 -27.5t-30.5 -13.5q-13 0 -23 9.5t-57 65.5q-74 88 -201 144.5t-250 56.5q-153 0 -289 -74q-159 -87 -249 -247q-82 -145 -82 -305q0 -145 66 -274q81 -159 235 -252q148 -89 313 -89q203 0 376 129q97 73 138.5 157.5t48.5 226.5zM789 1683
q35 0 59 -24t24 -58q0 -35 -24 -59t-59 -24t-59 24t-24 60q0 33 24.5 57t58.5 24z" />
    <glyph glyph-name="gdotaccent" unicode="&#x121;" horiz-adv-x="1067" vert-adv-y="2457" 
d="M839 143q-139 -164 -331 -164q-181 0 -302 141q-106 124 -106 297q0 189 125 316q119 121 296 121q99 0 171.5 -37.5t146.5 -126.5v78v18q0 50 41 50q23 0 32 -14.5t9 -53.5v-751q0 -126 -20 -202t-70 -141q-119 -152 -331 -152q-169 0 -283 96q-49 42 -83 104.5
t-34 111.5q0 20 12 33.5t30 13.5q28 0 39 -46q27 -109 106 -170q89 -67 215 -67q175 0 263 126q74 105 74 293v126zM509 777q-154 0 -253 -133q-71 -96 -71 -236q0 -142 83 -240q94 -113 241 -113q154 0 257 121q78 92 78 245q0 166 -102 260q-103 96 -233 96zM519 1158
q33 0 56 -22.5t23 -55.5q0 -32 -23 -55t-56 -23t-56 23t-23 56q0 32 23.5 54.5t55.5 22.5z" />
    <glyph glyph-name="Gcommaaccent" unicode="&#x122;" horiz-adv-x="1580" vert-adv-y="2457" 
d="M1376 573h-412q-38 0 -53 9t-15 32q0 24 14.5 32.5t53.5 8.5h438q39 0 53.5 -9t14.5 -32v-8q0 -241 -135 -399q-85 -99 -219 -162q-147 -68 -301 -68q-190 0 -359 100q-166 98 -258 261q-89 158 -89 339q0 194 103 364q99 163 265 255q160 88 343 88q278 0 484 -197
q91 -87 91 -121q0 -14 -14.5 -27.5t-30.5 -13.5q-13 0 -23 9.5t-57 65.5q-74 88 -201 144.5t-250 56.5q-153 0 -289 -74q-159 -87 -249 -247q-82 -145 -82 -305q0 -145 66 -274q81 -159 235 -252q148 -89 313 -89q203 0 376 129q97 73 138.5 157.5t48.5 226.5zM868 -191
l-104 -279q-11 -32 -20 -42.5t-25 -10.5q-8 0 -15.5 10t-7.5 22q0 8 10 40l84 286q11 34 19.5 44.5t28.5 10.5q16 0 29 -11.5t13 -27.5q0 -10 -12 -42z" />
    <glyph glyph-name="gcommaaccent" unicode="&#x123;" horiz-adv-x="1067" vert-adv-y="2457" 
d="M839 143q-139 -164 -331 -164q-181 0 -302 141q-106 124 -106 297q0 189 125 316q119 121 296 121q99 0 171.5 -37.5t146.5 -126.5v78v18q0 50 41 50q23 0 32 -14.5t9 -53.5v-751q0 -126 -20 -202t-70 -141q-119 -152 -331 -152q-169 0 -283 96q-49 42 -83 104.5
t-34 111.5q0 20 12 33.5t30 13.5q28 0 39 -46q27 -109 106 -170q89 -67 215 -67q175 0 263 126q74 105 74 293v126zM509 777q-154 0 -253 -133q-71 -96 -71 -236q0 -142 83 -240q94 -113 241 -113q154 0 257 121q78 92 78 245q0 166 -102 260q-103 96 -233 96zM481 1102
l103 279q12 32 20.5 42t24.5 10q9 0 16 -10t7 -21q0 -10 -9 -40l-85 -286q-10 -35 -19 -45.5t-28 -10.5q-16 0 -29 12t-13 27q0 11 12 43z" />
    <glyph glyph-name="Hcircumflex" unicode="&#x124;" horiz-adv-x="1374" vert-adv-y="2457" 
d="M273 786h827v511q0 41 8 51q13 17 37 17q26 0 35 -14t9 -54v-1229q0 -41 -8 -51q-13 -17 -36 -17q-27 0 -36 14t-9 54v636h-827v-636q0 -41 -8 -51q-13 -17 -36 -17q-27 0 -36 14t-9 54v1229q0 41 8 51q13 17 37 17q26 0 35 -14t9 -54v-511zM686 1609l-137 -103
q-32 -25 -45 -25q-20 0 -34 14t-14 32q0 20 38 49l145 112q3 2 15 12q18 14 32 14q13 0 47 -25l145 -113q38 -29 38 -49q0 -19 -15 -33t-34 -14q-13 0 -46 26z" />
    <glyph glyph-name="hcircumflex" unicode="&#x125;" horiz-adv-x="902" vert-adv-y="2457" 
d="M228 706q39 60 75 88q76 60 180 60q100 0 176 -56q53 -40 75 -101t22 -171v-458q0 -39 -9 -53.5t-32 -14.5t-32 14.5t-9 53.5v458q0 120 -30 171q-22 37 -68.5 59t-102.5 22q-135 0 -201 -114q-25 -44 -34.5 -94t-9.5 -135v-367q0 -39 -9 -53.5t-32 -14.5t-32 14.5
t-9 53.5v1358q0 39 9 53.5t32 14.5q24 0 32.5 -14.5t8.5 -53.5v-720zM183 1609l-136 -103q-33 -25 -46 -25q-20 0 -34 14t-14 32q0 20 38 49l145 112q3 2 15 12q18 14 32 14q13 0 47 -25l145 -113q38 -29 38 -49q0 -19 -15 -33t-34 -14q-13 0 -46 26z" />
    <glyph glyph-name="Hbar" unicode="&#x126;" horiz-adv-x="1374" vert-adv-y="2457" 
d="M1101 1177v120q0 41 8 51q13 17 36 17q27 0 36 -14t9 -54v-120h92q41 0 51 -8q17 -13 17 -36q0 -27 -14 -36t-54 -9h-92v-1020q0 -41 -8 -51q-13 -17 -37 -17q-26 0 -35 14t-9 54v636h-827v-636q0 -41 -8 -51q-13 -17 -37 -17q-26 0 -35 14t-9 54v1020h-78q-41 0 -51 8
q-17 13 -17 37q0 26 14 35t54 9h78v120q0 41 8 51q13 17 36 17q27 0 36 -14t9 -54v-120h827zM1101 1088h-827v-302h827v302z" />
    <glyph glyph-name="hbar" unicode="&#x127;" horiz-adv-x="902" vert-adv-y="2457" 
d="M146 1117h-90q-39 0 -53.5 8.5t-14.5 32.5q0 23 14.5 31.5t53.5 8.5h90v227q0 40 8.5 54.5t32.5 14.5t32.5 -14.5t8.5 -54.5v-227h272q39 0 53.5 -8.5t14.5 -31.5q0 -24 -14.5 -32.5t-53.5 -8.5h-272v-411q39 60 75 88q76 60 181 60q100 0 176 -56q53 -40 75 -101
t22 -171v-458q0 -39 -9 -53.5t-32 -14.5t-32 14.5t-9 53.5v458q0 120 -30 171q-22 37 -68.5 59t-103.5 22q-135 0 -201 -114q-25 -44 -34.5 -94t-9.5 -135v-367q0 -39 -8.5 -53.5t-32.5 -14.5q-23 0 -32 14.5t-9 53.5v1049z" />
    <glyph glyph-name="Itilde" unicode="&#x128;" horiz-adv-x="457" vert-adv-y="2457" 
d="M273 1297v-1229q0 -41 -8 -51q-13 -17 -36 -17q-27 0 -36 14t-9 54v1229q0 41 8 51q13 17 37 17q26 0 35 -14t9 -54zM116 1637q36 0 119 -36q85 -37 119 -37q31 0 52 29q22 30 43 30q36 0 36 -38t-47 -74.5t-96 -36.5q-29 0 -114 36q-90 37 -125 37q-37 0 -70 -46
q-8 -10 -24 -10q-34 0 -34 37q0 24 31 57q47 52 110 52z" />
    <glyph glyph-name="itilde" unicode="&#x129;" horiz-adv-x="374" vert-adv-y="2457" 
d="M228 768v-700q0 -39 -9 -53.5t-32 -14.5t-32 14.5t-9 53.5v700q0 39 9 53.5t32 14.5t32 -14.5t9 -53.5zM73 1154q37 0 118 -36q85 -37 117 -37q37 0 75 48q8 9 22 9q33 0 33 -34q0 -35 -46 -70t-92 -35q-29 0 -113 35q-91 38 -127 38q-37 0 -59 -30q-18 -24 -38 -24
q-26 0 -26 31q0 23 29 55q45 50 107 50z" />
    <glyph glyph-name="Imacron" unicode="&#x12a;" horiz-adv-x="458" vert-adv-y="2457" 
d="M274 1297v-1229q0 -41 -8 -51q-13 -17 -37 -17q-26 0 -35 14t-9 54v1229q0 41 8 51q13 17 36 17q27 0 36 -14t9 -54zM17 1614h424q41 0 51 -8q17 -13 17 -37q0 -26 -14 -35t-54 -9h-424q-41 0 -51 8q-17 13 -17 36q0 27 14 36t54 9z" />
    <glyph glyph-name="imacron" unicode="&#x12b;" horiz-adv-x="374" vert-adv-y="2457" 
d="M229 768v-700q0 -39 -9 -53.5t-32 -14.5q-24 0 -32.5 14.5t-8.5 53.5v700q0 39 8.5 53.5t32.5 14.5q23 0 32 -14.5t9 -53.5zM-20 1090h415q39 0 53.5 -8.5t14.5 -31.5q0 -24 -14.5 -32.5t-53.5 -8.5h-415q-39 0 -53.5 8.5t-14.5 32.5q0 23 14.5 31.5t53.5 8.5z" />
    <glyph glyph-name="Ibreve" unicode="&#x12c;" horiz-adv-x="458" vert-adv-y="2457" 
d="M273 1297v-1229q0 -41 -8 -51q-13 -17 -37 -17q-26 0 -35 14t-9 54v1229q0 41 8 51q13 17 36 17q27 0 36 -14t9 -54zM27 1670q27 0 41 -32q15 -35 59.5 -57t101.5 -22q60 0 103.5 22.5t60.5 63.5q11 25 39 25q43 0 43 -42q0 -36 -40 -77q-79 -82 -210 -82q-122 0 -202 82
q-40 41 -40 77q0 42 44 42z" />
    <glyph glyph-name="ibreve" unicode="&#x12d;" horiz-adv-x="374" vert-adv-y="2457" 
d="M228 768v-700q0 -39 -9 -53.5t-32 -14.5t-32 14.5t-9 53.5v700q0 39 9 53.5t32 14.5t32 -14.5t9 -53.5zM-13 1172q20 0 34 -27q44 -86 166 -86t166 86q14 27 34 27q41 0 41 -40q0 -33 -37 -71q-80 -81 -208 -81q-120 0 -200 81q-37 38 -37 71q0 40 41 40z" />
    <glyph glyph-name="Iogonek" unicode="&#x12e;" horiz-adv-x="457" vert-adv-y="2457" 
d="M192 17q-8 10 -8 51v1229q0 40 9 54t35 14q27 0 36 -14t9 -54v-1229q0 -43 -9.5 -55t-93.5 -74q-69 -51 -69 -122q0 -50 53 -81q47 -28 93 -24q59 5 65 5q37 0 37 -38q0 -41 -105 -41q-101 0 -169 60q-56 51 -56 115q0 60 46 114t127 90z" />
    <glyph glyph-name="iogonek" unicode="&#x12f;" horiz-adv-x="374" vert-adv-y="2457" 
d="M195 1q-105 -93 -105 -168q0 -44 33 -73.5t83 -29.5q6 0 45 3q8 1 13 1q36 0 36 -36q0 -39 -99 -39q-85 0 -143 58q-46 47 -46 111q0 58 36 110t101 88q-3 12 -3 43v699q0 39 9 53.5t32 14.5t32 -14.5t9 -53.5v-699q0 -37 -6 -49.5t-27 -18.5zM187 1189q31 0 52.5 -21.5
t21.5 -53.5q0 -31 -21.5 -53t-51.5 -22q-31 0 -52.5 22t-21.5 54q0 30 21.5 52t51.5 22z" />
    <glyph glyph-name="Idotaccent" unicode="&#x130;" horiz-adv-x="458" vert-adv-y="2457" 
d="M274 1297v-1229q0 -40 -9 -54t-35 -14q-27 0 -36 14t-9 54v1229q0 41 8 51q13 17 37 17q26 0 35 -14t9 -54zM229 1683q35 0 59 -24t24 -58q0 -35 -24 -59t-59 -24t-59 24.5t-24 59.5q0 33 24.5 57t58.5 24z" />
    <glyph glyph-name="IJ" unicode="&#x132;" horiz-adv-x="633" vert-adv-y="2457" 
d="M273 1297v-1229q0 -41 -8 -51q-13 -17 -36 -17q-27 0 -36 14t-9 54v1229q0 41 8 51q13 17 37 17q26 0 35 -14t9 -54zM543 1297v-1294q0 -131 -46 -197q-63 -92 -191 -92q-59 0 -113 26t-86 71q-18 25 -18 41q0 17 12 29t29 12q19 0 34 -18q35 -43 68.5 -60.5t77.5 -17.5
q144 0 144 206v1294q0 41 8 51q13 17 37 17q26 0 35 -14t9 -54z" />
    <glyph glyph-name="ij" unicode="&#x133;" horiz-adv-x="581" vert-adv-y="2457" 
d="M228 768v-700q0 -39 -9 -53.5t-32 -14.5t-32 14.5t-9 53.5v700q0 39 9 53.5t32 14.5t32 -14.5t9 -53.5zM186 1189q31 0 52.5 -21.5t21.5 -53.5q0 -31 -21.5 -53t-51.5 -22q-31 0 -52.5 22t-21.5 54q0 30 21.5 52t51.5 22zM466 768v-1189q0 -39 -9 -53.5t-32 -14.5
t-32 14.5t-9 53.5v1189q0 39 9 53.5t32 14.5t32 -14.5t9 -53.5zM425 1189q31 0 52.5 -21.5t21.5 -53.5q0 -31 -21.5 -53t-51.5 -22q-31 0 -52.5 22t-21.5 54q0 30 21.5 52t51.5 22z" />
    <glyph glyph-name="Jcircumflex" unicode="&#x134;" horiz-adv-x="543" vert-adv-y="2457" 
d="M358 1297v-1294q0 -131 -46 -197q-63 -92 -191 -92q-59 0 -113 26t-86 71q-18 25 -18 41q0 17 12 29t29 12q19 0 34 -18q35 -43 68.5 -60.5t77.5 -17.5q144 0 144 206v1294q0 41 8 51q13 17 37 17q26 0 35 -14t9 -54zM332 1609l-136 -103q-33 -25 -46 -25q-19 0 -33.5 14
t-14.5 32q0 20 38 49l146 112q2 2 14 12q18 14 32 14t47 -25l146 -113q37 -28 37 -49q0 -19 -14.5 -33t-34.5 -14q-12 0 -46 26z" />
    <glyph glyph-name="jcircumflex" unicode="&#x135;" horiz-adv-x="375" vert-adv-y="2457" 
d="M228 768v-1189q0 -39 -9 -53.5t-32 -14.5t-32 14.5t-9 53.5v1189q0 39 9 53.5t32 14.5t32 -14.5t9 -53.5zM186 1095l-136 -103q-33 -25 -47 -25q-17 0 -28.5 11.5t-11.5 28.5q0 20 38 49l139 108q33 25 46 25q14 0 47 -25l139 -107q38 -29 38 -49q0 -17 -12.5 -29.5
t-29.5 -12.5q-14 0 -47 25z" />
    <glyph glyph-name="Kcommaaccent" unicode="&#x136;" horiz-adv-x="1104" vert-adv-y="2457" 
d="M273 730l610 604q23 22 30 26.5t21 4.5q18 0 30.5 -12t12.5 -29t-32 -48l-578 -569l620 -618q32 -31 32 -48t-13.5 -29.5t-32.5 -12.5q-18 0 -26 4.5t-32 28.5l-608 617l-34 -33v-548q0 -41 -8 -51q-13 -17 -36 -17q-27 0 -36 14t-9 54v1229q0 41 8 51q13 17 37 17
q26 0 35 -14t9 -54v-567zM630 -191l-103 -279q-12 -32 -21 -42.5t-25 -10.5q-8 0 -15.5 10t-7.5 22q0 9 10 40l85 286q10 34 18.5 44.5t28.5 10.5q16 0 29 -11.5t13 -27.5q0 -10 -12 -42z" />
    <glyph glyph-name="kcommaaccent" unicode="&#x137;" horiz-adv-x="812" vert-adv-y="2457" 
d="M228 482l310 322l13 13q17 19 33 19q15 0 27 -11.5t12 -26.5q0 -18 -32 -51l-265 -273l381 -385q32 -32 32 -51q0 -14 -13 -26t-28 -12q-16 0 -47 31l-380 383l-43 -43v-303q0 -39 -9 -53.5t-32 -14.5t-32 14.5t-9 53.5v1358q0 39 8.5 53.5t32.5 14.5t32.5 -14.5
t8.5 -53.5v-944zM484 -191l-103 -279q-12 -32 -21 -42.5t-25 -10.5q-8 0 -15.5 10t-7.5 22q0 9 10 40l85 286q10 34 18.5 44.5t28.5 10.5q16 0 29 -11.5t13 -27.5q0 -10 -12 -42z" />
    <glyph glyph-name="kgreenlandic" unicode="&#x138;" horiz-adv-x="812" vert-adv-y="2457" 
d="M228 482l324 336q17 18 33 18q17 0 28.5 -11.5t11.5 -28.5q0 -14 -18 -32l-281 -290l395 -399q18 -18 18 -34q0 -17 -12 -29t-29 -12q-16 0 -34 18l-393 396l-43 -43v-321q0 -50 -41 -50t-41 50v736q0 50 41 50t41 -50v-304z" />
    <glyph glyph-name="Lacute" unicode="&#x139;" horiz-adv-x="646" vert-adv-y="2457" 
d="M273 82h277q39 0 53.5 -9t14.5 -32t-14.5 -32t-53.5 -9h-298q-45 0 -56.5 11.5t-11.5 56.5v1229q0 41 8 51q13 17 37 17q26 0 35 -14t9 -54v-1215zM524 1619l-164 -123q-10 -7 -15 -11q-18 -14 -31 -14q-20 0 -34 14t-14 32t34 48l148 132q31 28 54 28t41.5 -17t18.5 -38
q0 -23 -38 -51z" />
    <glyph glyph-name="lacute" unicode="&#x13a;" horiz-adv-x="374" vert-adv-y="2457" 
d="M228 1425v-1357q0 -39 -9 -53.5t-32 -14.5t-32 14.5t-9 53.5v1357q0 40 8.5 54.5t32.5 14.5t32.5 -14.5t8.5 -54.5zM376 1763l-129 -156q-29 -36 -49 -36q-33 0 -33 37q0 11 23 44l110 166q19 28 27 34.5t23 6.5q20 0 37.5 -16t17.5 -34q0 -14 -27 -46z" />
    <glyph glyph-name="Lcommaaccent" unicode="&#x13b;" horiz-adv-x="646" vert-adv-y="2457" 
d="M273 82h277q39 0 53.5 -9t14.5 -32t-14.5 -32t-53.5 -9h-298q-45 0 -56.5 11.5t-11.5 56.5v1229q0 41 8 51q13 17 37 17q26 0 35 -14t9 -54v-1215zM401 -191l-104 -279q-11 -32 -20 -42.5t-25 -10.5q-8 0 -15.5 10t-7.5 22q0 9 9 40l85 286q10 34 19 44.5t29 10.5
q16 0 29 -11.5t13 -27.5q0 -10 -12 -42z" />
    <glyph glyph-name="lcommaaccent" unicode="&#x13c;" horiz-adv-x="374" vert-adv-y="2457" 
d="M228 1425v-1357q0 -39 -9 -53.5t-32 -14.5t-32 14.5t-9 53.5v1357q0 40 9 54.5t32 14.5t32 -14.5t9 -54.5zM211 -191l-104 -279q-11 -32 -20 -42.5t-25 -10.5q-9 0 -16 10t-7 22q0 8 9 40l85 286q10 34 19 44.5t28 10.5q17 0 30 -11.5t13 -27.5q0 -9 -12 -42z" />
    <glyph glyph-name="Lcaron" unicode="&#x13d;" horiz-adv-x="646" vert-adv-y="2457" 
d="M273 82h277q39 0 53.5 -9t14.5 -32t-14.5 -32t-53.5 -9h-298q-45 0 -56.5 11.5t-11.5 56.5v1229q0 41 8 51q13 17 37 17q26 0 35 -14t9 -54v-1215zM614 1352l-103 -279q-12 -32 -21 -42.5t-25 -10.5q-9 0 -16 10t-7 22q0 8 10 40l84 286q11 35 19.5 45.5t27.5 10.5
q17 0 30 -12t13 -27q0 -11 -12 -43z" />
    <glyph glyph-name="lcaron" unicode="&#x13e;" horiz-adv-x="374" vert-adv-y="2457" 
d="M228 1425v-1357q0 -39 -9 -53.5t-32 -14.5t-32 14.5t-9 53.5v1357q0 40 8.5 54.5t32.5 14.5t32.5 -14.5t8.5 -54.5zM475 1424l-107 -279q-12 -32 -21 -42t-25 -10q-9 0 -16 10t-7 21q0 9 10 40l85 286q10 35 18.5 45.5t28.5 10.5q15 0 29.5 -12.5t12.5 -22.5l-6 -29z" />
    <glyph glyph-name="Ldot" unicode="&#x13f;" horiz-adv-x="646" vert-adv-y="2457" 
d="M273 82h277q39 0 53.5 -9t14.5 -32t-14.5 -32t-53.5 -9h-298q-45 0 -56.5 11.5t-11.5 56.5v1229q0 41 8 51q13 17 37 17q26 0 35 -14t9 -54v-1215zM488 451q32 0 53.5 -22t21.5 -53t-22 -53t-52 -22q-31 0 -53 22t-22 54q0 30 22 52t52 22z" />
    <glyph glyph-name="ldot" unicode="&#x140;" horiz-adv-x="374" vert-adv-y="2457" 
d="M228 1425v-1357q0 -39 -9 -53.5t-32 -14.5t-32 14.5t-9 53.5v1357q0 40 8.5 54.5t32.5 14.5t32.5 -14.5t8.5 -54.5zM404 498q31 0 52.5 -22t21.5 -53t-22 -53t-52 -22q-31 0 -53 22t-22 54q0 30 22 52t53 22z" />
    <glyph glyph-name="Lslash" unicode="&#x141;" horiz-adv-x="646" vert-adv-y="2457" 
d="M273 789l144 106q33 25 48 25q14 0 26 -14.5t12 -31.5t-38 -45l-192 -142v-605h277q39 0 53.5 -9t14.5 -32t-14.5 -32t-53.5 -9h-298q-45 0 -56.5 11.5t-11.5 56.5v574l-59 -43q-33 -25 -49 -25q-14 0 -25.5 15t-11.5 33q0 15 38 43l107 80v552q0 41 8 51q13 17 37 17
q26 0 35 -14t9 -54v-508z" />
    <glyph glyph-name="lslash" unicode="&#x142;" horiz-adv-x="427" vert-adv-y="2457" 
d="M269 794l48 37q33 26 48 26q14 0 26 -13.5t12 -28.5t-36 -43l-98 -76v-628q0 -39 -9 -53.5t-32 -14.5t-32 14.5t-9 53.5v586l-49 -38q-33 -25 -49 -25q-14 0 -26 13.5t-12 29.5q0 14 37 43l99 75v674q0 39 8.5 53.5t32.5 14.5t32.5 -14.5t8.5 -53.5v-632z" />
    <glyph glyph-name="Nacute" unicode="&#x143;" horiz-adv-x="1603" vert-adv-y="2457" 
d="M1329 152v1145q0 41 8 51q13 17 36 17q27 0 36 -14t9 -54v-1230q0 -38 -9 -53t-32 -15q-19 0 -49 33l-1055 1153v-1117q0 -41 -8 -51q-13 -17 -36 -17q-27 0 -36 14t-9 54v1230q0 39 9 54t33 15q18 0 48 -33zM959 1619l-164 -123q-9 -7 -14 -11q-18 -14 -32 -14
q-20 0 -34 14t-14 32t34 48l148 132q32 28 55 28t41.5 -17t18.5 -38q0 -22 -39 -51z" />
    <glyph glyph-name="nacute" unicode="&#x144;" horiz-adv-x="901" vert-adv-y="2457" 
d="M228 706q39 60 75 88q75 60 179 60q101 0 176 -56q53 -40 75 -101t22 -170v-459q0 -39 -9 -53.5t-32 -14.5t-32 14.5t-9 53.5v459q0 119 -30 170q-48 81 -171 81q-135 0 -200 -114q-25 -44 -34.5 -93.5t-9.5 -135.5v-367q0 -39 -9 -53.5t-32 -14.5t-32 14.5t-9 53.5v700
q0 39 9 53.5t32 14.5t32 -14.5t9 -53.5v-62zM604 1160l-129 -157q-5 -6 -12 -14q-18 -22 -37 -22q-33 0 -33 37q0 12 22 45l111 166q18 28 26 34.5t24 6.5q20 0 37 -16t17 -34q0 -14 -26 -46z" />
    <glyph glyph-name="Ncommaaccent" unicode="&#x145;" horiz-adv-x="1603" vert-adv-y="2457" 
d="M1329 152v1145q0 41 8 51q13 17 36 17q27 0 36 -14t9 -54v-1230q0 -38 -9 -53t-32 -15q-19 0 -49 33l-1055 1153v-1117q0 -41 -8 -51q-13 -17 -36 -17q-27 0 -36 14t-9 54v1230q0 39 9 54t33 15q18 0 48 -33zM880 -191l-104 -279q-12 -32 -20.5 -42.5t-24.5 -10.5
q-9 0 -16 10t-7 22q0 9 9 40l85 286q10 34 19 44.5t28 10.5q16 0 29 -11.5t13 -27.5q0 -11 -11 -42z" />
    <glyph glyph-name="ncommaaccent" unicode="&#x146;" horiz-adv-x="901" vert-adv-y="2457" 
d="M228 706q39 60 75 88q75 60 179 60q101 0 176 -56q53 -40 75 -101t22 -170v-459q0 -39 -9 -53.5t-32 -14.5t-32 14.5t-9 53.5v459q0 119 -30 170q-48 81 -171 81q-135 0 -200 -114q-25 -44 -34.5 -93.5t-9.5 -135.5v-367q0 -39 -9 -53.5t-32 -14.5t-32 14.5t-9 53.5v700
q0 39 9 53.5t32 14.5t32 -14.5t9 -53.5v-62zM489 -191l-103 -279q-12 -32 -21 -42.5t-25 -10.5q-8 0 -15.5 10t-7.5 22q0 7 10 40l84 286q11 34 19.5 44.5t28.5 10.5q16 0 29 -11.5t13 -27.5q0 -10 -12 -42z" />
    <glyph glyph-name="Ncaron" unicode="&#x147;" horiz-adv-x="1603" vert-adv-y="2457" 
d="M1329 152v1145q0 41 8 51q13 17 36 17q27 0 36 -14t9 -54v-1230q0 -38 -9 -53t-32 -15q-19 0 -49 33l-1055 1153v-1117q0 -41 -8 -51q-13 -17 -36 -17q-27 0 -36 14t-9 54v1230q0 39 9 54t33 15q18 0 48 -33zM733 1577l137 103q33 25 45 25q20 0 34 -14t14 -33t-37 -48
l-146 -113q-33 -26 -47 -26q-13 0 -46 26l-146 112q-38 29 -38 49q0 19 15 33t34 14q13 0 46 -25z" />
    <glyph glyph-name="ncaron" unicode="&#x148;" horiz-adv-x="901" vert-adv-y="2457" 
d="M228 706q39 60 75 88q75 60 179 60q101 0 176 -56q53 -40 75 -101t22 -170v-459q0 -39 -9 -53.5t-32 -14.5t-32 14.5t-9 53.5v459q0 119 -30 170q-48 81 -171 81q-135 0 -200 -114q-25 -44 -34.5 -93.5t-9.5 -135.5v-367q0 -39 -9 -53.5t-32 -14.5t-32 14.5t-9 53.5v700
q0 39 9 53.5t32 14.5t32 -14.5t9 -53.5v-62zM451 1058l137 103q33 25 46 25q17 0 29 -12t12 -28q0 -20 -38 -49l-139 -108q-33 -25 -47 -25t-47 25l-139 107q-37 29 -37 49q0 17 12.5 29.5t29.5 12.5q13 0 46 -25z" />
    <glyph glyph-name="napostrophe" unicode="&#x149;" horiz-adv-x="901" vert-adv-y="2457" 
d="M228 706q39 60 75 88q75 60 179 60q101 0 176 -56q53 -40 75 -101.5t22 -169.5v-459q0 -39 -9 -53.5t-32 -14.5t-32 14.5t-9 53.5v459q0 119 -30 170q-48 81 -171 81q-135 0 -200 -114q-25 -44 -34.5 -93.5t-9.5 -135.5v-367q0 -39 -9 -53.5t-32 -14.5q-24 0 -32.5 14.5
t-8.5 53.5v700q0 39 8.5 53.5t32.5 14.5q23 0 32 -14.5t9 -53.5v-62zM157 1197l-104 -279q-11 -32 -20 -42.5t-25 -10.5q-9 0 -16 10t-7 22q0 9 9 40l85 286q10 35 19 45.5t28 10.5q17 0 30 -12t13 -27q0 -10 -12 -43z" />
    <glyph glyph-name="Eng" unicode="&#x14a;" horiz-adv-x="1374" vert-adv-y="2457" 
d="M273 1142q70 97 138 145q137 98 319 98q175 0 299 -91q87 -65 123.5 -166t36.5 -278v-671q0 -225 -69 -322q-102 -142 -296 -142q-117 0 -117 49q0 16 11 27t26 11q8 0 28 -4q23 -4 44 -4q77 0 136 25t90 71q58 86 58 269v701q0 117 -12.5 183.5t-44.5 115.5
q-45 69 -132 105q-89 38 -192 38q-246 0 -365 -184q-46 -69 -63.5 -149.5t-17.5 -217.5v-697q0 -54 -44 -54q-45 0 -45 54v1257q0 54 44 54q45 0 45 -54v-169z" />
    <glyph glyph-name="eng" unicode="&#x14b;" horiz-adv-x="901" vert-adv-y="2457" 
d="M228 706q39 60 75 88q75 60 179 60q101 0 176 -56q53 -40 75 -101t22 -170v-528q0 -84 -14 -135t-47 -85q-61 -64 -161 -64q-70 0 -70 47v3q0 31 31 31q2 0 8 -1q14 -1 25 -1q78 0 112 51.5t34 170.5v511q0 119 -30 170q-22 37 -68 59t-102 22q-136 0 -201 -114
q-25 -44 -34.5 -93.5t-9.5 -135.5v-385q0 -50 -41 -50t-41 50v736q0 50 41 50t41 -50v-80z" />
    <glyph glyph-name="Omacron" unicode="&#x14c;" horiz-adv-x="1634" vert-adv-y="2457" 
d="M817 1384q195 0 362 -102q157 -96 248 -247q98 -163 98 -354q0 -190 -98 -355q-92 -153 -248 -247q-170 -102 -367 -102q-186 0 -357 102q-157 94 -248 247q-98 166 -98 366q0 184 98 343q98 157 248 247q170 102 362 102zM812 1301q-164 0 -311 -90q-141 -87 -220 -225
q-81 -140 -81 -315q0 -155 81 -296q80 -140 220 -225q150 -90 316 -90t316 90q141 86 221 225q80 142 80 305q0 269 -200 454q-97 91 -223 134q-99 33 -199 33zM605 1614h424q41 0 51 -8q17 -13 17 -37q0 -26 -14 -35t-54 -9h-424q-41 0 -51 8q-17 13 -17 36q0 27 14 36
t54 9z" />
    <glyph glyph-name="omacron" unicode="&#x14d;" horiz-adv-x="1058" vert-adv-y="2457" 
d="M530 854q186 0 317 -135q119 -122 119 -303q0 -208 -153 -335q-124 -103 -287 -103q-119 0 -225 64q-107 64 -162 172q-48 93 -48 209q0 180 134 309q128 122 305 122zM522 778q-160 0 -264 -127q-82 -101 -82 -241q0 -149 106 -255q100 -101 243 -101q168 0 277 130
q79 96 79 232q0 159 -107 261q-106 101 -252 101zM321 1090h415q39 0 53.5 -8.5t14.5 -31.5q0 -24 -14.5 -32.5t-53.5 -8.5h-415q-39 0 -53.5 8.5t-14.5 32.5q0 23 14.5 31.5t53.5 8.5z" />
    <glyph glyph-name="Obreve" unicode="&#x14e;" horiz-adv-x="1634" vert-adv-y="2457" 
d="M817 1384q195 0 362 -102q157 -96 248 -247q98 -163 98 -354q0 -190 -98 -355q-92 -153 -248 -247q-170 -102 -367 -102q-186 0 -357 102q-157 94 -248 247q-98 166 -98 366q0 184 98 343q98 157 248 247q170 102 362 102zM812 1301q-164 0 -311 -90q-141 -87 -220 -225
q-81 -140 -81 -315q0 -155 81 -296q80 -140 220 -225q150 -90 316 -90t316 90q141 86 221 225q80 142 80 305q0 269 -200 454q-97 91 -223 134q-99 33 -199 33zM614 1670q28 0 42 -32q15 -35 60 -57t101 -22q60 0 103.5 22.5t60.5 63.5q11 25 39 25q43 0 43 -42
q0 -36 -40 -77q-79 -82 -210 -82q-123 0 -202 82q-40 41 -40 77q0 18 12.5 30t30.5 12z" />
    <glyph glyph-name="obreve" unicode="&#x14f;" horiz-adv-x="1058" vert-adv-y="2457" 
d="M530 854q186 0 317 -135q119 -122 119 -303q0 -208 -153 -335q-124 -103 -287 -103q-119 0 -225 64q-107 64 -162 172q-48 93 -48 209q0 180 134 309q128 122 305 122zM522 778q-160 0 -264 -127q-82 -101 -82 -241q0 -149 106 -255q100 -101 243 -101q168 0 277 130
q79 96 79 232q0 159 -107 261q-106 101 -252 101zM329 1172q20 0 34 -27q44 -86 166 -86t166 86q14 27 34 27q41 0 41 -40q0 -33 -37 -71q-80 -81 -208 -81q-120 0 -200 81q-37 38 -37 71q0 40 41 40z" />
    <glyph glyph-name="Ohungarumlaut" unicode="&#x150;" horiz-adv-x="1634" vert-adv-y="2457" 
d="M817 1384q195 0 362 -102q157 -96 248 -247q98 -163 98 -354q0 -190 -98 -355q-92 -153 -248 -247q-170 -102 -367 -102q-186 0 -357 102q-157 94 -248 247q-98 166 -98 366q0 184 98 343q98 157 248 247q170 102 362 102zM812 1301q-164 0 -311 -90q-141 -87 -220 -225
q-81 -140 -81 -315q0 -155 81 -296q80 -140 220 -225q150 -90 316 -90t316 90q141 86 221 225q80 142 80 305q0 269 -200 454q-97 91 -223 134q-99 33 -199 33zM865 1628l-143 -135q-32 -29 -48 -29q-19 0 -32.5 13t-13.5 32q0 14 29 46l126 142q31 34 54 34t42 -16.5
t19 -36.5q0 -19 -33 -50zM922 1555l126 142q30 34 54 34q23 0 42 -16.5t19 -36.5t-33 -50q-40 -36 -144 -134q-31 -30 -47 -30q-19 0 -32.5 13t-13.5 32q0 14 29 46z" />
    <glyph glyph-name="ohungarumlaut" unicode="&#x151;" horiz-adv-x="1058" vert-adv-y="2457" 
d="M530 854q186 0 317 -135q119 -122 119 -303q0 -208 -153 -335q-124 -103 -287 -103q-119 0 -225 64q-107 64 -162 172q-48 93 -48 209q0 180 134 309q128 122 305 122zM522 778q-160 0 -264 -127q-82 -101 -82 -241q0 -149 106 -255q100 -101 243 -101q168 0 277 130
q79 96 79 232q0 159 -107 261q-106 101 -252 101zM568 1160l-118 -154q-20 -25 -28 -31t-22 -6q-30 0 -30 36q0 10 20 43l101 164q6 9 9 15q17 28 41 28q19 0 35.5 -15.5t16.5 -34.5q0 -13 -25 -45zM795 1160l-119 -154q-19 -24 -27.5 -31t-21.5 -7q-30 0 -30 36q0 12 20 44
l101 164q4 6 9 15q17 28 41 28q19 0 35.5 -16t16.5 -34q0 -13 -25 -45z" />
    <glyph glyph-name="Racute" unicode="&#x154;" horiz-adv-x="956" vert-adv-y="2457" 
d="M414 645l387 -558q23 -34 23 -49t-15 -26.5t-34 -11.5q-16 0 -23.5 6.5t-26.5 33.5l-412 605h-40v-577q0 -41 -8 -51q-13 -17 -36 -17q-27 0 -36 14t-9 54v1229q0 45 11.5 56.5t56.5 11.5h126q104 0 169.5 -16t119.5 -53q137 -96 137 -293q0 -223 -173 -314
q-70 -37 -217 -44zM273 726h131q141 0 218 64q92 76 92 215q0 79 -32.5 143t-88.5 94q-75 41 -208 41h-112v-557zM611 1619l-165 -123q-10 -8 -14 -11q-18 -14 -31 -14q-20 0 -34 14t-14 32t34 48l147 132q32 28 55 28t41.5 -17t18.5 -38q0 -22 -38 -51z" />
    <glyph glyph-name="racute" unicode="&#x155;" horiz-adv-x="532" vert-adv-y="2457" 
d="M228 727q65 127 190 127q63 0 63 -48q0 -14 -10 -24t-23 -10q-4 0 -23 5q-11 2 -24 2q-75 0 -128 -69q-27 -36 -36 -86.5t-9 -174.5v-381q0 -39 -9 -53.5t-32 -14.5t-32 14.5t-9 53.5v700q0 39 9 53.5t32 14.5t32 -14.5t9 -53.5v-41zM419 1160l-129 -157l-12 -14
q-18 -22 -37 -22q-33 0 -33 37q0 12 22 45l111 166q18 28 26.5 34.5t23.5 6.5q20 0 37 -16t17 -34q0 -14 -26 -46z" />
    <glyph glyph-name="Rcommaaccent" unicode="&#x156;" horiz-adv-x="956" vert-adv-y="2457" 
d="M414 645l387 -558q23 -34 23 -49t-15 -26.5t-34 -11.5q-16 0 -23.5 6.5t-26.5 33.5l-412 605h-40v-577q0 -41 -8 -51q-13 -17 -36 -17q-27 0 -36 14t-9 54v1229q0 45 11.5 56.5t56.5 11.5h126q104 0 169.5 -16t119.5 -53q137 -96 137 -293q0 -223 -173 -314
q-70 -37 -217 -44zM273 726h131q141 0 218 64q92 76 92 215q0 79 -32.5 143t-88.5 94q-75 41 -208 41h-112v-557zM534 -191l-103 -279q-12 -33 -20.5 -43t-24.5 -10q-9 0 -16 10t-7 22q0 9 9 40l85 286q10 34 19 44.5t28 10.5q16 0 29 -11.5t13 -27.5q0 -11 -12 -42z" />
    <glyph glyph-name="rcommaaccent" unicode="&#x157;" horiz-adv-x="532" vert-adv-y="2457" 
d="M228 727q65 127 189 127q64 0 64 -48q0 -14 -10 -24t-23 -10q-4 0 -23 5q-11 2 -24 2q-75 0 -128 -69q-27 -36 -36 -86.5t-9 -174.5v-381q0 -39 -9 -53.5t-32 -14.5t-32 14.5t-9 53.5v700q0 39 9 53.5t32 14.5t32 -14.5t9 -53.5v-41zM229 -191l-104 -279
q-11 -32 -20 -42.5t-25 -10.5q-9 0 -16 10t-7 22q0 8 9 40l85 286q10 34 19 44.5t28 10.5q17 0 30 -11.5t13 -27.5q0 -9 -12 -42z" />
    <glyph glyph-name="Rcaron" unicode="&#x158;" horiz-adv-x="956" vert-adv-y="2457" 
d="M414 645l387 -558q23 -34 23 -49t-15 -26.5t-34 -11.5q-16 0 -23.5 6.5t-26.5 33.5l-412 605h-40v-577q0 -41 -8 -51q-13 -17 -36 -17q-27 0 -36 14t-9 54v1229q0 45 11.5 56.5t56.5 11.5h126q104 0 169.5 -16t119.5 -53q137 -96 137 -293q0 -223 -173 -314
q-70 -37 -217 -44zM273 726h131q141 0 218 64q92 76 92 215q0 79 -32.5 143t-88.5 94q-75 41 -208 41h-112v-557zM479 1577l136 103q33 25 46 25q19 0 33 -14t14 -33t-37 -48l-146 -113q-4 -3 -14 -11q-18 -14 -32 -14t-47 25l-146 112q-38 30 -38 49t15 33t34 14
q13 0 46 -25z" />
    <glyph glyph-name="rcaron" unicode="&#x159;" horiz-adv-x="532" vert-adv-y="2457" 
d="M228 727q65 127 190 127q63 0 63 -48q0 -14 -10 -24t-23 -10q-4 0 -23 5q-11 2 -24 2q-75 0 -128 -69q-27 -36 -36 -86.5t-9 -174.5v-381q0 -39 -9 -53.5t-32 -14.5t-32 14.5t-9 53.5v700q0 39 9 53.5t32 14.5t32 -14.5t9 -53.5v-41zM266 1058l137 103q32 25 46 25
q17 0 29 -12t12 -28q0 -20 -38 -49l-139 -108q-33 -25 -47 -25t-46 25l-139 107q-38 29 -38 49q0 17 12.5 29.5t29.5 12.5q13 0 46 -25z" />
    <glyph glyph-name="Sacute" unicode="&#x15a;" horiz-adv-x="1049" vert-adv-y="2457" 
d="M539 1384q82 0 157 -33.5t130 -94.5q33 -37 33 -57q0 -18 -14 -31.5t-32 -13.5t-35 20q-35 43 -49 56q-77 71 -193 71q-123 0 -194 -87q-63 -77 -63 -172q0 -82 51 -136.5t192 -122.5q203 -97 272 -142q145 -95 145 -262q0 -183 -147 -303q-121 -99 -281 -99
q-188 0 -317 145q-29 32 -51 71t-22 58q0 17 14 30t32 13t26 -9t36 -61q37 -68 99 -108q84 -56 185 -56q137 0 236 94t99 224q0 133 -134 211q-47 27 -255 129q-159 78 -211 144q-60 74 -60 188q0 154 113 250q97 84 238 84zM726 1619l-165 -123q-6 -5 -14 -11
q-18 -14 -31 -14q-20 0 -34 13.5t-14 32.5t34 48l147 132q32 28 55 28t41.5 -17t18.5 -38q0 -23 -38 -51z" />
    <glyph glyph-name="sacute" unicode="&#x15b;" horiz-adv-x="700" vert-adv-y="2457" 
d="M138 215q16 0 23.5 -7.5t22.5 -37.5q58 -116 180 -116q90 0 144 66q43 53 43 119q0 64 -34.5 100.5t-125.5 69.5q-137 50 -191 101t-54 130q0 100 77 162q66 52 148 52q66 0 133 -41t67 -82q0 -15 -9.5 -26t-21.5 -11t-28 16q-65 68 -135 68q-61 0 -103.5 -39.5
t-42.5 -97.5q0 -47 36 -79t127 -67q118 -44 160 -75q82 -62 82 -177q0 -130 -91 -204q-76 -61 -180 -61q-142 0 -224 105q-45 58 -45 97q0 14 12.5 24.5t29.5 10.5zM503 1160l-129 -157q-29 -36 -49 -36q-33 0 -33 37q0 12 23 45l110 166q19 28 27 34.5t23 6.5
q20 0 37.5 -16t17.5 -34q0 -14 -27 -46z" />
    <glyph glyph-name="Scircumflex" unicode="&#x15c;" horiz-adv-x="1049" vert-adv-y="2457" 
d="M539 1384q82 0 157 -33.5t130 -94.5q33 -37 33 -57q0 -18 -14 -31.5t-32 -13.5t-35 20q-35 43 -49 56q-77 71 -193 71q-123 0 -194 -87q-63 -77 -63 -172q0 -82 51 -136.5t192 -122.5q203 -97 272 -142q145 -95 145 -262q0 -183 -147 -303q-121 -99 -281 -99
q-188 0 -317 145q-29 32 -51 71t-22 58q0 17 14 30t32 13t26 -9t36 -61q37 -68 99 -108q84 -56 185 -56q137 0 236 94t99 224q0 133 -134 211q-47 27 -255 129q-159 78 -211 144q-60 74 -60 188q0 154 113 250q97 84 238 84zM545 1609l-136 -103q-33 -25 -46 -25
q-19 0 -33.5 14t-14.5 32q0 20 38 49l146 112q2 2 14 12q18 14 32 14t47 -25l146 -113q37 -29 37 -49q0 -19 -15 -33t-34 -14q-12 0 -46 26z" />
    <glyph glyph-name="scircumflex" unicode="&#x15d;" horiz-adv-x="700" vert-adv-y="2457" 
d="M138 215q16 0 23.5 -7.5t22.5 -37.5q58 -116 180 -116q90 0 144 66q43 53 43 119q0 64 -34.5 100.5t-125.5 69.5q-137 50 -191 101t-54 130q0 100 77 162q66 52 148 52q66 0 133 -41t67 -82q0 -15 -9.5 -26t-21.5 -11t-28 16q-65 68 -135 68q-61 0 -103.5 -39.5
t-42.5 -97.5q0 -47 36 -79t127 -67q118 -44 160 -75q82 -62 82 -177q0 -130 -91 -204q-76 -61 -180 -61q-142 0 -224 105q-45 58 -45 97q0 14 12.5 24.5t29.5 10.5zM350 1095l-137 -103q-32 -25 -47 -25q-17 0 -28.5 11.5t-11.5 28.5q0 20 38 49l139 108q33 25 46 25
q14 0 47 -25l139 -107q38 -29 38 -49q0 -17 -12.5 -29.5t-29.5 -12.5q-13 0 -47 25z" />
    <glyph glyph-name="Scedilla" unicode="&#x15e;" horiz-adv-x="1049" vert-adv-y="2457" 
d="M539 1384q82 0 157 -33.5t130 -94.5q33 -37 33 -57q0 -18 -14 -31.5t-32 -13.5t-35 20q-35 43 -49 56q-77 71 -193 71q-123 0 -194 -87q-63 -77 -63 -172q0 -82 51 -136.5t192 -122.5q203 -97 272 -142q145 -95 145 -262q0 -183 -147 -303q-121 -99 -281 -99
q-188 0 -317 145q-29 32 -51 71t-22 58q0 17 14 30t32 13t26 -9t36 -61q37 -68 99 -108q84 -56 185 -56q137 0 236 94t99 224q0 133 -134 211q-47 27 -255 129q-159 78 -211 144q-60 74 -60 188q0 154 113 250q97 84 238 84zM560 -216l-128 -151q-30 -36 -49 -36
q-18 0 -31.5 13t-13.5 31q0 10 22 45l106 159q28 44 54 44q24 0 46 -19.5t22 -40.5q0 -13 -28 -45z" />
    <glyph glyph-name="scedilla" unicode="&#x15f;" horiz-adv-x="700" vert-adv-y="2457" 
d="M138 215q16 0 23.5 -7.5t22.5 -37.5q58 -116 180 -116q90 0 144 66q43 53 43 119q0 64 -34.5 100.5t-125.5 69.5q-137 50 -191 101t-54 130q0 100 77 162q66 52 148 52q66 0 133 -41t67 -82q0 -15 -9.5 -26t-21.5 -11t-28 16q-65 68 -135 68q-61 0 -103.5 -39.5
t-42.5 -97.5q0 -47 36 -79t127 -67q118 -44 160 -75q82 -62 82 -177q0 -130 -91 -204q-76 -61 -180 -61q-142 0 -224 105q-45 58 -45 97q0 14 12.5 24.5t29.5 10.5zM434 -207l-112 -143q-20 -25 -28 -31t-22 -6q-15 0 -26.5 12t-11.5 28q0 11 21 45l96 148q29 46 49 46
q24 0 42 -16t18 -37q0 -13 -26 -46z" />
    <glyph glyph-name="Scaron" unicode="&#x160;" horiz-adv-x="1024" vert-adv-y="2457" 
d="M539 1384q82 0 157 -33.5t130 -94.5q33 -37 33 -57q0 -18 -14 -31.5t-32 -13.5t-35 20q-35 43 -49 56q-77 71 -193 71q-123 0 -194 -87q-63 -77 -63 -172q0 -82 51 -136.5t192 -122.5q203 -97 272 -142q145 -95 145 -262q0 -183 -147 -303q-121 -99 -281 -99
q-188 0 -317 145q-29 32 -51 71t-22 58q0 17 14 30t32 13t26 -9t36 -61q37 -68 99 -108q84 -56 185 -56q137 0 236 94t99 224q0 133 -134 211q-47 27 -255 129q-159 78 -211 144q-60 74 -60 188q0 154 113 250q97 84 238 84zM310 1670q27 0 41 -32q15 -35 59.5 -57
t101.5 -22q60 0 103.5 22.5t60.5 63.5q11 25 39 25q43 0 43 -42q0 -36 -40 -77q-79 -82 -210 -82q-122 0 -202 82q-40 41 -40 77q0 18 12.5 30t31.5 12z" />
    <glyph glyph-name="scaron" unicode="&#x161;" horiz-adv-x="700" vert-adv-y="2457" 
d="M133 215q16 0 23.5 -7.5t22.5 -37.5q58 -116 180 -116q90 0 144 66q43 53 43 119q0 64 -34.5 100.5t-125.5 69.5q-137 50 -191 101t-54 130q0 100 77 162q66 52 148 52q66 0 133 -41t67 -82q0 -15 -9.5 -26t-21.5 -11t-28 16q-65 68 -135 68q-61 0 -103.5 -39.5
t-42.5 -97.5q0 -47 36 -79t127 -67q118 -44 160 -75q82 -62 82 -177q0 -130 -91 -204q-76 -61 -180 -61q-142 0 -224 105q-45 58 -45 97q0 14 12.5 24.5t29.5 10.5zM378 1058l136 103q33 25 46 25q41 0 41 -42q0 -18 -37 -47l-140 -108q-33 -25 -46 -25q-14 0 -47 25
l-139 107q-38 29 -38 47q0 44 43 44q13 0 46 -25z" />
    <glyph glyph-name="Tcommaaccent" unicode="&#x162;" horiz-adv-x="849" vert-adv-y="2457" 
d="M467 1283v-1215q0 -41 -8 -51q-13 -17 -36 -17q-27 0 -36 14t-9 54v1215h-283q-39 0 -53.5 9t-14.5 32t14.5 32t53.5 9h659q39 0 53.5 -9t14.5 -32t-14.5 -32t-53.5 -9h-287zM441 -191l-103 -279q-12 -32 -21 -42.5t-25 -10.5q-8 0 -15.5 10t-7.5 22q0 6 10 40l85 286
q10 34 18.5 44.5t28.5 10.5q16 0 29 -11.5t13 -27.5q0 -10 -12 -42z" />
    <glyph glyph-name="Tcommaaccent" unicode="&#x21a;" horiz-adv-x="849" vert-adv-y="2457" 
d="M467 1283v-1215q0 -41 -8 -51q-13 -17 -36 -17q-27 0 -36 14t-9 54v1215h-283q-39 0 -53.5 9t-14.5 32t14.5 32t53.5 9h659q39 0 53.5 -9t14.5 -32t-14.5 -32t-53.5 -9h-287zM441 -191l-103 -279q-12 -32 -21 -42.5t-25 -10.5q-8 0 -15.5 10t-7.5 22q0 6 10 40l85 286
q10 34 18.5 44.5t28.5 10.5q16 0 29 -11.5t13 -27.5q0 -10 -12 -42z" />
    <glyph glyph-name="tcommaaccent" unicode="&#x163;" horiz-adv-x="398" vert-adv-y="2457" 
d="M235 761v-693q0 -39 -9 -53.5t-32 -14.5t-32 14.5t-9 53.5v693h-25q-38 0 -52.5 8t-14.5 29q0 22 14.5 30t52.5 8h25v231q0 39 9 53.5t32 14.5t32 -14.5t9 -53.5v-231h78q38 0 52.5 -8t14.5 -30q0 -21 -14.5 -29t-52.5 -8h-78zM216 -191l-104 -279q-11 -32 -20 -42.5
t-25 -10.5q-9 0 -16 10t-7 22q0 8 9 40l85 286q10 34 19 44.5t28 10.5q17 0 30 -11.5t13 -27.5q0 -9 -12 -42z" />
    <glyph glyph-name="tcommaaccent" unicode="&#x21b;" horiz-adv-x="398" vert-adv-y="2457" 
d="M235 761v-693q0 -39 -9 -53.5t-32 -14.5t-32 14.5t-9 53.5v693h-25q-38 0 -52.5 8t-14.5 29q0 22 14.5 30t52.5 8h25v231q0 39 9 53.5t32 14.5t32 -14.5t9 -53.5v-231h78q38 0 52.5 -8t14.5 -30q0 -21 -14.5 -29t-52.5 -8h-78zM216 -191l-104 -279q-11 -32 -20 -42.5
t-25 -10.5q-9 0 -16 10t-7 22q0 8 9 40l85 286q10 34 19 44.5t28 10.5q17 0 30 -11.5t13 -27.5q0 -9 -12 -42z" />
    <glyph glyph-name="Tcaron" unicode="&#x164;" horiz-adv-x="849" vert-adv-y="2457" 
d="M467 1283v-1215q0 -41 -8 -51q-13 -17 -36 -17q-27 0 -36 14t-9 54v1215h-283q-39 0 -53.5 9t-14.5 32t14.5 32t53.5 9h659q39 0 53.5 -9t14.5 -32t-14.5 -32t-53.5 -9h-287zM425 1577l137 103q33 25 45 25q20 0 34 -14t14 -33t-37 -48l-146 -113q-4 -3 -15 -11
q-18 -14 -32 -14t-47 25l-145 112q-38 29 -38 49q0 19 15 33t34 14q13 0 46 -25z" />
    <glyph glyph-name="tcaron" unicode="&#x165;" horiz-adv-x="398" vert-adv-y="2457" 
d="M236 761v-693q0 -39 -9 -53.5t-32 -14.5t-32 14.5t-9 53.5v693h-25q-38 0 -52.5 8t-14.5 29q0 22 14.5 30t52.5 8h25v231q0 39 9 53.5t32 14.5t32 -14.5t9 -53.5v-231h78q38 0 52.5 -8t14.5 -30q0 -21 -14.5 -29t-52.5 -8h-78zM512 1359l-103 -279q-12 -32 -20.5 -42
t-24.5 -10q-8 0 -15.5 10t-7.5 21q0 8 9 40l85 286q10 35 19 45.5t28 10.5q16 0 29 -12t13 -27q0 -11 -12 -43z" />
    <glyph glyph-name="Tbar" unicode="&#x166;" horiz-adv-x="849" vert-adv-y="2457" 
d="M467 782h141q39 0 53.5 -9t14.5 -32q0 -24 -14.5 -32.5t-53.5 -8.5h-141v-632q0 -41 -8 -51q-13 -17 -36 -17q-27 0 -36 14t-9 54v632h-122q-40 0 -54.5 8.5t-14.5 32.5q0 23 14.5 32t54.5 9h122v501h-283q-39 0 -53.5 9t-14.5 32t14.5 32t53.5 9h659q39 0 53.5 -9
t14.5 -32t-14.5 -32t-53.5 -9h-287v-501z" />
    <glyph glyph-name="tbar" unicode="&#x167;" horiz-adv-x="398" vert-adv-y="2457" 
d="M235 601h100q39 0 53.5 -9t14.5 -32t-14.5 -32t-53.5 -9h-100v-451q0 -39 -9 -53.5t-32 -14.5t-32 14.5t-9 53.5v451h-26q-39 0 -53.5 9t-14.5 32t14.5 32t53.5 9h26v160h-25q-38 0 -52.5 8t-14.5 29q0 22 14.5 30t52.5 8h25v231q0 39 9 53.5t32 14.5t32 -14.5t9 -53.5
v-231h78q38 0 52.5 -8t14.5 -30q0 -21 -14.5 -29t-52.5 -8h-78v-160z" />
    <glyph glyph-name="Utilde" unicode="&#x168;" horiz-adv-x="1297" vert-adv-y="2457" 
d="M273 1297v-786q0 -126 10 -187t39 -107q45 -70 143 -116q88 -41 183 -41q135 0 247 78q78 55 103 128t25 245v786q0 41 8 51q13 17 37 17q26 0 35 -14t9 -54v-810q0 -161 -22 -227q-46 -140 -190 -219q-115 -64 -252 -64q-164 0 -292 88q-129 89 -160 230q-12 57 -12 192
v810q0 41 8 51q13 17 37 17q26 0 35 -14t9 -54zM535 1637q37 0 119 -36q86 -37 120 -37q31 0 52 29q22 30 43 30q36 0 36 -38t-47 -74.5t-96 -36.5q-29 0 -115 36q-90 37 -125 37q-36 0 -70 -46q-8 -10 -24 -10q-34 0 -34 37q0 24 31 57q47 52 110 52z" />
    <glyph glyph-name="utilde" unicode="&#x169;" horiz-adv-x="893" vert-adv-y="2457" 
d="M228 768v-430q0 -131 28 -184q23 -45 75.5 -72.5t115.5 -27.5q62 0 114.5 27.5t75.5 72.5q28 53 28 184v430q0 39 9 53.5t32 14.5q24 0 32.5 -14.5t8.5 -53.5v-459q0 -88 -13 -137.5t-48 -90.5q-86 -103 -239 -103q-154 0 -241 103q-34 40 -47 90t-13 138v459
q0 39 9 53.5t32 14.5t32 -14.5t9 -53.5zM333 1154q36 0 118 -36q85 -37 117 -37q37 0 75 48q8 9 22 9q33 0 33 -34q0 -35 -46 -70t-92 -35q-29 0 -113 35q-90 38 -127 38t-59 -30q-18 -24 -38 -24q-26 0 -26 31q0 23 29 55q45 50 107 50z" />
    <glyph glyph-name="Umacron" unicode="&#x16a;" horiz-adv-x="1297" vert-adv-y="2457" 
d="M273 1297v-786q0 -126 10 -187t39 -107q45 -70 143 -116q88 -41 183 -41q135 0 247 78q78 55 103 128t25 245v786q0 41 8 51q13 17 37 17q26 0 35 -14t9 -54v-810q0 -161 -22 -227q-46 -140 -190 -219q-115 -64 -252 -64q-164 0 -292 88q-129 89 -160 230q-12 57 -12 192
v810q0 41 8 51q13 17 37 17q26 0 35 -14t9 -54zM437 1614h423q41 0 51 -8q17 -13 17 -37q0 -26 -14 -35t-54 -9h-423q-42 0 -52 8q-17 13 -17 36q0 27 14 36t55 9z" />
    <glyph glyph-name="umacron" unicode="&#x16b;" horiz-adv-x="893" vert-adv-y="2457" 
d="M228 768v-430q0 -131 28 -184q23 -45 75.5 -72.5t115.5 -27.5q62 0 114.5 27.5t75.5 72.5q28 53 28 184v430q0 39 9 53.5t32 14.5q24 0 32.5 -14.5t8.5 -53.5v-459q0 -88 -13 -137.5t-48 -90.5q-86 -103 -239 -103q-154 0 -241 103q-34 40 -47 90t-13 138v459
q0 39 9 53.5t32 14.5t32 -14.5t9 -53.5zM239 1090h415q39 0 53.5 -8.5t14.5 -31.5q0 -24 -14.5 -32.5t-53.5 -8.5h-415q-39 0 -53.5 8.5t-14.5 32.5q0 23 14.5 31.5t53.5 8.5z" />
    <glyph glyph-name="Ubreve" unicode="&#x16c;" horiz-adv-x="1297" vert-adv-y="2457" 
d="M273 1297v-786q0 -126 10 -187t39 -107q45 -70 143 -116q88 -41 183 -41q135 0 247 78q78 55 103 128t25 245v786q0 41 8 51q13 17 37 17q26 0 35 -14t9 -54v-810q0 -161 -22 -227q-46 -140 -190 -219q-115 -64 -252 -64q-164 0 -292 88q-129 89 -160 230q-12 57 -12 192
v810q0 41 8 51q13 17 37 17q26 0 35 -14t9 -54zM446 1670q27 0 41 -32q15 -35 60 -57t101 -22q61 0 104 22.5t61 63.5q11 25 39 25q18 0 30.5 -12t12.5 -30q0 -36 -40 -77q-79 -82 -210 -82q-123 0 -203 82q-40 41 -40 77q0 18 12.5 30t31.5 12z" />
    <glyph glyph-name="ubreve" unicode="&#x16d;" horiz-adv-x="893" vert-adv-y="2457" 
d="M228 768v-430q0 -131 28 -184q23 -45 75.5 -72.5t115.5 -27.5q62 0 114.5 27.5t75.5 72.5q28 53 28 184v430q0 39 9 53.5t32 14.5q24 0 32.5 -14.5t8.5 -53.5v-459q0 -88 -13 -137.5t-48 -90.5q-86 -103 -239 -103q-154 0 -241 103q-34 40 -47 90t-13 138v459
q0 39 9 53.5t32 14.5t32 -14.5t9 -53.5zM246 1172q20 0 34 -27q44 -86 167 -86q122 0 166 86q14 27 34 27q41 0 41 -40q0 -33 -38 -71q-79 -81 -207 -81q-121 0 -200 81q-38 38 -38 71q0 40 41 40z" />
    <glyph glyph-name="Uring" unicode="&#x16e;" horiz-adv-x="1297" vert-adv-y="2457" 
d="M273 1297v-786q0 -126 10 -187t39 -107q45 -70 143 -116q88 -41 183 -41q135 0 247 78q78 55 103 128t25 245v786q0 41 8 51q13 17 37 17q26 0 35 -14t9 -54v-810q0 -161 -22 -227q-46 -140 -190 -219q-115 -64 -252 -64q-164 0 -292 88q-129 89 -160 230q-12 57 -12 192
v810q0 41 8 51q13 17 37 17q26 0 35 -14t9 -54zM648 1775q68 0 116 -48t48 -116t-48 -116t-116 -48t-115.5 48.5t-47.5 117.5q0 66 48.5 114t114.5 48zM648 1694q-35 0 -59.5 -24.5t-24.5 -60.5q0 -34 25 -58.5t60 -24.5t59.5 24.5t24.5 59.5t-24.5 59.5t-60.5 24.5z" />
    <glyph glyph-name="uring" unicode="&#x16f;" horiz-adv-x="893" vert-adv-y="2457" 
d="M228 768v-430q0 -131 28 -184q23 -45 75.5 -72.5t115.5 -27.5q62 0 114.5 27.5t75.5 72.5q28 53 28 184v430q0 39 9 53.5t32 14.5q24 0 32.5 -14.5t8.5 -53.5v-459q0 -88 -13 -137.5t-48 -90.5q-86 -103 -239 -103q-154 0 -241 103q-34 40 -47 90t-13 138v459
q0 39 9 53.5t32 14.5t32 -14.5t9 -53.5zM446 1275q66 0 112 -45.5t46 -111.5q0 -65 -46 -111t-111 -46q-66 0 -112 46.5t-46 112.5q0 63 46.5 109t110.5 46zM447 1201q-36 0 -61 -24.5t-25 -60.5q0 -34 25.5 -58.5t60.5 -24.5t60 24.5t25 59.5t-25 59.5t-60 24.5z" />
    <glyph glyph-name="Uhungarumlaut" unicode="&#x170;" horiz-adv-x="1297" vert-adv-y="2457" 
d="M273 1297v-786q0 -126 10 -187t39 -107q45 -70 143 -116q88 -41 183 -41q135 0 247 78q78 55 103 128t25 245v786q0 41 8 51q13 17 37 17q26 0 35 -14t9 -54v-810q0 -161 -22 -227q-46 -140 -190 -219q-115 -64 -252 -64q-164 0 -292 88q-129 89 -160 230q-12 57 -12 192
v810q0 41 8 51q13 17 37 17q26 0 35 -14t9 -54zM697 1628l-144 -135q-32 -29 -48 -29q-19 0 -32 13t-13 32q0 14 28 46l127 142q30 34 53 34t42 -16.5t19 -36.5q0 -19 -32 -50zM753 1555l127 142q30 34 53 34t42 -16.5t19 -36.5t-33 -50q-49 -45 -143 -134q-32 -30 -48 -30
q-19 0 -32.5 13t-13.5 32q0 14 29 46z" />
    <glyph glyph-name="uhungarumlaut" unicode="&#x171;" horiz-adv-x="893" vert-adv-y="2457" 
d="M228 768v-430q0 -131 28 -184q23 -45 75.5 -72.5t115.5 -27.5q62 0 114.5 27.5t75.5 72.5q28 53 28 184v430q0 39 9 53.5t32 14.5q24 0 32.5 -14.5t8.5 -53.5v-459q0 -88 -13 -137.5t-48 -90.5q-86 -103 -239 -103q-154 0 -241 103q-34 40 -47 90t-13 138v459
q0 39 9 53.5t32 14.5t32 -14.5t9 -53.5zM486 1160l-119 -154q-19 -25 -27 -31t-22 -6q-30 0 -30 36q0 11 20 43l101 164q4 6 9 15q17 28 41 28q19 0 35.5 -15.5t16.5 -34.5q0 -13 -25 -45zM713 1160l-119 -154q-19 -24 -28 -31t-22 -7q-30 0 -30 36q0 10 21 44l101 164
q4 7 9 15q17 28 41 28q19 0 35.5 -16t16.5 -34q0 -12 -25 -45z" />
    <glyph glyph-name="Uogonek" unicode="&#x172;" horiz-adv-x="1297" vert-adv-y="2457" 
d="M699 -21q-21 -2 -48 -2q-167 0 -295 88q-129 89 -160 230q-12 57 -12 192v810q0 41 8 51q13 17 37 17q26 0 35 -14t9 -54v-786q0 -126 10 -187t39 -107q45 -70 143 -116q88 -41 183 -41q135 0 247 78q78 55 103 128t25 245v786q0 41 8 51q13 17 37 17q26 0 35 -14t9 -54
v-810q0 -185 -34 -262q-43 -101 -202 -198q-90 -56 -124 -84q-69 -59 -69 -120q0 -45 42 -76t104 -31q6 0 50 4q9 1 15 1q37 0 37 -38q0 -41 -105 -41q-101 0 -168 60q-57 51 -57 115q0 86 98 162z" />
    <glyph glyph-name="uogonek" unicode="&#x173;" horiz-adv-x="893" vert-adv-y="2457" 
d="M458 -22h-12q-153 0 -240 103q-34 40 -47 90t-13 138v459q0 39 9 53.5t32 14.5t32 -14.5t9 -53.5v-430q0 -131 28 -184q23 -45 75.5 -72.5t115.5 -27.5q62 0 114.5 27.5t75.5 72.5q28 53 28 184v430q0 39 9 53.5t32 14.5q24 0 32.5 -14.5t8.5 -53.5v-459q0 -124 -31 -184
q-33 -66 -136 -133q-69 -45 -97.5 -84t-28.5 -89q0 -42 33.5 -71t82.5 -29q8 0 46 3q8 1 13 1q36 0 36 -36q0 -39 -99 -39q-86 0 -143 58q-47 47 -47 111q0 86 82 161z" />
    <glyph glyph-name="Wcircumflex" unicode="&#x174;" horiz-adv-x="2011" vert-adv-y="2457" 
d="M499 186l445 1128q20 51 48 51q29 0 48 -52l416 -1128l407 1125q13 35 23 45t34 10q17 0 31 -12t14 -28q0 -12 -12 -43l-450 -1230q-11 -32 -20.5 -42t-26.5 -10q-18 0 -27 10t-21 42l-414 1133l-455 -1133q-21 -50 -49 -50q-18 0 -27 10.5t-20 43.5l-390 1227
q-10 31 -10 41q0 17 13.5 28.5t33.5 11.5q24 0 33.5 -10t21.5 -46zM979 1609l-136 -103q-33 -25 -46 -25q-19 0 -33.5 14t-14.5 32q0 20 38 49l146 112q2 2 14 12q18 14 32 14q12 0 25 -9l22 -16l171 -113q1 0 7 -24.5t6 -26.5q0 -17 -15.5 -31t-34.5 -14q-12 0 -46 26z" />
    <glyph glyph-name="wcircumflex" unicode="&#x175;" horiz-adv-x="1376" vert-adv-y="2457" 
d="M395 150l241 632q20 51 48 51q29 0 48 -51l241 -632l270 636q15 33 24.5 42t29.5 9q16 0 29 -11.5t13 -26.5q0 -13 -15 -45l-301 -704q-21 -50 -48 -50q-29 0 -48 51l-243 639l-242 -638q-20 -51 -48 -51t-49 50l-293 703q-14 33 -14 45q0 14 13 26t29 12q20 0 29.5 -9
t23.5 -42zM688 1095l-136 -103q-33 -25 -47 -25q-17 0 -28.5 11.5t-11.5 28.5q0 20 37 49l139 108q34 25 47 25q14 0 47 -25l139 -107q37 -29 37 -49q0 -17 -12.5 -29.5t-29.5 -12.5q-13 0 -46 25z" />
    <glyph glyph-name="Ycircumflex" unicode="&#x176;" horiz-adv-x="1052" vert-adv-y="2457" 
d="M474 583l-398 697q-19 32 -19 46q0 16 13 28t30 12q20 0 29 -7.5t27 -37.5l364 -641l374 641q18 30 26 37t25 7q19 0 34 -11.5t15 -26.5q0 -14 -20 -47l-411 -697v-515q0 -41 -8 -51q-13 -17 -37 -17q-26 0 -35 14t-9 54v515zM525 1609l-136 -103q-33 -25 -46 -25
q-19 0 -33 14t-14 32q0 20 37 49l146 112q2 2 14 12q18 14 32 14t47 -25l146 -113q38 -29 38 -49q0 -18 -15 -32.5t-35 -14.5q-12 0 -46 26z" />
    <glyph glyph-name="ycircumflex" unicode="&#x177;" horiz-adv-x="877" vert-adv-y="2457" 
d="M412 -14l-357 767q-15 32 -15 45q0 16 13 27.5t29 11.5q20 0 28.5 -8.5t24.5 -41.5l320 -693l290 692q14 33 23 42t28 9q17 0 30 -12t13 -27q0 -13 -13 -44l-505 -1193q-5 -13 -7 -17q-14 -34 -43 -34q-16 0 -29 11.5t-13 26.5q0 12 14 45zM438 1095l-136 -103
q-33 -25 -47 -25q-17 0 -28.5 11.5t-11.5 28.5q0 20 37 49l139 108q34 25 47 25q14 0 47 -25l139 -107q37 -29 37 -49q0 -17 -12 -29.5t-30 -12.5q-13 0 -46 25z" />
    <glyph glyph-name="Zacute" unicode="&#x179;" horiz-adv-x="1137" vert-adv-y="2457" 
d="M228 82h741q39 0 53.5 -9t14.5 -32t-14.5 -32t-53.5 -9h-791q-36 0 -48 6q-20 10 -20 32q0 15 21 48l778 1197h-686q-39 0 -53.5 9t-14.5 32t14.5 32t53.5 9h736q37 0 49 -6q20 -10 20 -32q0 -15 -22 -48zM770 1619l-164 -123q-10 -7 -15 -11q-18 -14 -31 -14
q-20 0 -34 14t-14 32t34 48l148 132q31 28 54 28t41.5 -17t18.5 -38q0 -23 -38 -51z" />
    <glyph glyph-name="zacute" unicode="&#x17a;" horiz-adv-x="927" vert-adv-y="2457" 
d="M213 75h604q39 0 53.5 -8t14.5 -29q0 -22 -14.5 -30t-53.5 -8h-661q-39 0 -54 9t-15 32q0 15 29 47l603 673h-505q-38 0 -52.5 8t-14.5 29q0 22 14.5 30t52.5 8h557q39 0 54 -9t15 -32q0 -15 -29 -47zM616 1160l-128 -157q-6 -6 -12 -14q-18 -22 -37 -22q-33 0 -33 37
q0 12 22 45l111 166q18 28 26 34.5t23 6.5q20 0 37.5 -16t17.5 -34q0 -14 -27 -46z" />
    <glyph glyph-name="Zdotaccent" unicode="&#x17b;" horiz-adv-x="1137" vert-adv-y="2457" 
d="M228 82h741q39 0 53.5 -9t14.5 -32t-14.5 -32t-53.5 -9h-791q-36 0 -48 6q-20 10 -20 32q0 15 21 48l778 1197h-686q-39 0 -53.5 9t-14.5 32t14.5 32t53.5 9h736q37 0 49 -6q20 -10 20 -32q0 -15 -22 -48zM569 1683q35 0 59 -24t24 -58q0 -35 -24 -59t-59 -24t-59 24.5
t-24 59.5q0 33 24.5 57t58.5 24z" />
    <glyph glyph-name="zdotaccent" unicode="&#x17c;" horiz-adv-x="927" vert-adv-y="2457" 
d="M213 75h604q39 0 53.5 -8t14.5 -29q0 -22 -14.5 -30t-53.5 -8h-661q-39 0 -54 9t-15 32q0 15 29 47l603 673h-505q-38 0 -52.5 8t-14.5 29q0 22 14.5 30t52.5 8h557q39 0 54 -9t15 -32q0 -15 -29 -47zM482 1158q33 0 56 -22.5t23 -55.5q0 -32 -23 -55t-56 -23t-56 23
t-23 56q0 32 23.5 54.5t55.5 22.5z" />
    <glyph glyph-name="Zcaron" unicode="&#x17d;" horiz-adv-x="1137" vert-adv-y="2457" 
d="M228 82h741q39 0 53.5 -9t14.5 -32t-14.5 -32t-53.5 -9h-791q-36 0 -48 6q-20 10 -20 32q0 15 21 48l778 1197h-686q-39 0 -53.5 9t-14.5 32t14.5 32t53.5 9h736q37 0 49 -6q20 -10 20 -32q0 -15 -22 -48zM597 1577l136 103q33 25 46 25q20 0 34 -14t14 -33t-38 -48
l-146 -113q-4 -3 -14 -11q-18 -14 -32 -14t-47 25l-146 112q-37 29 -37 49q0 19 14.5 33t34.5 14q13 0 46 -25z" />
    <glyph glyph-name="zcaron" unicode="&#x17e;" horiz-adv-x="927" vert-adv-y="2457" 
d="M213 75h604q39 0 53.5 -8t14.5 -29q0 -22 -14.5 -30t-53.5 -8h-661q-39 0 -54 9t-15 32q0 15 29 47l603 673h-505q-38 0 -52.5 8t-14.5 29q0 22 14.5 30t52.5 8h557q39 0 54 -9t15 -32q0 -15 -29 -47zM491 1058l137 103q32 25 45 25q42 0 42 -42q0 -18 -38 -47l-139 -108
q-33 -25 -47 -25t-47 25l-139 107q-37 29 -37 46q0 45 43 45q12 0 45 -25z" />
    <glyph glyph-name="longs" unicode="&#x17f;" horiz-adv-x="436" vert-adv-y="2457" 
d="M147 760h-47q-46 0 -46 38t46 38h47v396q0 85 14 136t47 85q61 64 161 64q70 0 70 -47v-3q0 -31 -31 -31q-3 0 -8 1q-13 1 -25 1q-78 0 -112 -51.5t-34 -170.5v-1166q0 -50 -41 -50t-41 50v710z" />
    <glyph glyph-name="uni018F" unicode="&#x18f;" horiz-adv-x="1634" vert-adv-y="2457" 
d="M1432 723q-13 147 -79 266q-81 143 -221 226q-145 86 -319 86q-139 0 -263 -60t-212 -170q-47 -58 -57.5 -67.5t-26.5 -9.5q-17 0 -28.5 11.5t-11.5 27.5q0 21 37 73q66 93 187 170q170 108 377 108q198 0 364 -98q155 -91 248 -248q98 -166 98 -356q0 -191 -98 -356
q-91 -153 -248 -247q-171 -102 -362 -102q-269 0 -475 186q-224 202 -224 489q0 71 83 71h1231zM1432 641h-1230q13 -149 79 -266q79 -139 220 -225q150 -90 316 -90q235 0 417 167q178 163 198 414z" />
    <glyph glyph-name="uni018F" unicode="&#x4d8;" horiz-adv-x="1634" vert-adv-y="2457" 
d="M1432 723q-13 147 -79 266q-81 143 -221 226q-145 86 -319 86q-139 0 -263 -60t-212 -170q-47 -58 -57.5 -67.5t-26.5 -9.5q-17 0 -28.5 11.5t-11.5 27.5q0 21 37 73q66 93 187 170q170 108 377 108q198 0 364 -98q155 -91 248 -248q98 -166 98 -356q0 -191 -98 -356
q-91 -153 -248 -247q-171 -102 -362 -102q-269 0 -475 186q-224 202 -224 489q0 71 83 71h1231zM1432 641h-1230q13 -149 79 -266q79 -139 220 -225q150 -90 316 -90q235 0 417 167q178 163 198 414z" />
    <glyph glyph-name="uni01C4" unicode="&#x1c4;" horiz-adv-x="952" vert-adv-y="2457" 
d="M746 404h3q28 0 40 -25.5t12 -84.5q0 -142 -107 -231q-90 -75 -218 -75q-165 0 -258 120q-68 88 -68 209q0 126 71 217q52 66 160 100q13 4 125 34q166 44 166 194q0 89 -65 148q-56 50 -132 50q-56 0 -103.5 -29.5t-70.5 -78.5q-7 -16 -23 -80q-9 -32 -41 -32
q-39 0 -39 44q0 52 20 96q35 76 102 117.5t155 41.5q134 0 213 -91q71 -82 71 -190q0 -107 -63 -174.5t-194 -103.5q-101 -27 -132 -39t-59 -36q-74 -62 -74 -183q0 -106 63 -175q72 -79 180 -79q100 0 167.5 69.5t67.5 173.5q0 13 -1 25q-2 25 -2 34q0 34 34 34zM476 1378
q31 0 52.5 -22t21.5 -54q0 -30 -22 -52t-52 -22q-31 0 -53 22t-22 53t22 53t53 22z" />
    <glyph glyph-name="uni01C5" unicode="&#x1c5;" horiz-adv-x="1113" vert-adv-y="2457" 
d="M1094 1449l-880 -1568q-15 -26 -36 -26q-15 0 -26 10.5t-11 23.5q0 12 9 28l881 1567q14 26 35 26q14 0 25 -10.5t11 -23.5q0 -12 -8 -27z" />
    <glyph glyph-name="uni01C6" unicode="&#x1c6;" horiz-adv-x="538" vert-adv-y="2457" 
d="M346 -130l-4 -3q-9 -6 -20 -6q-22 0 -30 21q-49 138 -81.5 364t-32.5 433q0 206 34 444t81 360q8 21 29 21q11 0 19 -6l5 -3q22 -16 22 -39q0 -8 -6 -28q-45 -154 -72 -358.5t-27 -387.5q0 -217 34 -428q33 -206 65 -317q6 -19 6 -28q0 -23 -22 -39z" />
    <glyph glyph-name="uni01C7" unicode="&#x1c7;" horiz-adv-x="538" vert-adv-y="2457" 
d="M193 1495l4 3q8 6 19 6q23 0 30 -21q50 -138 82.5 -364.5t32.5 -432.5q0 -205 -34 -443.5t-81 -360.5q-8 -21 -30 -21q-11 0 -19 6l-4 3q-22 16 -22 39q0 8 6 28q44 154 71.5 359t27.5 387q0 217 -34 429q-33 206 -65 316q-6 19 -6 28q0 23 22 39z" />
    <glyph glyph-name="uni01C8" unicode="&#x1c8;" horiz-adv-x="567" vert-adv-y="2457" 
d="M266 1412v-1459h169q49 0 49 -40q0 -41 -49 -41h-174q-84 0 -84 84v1455q0 83 84 83h173q50 0 50 -41t-50 -41h-168z" />
    <glyph glyph-name="uni01C9" unicode="&#x1c9;" horiz-adv-x="567" vert-adv-y="2457" 
d="M300 -46v1459h-169q-49 0 -49 40q0 41 49 41h174q84 0 84 -84v-1455q0 -83 -84 -83h-173q-50 0 -50 41t50 41h168z" />
    <glyph glyph-name="uni01CA" unicode="&#x1ca;" vert-adv-y="2457" 
d="M434 978q-64 31 -100 64q-75 69 -75 191q0 137 95 211q87 69 221 69q139 0 219 -73t80 -202q0 -17 -12 -28.5t-29 -11.5q-23 0 -33 13t-15 49q-24 171 -212 171q-101 0 -159 -50q-67 -57 -67 -155q0 -95 77 -151q32 -23 62.5 -35.5t118.5 -38.5q132 -40 191 -90
q94 -81 94 -226q0 -193 -205 -295q69 -29 105 -62q80 -73 80 -204q0 -129 -81 -199q-84 -73 -231 -73q-146 0 -222 68.5t-76 201.5q0 46 43 46q24 0 34 -14.5t14 -55.5q13 -164 209 -164q106 0 164 54q56 53 56 142q0 118 -105 175q-46 25 -190 74q-111 37 -167 89
q-89 84 -89 214q0 205 205 296zM560 908q-100 0 -169 -65q-70 -67 -70 -161q0 -90 70 -156q69 -66 169 -66t169 66q70 65 70 158q0 94 -70 158q-71 66 -169 66z" />
    <glyph glyph-name="uni01CB" unicode="&#x1cb;" vert-adv-y="2457" 
d="M604 1133h275q50 0 50 -41t-50 -41h-275v-1125q0 -55 -44 -55q-45 0 -45 55v1125h-275q-50 0 -50 41t50 41h275v306q0 54 44 54q45 0 45 -54v-306z" />
    <glyph glyph-name="uni01CC" unicode="&#x1cc;" vert-adv-y="2457" 
d="M603 1133h276q50 0 50 -41t-50 -41h-276v-655h276q50 0 50 -41t-50 -41h-276v-389q0 -53 -44 -53q-43 0 -43 53v389h-276q-50 0 -50 41t50 41h276v655h-276q-50 0 -50 41t50 41h276v307q0 53 43 53q44 0 44 -53v-307z" />
    <glyph glyph-name="uni01CD" unicode="&#x1cd;" horiz-adv-x="1197" vert-adv-y="2457" 
d="M890 449h-582l-160 -398q-14 -34 -24.5 -43.5t-34.5 -9.5q-14 0 -27.5 12.5t-13.5 26.5q0 12 13 45l486 1205q20 50 29.5 64t24.5 14q16 0 26 -14t30 -64l480 -1205q13 -33 13 -45q0 -14 -13.5 -26.5t-27.5 -12.5q-24 0 -34.5 9.5t-24.5 43.5zM857 531l-256 673
l-260 -673h516zM600 1577l136 103q33 25 46 25q19 0 33.5 -14t14.5 -33t-38 -48l-146 -113q-4 -3 -14 -11q-18 -14 -32 -14t-47 25l-146 112q-37 29 -37 49q0 19 14.5 33t34.5 14q13 0 46 -25z" />
    <glyph glyph-name="uni01CE" unicode="&#x1ce;" horiz-adv-x="1054" vert-adv-y="2457" 
d="M826 150q-44 -66 -98 -103q-103 -69 -228 -69q-191 0 -311 145q-98 119 -98 299q0 220 142 339q112 93 265 93q203 0 328 -163v77q0 39 9 53.5t32 14.5t32 -14.5t9 -53.5v-700q0 -39 -9 -53.5t-32 -14.5q-24 0 -32.5 14.5t-8.5 53.5v82zM500 778q-138 0 -238 -109
q-87 -95 -87 -253q0 -159 100 -263q94 -99 230 -99q156 0 252 125q74 96 74 247q0 173 -104 263q-101 89 -227 89zM506 1058l137 103q33 25 46 25q17 0 29 -12t12 -28q0 -20 -38 -49l-139 -108q-33 -25 -47 -25q-13 0 -46 25l-139 107q-38 29 -38 49q0 17 12.5 29.5
t29.5 12.5q13 0 47 -25z" />
    <glyph glyph-name="uni01CF" unicode="&#x1cf;" horiz-adv-x="457" vert-adv-y="2457" 
d="M273 1311v-1257q0 -54 -44 -54q-45 0 -45 54v1257q0 54 45 54q44 0 44 -54zM228 1582l147 123q21 18 37 18q18 0 31.5 -14t13.5 -33q0 -20 -24 -41l-147 -124q-31 -26 -58 -26q-26 0 -57 26l-147 124q-24 21 -24 41q0 19 13.5 32.5t32.5 13.5q16 0 37 -17z" />
    <glyph glyph-name="uni01D0" unicode="&#x1d0;" horiz-adv-x="374" vert-adv-y="2457" 
d="M228 786v-736q0 -50 -41 -50t-41 50v736q0 50 41 50t41 -50zM187 1062l150 147q19 19 35 19q17 0 29.5 -12.5t12.5 -29.5q0 -18 -20 -36l-149 -140q-31 -29 -58 -29t-58 29l-149 140q-20 18 -20 36q0 17 12.5 29.5t29.5 12.5q16 0 35 -19z" />
    <glyph glyph-name="uni01D1" unicode="&#x1d1;" horiz-adv-x="531" vert-adv-y="2457" 
d="M266 1379q31 0 52.5 -22t21.5 -53q0 -30 -22 -52t-52 -22q-31 0 -53 22t-22 53q0 30 22 52t53 22zM310 1067v-1013q0 -54 -44 -54q-45 0 -45 54v1013q0 54 45 54q44 0 44 -54z" />
    <glyph glyph-name="uni01D2" unicode="&#x1d2;" horiz-adv-x="1058" vert-adv-y="2457" 
d="M530 854q186 0 317 -135q119 -122 119 -303q0 -208 -153 -335q-124 -103 -287 -103q-119 0 -225 64q-107 64 -162 172q-48 93 -48 209q0 180 134 309q128 122 305 122zM522 778q-160 0 -264 -127q-82 -101 -82 -241q0 -149 106 -255q100 -101 243 -101q168 0 277 130
q79 96 79 232q0 159 -107 261q-106 101 -252 101zM529 1058l137 103q32 25 46 25q17 0 29 -12t12 -28q0 -20 -38 -49l-139 -108q-33 -25 -47 -25q-13 0 -46 25l-139 107q-38 29 -38 49q0 17 12.5 29.5t29.5 12.5q13 0 46 -25z" />
    <glyph glyph-name="uni01D3" unicode="&#x1d3;" horiz-adv-x="1297" vert-adv-y="2457" 
d="M273 1297v-786q0 -126 10 -187t39 -107q45 -70 143 -116q88 -41 183 -41q135 0 247 78q78 55 103 128t25 245v786q0 41 8 51q13 17 37 17q26 0 35 -14t9 -54v-810q0 -161 -22 -227q-46 -140 -190 -219q-115 -64 -252 -64q-164 0 -292 88q-129 89 -160 230q-12 57 -12 192
v810q0 41 8 51q13 17 37 17q26 0 35 -14t9 -54zM649 1577l136 103q34 25 46 25q20 0 34 -14t14 -33t-38 -48l-145 -113q-4 -3 -15 -11q-18 -14 -32 -14t-47 25l-145 112q-38 29 -38 49q0 19 14.5 33t34.5 14q13 0 46 -25z" />
    <glyph glyph-name="uni01D4" unicode="&#x1d4;" horiz-adv-x="893" vert-adv-y="2457" 
d="M228 768v-430q0 -131 28 -184q23 -45 75.5 -72.5t115.5 -27.5q62 0 114.5 27.5t75.5 72.5q28 53 28 184v430q0 39 9 53.5t32 14.5q24 0 32.5 -14.5t8.5 -53.5v-459q0 -88 -13 -137.5t-48 -90.5q-86 -103 -239 -103q-154 0 -241 103q-34 40 -47 90t-13 138v459
q0 39 9 53.5t32 14.5t32 -14.5t9 -53.5zM447 1058l137 103q32 25 46 25q16 0 28 -12t12 -28q0 -20 -37 -49l-139 -108q-33 -25 -47 -25t-47 25l-139 107q-37 29 -37 49q0 17 12.5 29.5t29.5 12.5q13 0 46 -25z" />
    <glyph glyph-name="uni01DD" unicode="&#x1dd;" horiz-adv-x="990" vert-adv-y="2457" 
d="M809 425q-4 116 -45 189q-42 74 -119 119q-76 45 -161 45q-122 0 -211 -80q-18 -15 -72 -82q-11 -14 -29 -14q-16 0 -27 11t-11 27q0 21 37 67q55 69 139.5 108t178.5 39q197 0 313 -146q97 -120 97 -289q0 -188 -117 -317q-112 -124 -292 -124q-145 0 -250 89
q-58 50 -100.5 135.5t-42.5 153.5q0 69 82 69h630zM804 347h-619q18 -94 61 -157t109 -99q67 -37 138 -37q117 0 204.5 82.5t106.5 210.5z" />
    <glyph glyph-name="uni01DD" unicode="&#x4d9;" horiz-adv-x="990" vert-adv-y="2457" 
d="M809 425q-4 116 -45 189q-42 74 -119 119q-76 45 -161 45q-122 0 -211 -80q-18 -15 -72 -82q-11 -14 -29 -14q-16 0 -27 11t-11 27q0 21 37 67q55 69 139.5 108t178.5 39q197 0 313 -146q97 -120 97 -289q0 -188 -117 -317q-112 -124 -292 -124q-145 0 -250 89
q-58 50 -100.5 135.5t-42.5 153.5q0 69 82 69h630zM804 347h-619q18 -94 61 -157t109 -99q67 -37 138 -37q117 0 204.5 82.5t106.5 210.5z" />
    <glyph glyph-name="uni01DD" unicode="&#x259;" horiz-adv-x="990" vert-adv-y="2457" 
d="M809 425q-4 116 -45 189q-42 74 -119 119q-76 45 -161 45q-122 0 -211 -80q-18 -15 -72 -82q-11 -14 -29 -14q-16 0 -27 11t-11 27q0 21 37 67q55 69 139.5 108t178.5 39q197 0 313 -146q97 -120 97 -289q0 -188 -117 -317q-112 -124 -292 -124q-145 0 -250 89
q-58 50 -100.5 135.5t-42.5 153.5q0 69 82 69h630zM804 347h-619q18 -94 61 -157t109 -99q67 -37 138 -37q117 0 204.5 82.5t106.5 210.5z" />
    <glyph glyph-name="Gcaron" unicode="&#x1e6;" horiz-adv-x="1580" vert-adv-y="2457" 
d="M1376 573h-412q-38 0 -53 9t-15 32q0 24 14.5 32.5t53.5 8.5h438q39 0 53.5 -9t14.5 -32v-8q0 -241 -135 -399q-85 -99 -219 -162q-147 -68 -301 -68q-190 0 -359 100q-166 98 -258 261q-89 158 -89 339q0 194 103 364q99 163 265 255q160 88 343 88q278 0 484 -197
q91 -87 91 -121q0 -14 -14.5 -27.5t-30.5 -13.5q-13 0 -23 9.5t-57 65.5q-74 88 -201 144.5t-250 56.5q-153 0 -289 -74q-159 -87 -249 -247q-82 -145 -82 -305q0 -145 66 -274q81 -159 235 -252q148 -89 313 -89q203 0 376 129q97 73 138.5 157.5t48.5 226.5zM790 1577
l137 103q33 25 45 25q20 0 34 -14t14 -33t-37 -48l-146 -113q-4 -3 -14 -11q-18 -14 -33 -14q-14 0 -46 25l-146 112q-38 29 -38 49q0 19 14.5 33t34.5 14q13 0 46 -25z" />
    <glyph glyph-name="gcaron" unicode="&#x1e7;" horiz-adv-x="1067" vert-adv-y="2457" 
d="M839 143q-139 -164 -331 -164q-181 0 -302 141q-106 124 -106 297q0 189 125 316q119 121 296 121q99 0 171.5 -37.5t146.5 -126.5v78v18q0 50 41 50q23 0 32 -14.5t9 -53.5v-751q0 -126 -20 -202t-70 -141q-119 -152 -331 -152q-169 0 -283 96q-49 42 -83 104.5
t-34 111.5q0 20 12 33.5t30 13.5q28 0 39 -46q27 -109 106 -170q89 -67 215 -67q175 0 263 126q74 105 74 293v126zM509 777q-154 0 -253 -133q-71 -96 -71 -236q0 -142 83 -240q94 -113 241 -113q154 0 257 121q78 92 78 245q0 166 -102 260q-103 96 -233 96zM512 1058
l137 103q32 25 46 25q16 0 28 -12t12 -28q0 -20 -37 -49l-139 -108q-33 -25 -47 -25t-47 25l-139 107q-37 29 -37 49q0 17 12.5 29.5t29.5 12.5q13 0 46 -25z" />
    <glyph glyph-name="uni01F4" unicode="&#x1f4;" horiz-adv-x="1580" vert-adv-y="2457" 
d="M1376 573h-412q-38 0 -53 9t-15 32q0 24 14.5 32.5t53.5 8.5h438q39 0 53.5 -9t14.5 -32v-8q0 -241 -135 -399q-85 -99 -219 -162q-147 -68 -301 -68q-190 0 -359 100q-166 98 -258 261q-89 158 -89 339q0 194 103 364q99 163 265 255q160 88 343 88q278 0 484 -197
q91 -87 91 -121q0 -14 -14.5 -27.5t-30.5 -13.5q-13 0 -23 9.5t-57 65.5q-74 88 -201 144.5t-250 56.5q-153 0 -289 -74q-159 -87 -249 -247q-82 -145 -82 -305q0 -145 66 -274q81 -159 235 -252q148 -89 313 -89q203 0 376 129q97 73 138.5 157.5t48.5 226.5zM991 1619
l-164 -123q-10 -7 -15 -11q-18 -14 -31 -14q-20 0 -34 14t-14 32t34 48l148 132q31 28 54 28t41.5 -17t18.5 -38q0 -23 -38 -51z" />
    <glyph glyph-name="uni01F5" unicode="&#x1f5;" horiz-adv-x="1067" vert-adv-y="2457" 
d="M839 143q-139 -164 -331 -164q-181 0 -302 141q-106 124 -106 297q0 189 125 316q119 121 296 121q99 0 171.5 -37.5t146.5 -126.5v78v18q0 50 41 50q23 0 32 -14.5t9 -53.5v-751q0 -126 -20 -202t-70 -141q-119 -152 -331 -152q-169 0 -283 96q-49 42 -83 104.5
t-34 111.5q0 20 12 33.5t30 13.5q28 0 39 -46q27 -109 106 -170q89 -67 215 -67q175 0 263 126q74 105 74 293v126zM509 777q-154 0 -253 -133q-71 -96 -71 -236q0 -142 83 -240q94 -113 241 -113q154 0 257 121q78 92 78 245q0 166 -102 260q-103 96 -233 96zM686 1160
l-129 -157q-3 -4 -11 -14q-18 -22 -38 -22q-33 0 -33 37q0 12 23 45l110 166q19 28 27 34.5t23 6.5q20 0 37.5 -16t17.5 -34q0 -14 -27 -46z" />
    <glyph glyph-name="Aringacute" unicode="&#x1fa;" horiz-adv-x="1197" vert-adv-y="2457" 
d="M890 449h-582l-160 -398q-14 -34 -24.5 -43.5t-34.5 -9.5q-14 0 -27.5 12.5t-13.5 26.5q0 12 13 45l486 1205q20 50 29.5 64t24.5 14q16 0 26 -14t30 -64l480 -1205q13 -33 13 -45q0 -14 -13.5 -26.5t-27.5 -12.5q-24 0 -34.5 9.5t-24.5 43.5zM857 531l-256 673
l-260 -673h516zM599 1775q68 0 116 -48t48 -116t-48 -116t-116 -48t-116 48.5t-48 117.5q0 66 48.5 114t115.5 48zM599 1694q-36 0 -60.5 -24.5t-24.5 -60.5q0 -34 25 -58.5t60 -24.5t60 24.5t25 59.5t-25 59.5t-60 24.5zM656 1912l-164 -124q-33 -24 -46 -24
q-20 0 -34 13.5t-14 32.5q0 18 34 48l148 132q31 28 54 28q24 0 42 -17t18 -39t-38 -50z" />
    <glyph glyph-name="aringacute" unicode="&#x1fb;" horiz-adv-x="1054" vert-adv-y="2457" 
d="M826 150q-44 -66 -98 -103q-103 -69 -228 -69q-191 0 -311 145q-98 119 -98 297q0 222 142 341q112 93 265 93q203 0 328 -163v95q0 50 41 50t41 -50v-736q0 -50 -41 -50t-41 50v100zM501 778q-139 0 -238 -109q-87 -94 -87 -254q0 -158 99 -262q95 -99 231 -99
q155 0 251 125q75 96 75 247q0 173 -104 263q-101 89 -227 89zM527 1270q65 0 111 -45.5t46 -111.5q0 -65 -46 -111t-111 -46q-66 0 -111.5 46.5t-45.5 112.5q0 63 46.5 109t110.5 46zM527 1196q-36 0 -60.5 -24.5t-24.5 -60.5q0 -34 25 -58.5t60 -24.5t60 24.5t25 59.5
t-25 59.5t-60 24.5zM572 1439l-143 -157q-16 -18 -31 -18t-26 10.5t-11 24.5q0 12 12 29l126 171q21 29 44 29q20 0 34.5 -14.5t14.5 -33.5t-20 -41z" />
    <glyph glyph-name="AEacute" unicode="&#x1fc;" horiz-adv-x="1741" vert-adv-y="2457" 
d="M887 448h-585l-156 -397q-14 -34 -24.5 -43.5t-33.5 -9.5q-14 0 -27.5 12.5t-13.5 25.5q0 14 13 46l498 1232q15 38 24.5 44.5t50.5 6.5h484q41 0 51 -7q19 -14 19 -34q0 -26 -23 -36q-11 -5 -47 -5h-475l202 -495h494q40 0 50 -7q20 -14 20 -34q0 -25 -23 -36
q-11 -5 -47 -5h-460l253 -624h510q40 0 50 -7q20 -14 20 -34q0 -25 -24 -36q-10 -5 -46 -5h-518q-41 0 -50.5 6.5t-24.5 44.5zM853 530l-261 642l-255 -642h516zM1010 1619l-164 -123q-9 -7 -14 -11q-18 -14 -32 -14q-20 0 -34 14t-14 32t34 48l148 132q32 28 55 28
t41.5 -17t18.5 -38q0 -22 -39 -51z" />
    <glyph glyph-name="aeacute" unicode="&#x1fd;" horiz-adv-x="1624" vert-adv-y="2457" 
d="M813 406q5 -107 42 -180q41 -79 118 -126q73 -45 160 -45q119 0 214 80q22 18 64 76q13 17 34 17q17 0 30 -13t13 -31q0 -26 -56 -81q-129 -125 -299 -125q-114 0 -205 55t-139 153q-23 -71 -73 -116q-104 -92 -274 -92q-172 0 -270 88q-81 73 -81 172q0 126 119 205
q90 60 249 60q85 0 145 -19.5t118 -67.5q-1 141 -51 232q-33 61 -95 95t-140 34q-114 0 -211 -44q-25 -11 -38 -11q-16 0 -27.5 10.5t-11.5 24.5q0 23 26 38q41 24 120.5 41.5t147.5 17.5q239 0 330 -232q41 79 84 122q52 51 126 80.5t149 29.5q139 0 249 -89
q97 -80 132 -214q15 -60 15 -102q0 -25 -14 -34t-54 -9h-646zM1439 484q-15 88 -49 144q-41 67 -112 108q-72 42 -150 42q-119 0 -203 -80.5t-104 -213.5h618zM452 426q-129 0 -202.5 -51t-73.5 -141q0 -87 79 -134q74 -45 189 -45q138 0 210 62q64 55 64 129q0 84 -78 136
q-67 44 -188 44zM914 1160l-129 -157q-20 -24 -28 -30t-21 -6q-33 0 -33 37q0 12 23 45l110 166q19 28 27 34.5t23 6.5q20 0 37.5 -16t17.5 -34q0 -14 -27 -46z" />
    <glyph glyph-name="Oslashacute" unicode="&#x1fe;" horiz-adv-x="1634" vert-adv-y="2457" 
d="M286 217q-177 204 -177 466q0 188 98 352q92 154 248 247q170 102 360 102q253 0 462 -172l117 117q31 32 49 32q16 0 26.5 -10.5t10.5 -26.5q0 -18 -31 -49l-116 -117q192 -208 192 -479q0 -188 -98 -353q-92 -153 -248 -247q-170 -102 -361 -102q-259 0 -478 186
l-116 -117q-31 -32 -49 -32q-37 0 -37 37q0 18 31 49zM350 276l864 877q-179 148 -399 148q-165 0 -314 -90q-141 -85 -220 -225q-81 -141 -81 -303q0 -231 150 -407zM1269 1101l-865 -879q185 -162 415 -162q165 0 314 90q141 86 221 225q80 141 80 304q0 243 -165 422z
M1018 1619l-164 -123q-9 -7 -14 -11q-18 -14 -32 -14q-20 0 -34 14t-14 32t35 48l147 132q32 28 55 28t41.5 -17t18.5 -38q0 -22 -39 -51z" />
    <glyph glyph-name="oslashacute" unicode="&#x1ff;" horiz-adv-x="1073" vert-adv-y="2457" 
d="M203 138q-98 120 -98 280q0 188 134 314q129 122 303 122q153 0 279 -98l61 62q31 32 48 32q34 0 34 -34q0 -18 -32 -49l-60 -59q108 -125 108 -293q0 -206 -153 -333q-124 -104 -282 -104q-160 0 -293 110l-63 -62q-31 -31 -49 -31q-31 0 -31 32q0 17 32 49zM262 193
l498 509q-103 76 -221 76q-164 0 -267 -127q-82 -101 -82 -233q0 -128 72 -225zM811 653l-501 -512q102 -87 230 -87q97 0 183 51q172 103 172 310q0 135 -84 238zM689 1160l-129 -157q-6 -8 -11 -14q-18 -22 -38 -22q-32 0 -32 37q0 12 22 45l111 166q18 28 26 34.5t23 6.5
q20 0 37.5 -16t17.5 -34q0 -14 -27 -46z" />
    <glyph glyph-name="uni0200" unicode="&#x200;" horiz-adv-x="918" vert-adv-y="2457" 
d="M419 1120l-157 -96q-20 -12 -35 -12t-27.5 13.5t-12.5 30.5q0 25 31 42l156 86l-157 91q-30 18 -30 43q0 17 12.5 30.5t28.5 13.5q15 0 34 -12l158 -95l-5 184q-1 54 43 54q19 0 32 -14t12 -33v-7l-4 -185l157 96q19 12 34 12q16 0 28.5 -13.5t12.5 -30.5q0 -25 -31 -42
l-163 -90l162 -87q31 -17 31 -44q0 -17 -12.5 -30.5t-28.5 -13.5q-14 0 -33 11l-158 92l4 -179q2 -54 -43 -54q-44 0 -43 54z" />
    <glyph glyph-name="uni0201" unicode="&#x201;" horiz-adv-x="492" vert-adv-y="2457" 
d="M191 683q51 -39 71 -85t20 -123v-362q0 -93 23 -132.5t79 -41.5q49 -2 49 -38q0 -38 -42 -38q-124 0 -170 91q-28 54 -28 164v354q0 75 -18.5 107.5t-82.5 71.5q-18 11 -18 32q0 15 7 22t43 29q27 16 44 41q25 35 25 118v355q0 109 28 163q46 91 170 91q42 0 42 -38
q0 -36 -49 -38q-56 -2 -79 -41.5t-23 -132.5v-362q0 -77 -20 -122.5t-71 -84.5z" />
    <glyph glyph-name="Scommaaccent" unicode="&#x218;" horiz-adv-x="1049" vert-adv-y="2457" 
d="M539 1384q82 0 157 -33.5t130 -94.5q33 -37 33 -57q0 -18 -14 -31.5t-32 -13.5t-35 20q-35 43 -49 56q-77 71 -193 71q-123 0 -194 -87q-63 -77 -63 -172q0 -82 51 -136.5t192 -122.5q203 -97 272 -142q145 -95 145 -262q0 -183 -147 -303q-121 -99 -281 -99
q-188 0 -317 145q-29 32 -51 71t-22 58q0 17 14 30t32 13t26 -9t36 -61q37 -68 99 -108q84 -56 185 -56q137 0 236 94t99 224q0 133 -134 211q-47 27 -255 129q-159 78 -211 144q-60 74 -60 188q0 154 113 250q97 84 238 84zM559 -191l-103 -279q-12 -32 -21 -42.5
t-25 -10.5q-8 0 -15.5 10t-7.5 22q0 9 10 40l84 286q11 34 19.5 44.5t28.5 10.5q16 0 29 -11.5t13 -27.5q0 -10 -12 -42z" />
    <glyph glyph-name="scommaaccent" unicode="&#x219;" horiz-adv-x="700" vert-adv-y="2457" 
d="M138 215q16 0 23.5 -7.5t22.5 -37.5q58 -116 180 -116q90 0 144 66q43 53 43 119q0 64 -34.5 100.5t-125.5 69.5q-137 50 -191 101t-54 130q0 100 77 162q66 52 148 52q66 0 133 -41t67 -82q0 -15 -9.5 -26t-21.5 -11t-28 16q-65 68 -135 68q-61 0 -103.5 -39.5
t-42.5 -97.5q0 -47 36 -79t127 -67q118 -44 160 -75q82 -62 82 -177q0 -130 -91 -204q-76 -61 -180 -61q-142 0 -224 105q-45 58 -45 97q0 14 12.5 24.5t29.5 10.5zM428 -191l-103 -279q-12 -33 -20.5 -43t-24.5 -10q-9 0 -16 10t-7 22q0 10 9 40l85 286q10 34 19 44.5
t28 10.5q16 0 29 -11.5t13 -27.5q0 -10 -12 -42z" />
    <glyph glyph-name="uni0226" unicode="&#x226;" horiz-adv-x="1197" vert-adv-y="2457" 
d="M890 449h-582l-160 -398q-14 -34 -24.5 -43.5t-34.5 -9.5q-14 0 -27.5 12.5t-13.5 26.5q0 12 13 45l486 1205q20 50 29.5 64t24.5 14q16 0 26 -14t30 -64l480 -1205q13 -33 13 -45q0 -14 -13.5 -26.5t-27.5 -12.5q-24 0 -34.5 9.5t-24.5 43.5zM857 531l-256 673
l-260 -673h516zM599 1683q35 0 59 -24t24 -58q0 -35 -24 -59t-59 -24t-59 24t-24 60q0 33 24.5 57t58.5 24z" />
    <glyph glyph-name="uni0227" unicode="&#x227;" horiz-adv-x="1054" vert-adv-y="2457" 
d="M826 150q-44 -66 -98 -103q-103 -69 -228 -69q-191 0 -311 145q-98 119 -98 299q0 220 142 339q112 93 265 93q203 0 328 -163v77q0 39 9 53.5t32 14.5t32 -14.5t9 -53.5v-700q0 -39 -9 -53.5t-32 -14.5q-24 0 -32.5 14.5t-8.5 53.5v82zM500 778q-138 0 -238 -109
q-87 -95 -87 -253q0 -159 100 -263q94 -99 230 -99q156 0 252 125q74 96 74 247q0 173 -104 263q-101 89 -227 89zM528 1158q33 0 56 -22.5t23 -55.5q0 -32 -23 -55t-56 -23t-56 23t-23 56q0 32 23.5 54.5t55.5 22.5z" />
    <glyph glyph-name="dotlessj" unicode="&#x237;" horiz-adv-x="374" vert-adv-y="2457" 
d="M228 768v-1189q0 -39 -9 -53.5t-32 -14.5t-32 14.5t-9 53.5v1189q0 39 9 53.5t32 14.5t32 -14.5t9 -53.5z" />
    <glyph glyph-name="uni1E1E" unicode="&#x1e1e;" horiz-adv-x="831" vert-adv-y="2457" 
d="M273 1283v-494h381q39 0 53.5 -8.5t14.5 -32.5t-14.5 -32.5t-53.5 -8.5h-381v-639q0 -41 -8 -51q-13 -17 -36 -17q-27 0 -36 14t-9 54v1229q0 45 11.5 56.5t56.5 11.5h416q39 0 53.5 -9t14.5 -32t-14.5 -32t-53.5 -9h-395zM473 1683q35 0 59 -24t24 -58q0 -35 -24 -59
t-59 -24t-59 24t-24 60q0 33 24.5 57t58.5 24z" />
    <glyph glyph-name="Wgrave" unicode="&#x1e80;" horiz-adv-x="2011" vert-adv-y="2457" 
d="M499 186l445 1128q20 51 48 51q29 0 48 -52l416 -1128l407 1125q13 35 23 45t34 10q17 0 31 -12t14 -28q0 -12 -12 -43l-450 -1230q-11 -32 -20.5 -42t-26.5 -10q-18 0 -27 10t-21 42l-414 1133l-455 -1133q-21 -50 -49 -50q-18 0 -27 10.5t-20 43.5l-390 1227
q-10 31 -10 41q0 17 13.5 28.5t33.5 11.5q24 0 33.5 -10t21.5 -46zM880 1697l148 -131q34 -31 34 -49t-14.5 -32t-33.5 -14q-13 0 -46 25l-164 123q-38 29 -38 51t19 39t43 17q20 0 52 -29z" />
    <glyph glyph-name="wgrave" unicode="&#x1e81;" horiz-adv-x="1376" vert-adv-y="2457" 
d="M395 150l241 632q20 51 48 51q29 0 48 -51l241 -632l270 636q15 33 24.5 42t29.5 9q16 0 29 -11.5t13 -26.5q0 -13 -15 -45l-301 -704q-21 -50 -48 -50q-29 0 -48 51l-243 639l-242 -638q-20 -51 -48 -51t-49 50l-293 703q-14 33 -14 45q0 14 13 26t29 12q20 0 29.5 -9
t23.5 -42zM595 1215l110 -166q23 -33 23 -45q0 -15 -10.5 -25.5t-25.5 -10.5q-17 0 -46 35l-129 157q-27 32 -27 46q0 18 17.5 34t37.5 16q15 0 23 -7t27 -34z" />
    <glyph glyph-name="Wacute" unicode="&#x1e82;" horiz-adv-x="2011" vert-adv-y="2457" 
d="M499 186l445 1128q20 51 48 51q29 0 48 -52l416 -1128l407 1125q13 35 23 45t34 10q17 0 31 -12t14 -28q0 -12 -12 -43l-450 -1230q-11 -32 -20.5 -42t-26.5 -10q-18 0 -27 10t-21 42l-414 1133l-455 -1133q-21 -50 -49 -50q-18 0 -27 10.5t-20 43.5l-390 1227
q-10 31 -10 41q0 17 13.5 28.5t33.5 11.5q24 0 33.5 -10t21.5 -46zM1207 1619l-165 -123q-10 -8 -14 -11q-18 -14 -31 -14q-20 0 -34 14t-14 32t34 48l147 132q32 28 55 28t41.5 -17t18.5 -38q0 -22 -38 -51z" />
    <glyph glyph-name="wacute" unicode="&#x1e83;" horiz-adv-x="1376" vert-adv-y="2457" 
d="M395 150l241 632q20 51 48 51q29 0 48 -51l241 -632l270 636q15 33 24.5 42t29.5 9q16 0 29 -11.5t13 -26.5q0 -13 -15 -45l-301 -704q-21 -50 -48 -50q-29 0 -48 51l-243 639l-242 -638q-20 -51 -48 -51t-49 50l-293 703q-14 33 -14 45q0 14 13 26t29 12q20 0 29.5 -9
t23.5 -42zM842 1160l-129 -157l-12 -14q-18 -22 -37 -22q-33 0 -33 37q0 12 22 45l111 166q18 28 26 34.5t24 6.5q20 0 37 -16t17 -34q0 -14 -26 -46z" />
    <glyph glyph-name="Wdieresis" unicode="&#x1e84;" horiz-adv-x="2011" vert-adv-y="2457" 
d="M499 186l445 1128q20 51 48 51q29 0 48 -52l416 -1128l407 1125q13 35 23 45t34 10q17 0 31 -12t14 -28q0 -12 -12 -43l-450 -1230q-11 -32 -20.5 -42t-26.5 -10q-18 0 -27 10t-21 42l-414 1133l-455 -1133q-21 -50 -49 -50q-18 0 -27 10.5t-20 43.5l-390 1227
q-10 31 -10 41q0 17 13.5 28.5t33.5 11.5q24 0 33.5 -10t21.5 -46zM815 1675q32 0 55 -23t23 -55q0 -33 -23 -56t-55 -23q-33 0 -56 23t-23 57q0 31 23 54t56 23zM1196 1675q32 0 55 -23t23 -55q0 -33 -23 -56t-55 -23q-33 0 -56 23t-23 57q0 31 23 54t56 23z" />
    <glyph glyph-name="wdieresis" unicode="&#x1e85;" horiz-adv-x="1376" vert-adv-y="2457" 
d="M395 150l241 632q20 51 48 51q29 0 48 -51l241 -632l270 636q15 33 24.5 42t29.5 9q16 0 29 -11.5t13 -26.5q0 -13 -15 -45l-301 -704q-21 -50 -48 -50q-29 0 -48 51l-243 639l-242 -638q-20 -51 -48 -51t-49 50l-293 703q-14 33 -14 45q0 14 13 26t29 12q20 0 29.5 -9
t23.5 -42zM518 1151q32 0 53.5 -21.5t21.5 -52.5t-22 -53t-52 -22q-31 0 -53 22t-22 54q0 30 22 51.5t52 21.5zM859 1151q30 0 52 -21.5t22 -52.5t-22 -53t-52 -22q-32 0 -53.5 22t-21.5 54q0 30 22 51.5t53 21.5z" />
    <glyph glyph-name="Ygrave" unicode="&#x1ef2;" horiz-adv-x="1052" vert-adv-y="2457" 
d="M474 583l-398 697q-19 32 -19 46q0 16 13 28t30 12q20 0 29 -7.5t27 -37.5l364 -641l374 641q18 30 26 37t25 7q19 0 34 -11.5t15 -26.5q0 -14 -20 -47l-411 -697v-515q0 -41 -8 -51q-13 -17 -37 -17q-26 0 -35 14t-9 54v515zM401 1697l148 -131q34 -31 34 -49t-14.5 -32
t-33.5 -14q-13 0 -46 25l-164 123q-38 28 -38 51q0 22 19 39t43 17q20 0 52 -29z" />
    <glyph glyph-name="ygrave" unicode="&#x1ef3;" horiz-adv-x="877" vert-adv-y="2457" 
d="M412 -14l-357 767q-15 32 -15 45q0 16 13 27.5t29 11.5q20 0 28.5 -8.5t24.5 -41.5l320 -693l290 692q14 33 23 42t28 9q17 0 30 -12t13 -27q0 -13 -13 -44l-505 -1193q-5 -13 -7 -17q-14 -34 -43 -34q-16 0 -29 11.5t-13 26.5q0 12 14 45zM344 1215l111 -166
q23 -33 23 -45q0 -15 -10.5 -25.5t-25.5 -10.5q-17 0 -46 35l-129 157q-27 32 -27 46q0 18 17.5 34t37.5 16q15 0 23 -7t26 -34z" />
    <glyph glyph-name="underscoredbl" unicode="&#x2017;" horiz-adv-x="1024" vert-adv-y="2457" 
d="M38 -128h948q38 0 38 -31t-38 -31h-948q-38 0 -38 31t38 31zM39 -366h946q39 0 39 -31q0 -32 -39 -32h-946q-39 0 -39 32q0 31 39 31z" />
    <glyph glyph-name="quotereversed" unicode="&#x201b;" horiz-adv-x="1024" vert-adv-y="2457" 
d="M511 1008l-61 191q-4 12 -4 22q0 12 10.5 22t24.5 10q24 0 37 -29l79 -184q7 -17 7 -31q0 -17 -14 -30t-32 -13q-33 0 -47 42z" />
    <glyph glyph-name="uni203E" unicode="&#x203e;" horiz-adv-x="1024" vert-adv-y="2457" 
d="M49 1735h926q49 0 49 -40q0 -41 -49 -41h-926q-49 0 -49 41q0 40 49 40z" />
    <glyph glyph-name="franc" unicode="&#x20a3;" vert-adv-y="2457" 
d="M361 1283v-494h399q50 0 50 -41t-50 -41h-399v-653q0 -54 -44 -54q-45 0 -45 54v1228q0 83 84 83h418q50 0 50 -41t-50 -41h-413zM751 523q45 83 133 83q50 0 50 -33q0 -8 -3 -14l-2 -3q-10 -21 -32 -21h-3q-14 1 -23 1q-53 0 -89 -46q-19 -24 -25 -58.5t-6 -117.5v-268
q0 -46 -37 -46q-38 0 -38 46v493q0 46 37 46q38 0 38 -46v-16z" />
    <glyph glyph-name="lira" unicode="&#x20a4;" vert-adv-y="2457" 
d="M494 351h-176q-50 0 -50 41t50 41h175q-10 60 -62 157h-113q-50 0 -50 41t50 41h65l-41 65q-72 111 -94.5 168t-22.5 128q0 162 127 266q100 81 236 81q205 0 306 -180q40 -71 40 -137q0 -44 -40 -44q-21 0 -28.5 12t-28.5 84q-21 68 -73 115q-76 67 -184 67
q-121 0 -195 -88q-70 -83 -70 -181q0 -57 20 -101.5t116 -201.5q12 -19 32 -53h277q50 0 50 -41t-50 -41h-230q42 -82 52 -157h178q50 0 50 -41t-50 -41h-176q-16 -118 -103 -208q63 -20 132 -44q105 -36 148 -36q91 0 155 84q23 29 31 35.5t23 6.5q17 0 29.5 -12.5
t12.5 -29.5q0 -16 -23 -47q-96 -126 -215 -126q-68 0 -226 56q-121 44 -168 44q-76 0 -144 -54q-30 -24 -43 -24q-20 0 -30 15l-1 2q-9 13 -9 27q0 39 77 80.5t152 41.5q97 92 112 189z" />
    <glyph glyph-name="peseta" unicode="&#x20a7;" horiz-adv-x="1512" vert-adv-y="2457" 
d="M273 648v-594q0 -54 -44 -54q-45 0 -45 54v1228q0 83 84 83h179q104 0 175 -25t124 -80q98 -102 98 -253q0 -166 -105 -264q-101 -95 -290 -95h-176zM273 730h179q141 0 224 81q77 75 77 195q0 127 -74 201q-77 76 -241 76h-165v-553zM940 517v-471q0 -46 -37 -46
q-38 0 -38 46v471h-30q-42 0 -42 34t42 34h30v163q0 46 37 46q38 0 38 -46v-163h67q42 0 42 -34t-42 -34h-67zM1412 489l-2 -1q-9 -3 -14 -3q-13 0 -45 26q-30 24 -66 24q-38 0 -65 -25t-27 -60q0 -33 23.5 -52.5t91.5 -44.5q80 -30 111 -55q58 -45 58 -127q0 -94 -67 -146
q-56 -44 -132 -44q-59 0 -111.5 29t-76.5 75q-11 22 -11 34q0 32 34 32q20 0 38 -30q43 -74 127 -74q53 0 87.5 34.5t34.5 86.5q0 43 -24.5 68t-88.5 48q-95 32 -134 69t-39 93q0 75 59 120q50 38 109 38q49 0 98.5 -29.5t49.5 -58.5q0 -20 -18 -27z" />
    <glyph glyph-name="uni2101" unicode="&#x2101;" horiz-adv-x="1864" vert-adv-y="2457" 
d="M1546 830q129 0 212 -79q27 -26 27 -42q0 -15 -14 -26.5t-32 -11.5q-14 0 -21 4.5t-31 28.5q-53 53 -142 53q-79 0 -125 -47q-41 -42 -41 -95q0 -44 34 -74t128 -68q143 -57 193 -85q107 -59 107 -162q0 -116 -109 -191q-87 -60 -204 -60q-136 0 -232 89q-54 51 -54 84
q0 15 14 26t32 11t26 -7t30 -41q57 -90 186 -90q89 0 154 52q66 52 66 126q0 48 -36.5 79.5t-146.5 75.5q-129 53 -180 81q-99 55 -99 160q0 96 85 157q71 52 173 52zM616 788h-389l-109 -250q-11 -26 -21.5 -34.5t-31.5 -8.5q-16 0 -29.5 12t-13.5 27q0 10 10 33l340 782
q16 37 25.5 48t25.5 11t26 -11t25 -48l337 -782q10 -24 10 -33q0 -14 -13.5 -26.5t-29.5 -12.5q-21 0 -31.5 8.5t-21.5 34.5zM602 854l-180 437l-181 -437h361zM1497 1303l-742 -1275q-16 -28 -25 -36t-24 -8q-27 0 -27 34q0 9 20 43l740 1277q16 28 25 36t24 8q28 0 28 -35
q0 -11 -19 -44z" />
    <glyph glyph-name="afii61248" unicode="&#x2105;" horiz-adv-x="259" vert-adv-y="2457" 
d="M130 760q31 0 53 -21.5t22 -52.5t-22 -53t-53 -22t-53 22t-22 53q0 30 22 52t53 22z" />
    <glyph glyph-name="afii61289" unicode="&#x2113;" horiz-adv-x="1024" vert-adv-y="2457" 
d="M496 553q-71 -352 -71 -451q0 -51 42 -51q58 0 113 121q16 33 35 33q21 0 21 -21q0 -33 -38 -95q-73 -117 -162 -117q-57 0 -91 42t-34 111q0 75 33 312q-101 -93 -120 -93q-8 0 -15 7t-7 15q0 13 48 54q49 42 108 106q74 379 167 625q92 240 221 240q50 0 80 -41
t30 -108q0 -173 -116 -380q-75 -133 -244 -309zM515 654q89 99 136.5 169t85.5 157q61 141 61 260q0 42 -15 68t-40 26q-26 0 -51.5 -26.5t-42.5 -70.5q-62 -165 -134 -583z" />
    <glyph glyph-name="uni2117" unicode="&#x2117;" horiz-adv-x="273" vert-adv-y="2457" 
d="M175 1010v-416q0 -48 -39 -48t-39 48v416q0 48 39 48t39 -48zM136 1263q25 0 42.5 -16.5t17.5 -40.5t-17.5 -40.5t-41.5 -16.5q-25 0 -42.5 16.5t-17.5 41.5q0 23 17.5 39.5t41.5 16.5z" />
    <glyph glyph-name="estimated" unicode="&#x212e;" horiz-adv-x="1223" vert-adv-y="2457" 
d="M322 513l-1 -216q32 -104 81 -148q80 -72 220 -72q111 0 197.5 48t130.5 134q16 32 53 32h7q12 0 21.5 -9t9.5 -21q0 -17 -20 -54q-121 -220 -402 -220q-225 0 -351 146q-123 143 -123 388q0 262 136 408q131 141 341 141q173 0 296 -96q164 -127 164 -384q0 -77 -82 -77
h-678zM937 584v190q-18 50 -47 85q-54 64 -117.5 92.5t-150.5 28.5q-140 0 -220 -85q-37 -39 -75 -121l-1 -190h611z" />
    <glyph glyph-name="emptyset" unicode="&#x2205;" horiz-adv-x="1266" vert-adv-y="2457" 
d="M899 1133q231 -161 231 -416q0 -141 -75 -262q-65 -105 -170 -167q-119 -69 -264 -69q-93 0 -161 33l-97 -190q-21 -42 -55 -42q-22 0 -39.5 16t-17.5 36q0 17 12 41l95 188q-221 162 -221 414q0 228 171 376q140 121 328 121q82 0 166 -29l66 123q21 40 54 40
q21 0 38 -15.5t17 -35.5q0 -18 -12 -41zM514 353q66 -18 119 -18q168 0 282 123q101 108 101 257q0 97 -44.5 181t-119.5 131zM749 1079q-57 17 -110 17q-184 0 -299 -138q-89 -107 -89 -242q0 -183 159 -310z" />
    <glyph glyph-name="minus" unicode="&#x2212;" vert-adv-y="2457" 
d="M132 737h855q39 0 53.5 -8.5t14.5 -32.5t-14.5 -32.5t-53.5 -8.5h-855q-39 0 -53.5 9t-14.5 32t14.5 32t53.5 9z" />
    <glyph glyph-name="uni2218" unicode="&#x2218;" horiz-adv-x="1024" vert-adv-y="2457" 
d="M517 983q112 0 194 -83q83 -84 83 -203t-82 -203q-83 -84 -199 -84q-115 0 -198 83q-84 85 -84 203q0 122 84 204q84 83 202 83zM511 887q-74 0 -129 -55q-55 -56 -55 -135t55 -136q55 -55 131 -55t130.5 55.5t54.5 134.5q0 80 -54 135.5t-133 55.5z" />
    <glyph glyph-name="similar" unicode="&#x223c;" horiz-adv-x="1024" vert-adv-y="2457" 
d="M291 809q78 0 236 -81q88 -45 129 -59.5t80 -14.5q94 0 161 89q30 41 38 48.5t20 7.5q14 0 24 -10t10 -24q0 -18 -35 -67q-92 -129 -226 -129q-46 0 -96.5 18.5t-186.5 86.5q-101 51 -161 51q-89 0 -158 -94q-31 -42 -38.5 -49t-18.5 -7q-14 0 -24 10.5t-10 24.5t25 52
q52 78 106 112.5t125 34.5z" />
    <glyph glyph-name="uni2243" unicode="&#x2243;" horiz-adv-x="1024" vert-adv-y="2457" 
d="M291 960q78 0 236 -81q89 -45 129.5 -59.5t79.5 -14.5q93 0 161 90q32 42 39.5 49t19.5 7q13 0 23 -10.5t10 -23.5q0 -18 -35 -67q-92 -130 -226 -130q-46 0 -96.5 18.5t-186.5 86.5q-101 51 -161 51q-90 0 -158 -93q-30 -41 -38 -48.5t-20 -7.5q-13 0 -23 10.5t-10 25.5
q0 13 25 50q52 79 106 113t125 34zM958 546h-891q-50 0 -50 41t50 41h891q50 0 50 -41t-50 -41z" />
    <glyph glyph-name="ff" unicode="&#xfb00;" horiz-adv-x="898" vert-adv-y="2457" 
d="M229 761v-693q0 -39 -9 -53.5t-32 -14.5t-32 14.5t-9 53.5v693h-25q-38 0 -52.5 8t-14.5 29q0 22 14.5 30t52.5 8h25v397q0 138 42 197q61 87 178 87q73 0 73 -46q0 -13 -13.5 -24t-30.5 -11q-66 0 -91 -10t-46 -46q-30 -52 -30 -164v-380h142q38 0 52.5 -8t14.5 -30
q0 -21 -14.5 -29t-52.5 -8h-142zM691 761v-693q0 -39 -9 -53.5t-32 -14.5t-32 14.5t-9 53.5v693h-25q-38 0 -52.5 8t-14.5 29q0 22 14.5 30t52.5 8h25v397q0 138 42 197q61 87 178 87q73 0 73 -46q0 -14 -13.5 -24.5t-30.5 -10.5q-66 0 -91 -10t-46 -46q-30 -51 -30 -164
v-380h142q38 0 52.5 -8t14.5 -30q0 -21 -14.5 -29t-52.5 -8h-142z" />
    <glyph glyph-name="ffi" unicode="&#xfb03;" horiz-adv-x="1062" vert-adv-y="2457" 
d="M229 761v-693q0 -39 -9 -53.5t-32 -14.5t-32 14.5t-9 53.5v693h-25q-38 0 -52.5 8t-14.5 29q0 22 14.5 30t52.5 8h25v397q0 138 42 197q61 87 178 87q73 0 73 -46q0 -13 -13.5 -24t-30.5 -11q-66 0 -91 -10t-46 -46q-30 -52 -30 -164v-380h142q38 0 52.5 -8t14.5 -30
q0 -21 -14.5 -29t-52.5 -8h-142zM651 761v-693q0 -39 -9 -53.5t-32 -14.5t-32 14.5t-9 53.5v693h-25q-38 0 -52.5 8t-14.5 29q0 22 14.5 30t52.5 8h25v397q0 138 42 197q61 87 178 87q73 0 73 -46q0 -14 -13.5 -24.5t-30.5 -10.5q-66 0 -91 -10t-46 -46q-30 -51 -30 -164
v-380h142q38 0 52.5 -8t14.5 -30q0 -21 -14.5 -29t-52.5 -8h-142zM989 768v-700q0 -39 -8.5 -53.5t-32.5 -14.5q-23 0 -32 14.5t-9 53.5v700q0 39 9 53.5t32 14.5q24 0 32.5 -14.5t8.5 -53.5zM947 1189q31 0 52.5 -21.5t21.5 -53.5q0 -31 -21.5 -53t-51.5 -22
q-31 0 -52.5 22t-21.5 54q0 31 21.5 52.5t51.5 21.5z" />
    <glyph glyph-name="ffl" unicode="&#xfb04;" horiz-adv-x="1058" vert-adv-y="2457" 
d="M229 761v-693q0 -39 -9 -53.5t-32 -14.5t-32 14.5t-9 53.5v693h-25q-38 0 -52.5 8t-14.5 29q0 22 14.5 30t52.5 8h25v397q0 138 42 197q61 87 178 87q73 0 73 -46q0 -13 -13.5 -24t-30.5 -11q-66 0 -91 -10t-46 -46q-30 -52 -30 -164v-380h142q38 0 52.5 -8t14.5 -30
q0 -21 -14.5 -29t-52.5 -8h-142zM662 761v-693q0 -39 -8.5 -53.5t-32.5 -14.5q-23 0 -32 14.5t-9 53.5v693h-25q-38 0 -52.5 8t-14.5 29q0 22 14.5 30t52.5 8h25v397q0 138 42 197q61 87 178 87q73 0 73 -46q0 -13 -13.5 -24t-30.5 -11q-66 0 -91 -10t-46 -46
q-30 -51 -30 -164v-380h142q38 0 52.5 -8t14.5 -30q0 -21 -14.5 -29t-52.5 -8h-142zM1018 1425v-1357q0 -39 -9 -53.5t-32 -14.5t-32 14.5t-9 53.5v1357q0 40 9 54.5t32 14.5t32 -14.5t9 -54.5z" />
    </font>
</defs>
</svg>
