<?xml version="1.0" standalone="no"?>
<!DOCTYPE svg PUBLIC "-//W3C//DTD SVG 1.1//EN" "http://www.w3.org/Graphics/SVG/1.1/DTD/svg11.dtd" >
<svg xmlns="http://www.w3.org/2000/svg">
<metadata>
Created by FontForge 20120702 at Thu Sep 05 10:06:54 2013

(URW)++,Copyright 2013 by (URW)++ Design &#38; Development
</metadata>
<defs>
<font id="FuturaRoundBold" horiz-adv-x="1024" vert-adv-y="2048" >
  <font-face 
    font-family="Futura Round"
    font-weight="700"
    font-stretch="normal"
    units-per-em="2048"
    panose-1="0 0 0 0 0 0 0 0 0 0"
    ascent="1584"
    descent="-464"
    x-height="928"
    cap-height="1365"
    bbox="-291 -560 2643 2260"
    underline-thickness="226"
    underline-position="-99"
    unicode-range="U+0020-FB04"
  />
<missing-glyph horiz-adv-x="512" vert-adv-y="2457" 
d="M51 0v1365h410v-1365h-410zM410 51v1263h-308v-1263h308z" />
    <glyph glyph-name=".notdef" horiz-adv-x="512" vert-adv-y="2457" 
d="M51 0v1365h410v-1365h-410zM410 51v1263h-308v-1263h308z" />
    <glyph glyph-name="glyph1" horiz-adv-x="0" vert-adv-y="0" 
 />
    <glyph glyph-name="glyph2" horiz-adv-x="512" vert-adv-y="2457" 
 />
    <glyph glyph-name="space" unicode=" " horiz-adv-x="512" vert-adv-y="2457" 
 />
    <glyph glyph-name="space" unicode="&#xa0;" horiz-adv-x="512" vert-adv-y="2457" 
 />
    <glyph glyph-name="exclam" unicode="!" horiz-adv-x="696" vert-adv-y="2457" 
d="M348 387q88 0 150 -62t62 -150t-62 -151q-62 -62 -149 -62q-89 0 -150 62q-62 63 -62 153q0 86 62.5 148t148.5 62zM178 532v765q0 45 11.5 56.5t56.5 11.5h205q45 0 56.5 -11.5t11.5 -56.5v-765q0 -45 -11.5 -56.5t-56.5 -11.5h-205q-45 0 -56.5 11.5t-11.5 56.5z" />
    <glyph glyph-name="quotedbl" unicode="&#x22;" horiz-adv-x="840" vert-adv-y="2457" 
d="M261 816h-63q-44 0 -55.5 10.5t-15.5 54.5l-36 412q-2 19 -2 30q0 25 13.5 33.5t53.5 8.5h147q41 0 54.5 -8.5t13.5 -34.5q0 -9 -2 -29l-37 -412q-4 -44 -15 -54.5t-56 -10.5zM643 816h-64q-44 0 -55.5 10.5t-15.5 54.5l-36 412q-2 22 -2 29q0 26 13.5 34.5t54.5 8.5h147
q41 0 54.5 -8.5t13.5 -34.5q0 -7 -2 -29l-38 -412q-4 -44 -15 -54.5t-55 -10.5z" />
    <glyph glyph-name="numbersign" unicode="#" horiz-adv-x="1229" vert-adv-y="2457" 
d="M932 374l-42 -311q-6 -44 -16.5 -53.5t-54.5 -9.5h-133q-39 0 -53 8.5t-14 31.5q0 10 3 33l40 301h-176l-41 -311q-6 -44 -17 -53.5t-55 -9.5h-129q-39 0 -53 8.5t-14 31.5q0 13 3 33l40 301h-120q-45 0 -56.5 11.5t-11.5 56.5v100q0 45 11.5 56.5t56.5 11.5h149l23 174
h-118q-45 0 -56.5 11.5t-11.5 56.5v99q0 45 11.5 56.5t56.5 11.5h147l38 284q6 43 17 52.5t54 9.5h130q39 0 53 -8.5t14 -31.5q0 -12 -3 -33l-36 -273h176l37 284q6 43 17 52.5t55 9.5h132q39 0 53.5 -8.5t14.5 -31.5q0 -7 -4 -33l-36 -273h116q46 0 57.5 -11.5t11.5 -56.5
v-99q0 -44 -12 -56t-57 -12h-145l-23 -174h120q45 0 56.5 -11.5t11.5 -56.5v-100q0 -45 -11.5 -56.5t-56.5 -11.5h-149zM714 784h-176l-22 -174h176z" />
    <glyph glyph-name="dollar" unicode="$" horiz-adv-x="1229" vert-adv-y="2457" 
d="M731 1362q85 -8 165 -31t126 -51q25 -15 25 -38q0 -11 -17 -43l-71 -139q-15 -30 -24 -38.5t-25 -8.5q-9 0 -117 55q-31 16 -97 16q-65 0 -110 -30t-45 -74q0 -40 39 -72q29 -24 53 -34.5t141 -49.5q156 -53 242 -133q96 -89 96 -251q0 -170 -96 -283q-79 -95 -285 -154
v-159q0 -45 -11.5 -56.5t-56.5 -11.5h-32q-45 0 -56.5 11.5t-11.5 56.5v148q-124 6 -249 53q-187 72 -187 123q0 10 18 43l82 153q16 28 25 36.5t25 8.5q9 0 21.5 -8t79.5 -55q40 -28 102.5 -47t115.5 -19q69 0 117.5 38t48.5 93q0 44 -38 75q-27 23 -50 32.5t-134 43.5
q-154 47 -238 117q-108 90 -108 258q0 108 47 203.5t128 153.5q76 55 194 68v151q0 45 11.5 56.5t56.5 11.5h32q45 0 56.5 -11.5t11.5 -56.5v-151z" />
    <glyph glyph-name="percent" unicode="%" horiz-adv-x="1834" vert-adv-y="2457" 
d="M450 1380q177 0 277 -107q88 -94 88 -224q0 -159 -121 -261q-92 -77 -257 -77q-181 0 -282 106q-87 89 -87 235q0 142 99 234q101 94 283 94zM442 1200q-65 0 -109.5 -45t-44.5 -110q0 -62 45.5 -107t108.5 -45t108 45t45 109q0 63 -45 108t-108 45zM1274 1365h38
q59 0 59 -39q0 -13 -20 -46l-717 -1236q-20 -34 -29 -39t-48 -5h-37q-59 0 -59 39q0 12 20 46l717 1236q19 34 28 39t48 5zM1400 653q177 0 277 -107q88 -94 88 -224q0 -159 -121 -261q-92 -77 -257 -77q-181 0 -282 106q-87 90 -87 235q0 142 99 234q102 94 283 94z
M1392 473q-65 0 -109.5 -45t-44.5 -110q0 -62 45.5 -107t108.5 -45t108 45t45 109q0 63 -45 108t-108 45z" />
    <glyph glyph-name="ampersand" unicode="&#x26;" horiz-adv-x="1548" vert-adv-y="2457" 
d="M880 702l171 -180q93 85 150 158q13 16 33 16q16 0 48 -31l101 -97q7 -7 14 -13q19 -19 19 -36q0 -20 -33 -57t-140 -139l221 -234q30 -32 30 -48q0 -23 -15 -32t-53 -9h-275q-37 0 -44 3t-32 29l-88 93q-246 -163 -470 -163q-126 0 -234 55q-104 53 -158 156
q-43 81 -43 181q0 180 134 292q44 37 192 104q-55 69 -72 96q-55 82 -55 184q0 92 49 177q115 196 376 196q201 0 318 -119q108 -109 108 -253q0 -148 -116 -244q-46 -37 -136 -85zM578 571q-129 -81 -129 -161q0 -56 45 -93t113 -37q93 0 186 59zM725 868q126 77 126 169
q0 54 -34 89.5t-86 35.5q-58 0 -89 -41q-25 -34 -25 -73q0 -66 108 -180z" />
    <glyph glyph-name="quotesingle" unicode="'" horiz-adv-x="459" vert-adv-y="2457" 
d="M261 816h-63q-44 0 -55.5 10.5t-14.5 54.5l-37 412q-2 19 -2 30q0 25 14 33.5t53 8.5h147q41 0 54.5 -8.5t13.5 -34.5q0 -8 -2 -29l-37 -412q-4 -44 -15.5 -54.5t-55.5 -10.5z" />
    <glyph glyph-name="parenleft" unicode="(" horiz-adv-x="692" vert-adv-y="2457" 
d="M455 1526l82 -47q29 -16 37 -24.5t8 -24.5q0 -11 -12 -32q-81 -137 -131.5 -358.5t-50.5 -442.5q0 -226 54 -454q59 -252 125 -354q13 -20 13 -32q0 -16 -8 -24.5t-36 -24.5l-80 -46q-34 -19 -44 -19q-23 0 -46 35q-114 174 -171 427q-58 259 -58 506q0 391 143 729
q70 166 106 196q11 9 26 9q10 0 43 -19z" />
    <glyph glyph-name="parenright" unicode=")" horiz-adv-x="692" vert-adv-y="2457" 
d="M237 -338l-82 46q-29 17 -36.5 25.5t-7.5 23.5q0 12 12 32q80 131 131 356t51 445q0 225 -54 455q-61 258 -126 354q-13 19 -13 32q0 15 7.5 23.5t37.5 25.5l80 46q33 19 44 19q23 0 46 -35q114 -175 171 -427q58 -259 58 -506q0 -390 -143 -729q-48 -114 -77.5 -159.5
t-55.5 -45.5q-10 0 -43 19z" />
    <glyph glyph-name="asterisk" unicode="*" horiz-adv-x="1229" vert-adv-y="2457" 
d="M663 1254l159 75q33 16 44 16q17 0 26.5 -11t19.5 -43l4 -14q11 -31 11 -42q0 -18 -12.5 -27t-47.5 -15l-173 -32l121 -129q30 -31 30 -47q0 -14 -6.5 -22.5t-32.5 -27.5l-12 -8q-33 -24 -46 -24q-16 0 -24.5 8t-24.5 37l-84 154l-85 -154q-16 -29 -25 -37t-25 -8
q-13 0 -45 24l-12 8q-26 19 -32.5 27.5t-6.5 22.5q0 16 30 47l121 127l-173 33q-35 7 -47.5 16t-12.5 27q0 11 10 42l5 13q10 33 19 44t26 11q11 0 44 -16l159 -76l-23 175q-3 25 -3 34q0 23 14.5 31.5t53.5 8.5h14q40 0 54 -8.5t14 -32.5q0 -8 -3 -33z" />
    <glyph glyph-name="plus" unicode="+" horiz-adv-x="1229" vert-adv-y="2457" 
d="M499 799v300q0 45 11.5 56.5t56.5 11.5h96q45 0 56.5 -11.5t11.5 -56.5v-300h300q45 0 56.5 -11.5t11.5 -56.5v-96q0 -45 -11.5 -56.5t-56.5 -11.5h-300v-301q0 -45 -11.5 -56.5t-56.5 -11.5h-96q-45 0 -56.5 11.5t-11.5 56.5v301h-301q-45 0 -56.5 11.5t-11.5 56.5v96
q0 45 11.5 56.5t56.5 11.5h301z" />
    <glyph glyph-name="comma" unicode="," horiz-adv-x="621" vert-adv-y="2457" 
d="M272 347h156q69 0 69 -38q0 -13 -19 -47l-261 -471q-6 -11 -9 -16q-11 -20 -21 -24.5t-47 -4.5h-71q-38 0 -53 8.5t-15 29.5q0 11 12 43l183 468q15 39 25 45.5t51 6.5z" />
    <glyph glyph-name="hyphen" unicode="-" horiz-adv-x="519" vert-adv-y="2457" 
d="M68 621h383q45 0 56.5 -11.5t11.5 -56.5v-137q0 -45 -11.5 -56.5t-56.5 -11.5h-383q-45 0 -56.5 11.5t-11.5 56.5v137q0 45 11.5 56.5t56.5 11.5z" />
    <glyph glyph-name="hyphen" unicode="&#x2011;" horiz-adv-x="519" vert-adv-y="2457" 
d="M68 621h383q45 0 56.5 -11.5t11.5 -56.5v-137q0 -45 -11.5 -56.5t-56.5 -11.5h-383q-45 0 -56.5 11.5t-11.5 56.5v137q0 45 11.5 56.5t56.5 11.5z" />
    <glyph glyph-name="hyphen" unicode="&#xad;" horiz-adv-x="519" vert-adv-y="2457" 
d="M68 621h383q45 0 56.5 -11.5t11.5 -56.5v-137q0 -45 -11.5 -56.5t-56.5 -11.5h-383q-45 0 -56.5 11.5t-11.5 56.5v137q0 45 11.5 56.5t56.5 11.5z" />
    <glyph glyph-name="period" unicode="." horiz-adv-x="621" vert-adv-y="2457" 
d="M310 387q88 0 150 -62t62 -150t-62 -151q-62 -62 -149 -62q-89 0 -150 62q-62 63 -62 153q0 86 62.5 148t148.5 62z" />
    <glyph glyph-name="slash" unicode="/" horiz-adv-x="1014" vert-adv-y="2457" 
d="M918 1295l-614 -1494q-39 -94 -65 -121t-76 -27q-44 0 -78 29q-41 35 -41 82q0 35 38 128l614 1494q38 94 64 121.5t77 27.5q44 0 78 -29q41 -35 41 -82q0 -35 -38 -129z" />
    <glyph glyph-name="zero" unicode="0" horiz-adv-x="1229" vert-adv-y="2457" 
d="M615 1417q257 0 424 -211q155 -195 155 -523q0 -169 -37.5 -296t-117.5 -228q-167 -211 -423 -211q-259 0 -425 211q-81 103 -115 219q-40 138 -40 315q0 321 155 513q170 211 424 211zM615 1100q-66 0 -125 -61q-48 -49 -75 -146t-27 -218q0 -179 63 -300
q26 -51 72 -83.5t92 -32.5t92 32.5t72 83.5q63 122 63 305q0 186 -63 305q-26 51 -72 83t-92 32z" />
    <glyph glyph-name="one" unicode="1" horiz-adv-x="1229" vert-adv-y="2457" 
d="M479 1065h-126q-45 0 -56.5 11.5t-11.5 56.5v164q0 45 11.5 56.5t56.5 11.5h413q45 0 56.5 -11.5t11.5 -56.5v-1229q0 -45 -11.5 -56.5t-56.5 -11.5h-219q-45 0 -56.5 11.5t-11.5 56.5v997z" />
    <glyph glyph-name="two" unicode="2" horiz-adv-x="1229" vert-adv-y="2457" 
d="M702 300h379q45 0 56.5 -11.5t11.5 -56.5v-164q0 -45 -11.5 -56.5t-56.5 -11.5h-905q-38 0 -53 9t-15 32q0 16 30 48l262 274q172 179 284 346q83 124 83 235q0 74 -46.5 125.5t-112.5 51.5q-62 0 -102 -42t-40 -107q-1 -50 -12 -62.5t-57 -12.5h-248q-40 0 -54 9t-14 33
q0 65 31.5 150t78.5 149q72 96 190 143q106 42 225 42q240 0 387 -144q142 -139 142 -348q0 -119 -48.5 -218.5t-154.5 -198.5z" />
    <glyph glyph-name="three" unicode="3" horiz-adv-x="1229" vert-adv-y="2457" 
d="M924 739q81 -26 128 -81q96 -112 96 -268q0 -147 -85 -258q-74 -97 -197 -146q-120 -47 -252 -47q-280 0 -427 180q-56 69 -93.5 148t-37.5 128q0 24 15 33t54 9h230q44 0 54 -9t23 -61q13 -48 49 -78q53 -43 131 -43q92 0 142 62q42 52 42 117q0 93 -75 148
q-45 32 -89 32l-41 -1q-26 0 -35 13.5t-9 54.5v101q0 46 11 56.5t65 13.5q48 4 82 47.5t34 101.5q0 59 -39.5 97t-99.5 38q-82 0 -120 -61q-9 -14 -20 -60q-5 -22 -17.5 -28.5t-50.5 -6.5h-188q-39 0 -53.5 8.5t-14.5 30.5q0 88 59 185q66 109 173 163q118 60 261 60
q201 0 323 -111q117 -107 117 -283q0 -98 -35 -167t-110 -118z" />
    <glyph glyph-name="four" unicode="4" horiz-adv-x="1229" vert-adv-y="2457" 
d="M1012 553h98q45 0 56.5 -11.5t11.5 -56.5v-137q0 -45 -11.5 -56.5t-56.5 -11.5h-98v-212q0 -45 -11.5 -56.5t-56.5 -11.5h-192q-45 0 -56.5 11.5t-11.5 56.5v212h-593q-45 0 -56.5 11.5t-11.5 56.5v122q0 34 1.5 38.5t18.5 33.5l479 780q4 7 10 16q11 19 21 23t46 4h345
q45 0 56.5 -11.5t11.5 -56.5v-744zM684 553v526l-321 -526h321z" />
    <glyph glyph-name="five" unicode="5" horiz-adv-x="1229" vert-adv-y="2457" 
d="M541 1065l-25 -151q64 9 110 9q206 0 341 -128q146 -140 146 -351q0 -139 -69 -252q-144 -236 -504 -236q-244 0 -415 105q-27 17 -27 38q0 7 5 35l29 183q6 36 14 48t26 12q11 0 24.5 -7t80.5 -51q41 -26 114 -45.5t129 -19.5q116 0 180 78q47 55 47 127q0 115 -109 181
q-79 48 -181 48q-119 0 -208 -33q-6 -2 -15 -2q-17 0 -28 11.5t-11 29.5q0 8 5 33l93 577q7 43 18 52t54 9h580q45 0 56.5 -11.5t11.5 -56.5v-164q0 -45 -11.5 -56.5t-56.5 -11.5h-404z" />
    <glyph glyph-name="six" unicode="6" horiz-adv-x="1229" vert-adv-y="2457" 
d="M561 901q107 42 192 42q186 0 313 -135q128 -137 128 -343q0 -257 -196 -405q-155 -115 -390 -115q-279 0 -431 156q-141 145 -141 345q0 116 55 254.5t151 264.5l276 362q7 10 11 15q13 17 22 20t44 3h240q37 0 52.5 -9t15.5 -30q0 -17 -27 -49zM607 675q-94 0 -160 -66
t-66 -159t66 -159t160 -66t159 66q66 67 66 162q0 91 -66.5 156.5t-158.5 65.5z" />
    <glyph glyph-name="seven" unicode="7" horiz-adv-x="1229" vert-adv-y="2457" 
d="M714 1065h-502q-45 0 -56.5 11.5t-11.5 56.5v164q0 45 11.5 56.5t56.5 11.5h954q39 0 54 -8.5t15 -30.5q0 -12 -19 -46l-709 -1236q-20 -34 -29 -39t-48 -5h-240q-37 0 -48 5q-21 10 -21 34q0 13 20 46z" />
    <glyph glyph-name="eight" unicode="8" horiz-adv-x="1229" vert-adv-y="2457" 
d="M364 719q-84 35 -129 84q-86 91 -86 217q0 84 42 163q117 219 425 219q111 0 206.5 -33.5t155.5 -94.5q102 -103 102 -255q0 -144 -96 -225q-42 -34 -127 -75q107 -42 161 -90q118 -105 118 -260q0 -195 -181 -312q-142 -92 -339 -92q-146 0 -276 57q-129 57 -197 162
q-50 79 -50 185q0 164 121 268q51 44 150 82zM615 1164q-63 0 -107 -44t-44 -108q0 -60 44.5 -104t106.5 -44t106 44t44 106t-44 106t-106 44zM615 575q-69 0 -116.5 -48t-47.5 -117q0 -66 48.5 -114t114.5 -48q68 0 116 48t48 116q0 67 -47.5 115t-115.5 48z" />
    <glyph glyph-name="nine" unicode="9" horiz-adv-x="1229" vert-adv-y="2457" 
d="M669 464q-106 -43 -192 -43q-186 0 -313 136q-128 136 -128 342q0 258 196 405q154 116 390 116q279 0 431 -156q141 -145 141 -345q0 -116 -55 -254.5t-151 -264.5l-276 -362q-23 -30 -31 -34t-45 -4h-241q-37 0 -52.5 9t-15.5 30q0 17 27 49zM625 1141q-94 0 -160 -66
q-66 -67 -66 -162q0 -90 66 -157q65 -66 159 -66t160 66t66 160t-66 159q-68 66 -159 66z" />
    <glyph glyph-name="colon" unicode=":" horiz-adv-x="621" vert-adv-y="2457" 
d="M310 387q88 0 150 -62t62 -150t-62 -151q-62 -62 -149 -62q-89 0 -150 62q-62 63 -62 153q0 86 62.5 148t148.5 62zM310 996q88 0 150 -62t62 -149q0 -88 -62 -150t-149 -62q-89 0 -150 62q-62 63 -62 152q0 86 62.5 147.5t148.5 61.5z" />
    <glyph glyph-name="semicolon" unicode=";" horiz-adv-x="621" vert-adv-y="2457" 
d="M272 347h156q69 0 69 -38q0 -13 -19 -47l-261 -471q-6 -11 -9 -16q-11 -20 -21 -24.5t-47 -4.5h-71q-38 0 -53 8.5t-15 29.5q0 11 12 43l183 468q15 39 25 45.5t51 6.5zM359 996q88 0 150 -62t62 -149q0 -88 -62 -150t-149 -62q-89 0 -150 62q-62 63 -62 152
q0 86 62.5 147.5t148.5 61.5z" />
    <glyph glyph-name="less" unicode="&#x3c;" vert-adv-y="2457" 
d="M477 692l438 -248q24 -14 31 -26.5t7 -39.5l2 -285q0 -34 -27 -34q-8 0 -20 6l-802 446q-24 13 -31 25t-7 39v236q0 27 7 39t31 25l802 445q11 6 20 6q27 0 27 -33v-289q0 -27 -7 -39.5t-31 -25.5z" />
    <glyph glyph-name="equal" unicode="=" horiz-adv-x="1229" vert-adv-y="2457" 
d="M198 980h833q45 0 56.5 -11.5t11.5 -56.5v-96q0 -45 -11.5 -56.5t-56.5 -11.5h-833q-45 0 -56.5 11.5t-11.5 56.5v96q0 45 11.5 56.5t56.5 11.5zM198 618h833q45 0 56.5 -11.5t11.5 -56.5v-96q0 -45 -11.5 -56.5t-56.5 -11.5h-833q-45 0 -56.5 11.5t-11.5 56.5v96
q0 45 11.5 56.5t56.5 11.5z" />
    <glyph glyph-name="greater" unicode="&#x3e;" vert-adv-y="2457" 
d="M546 693l-438 249q-24 13 -31 25t-7 40l-2 285q0 34 27 34q9 0 20 -6l802 -446q24 -13 31 -25t7 -39v-236q0 -27 -7 -39t-31 -25l-802 -445q-12 -6 -20 -6q-27 0 -27 34v288q0 27 7 39.5t31 25.5z" />
    <glyph glyph-name="question" unicode="?" horiz-adv-x="1120" vert-adv-y="2457" 
d="M710 589v-62q0 -45 -11.5 -56.5t-56.5 -11.5h-197q-45 0 -56.5 11.5t-11.5 56.5v212q0 40 9 53.5t36 14.5q84 0 113 6t67 29q85 52 85 141q0 57 -38.5 95.5t-96.5 38.5q-48 0 -79.5 -27.5t-38.5 -75.5q-3 -21 -16.5 -28t-51.5 -7h-228q-39 0 -53.5 8.5t-14.5 32.5
q0 61 38.5 135t96.5 126q64 56 159 89t195 33q206 0 341 -127q65 -61 101.5 -141t36.5 -161q0 -85 -39 -164t-107 -130q-67 -51 -182 -91zM552 385q88 0 150 -62t62 -149q0 -88 -62 -150q-61 -62 -149 -62q-89 0 -150 62q-62 63 -62 152q0 86 62.5 147.5t148.5 61.5z" />
    <glyph glyph-name="at" unicode="@" horiz-adv-x="1409" vert-adv-y="2457" 
d="M876 370l-11 -11q-83 -80 -205 -80q-143 0 -237 108q-93 106 -93 267q0 176 116 290q108 106 247 106q81 0 193 -66q7 28 19 35.5t52 7.5h56q40 0 54 -8.5t14 -33.5q0 -5 -3 -31l-46 -378q-5 -43 -5 -88q0 -35 22 -35t44 11q58 28 94 84q64 100 64 224q0 204 -150 337
q-148 132 -367 132q-238 0 -400 -164q-159 -162 -159 -397q0 -222 140 -379q157 -177 438 -177q182 0 318 64l67 32q11 5 21 5q17 0 26 -9.5t21 -41.5l15 -38q13 -32 13 -42q0 -20 -18 -32q-58 -41 -211.5 -76.5t-270.5 -35.5q-220 0 -394 99q-160 91 -256 252
q-103 173 -103 377q0 203 100 372q95 159 260 254q179 102 392 102q211 0 381 -100q145 -84 227 -221q86 -143 86 -309q0 -165 -85 -302q-68 -111 -175 -160q-69 -32 -136 -32q-47 0 -89.5 23t-62.5 59zM706 850q-74 0 -121.5 -57t-47.5 -146q0 -77 37 -126t96 -49
q79 0 136 65q60 68 60 158q0 66 -46 110.5t-114 44.5z" />
    <glyph glyph-name="A" unicode="A" horiz-adv-x="1454" vert-adv-y="2457" 
d="M973 238h-490l-73 -187q-15 -37 -25 -44t-51 -7h-233q-38 0 -53 8.5t-15 29.5q0 11 12 43l474 1232q3 8 6 17q9 24 20 29.5t49 5.5h276q41 0 51 -7t24 -45l465 -1232q12 -31 12 -43q0 -21 -15 -29.5t-53 -8.5h-237q-41 0 -51 7t-24 45zM877 508l-147 435l-149 -435h296z
" />
    <glyph glyph-name="B" unicode="B" horiz-adv-x="1266" vert-adv-y="2457" 
d="M905 729q132 -27 190 -86q88 -90 88 -256q0 -165 -111 -269q-125 -118 -360 -118h-501q-45 0 -56.5 11.5t-11.5 56.5v1229q0 45 11.5 56.5t56.5 11.5h460q191 0 287 -95q97 -95 97 -261q0 -103 -35 -168.5t-115 -111.5zM498 828h65q85 0 126 37t41 96q0 65 -43 99
t-124 34h-65v-266zM498 276h79q118 0 175 25q33 15 52.5 47.5t19.5 72.5q0 83 -68 118q-30 16 -64.5 20.5t-120.5 4.5h-73v-288z" />
    <glyph glyph-name="C" unicode="C" horiz-adv-x="1208" vert-adv-y="2457" 
d="M1126 1269v-246q0 -39 -9 -54t-32 -15q-10 0 -25 12q-112 84 -240 84q-164 0 -272 -113q-95 -100 -95 -263q0 -176 120 -277q106 -90 253 -90q143 0 245 84q12 10 25 10q18 0 24 -14t6 -54v-246q0 -32 -3 -42.5t-14 -17.5q-6 -5 -21 -10q-109 -34 -160.5 -44t-115.5 -10
q-192 0 -365 95q-184 101 -278 268q-87 154 -87 345q0 213 106 384q100 162 277 254q162 85 341 85q143 0 287 -57q23 -8 28 -19t5 -49z" />
    <glyph glyph-name="D" unicode="D" horiz-adv-x="1423" vert-adv-y="2457" 
d="M143 68v1229q0 45 11.5 56.5t56.5 11.5h456q256 0 449 -181q110 -102 169 -240q55 -129 55 -261q0 -194 -110 -366q-110 -171 -288 -255q-132 -62 -275 -62h-456q-45 0 -56.5 11.5t-11.5 56.5zM498 300h81q100 0 169 27t122 87q99 111 99 269q0 157 -99 268
q-53 60 -122 87t-169 27h-81v-765z" />
    <glyph glyph-name="E" unicode="E" horiz-adv-x="1002" vert-adv-y="2457" 
d="M498 1065v-228h331q45 0 56.5 -11.5t11.5 -56.5v-164q0 -45 -11.5 -56.5t-56.5 -11.5h-331v-237h354q45 0 56.5 -11.5t11.5 -56.5v-164q0 -45 -11.5 -56.5t-56.5 -11.5h-641q-45 0 -56.5 11.5t-11.5 56.5v1229q0 45 11.5 56.5t56.5 11.5h641q45 0 56.5 -11.5t11.5 -56.5
v-164q0 -45 -11.5 -56.5t-56.5 -11.5h-354z" />
    <glyph glyph-name="F" unicode="F" horiz-adv-x="994" vert-adv-y="2457" 
d="M498 1065v-228h321q45 0 56.5 -11.5t11.5 -56.5v-164q0 -45 -11.5 -56.5t-56.5 -11.5h-321v-469q0 -45 -11.5 -56.5t-56.5 -11.5h-219q-45 0 -56.5 11.5t-11.5 56.5v1229q0 45 11.5 56.5t56.5 11.5h646q45 0 56.5 -11.5t11.5 -56.5v-164q0 -45 -11.5 -56.5t-56.5 -11.5
h-359z" />
    <glyph glyph-name="G" unicode="G" horiz-adv-x="1593" vert-adv-y="2457" 
d="M1098 482h-223q-45 0 -56.5 11.5t-11.5 56.5v140q0 45 11.5 56.5t56.5 11.5h566q42 0 52 -8q18 -14 18 -56q0 -196 -71 -356q-84 -187 -245 -286q-163 -100 -384 -100q-224 0 -401 102q-172 100 -258 288q-71 155 -71 333q0 203 91 375q94 180 268 270q172 89 382 89
q351 0 537 -252q63 -85 63 -113q0 -16 -9.5 -25t-40.5 -22l-209 -86q-33 -14 -43 -14q-22 0 -36 25q-58 102 -121 139q-72 41 -157 41q-157 0 -255 -125q-99 -125 -99 -301q0 -201 122 -332q92 -98 243 -98q153 0 231 100q37 47 50 136z" />
    <glyph glyph-name="H" unicode="H" horiz-adv-x="1509" vert-adv-y="2457" 
d="M498 838h512v459q0 45 11.5 56.5t56.5 11.5h219q45 0 56.5 -11.5t11.5 -56.5v-1229q0 -45 -11.5 -56.5t-56.5 -11.5h-219q-45 0 -56.5 11.5t-11.5 56.5v494h-512v-494q0 -45 -11.5 -56.5t-56.5 -11.5h-219q-45 0 -56.5 11.5t-11.5 56.5v1229q0 45 11.5 56.5t56.5 11.5
h219q45 0 56.5 -11.5t11.5 -56.5v-459z" />
    <glyph glyph-name="I" unicode="I" horiz-adv-x="642" vert-adv-y="2457" 
d="M498 1297v-1229q0 -45 -11.5 -56.5t-56.5 -11.5h-219q-45 0 -56.5 11.5t-11.5 56.5v1229q0 45 11.5 56.5t56.5 11.5h219q45 0 56.5 -11.5t11.5 -56.5z" />
    <glyph glyph-name="J" unicode="J" horiz-adv-x="959" vert-adv-y="2457" 
d="M816 1297v-876q0 -140 -35 -213q-61 -124 -186 -191q-102 -54 -225 -54q-187 0 -310 139q-34 39 -34 58q0 17 31 49l124 127q31 32 48 32q15 0 35 -33q39 -67 97 -67q101 0 101 158l-1 76v795q0 45 11.5 56.5t56.5 11.5h219q45 0 56.5 -11.5t11.5 -56.5z" />
    <glyph glyph-name="K" unicode="K" horiz-adv-x="1433" vert-adv-y="2457" 
d="M498 802l404 525q8 11 11 15q12 17 21 20t44 3h276q38 0 53.5 -9t15.5 -31q0 -16 -28 -48l-468 -558l520 -631q27 -33 27 -49q0 -39 -69 -39h-298q-38 0 -46 4t-31 33l-432 555v-524q0 -45 -11.5 -56.5t-56.5 -11.5h-219q-45 0 -56.5 11.5t-11.5 56.5v1229
q0 45 11.5 56.5t56.5 11.5h219q45 0 56.5 -11.5t11.5 -56.5v-495z" />
    <glyph glyph-name="L" unicode="L" horiz-adv-x="963" vert-adv-y="2457" 
d="M498 300h358q45 0 56.5 -11.5t11.5 -56.5v-164q0 -45 -11.5 -56.5t-56.5 -11.5h-645q-45 0 -56.5 11.5t-11.5 56.5v1229q0 45 11.5 56.5t56.5 11.5h219q45 0 56.5 -11.5t11.5 -56.5v-997z" />
    <glyph glyph-name="M" unicode="M" horiz-adv-x="1875" vert-adv-y="2457" 
d="M941 637l272 677q16 38 25.5 44.5t50.5 6.5h235q43 0 54 -9.5t18 -52.5l186 -1229q4 -27 4 -35q0 -22 -14.5 -30.5t-53.5 -8.5h-217q-44 0 -55 9.5t-17 53.5l-92 723l-309 -736q-16 -37 -25.5 -43.5t-50.5 -6.5h-31q-41 0 -51 6.5t-25 44.5l-294 735l-107 -724
q-7 -43 -18 -52.5t-54 -9.5h-214q-39 0 -53.5 8.5t-14.5 30.5q0 9 5 36l208 1229q8 43 18.5 52t54.5 9h233q40 0 50 -6.5t25 -45.5z" />
    <glyph glyph-name="N" unicode="N" horiz-adv-x="1649" vert-adv-y="2457" 
d="M1151 530v767q0 45 11.5 56.5t56.5 11.5h219q45 0 56.5 -11.5t11.5 -56.5v-1229q0 -45 -11.5 -56.5t-56.5 -11.5h-240q-37 0 -45 4t-31 33l-624 799v-768q0 -45 -11.5 -56.5t-56.5 -11.5h-219q-45 0 -56.5 11.5t-11.5 56.5v1229q0 45 11.5 56.5t56.5 11.5h240q37 0 45 -4
t31 -33z" />
    <glyph glyph-name="O" unicode="O" horiz-adv-x="1675" vert-adv-y="2457" 
d="M837 1406q342 0 559 -229q197 -207 197 -498q0 -200 -99 -369q-106 -182 -293 -277q-162 -82 -370 -82q-337 0 -552 228q-197 208 -197 512q0 191 99 356q111 186 293 277q165 82 363 82zM838 1062q-160 0 -271 -112q-113 -114 -113 -276q0 -153 113 -267
q111 -112 271 -112q159 0 272 112q112 113 112 272q0 161 -112 271q-116 112 -272 112z" />
    <glyph glyph-name="P" unicode="P" horiz-adv-x="1227" vert-adv-y="2457" 
d="M498 454v-386q0 -45 -11.5 -56.5t-56.5 -11.5h-219q-45 0 -56.5 11.5t-11.5 56.5v1229q0 45 11.5 56.5t56.5 11.5h497q119 0 196.5 -26t143.5 -88q134 -126 134 -339q0 -207 -110 -331q-112 -127 -352 -127h-222zM498 739h118q103 0 145 39q50 46 50 130q0 172 -194 172
h-119v-341z" />
    <glyph glyph-name="Q" unicode="Q" horiz-adv-x="1675" vert-adv-y="2457" 
d="M1211 39q-86 -48 -166 -67.5t-188 -19.5q-392 0 -602 257q-173 210 -173 471q0 172 81 330q103 199 291 302q165 91 382 91q211 0 387 -91q188 -98 290 -295q80 -154 80 -339q0 -136 -41 -248t-137 -235l155 -157q31 -32 31 -48q0 -21 -12.5 -30.5t-49.5 -14.5l-169 -27
q-7 0 -18 -2t-18 -2q-17 0 -46 35zM946 313l-139 139q-32 32 -32 48q0 21 13.5 30.5t50.5 13.5l176 22q14 2 18 3q10 1 16 1q16 0 47 -33l61 -66q65 96 65 206q0 151 -111 266q-112 116 -274 116t-276 -117q-108 -111 -108 -272q0 -169 121 -277q108 -97 262 -97
q52 0 110 17z" />
    <glyph glyph-name="R" unicode="R" horiz-adv-x="1284" vert-adv-y="2457" 
d="M849 560l362 -472q26 -34 26 -50q0 -38 -69 -38h-282q-39 0 -47.5 4.5t-29.5 37.5l-311 482v-456q0 -45 -11.5 -56.5t-56.5 -11.5h-219q-45 0 -56.5 11.5t-11.5 56.5v1229q0 45 11.5 56.5t56.5 11.5h484q115 0 195 -29t140 -91q117 -124 117 -302q0 -90 -33.5 -171
t-90.5 -132q-64 -55 -174 -80zM498 754h66q101 0 152 36q28 21 47 58.5t19 74.5q0 36 -19 74t-47 59q-50 36 -152 36h-66v-338z" />
    <glyph glyph-name="S" unicode="S" horiz-adv-x="1170" vert-adv-y="2457" 
d="M1003 1226l-77 -150q-15 -30 -24 -38.5t-25 -8.5q-9 0 -109 55q-36 19 -107 19q-75 0 -117 -41q-35 -35 -35 -78q0 -40 32 -67q30 -25 62 -38t151 -48q169 -50 249 -136q86 -93 86 -247q0 -235 -140 -356q-150 -128 -394 -128q-108 0 -232.5 37.5t-206.5 94.5
q-22 15 -22 37q0 9 18 43l86 161q16 30 24.5 38t24.5 8q10 0 21 -7t70 -48q89 -62 211 -62q92 0 135 49q34 39 34 83q0 57 -44 89.5t-169 69.5q-196 57 -260 110q-108 89 -108 270q0 214 141 343q128 118 317 118q99 0 216.5 -27t187.5 -65q22 -13 22 -35q0 -11 -18 -45z
" />
    <glyph glyph-name="T" unicode="T" horiz-adv-x="965" vert-adv-y="2457" 
d="M658 1065v-997q0 -45 -11.5 -56.5t-56.5 -11.5h-219q-45 0 -56.5 11.5t-11.5 56.5v997h-221q-45 0 -56.5 11.5t-11.5 56.5v164q0 45 11.5 56.5t56.5 11.5h802q45 0 56.5 -11.5t11.5 -56.5v-164q0 -45 -11.5 -56.5t-56.5 -11.5h-226z" />
    <glyph glyph-name="U" unicode="U" horiz-adv-x="1477" vert-adv-y="2457" 
d="M498 1297v-671q0 -117 6.5 -159t32.5 -85q61 -104 198 -104q67 0 123.5 30t84.5 81q22 40 29 85t7 152v671q0 45 11.5 56.5t56.5 11.5h219q45 0 56.5 -11.5t11.5 -56.5v-719q0 -196 -52 -301q-79 -160 -236 -242q-135 -70 -316 -70q-206 0 -357 89q-127 74 -178.5 192
t-51.5 332v719q0 45 11.5 56.5t56.5 11.5h219q45 0 56.5 -11.5t11.5 -56.5z" />
    <glyph glyph-name="V" unicode="V" horiz-adv-x="1432" vert-adv-y="2457" 
d="M716 535l310 779q4 9 7 17q9 23 20 28.5t49 5.5h240q35 0 47 -5q21 -9 21 -33q0 -13 -13 -44l-526 -1233q-16 -37 -25.5 -43.5t-50.5 -6.5h-166q-40 0 -50 6.5t-26 43.5l-518 1233q-14 32 -14 44q0 21 15 29.5t53 8.5h242q41 0 51 -6.5t25 -44.5z" />
    <glyph glyph-name="W" unicode="W" horiz-adv-x="2076" vert-adv-y="2457" 
d="M608 483l271 828q13 39 23.5 46.5t51.5 7.5h168q41 0 51.5 -7.5t22.5 -47.5l253 -827l241 826q3 10 5 18q8 25 19.5 31.5t50.5 6.5h228q39 0 53.5 -8.5t14.5 -30.5q0 -10 -10 -40l-393 -1232q-13 -39 -23.5 -46.5t-51.5 -7.5h-247q-41 0 -51.5 7.5t-22.5 47.5l-232 736
l-244 -737q-13 -39 -23 -46.5t-52 -7.5h-246q-42 0 -52.5 7.5t-21.5 47.5l-367 1231q-9 30 -9 41q0 21 14.5 29.5t53.5 8.5h229q42 0 52.5 -8t21.5 -49z" />
    <glyph glyph-name="X" unicode="X" horiz-adv-x="1455" vert-adv-y="2457" 
d="M534 728l-378 550q-22 33 -22 49q0 21 15.5 29.5t52.5 8.5h281q39 0 48 -5t28 -39l178 -310l186 311q20 33 29 38t48 5h279q69 0 69 -38q0 -15 -24 -49l-384 -550l454 -641q23 -33 23 -49q0 -38 -68 -38h-273q-38 0 -46.5 4.5t-29.5 36.5l-265 403l-278 -404
q-6 -9 -11 -15q-12 -18 -21.5 -21.5t-44.5 -3.5h-272q-37 0 -52.5 8.5t-15.5 29.5q0 17 24 49z" />
    <glyph glyph-name="Y" unicode="Y" horiz-adv-x="1311" vert-adv-y="2457" 
d="M470 656l-434 622q-23 34 -23 49q0 21 15.5 29.5t52.5 8.5h271q38 0 46 -4.5t30 -35.5l230 -332l221 331q21 32 29.5 36.5t46.5 4.5h274q68 0 68 -38q0 -16 -24 -49l-448 -622v-588q0 -45 -11.5 -56.5t-56.5 -11.5h-219q-45 0 -56.5 11.5t-11.5 56.5v588z" />
    <glyph glyph-name="Z" unicode="Z" horiz-adv-x="1293" vert-adv-y="2457" 
d="M623 300h505q45 0 56.5 -11.5t11.5 -56.5v-164q0 -45 -11.5 -56.5t-56.5 -11.5h-1001q-38 0 -53 8.5t-15 30.5q0 14 20 46l594 980h-469q-45 0 -56.5 11.5t-11.5 56.5v164q0 45 11.5 56.5t56.5 11.5h962q38 0 53.5 -8.5t15.5 -30.5q0 -13 -21 -46z" />
    <glyph glyph-name="bracketleft" unicode="[" horiz-adv-x="689" vert-adv-y="2457" 
d="M423 1311v-1432h116q45 0 56.5 -11.5t11.5 -56.5v-57q0 -45 -11.5 -56.5t-56.5 -11.5h-307q-45 0 -56.5 11.5t-11.5 56.5v1680q0 45 11.5 56.5t56.5 11.5h307q45 0 56.5 -11.5t11.5 -56.5v-55q0 -45 -11.5 -56.5t-56.5 -11.5h-116z" />
    <glyph glyph-name="backslash" unicode="\" horiz-adv-x="1014" vert-adv-y="2457" 
d="M288 1463l709 -1728q5 -13 5 -20q0 -29 -38 -29h-163q-43 -1 -59 39l-710 1728q-5 12 -5 20q0 29 38 29h164q43 1 59 -39z" />
    <glyph glyph-name="bracketright" unicode="]" horiz-adv-x="689" vert-adv-y="2457" 
d="M266 -123v1432h-116q-45 0 -56.5 11.5t-11.5 56.5v57q0 44 12 56t56 12h307q45 0 56.5 -11.5t11.5 -56.5v-1680q0 -45 -11.5 -56.5t-56.5 -11.5h-307q-45 0 -56.5 11.5t-11.5 56.5v55q0 44 12 56t56 12h116z" />
    <glyph glyph-name="asciicircum" unicode="^" vert-adv-y="2457" 
d="M513 1114l-147 -383q-14 -41 -58 -40h-242q-38 0 -38 29q0 8 5 20l249 596q15 40 59 39h343q43 1 59 -39l248 -596q5 -12 5 -20q0 -29 -37 -29h-242q-44 -1 -58 40z" />
    <glyph glyph-name="underscore" unicode="_" vert-adv-y="2457" 
d="M68 -99h888q45 0 56.5 -11.5t11.5 -56.5v-90q0 -45 -11.5 -56.5t-56.5 -11.5h-888q-45 0 -56.5 11.5t-11.5 56.5v90q0 45 11.5 56.5t56.5 11.5z" />
    <glyph glyph-name="grave" unicode="`" vert-adv-y="2457" 
d="M260 1390l91 65q33 24 45 24q14 0 22 -6t28 -31l173 -211q26 -33 26 -46q0 -15 -6.5 -23t-32.5 -27l-46 -34q-33 -24 -47 -24q-15 0 -47 28l-211 187q-34 30 -34 49q0 21 39 49z" />
    <glyph glyph-name="a" unicode="a" horiz-adv-x="1270" vert-adv-y="2457" 
d="M830 103q-105 -133 -286 -133q-117 0 -223 59q-118 66 -183 181q-63 112 -63 256q0 237 165 379q131 113 301 113q90 0 159.5 -29t129.5 -92v23q0 45 12 56.5t57 11.5h191q45 0 56.5 -11.5t11.5 -56.5v-792q0 -45 -11.5 -56.5t-56.5 -11.5h-191q-45 0 -57 11.5t-12 56.5
v35zM628 675q-88 0 -150 -62t-62 -151q0 -84 62 -147q61 -62 150 -62q88 0 150 62t62 149q0 89 -62 149q-64 62 -150 62z" />
    <glyph glyph-name="b" unicode="b" horiz-adv-x="1270" vert-adv-y="2457" 
d="M440 837q53 55 103 79q86 42 186 42q204 0 343 -154q123 -136 123 -338q0 -235 -161 -377q-135 -119 -308 -119q-180 0 -286 133v-35q0 -45 -11.5 -56.5t-56.5 -11.5h-192q-45 0 -56.5 11.5t-11.5 56.5v1366q0 45 11.5 56.5t56.5 11.5h192q45 0 56.5 -11.5t11.5 -56.5
v-597zM643 675q-88 0 -151 -62q-62 -62 -62 -149t62 -149t150 -62q89 0 150 62q62 63 62 152q0 85 -62.5 146.5t-148.5 61.5z" />
    <glyph glyph-name="c" unicode="c" horiz-adv-x="887" vert-adv-y="2457" 
d="M812 852v-127q0 -37 -5 -48q-10 -21 -33 -21q-9 0 -24 6q-60 24 -107 24q-107 0 -173 -73q-54 -60 -54 -152q0 -100 66 -161q67 -62 160 -62q52 0 107 22q17 6 25 6q38 0 38 -68v-123q0 -32 -2.5 -41t-11.5 -17q-23 -18 -90.5 -33t-124.5 -15q-145 0 -271 75
q-237 140 -237 412q0 230 166 375q143 126 350 126q61 0 123 -14t84 -33q14 -11 14 -58z" />
    <glyph glyph-name="d" unicode="d" horiz-adv-x="1270" vert-adv-y="2457" 
d="M830 103q-106 -133 -286 -133q-117 0 -224 59q-117 66 -182 181q-63 112 -63 256q0 237 165 379q131 113 301 113q90 0 159 -29t130 -92v597q0 45 11.5 56.5t56.5 11.5h192q45 0 56.5 -11.5t11.5 -56.5v-1366q0 -45 -11.5 -56.5t-56.5 -11.5h-192q-45 0 -56.5 11.5
t-11.5 56.5v35zM628 675q-88 0 -150 -62t-62 -151q0 -84 62 -147q61 -62 150 -62q88 0 150 62t62 149q0 89 -62 149q-64 62 -150 62z" />
    <glyph glyph-name="e" unicode="e" horiz-adv-x="1172" vert-adv-y="2457" 
d="M406 404q3 -209 199 -209q55 0 89.5 16t60.5 54q8 12 17.5 15t43.5 3h180q38 0 53 -8.5t15 -30.5t-19 -60t-44 -66q-139 -155 -395 -155t-402 150q-129 133 -129 344q0 150 70 273q127 224 445 224q282 0 413 -187q94 -133 94 -308q0 -35 -13 -45t-56 -10h-622zM791 594
q-17 69 -67.5 108.5t-123.5 39.5q-75 0 -123.5 -39t-61.5 -109h376z" />
    <glyph glyph-name="f" unicode="f" horiz-adv-x="708" vert-adv-y="2457" 
d="M467 655v-587q0 -45 -11.5 -56.5t-56.5 -11.5h-192q-45 0 -56.5 11.5t-11.5 56.5v587h-49q-45 0 -56.5 11.5t-11.5 56.5v137q0 45 11.5 56.5t56.5 11.5h49v140q0 116 23 185t81 131q130 138 311 138q44 0 83 -10t51 -25q10 -12 10 -54v-144q0 -38 -8.5 -53t-30.5 -15
q-7 0 -16 2q-52 12 -66 12q-28 0 -58 -19t-40 -42q-12 -30 -12 -129v-117h163q45 0 56.5 -11.5t11.5 -56.5v-137q0 -45 -11.5 -56.5t-56.5 -11.5h-163z" />
    <glyph glyph-name="g" unicode="g" horiz-adv-x="1263" vert-adv-y="2457" 
d="M823 103q-73 -68 -137.5 -95t-154.5 -27q-228 0 -359 166q-97 123 -97 303q0 228 145 371q135 133 327 133q89 0 153.5 -28.5t122.5 -94.5v29q0 44 12 56q13 12 57 12h191q45 0 56.5 -11.5t11.5 -56.5v-796q0 -190 -47 -278q-74 -140 -222 -204q-113 -50 -266 -50
q-316 0 -469 208q-44 60 -44 109q0 21 15 29.5t53 8.5h230q36 0 47 -5t20 -25q11 -27 53 -45t92 -18q112 0 172 78q38 50 38 143v88zM628 678q-89 0 -150 -62q-62 -62 -62 -152q0 -85 62 -147q61 -62 150 -62q88 0 149 62q63 63 63 150q0 88 -63 149q-63 62 -149 62z" />
    <glyph glyph-name="h" unicode="h" horiz-adv-x="1203" vert-adv-y="2457" 
d="M440 811q57 66 105 93q79 45 192 45q169 0 268 -102q59 -60 75 -131q11 -50 11 -125v-523q0 -45 -11.5 -56.5t-56.5 -11.5h-192q-45 0 -56.5 11.5t-11.5 56.5v402q0 107 -20 146q-16 33 -52.5 52.5t-78.5 19.5q-86 0 -137 -62q-35 -43 -35 -129v-429q0 -45 -11.5 -56.5
t-56.5 -11.5h-192q-45 0 -56.5 11.5t-11.5 56.5v1366q0 45 11.5 56.5t56.5 11.5h192q45 0 56.5 -11.5t11.5 -56.5v-623z" />
    <glyph glyph-name="i" unicode="i" horiz-adv-x="552" vert-adv-y="2457" 
d="M439 860v-792q0 -45 -11.5 -56.5t-56.5 -11.5h-192q-45 0 -56.5 11.5t-11.5 56.5v792q0 45 11.5 56.5t56.5 11.5h192q45 0 56.5 -11.5t11.5 -56.5zM275 1469q77 0 131 -54t54 -130q0 -77 -54 -131t-130 -54q-78 0 -131 54q-54 55 -54 133q0 74 54.5 128t129.5 54z" />
    <glyph glyph-name="j" unicode="j" horiz-adv-x="552" vert-adv-y="2457" 
d="M439 860v-1256q0 -45 -11.5 -56.5t-56.5 -11.5h-192q-45 0 -56.5 11.5t-11.5 56.5v1256q0 45 11.5 56.5t56.5 11.5h192q45 0 56.5 -11.5t11.5 -56.5zM275 1469q77 0 131 -54t54 -130q0 -77 -54 -131t-130 -54q-78 0 -131 54q-54 55 -54 133q0 74 54.5 128t129.5 54z" />
    <glyph glyph-name="k" unicode="k" horiz-adv-x="1264" vert-adv-y="2457" 
d="M440 594l312 303q26 26 32.5 28.5t42.5 2.5h274q38 0 53 -9t15 -33q0 -17 -33 -48l-368 -338l405 -411q32 -32 32 -48q0 -23 -15 -32t-54 -9h-291q-36 0 -43 3t-32 29l-330 346v-310q0 -45 -11.5 -56.5t-56.5 -11.5h-192q-45 0 -56.5 11.5t-11.5 56.5v1366
q0 45 11.5 56.5t56.5 11.5h192q45 0 56.5 -11.5t11.5 -56.5v-840z" />
    <glyph glyph-name="l" unicode="l" horiz-adv-x="552" vert-adv-y="2457" 
d="M440 1434v-1366q0 -45 -11.5 -56.5t-56.5 -11.5h-192q-45 0 -56.5 11.5t-11.5 56.5v1366q0 45 11.5 56.5t56.5 11.5h192q45 0 56.5 -11.5t11.5 -56.5z" />
    <glyph glyph-name="m" unicode="m" horiz-adv-x="1795" vert-adv-y="2457" 
d="M440 814q73 70 141 99.5t159 29.5q109 0 184 -41.5t132 -131.5q108 174 313 174q82 0 153 -33.5t110 -91.5q51 -75 51 -216v-535q0 -45 -11.5 -56.5t-56.5 -11.5h-192q-45 0 -56.5 11.5t-11.5 56.5v391q0 71 -3 95.5t-14 52.5q-34 81 -120 81q-41 0 -78.5 -24t-55.5 -61
q-23 -50 -23 -144v-391q0 -45 -11.5 -56.5t-56.5 -11.5h-192q-45 0 -56.5 11.5t-11.5 56.5v391q0 110 -14 146q-14 39 -50.5 64t-77.5 25q-38 0 -75 -22.5t-54 -55.5q-22 -45 -22 -157v-391q0 -45 -11.5 -56.5t-56.5 -11.5h-192q-45 0 -56.5 11.5t-11.5 56.5v792
q0 45 11.5 56.5t56.5 11.5h192q45 0 56.5 -11.5t11.5 -56.5v-46z" />
    <glyph glyph-name="n" unicode="n" horiz-adv-x="1203" vert-adv-y="2457" 
d="M440 811q57 66 105 93q78 44 192 44q170 0 268 -102q48 -49 67 -105t19 -150v-523q0 -45 -11.5 -56.5t-56.5 -11.5h-192q-45 0 -56.5 11.5t-11.5 56.5v402q0 107 -20 145q-16 33 -52.5 52.5t-78.5 19.5q-86 0 -137 -62q-35 -43 -35 -128v-429q0 -45 -11.5 -56.5
t-56.5 -11.5h-192q-45 0 -56.5 11.5t-11.5 56.5v792q0 45 11.5 56.5t56.5 11.5h192q45 0 56.5 -11.5t11.5 -56.5v-49z" />
    <glyph glyph-name="o" unicode="o" horiz-adv-x="1267" vert-adv-y="2457" 
d="M633 962q276 0 431 -168q128 -138 128 -330q0 -226 -168 -370q-150 -129 -396 -129q-156 0 -292 67q-127 63 -199 192q-62 109 -62 248q0 215 168 361q84 72 208 105q92 24 182 24zM634 679q-89 0 -150 -62q-62 -63 -62 -153q0 -86 62 -149q61 -62 149 -62t150 62
q62 63 62 151q0 90 -62 151q-63 62 -149 62z" />
    <glyph glyph-name="p" unicode="p" horiz-adv-x="1270" vert-adv-y="2457" 
d="M440 825q106 133 286 133q117 0 223 -59q118 -66 183 -181q63 -112 63 -256q0 -237 -165 -379q-131 -113 -301 -113q-90 0 -159 29t-130 92v-487q0 -45 -11.5 -56.5t-56.5 -11.5h-192q-45 0 -56.5 11.5t-11.5 56.5v1256q0 45 11.5 56.5t56.5 11.5h192q45 0 56.5 -11.5
t11.5 -56.5v-35zM642 675q-88 0 -150 -62t-62 -149q0 -88 62 -150t150 -62q89 0 150 62q62 63 62 152q0 86 -62.5 147.5t-149.5 61.5z" />
    <glyph glyph-name="q" unicode="q" horiz-adv-x="1270" vert-adv-y="2457" 
d="M830 91q-53 -55 -103 -79q-86 -42 -186 -42q-204 0 -343 154q-123 136 -123 338q0 235 161 377q135 119 308 119q180 0 286 -133v35q0 45 11.5 56.5t56.5 11.5h192q45 0 56.5 -11.5t11.5 -56.5v-1256q0 -45 -11.5 -56.5t-56.5 -11.5h-192q-45 0 -56.5 11.5t-11.5 56.5
v487zM628 675q-89 0 -150 -62q-62 -63 -62 -152q0 -84 62 -147q61 -62 150 -62q88 0 150 62t62 150q0 89 -62 149q-64 62 -150 62z" />
    <glyph glyph-name="r" unicode="r" horiz-adv-x="842" vert-adv-y="2457" 
d="M440 776q56 88 127.5 126.5t176.5 38.5q42 0 53 -12t11 -57v-162q0 -38 -8.5 -53t-29.5 -15q-7 0 -17 2q-68 15 -97 15q-91 0 -154 -63q-34 -34 -48 -79.5t-14 -119.5v-329q0 -45 -11.5 -56.5t-56.5 -11.5h-192q-45 0 -56.5 11.5t-11.5 56.5v792q0 45 11.5 56.5
t56.5 11.5h192q45 0 56.5 -11.5t11.5 -56.5v-84z" />
    <glyph glyph-name="s" unicode="s" horiz-adv-x="922" vert-adv-y="2457" 
d="M806 837l-47 -90q-15 -29 -23.5 -37.5t-23.5 -8.5q-7 0 -19 4q-88 29 -141 29q-45 0 -73.5 -18.5t-28.5 -47.5q0 -31 27.5 -45.5t119.5 -33.5q270 -54 270 -275q0 -171 -136 -267q-117 -82 -304 -82q-174 0 -317 77q-41 22 -41 46q0 12 17 45l55 107q15 30 24 38.5
t25 8.5q10 0 70 -32q35 -19 88.5 -32.5t90.5 -13.5q42 0 70.5 21t28.5 52q0 33 -28 50t-112 35q-117 24 -176 63q-96 64 -96 194q0 146 103 239q107 98 309 98q160 0 259 -43q26 -12 26 -35q0 -14 -17 -46z" />
    <glyph glyph-name="t" unicode="t" horiz-adv-x="675" vert-adv-y="2457" 
d="M478 655v-587q0 -45 -11.5 -56.5t-56.5 -11.5h-192q-45 0 -56.5 11.5t-11.5 56.5v587h-40q-45 0 -56.5 11.5t-11.5 56.5v137q0 45 11.5 56.5t56.5 11.5h40v211q0 45 11.5 56.5t56.5 11.5h192q45 0 56.5 -11.5t11.5 -56.5v-211h119q45 0 56.5 -11.5t11.5 -56.5v-137
q0 -45 -11.5 -56.5t-56.5 -11.5h-119z" />
    <glyph glyph-name="u" unicode="u" horiz-adv-x="1212" vert-adv-y="2457" 
d="M440 860v-458q0 -172 167 -172q166 0 166 172v458q0 45 11.5 56.5t56.5 11.5h192q45 0 56.5 -11.5t11.5 -56.5v-521q0 -167 -103 -261q-130 -118 -391 -118q-262 0 -392 118q-103 94 -103 261v521q0 45 11.5 56.5t56.5 11.5h192q45 0 56.5 -11.5t11.5 -56.5z" />
    <glyph glyph-name="v" unicode="v" horiz-adv-x="1181" vert-adv-y="2457" 
d="M591 452l201 428q4 10 7 16q10 22 21 27t47 5h219q38 0 53.5 -8.5t15.5 -29.5q0 -13 -18 -46l-415 -798q-19 -35 -28 -40.5t-49 -5.5h-114q-40 0 -49 5.5t-28 40.5l-411 798q-17 33 -17 46q0 21 15 29.5t53 8.5h221q40 0 49.5 -6t26.5 -42z" />
    <glyph glyph-name="w" unicode="w" horiz-adv-x="1857" vert-adv-y="2457" 
d="M588 439l210 441q16 36 26 42t50 6h99q40 0 49.5 -6t26.5 -43l210 -454l211 455q17 36 26.5 42t49.5 6h216q68 0 68 -36q0 -15 -17 -48l-418 -798q-18 -35 -27 -40.5t-49 -5.5h-114q-40 0 -49.5 6t-26.5 43l-209 460l-200 -459q-16 -37 -26 -43.5t-50 -6.5h-115
q-40 0 -49 5.5t-27 41.5l-410 797q-17 33 -17 46q0 21 15 29.5t53 8.5h218q40 0 49.5 -6t26.5 -43z" />
    <glyph glyph-name="x" unicode="x" horiz-adv-x="1344" vert-adv-y="2457" 
d="M464 504l-299 335q-28 32 -28 49q0 22 15 31t53 9h263q37 0 44.5 -3.5t31.5 -32.5l130 -155l133 156q9 10 12 14q13 15 21.5 18t42.5 3h261q38 0 53 -9t15 -32q0 -16 -29 -48l-304 -335l383 -415q30 -33 30 -48q0 -23 -15 -32t-54 -9h-267q-37 0 -44.5 3.5t-31.5 31.5
l-209 241l-207 -241q-25 -28 -32.5 -31.5t-44.5 -3.5h-266q-39 0 -54 9t-15 32q0 16 30 48z" />
    <glyph glyph-name="y" unicode="y" horiz-adv-x="1246" vert-adv-y="2457" 
d="M448 127l-400 716q-19 33 -19 47q0 21 15 29.5t53 8.5h232q40 0 49 -5.5t27 -40.5l224 -430l218 429q18 36 27 41.5t49 5.5h227q38 0 53 -8.5t15 -29.5q0 -14 -17 -46l-676 -1262q-18 -35 -27.5 -40.5t-48.5 -5.5h-221q-36 0 -47 5q-21 10 -21 33q0 13 18 46z" />
    <glyph glyph-name="z" unicode="z" horiz-adv-x="1067" vert-adv-y="2457" 
d="M591 273h323q45 0 56.5 -11.5t11.5 -56.5v-137q0 -45 -11.5 -56.5t-56.5 -11.5h-769q-37 0 -49 6q-20 10 -20 32q0 15 23 48l380 569h-311q-45 0 -56.5 11.5t-11.5 56.5v137q0 45 11.5 56.5t56.5 11.5h754q69 0 69 -38q0 -15 -22 -48z" />
    <glyph glyph-name="braceleft" unicode="{" horiz-adv-x="785" vert-adv-y="2457" 
d="M417 594q48 -32 70.5 -58.5t36.5 -68.5q16 -53 16 -132v-278q0 -68 5.5 -91.5t24.5 -35.5q23 -15 81 -16q52 -1 52 -49v-132q0 -52 -62 -51q-81 -3 -91 -3q-78 0 -126 15.5t-83 52.5q-63 66 -63 227v342q0 79 -16.5 110.5t-74.5 64.5q-22 12 -22 46v133q0 24 7 33.5
t38 24.5q68 34 68 143v343q0 158 62 226.5t207 68.5q105 0 130.5 -9t25.5 -45v-132q0 -49 -51 -50q-74 -1 -93 -25t-19 -117v-279q0 -103 -25 -155.5t-98 -102.5z" />
    <glyph glyph-name="bar" unicode="|" vert-adv-y="2457" 
d="M367 1365h291q50 0 50 -50v-1606q0 -50 -50 -50h-291q-50 0 -50 50v1606q0 50 50 50z" />
    <glyph glyph-name="braceright" unicode="}" horiz-adv-x="785" vert-adv-y="2457" 
d="M368 594q-48 31 -70.5 58t-36.5 69q-16 52 -16 132v278q0 68 -5.5 91.5t-24.5 35.5q-23 15 -80 16q-52 0 -52 49v132q0 53 62 51q80 3 90 3q78 0 126 -16t83 -53q63 -66 63 -226v-342q0 -79 16.5 -110.5t75.5 -64.5q22 -12 22 -47v-132q0 -25 -7 -34t-39 -25
q-39 -19 -55 -60q-4 -9 -10 -57q-3 -21 -3 -25v-343q0 -159 -62 -227t-207 -68q-104 0 -129.5 9t-25.5 45v132q0 49 51 50q73 0 92 24.5t19 117.5v279q0 103 25 155.5t98 102.5z" />
    <glyph glyph-name="asciitilde" unicode="~" horiz-adv-x="1365" vert-adv-y="2457" 
d="M260 374l-12 7q-42 28 -42 73q0 42 52 121q89 134 237 134q67 0 212 -53q91 -33 118 -40.5t59 -7.5q36 0 59.5 10.5t54.5 41.5q24 24 58 24q22 0 44 -12l10 -6q44 -25 44 -72q0 -45 -56 -118q-95 -125 -243 -125q-53 0 -210 56q-127 46 -165 46q-69 0 -115 -62
q-23 -31 -62 -31q-22 0 -43 14z" />
    <glyph glyph-name="Adieresis" unicode="&#xc4;" horiz-adv-x="1454" vert-adv-y="2457" 
d="M973 238h-490l-73 -187q-15 -37 -25 -44t-51 -7h-233q-38 0 -53 8.5t-15 29.5q0 11 12 43l474 1232q3 8 6 17q9 24 20 29.5t49 5.5h276q41 0 51 -7t24 -45l465 -1232q12 -31 12 -43q0 -21 -15 -29.5t-53 -8.5h-237q-41 0 -51 7t-24 45zM877 508l-147 435l-149 -435h296z
M474 1864q74 0 126 -52t52 -125q0 -74 -52 -126t-125 -52q-75 0 -126.5 52t-51.5 128q0 71 52.5 123t124.5 52zM979 1864q74 0 126 -52t52 -125q0 -74 -52 -126t-125 -52q-75 0 -126.5 52t-51.5 128q0 71 52.5 123t124.5 52z" />
    <glyph glyph-name="Aring" unicode="&#xc5;" horiz-adv-x="1454" vert-adv-y="2457" 
d="M973 238h-490l-73 -187q-15 -37 -25 -44t-51 -7h-233q-38 0 -53 8.5t-15 29.5q0 11 12 43l474 1232q3 8 6 17q9 24 20 29.5t49 5.5h276q41 0 51 -7t24 -45l465 -1232q12 -31 12 -43q0 -21 -15 -29.5t-53 -8.5h-237q-41 0 -51 7t-24 45zM877 508l-147 435l-149 -435h296z
M732 1906q145 0 219 -70q58 -55 58 -143q0 -87 -58 -142q-74 -70 -223 -70q-150 0 -224 70q-58 55 -58 142q0 101 75.5 157t210.5 56zM726 1772q-48 0 -76 -21t-28 -58q0 -35 28.5 -56t77.5 -21t77 21t28 57q0 37 -28.5 57.5t-78.5 20.5z" />
    <glyph glyph-name="Ccedilla" unicode="&#xc7;" horiz-adv-x="1208" vert-adv-y="2457" 
d="M1126 1269v-246q0 -39 -9 -54t-32 -15q-10 0 -25 12q-112 84 -240 84q-164 0 -272 -113q-95 -100 -95 -263q0 -176 120 -277q106 -90 253 -90q143 0 245 84q12 10 25 10q18 0 24 -14t6 -54v-246q0 -32 -3 -42.5t-14 -17.5q-6 -5 -21 -10q-109 -34 -160.5 -44t-115.5 -10
q-192 0 -365 95q-184 101 -278 268q-87 154 -87 345q0 213 106 384q100 162 277 254q162 85 341 85q143 0 287 -57q23 -8 28 -19t5 -49zM866 -289l-184 -180l-13 -13q-18 -18 -36 -18q-11 0 -45 23l-51 36q-27 19 -33.5 27.5t-6.5 22.5t26 46l155 199q20 26 28 31.5t22 5.5
q12 0 45 -23l85 -60q40 -27 40 -49q0 -17 -32 -48z" />
    <glyph glyph-name="Eacute" unicode="&#xc9;" horiz-adv-x="1002" vert-adv-y="2457" 
d="M498 1065v-228h331q45 0 56.5 -11.5t11.5 -56.5v-164q0 -45 -11.5 -56.5t-56.5 -11.5h-331v-237h354q45 0 56.5 -11.5t11.5 -56.5v-164q0 -45 -11.5 -56.5t-56.5 -11.5h-641q-45 0 -56.5 11.5t-11.5 56.5v1229q0 45 11.5 56.5t56.5 11.5h641q45 0 56.5 -11.5t11.5 -56.5
v-164q0 -45 -11.5 -56.5t-56.5 -11.5h-354zM719 1668l-233 -160q-33 -22 -45 -22q-17 0 -48 30l-43 39q-33 31 -33 49q0 17 33 48l197 188q32 30 49 30q16 0 47 -29l83 -75q34 -31 34 -49q0 -22 -41 -49z" />
    <glyph glyph-name="Ntilde" unicode="&#xd1;" horiz-adv-x="1649" vert-adv-y="2457" 
d="M1151 530v767q0 45 11.5 56.5t56.5 11.5h219q45 0 56.5 -11.5t11.5 -56.5v-1229q0 -45 -11.5 -56.5t-56.5 -11.5h-240q-37 0 -45 4t-31 33l-624 799v-768q0 -45 -11.5 -56.5t-56.5 -11.5h-219q-45 0 -56.5 11.5t-11.5 56.5v1229q0 45 11.5 56.5t56.5 11.5h240q37 0 45 -4
t31 -33zM540 1509h-47q-42 0 -55.5 9t-13.5 39q0 80 48 148q31 43 78 69t96 26q53 0 195 -37q105 -27 132 -27q26 0 38.5 8.5t25.5 34.5q7 15 18 19t46 4h49q38 0 53 -9t15 -32q0 -45 -40 -121q-28 -52 -71 -84q-66 -48 -147 -48q-46 0 -155 35q-103 32 -145 32
q-39 0 -54 -40q-7 -17 -18.5 -21.5t-47.5 -4.5z" />
    <glyph glyph-name="Odieresis" unicode="&#xd6;" horiz-adv-x="1675" vert-adv-y="2457" 
d="M837 1406q342 0 559 -229q197 -207 197 -498q0 -200 -99 -369q-106 -182 -293 -277q-162 -82 -370 -82q-337 0 -552 228q-197 208 -197 512q0 191 99 356q111 186 293 277q165 82 363 82zM838 1062q-160 0 -271 -112q-113 -114 -113 -276q0 -153 113 -267
q111 -112 271 -112q159 0 272 112q112 113 112 272q0 161 -112 271q-116 112 -272 112zM585 1864q74 0 126 -52t52 -125q0 -74 -52 -126t-125 -52q-75 0 -126.5 52t-51.5 128q0 71 52.5 123t124.5 52zM1090 1864q74 0 126 -52t52 -125q0 -74 -52 -126t-125 -52
q-75 0 -126.5 52t-51.5 128q0 71 52.5 123t124.5 52z" />
    <glyph glyph-name="Udieresis" unicode="&#xdc;" horiz-adv-x="1477" vert-adv-y="2457" 
d="M498 1297v-671q0 -117 6.5 -159t32.5 -85q61 -104 198 -104q67 0 123.5 30t84.5 81q22 40 29 85t7 152v671q0 45 11.5 56.5t56.5 11.5h219q45 0 56.5 -11.5t11.5 -56.5v-719q0 -196 -52 -301q-79 -160 -236 -242q-135 -70 -316 -70q-206 0 -357 89q-127 74 -178.5 192
t-51.5 332v719q0 45 11.5 56.5t56.5 11.5h219q45 0 56.5 -11.5t11.5 -56.5zM485 1864q74 0 126 -52t52 -125q0 -74 -52 -126t-125 -52q-75 0 -126.5 52.5t-51.5 127.5q0 71 52.5 123t124.5 52zM990 1864q74 0 126 -52t52 -125q0 -74 -52 -126t-125 -52q-75 0 -126.5 52
t-51.5 128q0 71 52.5 123t124.5 52z" />
    <glyph glyph-name="aacute" unicode="&#xe1;" horiz-adv-x="1270" vert-adv-y="2457" 
d="M830 103q-105 -133 -286 -133q-117 0 -223 59q-118 66 -183 181q-63 112 -63 256q0 237 165 379q131 113 301 113q90 0 159.5 -29t129.5 -92v23q0 45 12 56.5t57 11.5h191q45 0 56.5 -11.5t11.5 -56.5v-792q0 -45 -11.5 -56.5t-56.5 -11.5h-191q-45 0 -57 11.5t-12 56.5
v35zM628 675q-88 0 -150 -62t-62 -151q0 -84 62 -147q61 -62 150 -62q88 0 150 62t62 149q0 89 -62 149q-64 62 -150 62zM808 1292l-211 -187q-32 -28 -48 -28q-13 0 -46 24l-47 34q-38 28 -38 50q0 14 26 46l173 211q3 4 11 15q18 22 39 22q12 0 45 -24l91 -65
q39 -28 39 -50q0 -18 -34 -48z" />
    <glyph glyph-name="agrave" unicode="&#xe0;" horiz-adv-x="1270" vert-adv-y="2457" 
d="M830 103q-105 -133 -286 -133q-117 0 -223 59q-118 66 -183 181q-63 112 -63 256q0 237 165 379q131 113 301 113q90 0 159.5 -29t129.5 -92v23q0 45 12 56.5t57 11.5h191q45 0 56.5 -11.5t11.5 -56.5v-792q0 -45 -11.5 -56.5t-56.5 -11.5h-191q-45 0 -57 11.5t-12 56.5
v35zM628 675q-88 0 -150 -62t-62 -151q0 -84 62 -147q61 -62 150 -62q88 0 150 62t62 149q0 89 -62 149q-64 62 -150 62zM342 1390l91 65q33 24 45 24q14 0 21.5 -5.5t28.5 -31.5l173 -211q26 -32 26 -46t-6.5 -23t-31.5 -27l-47 -34q-33 -24 -47 -24q-15 0 -47 28l-211 187
q-34 30 -34 49q0 21 39 49z" />
    <glyph glyph-name="acircumflex" unicode="&#xe2;" horiz-adv-x="1270" vert-adv-y="2457" 
d="M830 103q-105 -133 -286 -133q-117 0 -223 59q-118 66 -183 181q-63 112 -63 256q0 237 165 379q131 113 301 113q90 0 159.5 -29t129.5 -92v23q0 45 12 56.5t57 11.5h191q45 0 56.5 -11.5t11.5 -56.5v-792q0 -45 -11.5 -56.5t-56.5 -11.5h-191q-45 0 -57 11.5t-12 56.5
v35zM628 675q-88 0 -150 -62t-62 -151q0 -84 62 -147q61 -62 150 -62q88 0 150 62t62 149q0 89 -62 149q-64 62 -150 62zM632 1267l-209 -162q-33 -25 -46 -25q-20 0 -50 34l-48 56q-29 32 -29 47q0 14 6 22t33 27l296 223q33 25 47 25q13 0 46 -24l302 -223q38 -29 38 -50
q0 -15 -29 -47l-52 -57q-9 -9 -12 -14q-19 -20 -37 -20q-13 0 -47 26z" />
    <glyph glyph-name="adieresis" unicode="&#xe4;" horiz-adv-x="1270" vert-adv-y="2457" 
d="M830 103q-105 -133 -286 -133q-117 0 -223 59q-118 66 -183 181q-63 112 -63 256q0 237 165 379q131 113 301 113q90 0 159.5 -29t129.5 -92v23q0 45 12 56.5t57 11.5h191q45 0 56.5 -11.5t11.5 -56.5v-792q0 -45 -11.5 -56.5t-56.5 -11.5h-191q-45 0 -57 11.5t-12 56.5
v35zM628 675q-88 0 -150 -62t-62 -151q0 -84 62 -147q61 -62 150 -62q88 0 150 62t62 149q0 89 -62 149q-64 62 -150 62zM402 1427q74 0 126 -52t52 -125q0 -74 -52 -126t-125 -52q-75 0 -126.5 52.5t-51.5 127.5q0 72 52.5 123.5t124.5 51.5zM866 1427q74 0 126 -52
t52 -125q0 -74 -52 -126t-125 -52q-75 0 -126.5 52.5t-51.5 127.5q0 72 52.5 123.5t124.5 51.5z" />
    <glyph glyph-name="atilde" unicode="&#xe3;" horiz-adv-x="1270" vert-adv-y="2457" 
d="M830 103q-105 -133 -286 -133q-117 0 -223 59q-118 66 -183 181q-63 112 -63 256q0 237 165 379q131 113 301 113q90 0 159.5 -29t129.5 -92v23q0 45 12 56.5t57 11.5h191q45 0 56.5 -11.5t11.5 -56.5v-792q0 -45 -11.5 -56.5t-56.5 -11.5h-191q-45 0 -57 11.5t-12 56.5
v35zM628 675q-88 0 -150 -62t-62 -151q0 -84 62 -147q61 -62 150 -62q88 0 150 62t62 149q0 89 -62 149q-64 62 -150 62zM371 1072h-31q-45 0 -57 12t-12 36q0 76 44 147q26 43 70 69t88 26q46 0 177 -35q98 -27 120 -27q39 0 57 41q7 15 18.5 19.5t46.5 4.5h33q38 0 53 -9
t15 -32q0 -45 -36 -120q-26 -54 -65 -85q-60 -48 -134 -48q-42 0 -141 34q-93 32 -132 32q-35 0 -49 -39q-6 -17 -18 -21.5t-47 -4.5z" />
    <glyph glyph-name="aring" unicode="&#xe5;" horiz-adv-x="1270" vert-adv-y="2457" 
d="M830 103q-105 -133 -286 -133q-117 0 -223 59q-118 66 -183 181q-63 112 -63 256q0 237 165 379q131 113 301 113q90 0 159.5 -29t129.5 -92v23q0 45 12 56.5t57 11.5h191q45 0 56.5 -11.5t11.5 -56.5v-792q0 -45 -11.5 -56.5t-56.5 -11.5h-191q-45 0 -57 11.5t-12 56.5
v35zM628 675q-88 0 -150 -62t-62 -151q0 -84 62 -147q61 -62 150 -62q88 0 150 62t62 149q0 89 -62 149q-64 62 -150 62zM593 1496q145 0 219 -70q58 -55 58 -143q0 -87 -58 -142q-74 -70 -223 -70t-223 70q-58 55 -58 142q0 101 75.5 157t209.5 56zM588 1366
q-51 0 -79.5 -22.5t-28.5 -61.5q0 -37 29.5 -59t79.5 -22q51 0 80 22t29 61q0 38 -29.5 60t-80.5 22z" />
    <glyph glyph-name="ccedilla" unicode="&#xe7;" horiz-adv-x="887" vert-adv-y="2457" 
d="M812 852v-127q0 -37 -5 -48q-10 -21 -33 -21q-9 0 -24 6q-60 24 -107 24q-107 0 -173 -73q-54 -60 -54 -152q0 -100 66 -161q67 -62 160 -62q52 0 107 22q17 6 25 6q38 0 38 -68v-123q0 -32 -2.5 -41t-11.5 -17q-23 -18 -90.5 -33t-124.5 -15q-145 0 -271 75
q-237 140 -237 412q0 230 166 375q143 126 350 126q61 0 123 -14t84 -33q14 -11 14 -58zM681 -279l-178 -170q-7 -5 -14 -12q-18 -18 -35 -18q-11 0 -44 21l-36 23q-28 17 -35 25.5t-7 24.5q0 13 27 46l152 186q29 36 50 36q11 0 44 -21l67 -43q28 -18 35 -26.5t7 -23.5
q0 -17 -33 -48z" />
    <glyph glyph-name="eacute" unicode="&#xe9;" horiz-adv-x="1172" vert-adv-y="2457" 
d="M406 404q3 -209 199 -209q55 0 89.5 16t60.5 54q8 12 17.5 15t43.5 3h180q38 0 53 -8.5t15 -30.5t-19 -60t-44 -66q-139 -155 -395 -155t-402 150q-129 133 -129 344q0 150 70 273q127 224 445 224q282 0 413 -187q94 -133 94 -308q0 -35 -13 -45t-56 -10h-622zM791 594
q-17 69 -67.5 108.5t-123.5 39.5q-75 0 -123.5 -39t-61.5 -109h376zM842 1292l-210 -187q-32 -28 -48 -28q-13 0 -46 24l-47 34q-27 19 -33 27t-6 23q0 14 27 46l173 211q2 4 11 15q18 22 39 22q12 0 45 -24l90 -65q40 -28 40 -50q0 -17 -35 -48z" />
    <glyph glyph-name="egrave" unicode="&#xe8;" horiz-adv-x="1172" vert-adv-y="2457" 
d="M406 404q3 -209 199 -209q55 0 89.5 16t60.5 54q8 12 17.5 15t43.5 3h180q38 0 53 -8.5t15 -30.5t-19 -60t-44 -66q-139 -155 -395 -155t-402 150q-129 133 -129 344q0 150 70 273q127 224 445 224q282 0 413 -187q94 -133 94 -308q0 -35 -13 -45t-56 -10h-622zM791 594
q-17 69 -67.5 108.5t-123.5 39.5q-75 0 -123.5 -39t-61.5 -109h376zM334 1390l91 65q33 24 45 24q14 0 21.5 -5.5t28.5 -31.5l173 -211q26 -32 26 -46q0 -22 -38 -50l-47 -34q-33 -24 -47 -24q-16 0 -47 28l-211 187q-34 30 -34 49q0 21 39 49z" />
    <glyph glyph-name="ecircumflex" unicode="&#xea;" horiz-adv-x="1172" vert-adv-y="2457" 
d="M406 404q3 -209 199 -209q55 0 89.5 16t60.5 54q8 12 17.5 15t43.5 3h180q38 0 53 -8.5t15 -30.5t-19 -60t-44 -66q-139 -155 -395 -155t-402 150q-129 133 -129 344q0 150 70 273q127 224 445 224q282 0 413 -187q94 -133 94 -308q0 -35 -13 -45t-56 -10h-622zM791 594
q-17 69 -67.5 108.5t-123.5 39.5q-75 0 -123.5 -39t-61.5 -109h376zM591 1267l-209 -162q-33 -25 -46 -25q-19 0 -50 34l-48 56q-28 31 -28 47q0 21 38 49l297 223q32 25 46 25q13 0 46 -24l302 -223q38 -29 38 -50q0 -16 -29 -47l-52 -57q-8 -9 -12 -14q-19 -20 -37 -20
q-13 0 -46 26z" />
    <glyph glyph-name="edieresis" unicode="&#xeb;" horiz-adv-x="1172" vert-adv-y="2457" 
d="M406 404q3 -209 199 -209q55 0 89.5 16t60.5 54q8 12 17.5 15t43.5 3h180q38 0 53 -8.5t15 -30.5t-19 -60t-44 -66q-139 -155 -395 -155t-402 150q-129 133 -129 344q0 150 70 273q127 224 445 224q282 0 413 -187q94 -133 94 -308q0 -35 -13 -45t-56 -10h-622zM791 594
q-17 69 -67.5 108.5t-123.5 39.5q-75 0 -123.5 -39t-61.5 -109h376zM380 1427q74 0 126 -52t52 -125q0 -74 -52 -126t-125 -52q-75 0 -126.5 52.5t-51.5 127.5q0 72 52.5 123.5t124.5 51.5zM844 1427q74 0 126 -52t52 -125q0 -74 -52 -126t-125 -52q-75 0 -126.5 52.5
t-51.5 127.5q0 72 52.5 123.5t124.5 51.5z" />
    <glyph glyph-name="iacute" unicode="&#xed;" horiz-adv-x="552" vert-adv-y="2457" 
d="M440 860v-792q0 -45 -11.5 -56.5t-56.5 -11.5h-192q-45 0 -56.5 11.5t-11.5 56.5v792q0 45 11.5 56.5t56.5 11.5h192q45 0 56.5 -11.5t11.5 -56.5zM533 1292l-211 -187q-32 -28 -48 -28q-13 0 -46 24l-47 34q-26 19 -32.5 27t-6.5 23q0 14 27 46l173 211q2 4 11 15
q18 22 39 22q12 0 45 -24l90 -65q40 -28 40 -50q0 -17 -34 -48z" />
    <glyph glyph-name="igrave" unicode="&#xec;" horiz-adv-x="552" vert-adv-y="2457" 
d="M440 860v-792q0 -45 -11.5 -56.5t-56.5 -11.5h-192q-45 0 -56.5 11.5t-11.5 56.5v792q0 45 11.5 56.5t56.5 11.5h192q45 0 56.5 -11.5t11.5 -56.5zM24 1390l91 65q33 24 45 24q14 0 22 -6t28 -31l173 -211q26 -33 26 -46q0 -15 -6.5 -23t-32.5 -27l-46 -34
q-33 -24 -47 -24q-15 0 -47 28l-211 187q-34 30 -34 49q0 21 39 49z" />
    <glyph glyph-name="icircumflex" unicode="&#xee;" horiz-adv-x="552" vert-adv-y="2457" 
d="M440 860v-792q0 -44 -12 -56t-56 -12h-192q-45 0 -56.5 11.5t-11.5 56.5v792q0 45 11.5 56.5t56.5 11.5h192q45 0 56.5 -11.5t11.5 -56.5zM272 1267l-143 -150q-30 -32 -48 -32q-19 0 -49 34l-47 54q-28 32 -28 47q0 19 34 49l234 212q32 29 48 29q15 0 47 -28l239 -213
q34 -30 34 -49q0 -16 -29 -47l-51 -56q-30 -33 -48 -33t-49 32z" />
    <glyph glyph-name="idieresis" unicode="&#xef;" horiz-adv-x="552" vert-adv-y="2457" 
d="M440 860v-792q0 -45 -11.5 -56.5t-56.5 -11.5h-192q-45 0 -56.5 11.5t-11.5 56.5v792q0 45 11.5 56.5t56.5 11.5h192q45 0 56.5 -11.5t11.5 -56.5zM64 1427q74 0 126 -52t52 -125q0 -74 -52 -126t-125 -52q-75 0 -126.5 52.5t-51.5 127.5q0 72 52.5 123.5t124.5 51.5z
M487 1427q74 0 126 -52t52 -125q0 -74 -52 -126t-125 -52q-75 0 -126.5 52.5t-51.5 127.5q0 72 52.5 123.5t124.5 51.5z" />
    <glyph glyph-name="ntilde" unicode="&#xf1;" horiz-adv-x="1203" vert-adv-y="2457" 
d="M440 811q57 66 105 93q78 44 192 44q170 0 268 -102q48 -49 67 -105t19 -150v-523q0 -45 -11.5 -56.5t-56.5 -11.5h-192q-45 0 -56.5 11.5t-11.5 56.5v402q0 107 -20 145q-16 33 -52.5 52.5t-78.5 19.5q-86 0 -137 -62q-35 -43 -35 -128v-429q0 -45 -11.5 -56.5
t-56.5 -11.5h-192q-45 0 -56.5 11.5t-11.5 56.5v792q0 45 11.5 56.5t56.5 11.5h192q45 0 56.5 -11.5t11.5 -56.5v-49zM337 1072h-31q-44 0 -56 12t-12 36q0 76 44 147q26 43 70 69t88 26q46 0 176 -35q98 -27 121 -27q39 0 57 41q7 15 18.5 19.5t46.5 4.5h32q38 0 53 -9
t15 -32q0 -45 -36 -120q-26 -54 -65 -85q-60 -48 -134 -48q-41 0 -140 34q-94 32 -132 32q-35 0 -49 -39q-6 -17 -18 -21.5t-48 -4.5z" />
    <glyph glyph-name="oacute" unicode="&#xf3;" horiz-adv-x="1267" vert-adv-y="2457" 
d="M633 962q276 0 431 -168q128 -138 128 -330q0 -226 -168 -370q-150 -129 -396 -129q-156 0 -292 67q-127 63 -199 192q-62 109 -62 248q0 215 168 361q84 72 208 105q92 24 182 24zM634 679q-89 0 -150 -62q-62 -63 -62 -153q0 -86 62 -149q61 -62 149 -62t150 62
q62 63 62 151q0 90 -62 151q-63 62 -149 62zM890 1292l-211 -187q-31 -28 -47 -28q-13 0 -47 24l-46 34q-26 19 -32.5 27.5t-6.5 22.5t27 46l172 211q3 4 12 15q18 22 38 22q12 0 45 -24l91 -65q39 -28 39 -50q0 -18 -34 -48z" />
    <glyph glyph-name="ograve" unicode="&#xf2;" horiz-adv-x="1267" vert-adv-y="2457" 
d="M633 962q276 0 431 -168q128 -138 128 -330q0 -226 -168 -370q-150 -129 -396 -129q-156 0 -292 67q-127 63 -199 192q-62 109 -62 248q0 215 168 361q84 72 208 105q92 24 182 24zM634 679q-89 0 -150 -62q-62 -63 -62 -153q0 -86 62 -149q61 -62 149 -62t150 62
q62 63 62 151q0 90 -62 151q-63 62 -149 62zM382 1390l91 65q32 24 45 24q14 0 21.5 -5.5t28.5 -31.5l172 -211q27 -32 27 -46t-6.5 -22.5t-32.5 -27.5l-47 -34q-33 -24 -46 -24q-16 0 -48 28l-210 187q-35 31 -35 49q0 21 40 49z" />
    <glyph glyph-name="ocircumflex" unicode="&#xf4;" horiz-adv-x="1267" vert-adv-y="2457" 
d="M633 962q276 0 431 -168q128 -138 128 -330q0 -226 -168 -370q-150 -129 -396 -129q-156 0 -292 67q-127 63 -199 192q-62 109 -62 248q0 215 168 361q84 72 208 105q92 24 182 24zM634 679q-89 0 -150 -62q-62 -63 -62 -153q0 -86 62 -149q61 -62 149 -62t150 62
q62 63 62 151q0 90 -62 151q-63 62 -149 62zM630 1267l-209 -162q-33 -25 -46 -25q-19 0 -49 34l-49 56q-28 32 -28 47q0 14 6 22t32 27l297 223q33 25 47 25q13 0 46 -24l301 -223q39 -29 39 -50q0 -15 -30 -47l-52 -57q-8 -9 -12 -14q-18 -20 -37 -20q-13 0 -46 26z" />
    <glyph glyph-name="odieresis" unicode="&#xf6;" horiz-adv-x="1267" vert-adv-y="2457" 
d="M633 962q276 0 431 -168q128 -138 128 -330q0 -226 -168 -370q-150 -129 -396 -129q-156 0 -292 67q-127 63 -199 192q-62 109 -62 248q0 215 168 361q84 72 208 105q92 24 182 24zM634 679q-89 0 -150 -62q-62 -63 -62 -153q0 -86 62 -149q61 -62 149 -62t150 62
q62 63 62 151q0 90 -62 151q-63 62 -149 62zM401 1427q74 0 126 -52t52 -125q0 -74 -52 -126t-125 -52q-75 0 -126.5 52.5t-51.5 127.5q0 72 52.5 123.5t124.5 51.5zM865 1427q74 0 126 -52t52 -125q0 -74 -52 -126t-125 -52q-75 0 -126.5 52.5t-51.5 127.5q0 72 52.5 123.5
t124.5 51.5z" />
    <glyph glyph-name="otilde" unicode="&#xf5;" horiz-adv-x="1267" vert-adv-y="2457" 
d="M633 962q276 0 431 -168q128 -138 128 -330q0 -226 -168 -370q-150 -129 -396 -129q-156 0 -292 67q-127 63 -199 192q-62 109 -62 248q0 215 168 361q84 72 208 105q92 24 182 24zM634 679q-89 0 -150 -62q-62 -63 -62 -153q0 -86 62 -149q61 -62 149 -62t150 62
q62 63 62 151q0 90 -62 151q-63 62 -149 62zM369 1072h-31q-44 0 -56 12t-12 36q0 76 44 147q26 43 70 69t88 26q46 0 176 -35q98 -27 121 -27q39 0 57 41q7 15 18.5 19.5t46.5 4.5h32q38 0 53 -9t15 -32q0 -45 -36 -120q-26 -54 -65 -85q-60 -48 -134 -48q-41 0 -140 34
q-94 32 -132 32q-35 0 -49 -39q-6 -17 -18 -21.5t-48 -4.5z" />
    <glyph glyph-name="uacute" unicode="&#xfa;" horiz-adv-x="1212" vert-adv-y="2457" 
d="M440 860v-458q0 -172 167 -172q166 0 166 172v458q0 45 11.5 56.5t56.5 11.5h192q45 0 56.5 -11.5t11.5 -56.5v-521q0 -167 -103 -261q-130 -118 -391 -118q-262 0 -392 118q-103 94 -103 261v521q0 45 11.5 56.5t56.5 11.5h192q45 0 56.5 -11.5t11.5 -56.5zM863 1292
l-211 -187q-31 -28 -48 -28q-13 0 -46 24l-47 34q-25 19 -31.5 27.5t-6.5 22.5t26 46l173 211q3 4 12 15q18 22 38 22q12 0 45 -24l91 -65q39 -28 39 -50q0 -18 -34 -48z" />
    <glyph glyph-name="ugrave" unicode="&#xf9;" horiz-adv-x="1212" vert-adv-y="2457" 
d="M440 860v-458q0 -172 167 -172q166 0 166 172v458q0 45 11.5 56.5t56.5 11.5h192q45 0 56.5 -11.5t11.5 -56.5v-521q0 -167 -103 -261q-130 -118 -391 -118q-262 0 -392 118q-103 94 -103 261v521q0 45 11.5 56.5t56.5 11.5h192q45 0 56.5 -11.5t11.5 -56.5zM355 1390
l90 65q33 24 46 24t21 -5.5t28 -31.5l173 -211q27 -32 27 -46t-6.5 -22.5t-32.5 -27.5l-47 -34q-33 -24 -46 -24q-16 0 -48 28l-210 187q-35 31 -35 49q0 21 40 49z" />
    <glyph glyph-name="ucircumflex" unicode="&#xfb;" horiz-adv-x="1212" vert-adv-y="2457" 
d="M440 860v-458q0 -172 167 -172q166 0 166 172v458q0 45 11.5 56.5t56.5 11.5h192q45 0 56.5 -11.5t11.5 -56.5v-521q0 -167 -103 -261q-130 -118 -391 -118q-262 0 -392 118q-103 94 -103 261v521q0 45 11.5 56.5t56.5 11.5h192q45 0 56.5 -11.5t11.5 -56.5zM603 1267
l-209 -162q-33 -25 -46 -25q-19 0 -49 34l-49 56q-28 32 -28 47q0 21 38 49l297 223q32 25 47 25q12 0 46 -24l301 -223q39 -29 39 -50q0 -15 -30 -47l-52 -57q-8 -9 -12 -14q-18 -20 -37 -20q-13 0 -46 26z" />
    <glyph glyph-name="udieresis" unicode="&#xfc;" horiz-adv-x="1212" vert-adv-y="2457" 
d="M440 860v-458q0 -172 167 -172q166 0 166 172v458q0 45 11.5 56.5t56.5 11.5h192q45 0 56.5 -11.5t11.5 -56.5v-521q0 -167 -103 -261q-130 -118 -391 -118q-262 0 -392 118q-103 94 -103 261v521q0 45 11.5 56.5t56.5 11.5h192q45 0 56.5 -11.5t11.5 -56.5zM374 1427
q74 0 126 -52t52 -125q0 -74 -52 -126t-125 -52q-75 0 -126.5 52.5t-51.5 127.5q0 72 52.5 123.5t124.5 51.5zM838 1427q74 0 126 -52t52 -125q0 -74 -52 -126t-125 -52q-75 0 -126.5 52.5t-51.5 127.5q0 72 52.5 123.5t124.5 51.5z" />
    <glyph glyph-name="dagger" unicode="&#x2020;" horiz-adv-x="1229" vert-adv-y="2457" 
d="M763 1197h272q50 0 50 -50v-159q0 -50 -50 -50h-272v-1202q0 -50 -50 -50h-200q-50 0 -50 50v1202h-269q-50 0 -50 50v159q0 50 50 50h269v255q0 50 50 50h200q50 0 50 -50v-255z" />
    <glyph glyph-name="degree" unicode="&#xb0;" horiz-adv-x="1229" vert-adv-y="2457" 
d="M614 1385q113 0 193 -80t80 -193t-80 -193t-193 -80q-114 0 -193 80q-80 81 -80 197q0 110 80 189q81 80 193 80zM614 1243q-55 0 -93 -38.5t-38 -93.5q0 -53 38.5 -91t92.5 -38t92 38t38 92q0 55 -38 93t-92 38z" />
    <glyph glyph-name="cent" unicode="&#xa2;" horiz-adv-x="1229" vert-adv-y="2457" 
d="M873 1165q76 -17 91 -29t15 -59v-135q0 -71 -29 -69q-8 0 -20 7q-52 28 -111 28q-103 0 -167 -67q-60 -63 -60 -157q0 -107 76 -169q63 -51 161 -51q32 0 46.5 4.5t51.5 26.5q12 6 23 6q17 0 23 -14.5t6 -54.5v-136q0 -45 -13 -57q-18 -18 -93 -28v-124
q0 -45 -11.5 -56.5t-56.5 -11.5h-31q-45 0 -56.5 11.5t-11.5 56.5v111q-184 11 -316 143q-142 142 -142 344q0 195 124 331q120 132 334 161v99q0 45 11.5 57t56.5 12h31q45 0 56.5 -12t11.5 -57v-111z" />
    <glyph glyph-name="sterling" unicode="&#xa3;" horiz-adv-x="1229" vert-adv-y="2457" 
d="M212 698q-53 95 -53 215q0 186 122 321q79 88 180 121q107 35 239 35q237 0 352 -106q105 -96 130 -284q6 -41 6 -73q0 -31 -13 -40.5t-56 -9.5h-217q-44 0 -53 10t-13 61q-3 52 -25 87q-48 77 -139 77q-75 0 -122.5 -54t-47.5 -140q0 -59 10.5 -97.5t47.5 -122.5h239
q45 0 56.5 -11.5t11.5 -56.5v-37q0 -45 -11.5 -56.5t-56.5 -11.5h-188q9 -65 9 -114q0 -52 -17 -111q159 -47 203 -57.5t86 -10.5q66 0 84 53q8 25 18.5 30.5t49.5 5.5h83q40 0 54 -8.5t14 -33.5q0 -53 -30 -118q-40 -88 -99 -132q-78 -58 -203 -58q-46 0 -87 8.5t-156 42.5
q-154 45 -229 45q-78 0 -103 -46q-8 -14 -18.5 -17.5t-44.5 -3.5h-101q-39 0 -53.5 8.5t-14.5 31.5q0 29 23.5 78.5t55.5 88.5q90 109 217 114q18 37 18 68q0 67 -37 136h-202q-45 0 -56.5 11.5t-11.5 56.5v37q0 45 11.5 56.5t56.5 11.5h81z" />
    <glyph glyph-name="section" unicode="&#xa7;" horiz-adv-x="1229" vert-adv-y="2457" 
d="M956 1133h-150q-39 0 -51.5 7t-16.5 31q-22 114 -119 114q-48 0 -81.5 -31.5t-33.5 -75.5q0 -47 39.5 -78t165.5 -83q117 -48 169 -77.5t94 -71.5q96 -96 96 -237q0 -104 -52 -198q-11 -20 -30.5 -37t-122.5 -98l-4 -6q-2 -2 85 -67q28 -20 49 -79t21 -115
q0 -141 -100 -242q-114 -116 -304 -116q-154 0 -260 77q-101 74 -135 216q-9 41 -9 66q0 24 14 33t54 9h154q38 0 51.5 -7.5t16.5 -30.5q8 -44 11 -54t16 -26q37 -46 98 -46q53 0 89.5 35.5t36.5 87.5q0 65 -53 103q-41 29 -154 66q-112 37 -166 65t-97 71q-101 99 -101 260
q0 112 46.5 190.5t142.5 129.5l9 5q1 0 1 1t-2 3q-74 60 -89.5 76.5t-30.5 53.5q-25 63 -25 127q0 139 95 231q104 101 287 101q90 0 172 -26.5t135 -72.5q107 -92 107 -236q0 -29 -13.5 -38.5t-54.5 -9.5zM618 754q-60 0 -103.5 -44t-43.5 -105t44 -105t105 -44
q62 0 105.5 43.5t43.5 105.5t-43.5 105.5t-107.5 43.5z" />
    <glyph glyph-name="bullet" unicode="&#x2022;" horiz-adv-x="1365" vert-adv-y="2457" 
d="M687 982q112 0 194 -83q83 -84 83 -203q0 -118 -82 -202q-83 -84 -199 -84t-198 83q-84 84 -84 203q0 121 84 203q84 83 202 83z" />
    <glyph glyph-name="paragraph" unicode="&#xb6;" horiz-adv-x="1229" vert-adv-y="2457" 
d="M379 -188v845h-26q-65 0 -131.5 21.5t-112.5 57.5q-119 93 -119 269q0 118 57 204q70 105 218 137q90 19 197 19h683v-202h-150v-1351h-223v1351h-170v-1351h-223z" />
    <glyph glyph-name="germandbls" unicode="&#xdf;" horiz-adv-x="1217" vert-adv-y="2457" 
d="M872 841q108 -51 158 -95q112 -101 112 -295q0 -155 -76 -279q-122 -200 -472 -200q-36 0 -46.5 12.5t-10.5 56.5v144q0 41 9.5 54t42.5 15q80 4 136 66.5t56 148.5q0 92 -53 150t-151 73q-25 4 -32.5 16.5t-7.5 51.5v134q0 38 7 51t29 17q58 11 77.5 18.5t32.5 23.5
q34 41 34 104q0 64 -37 101.5t-100 37.5q-99 0 -126 -77q-10 -31 -12 -53.5t-2 -125.5v-923q0 -45 -11.5 -56.5t-56.5 -11.5h-192q-45 0 -56.5 11.5t-11.5 56.5v1027q0 218 120 323q126 111 348 111q220 0 342 -120q111 -110 111 -287q0 -86 -37 -150.5t-124 -130.5z" />
    <glyph glyph-name="registered" unicode="&#xae;" horiz-adv-x="1556" vert-adv-y="2457" 
d="M894 603l270 -330h-265q-29 0 -41.5 6.5t-29.5 30.5l-163 237v-224q0 -50 -50 -50h-147q-50 0 -50 50v719q0 50 50 50h306q142 0 216 -74q77 -76 77 -184q0 -88 -44 -146.5t-129 -84.5zM665 737h28q57 0 86 19q35 24 35 66q0 40 -32 62t-89 22h-28v-169zM789 1396
q191 0 361 -105q170 -106 260 -284q78 -154 78 -325q0 -201 -104 -372t-281 -262q-152 -79 -323 -79q-199 0 -369 103q-172 105 -264 285q-79 154 -79 325q0 203 105 375q103 170 286 262q151 77 330 77zM773 1268q-152 0 -289 -85q-139 -86 -212 -233q-62 -126 -62 -267
q0 -245 169 -416q167 -170 400 -170q160 0 298 87q135 87 208 234q61 124 61 263q0 166 -84 308q-81 139 -224 215q-120 64 -265 64z" />
    <glyph glyph-name="copyright" unicode="&#xa9;" horiz-adv-x="1556" vert-adv-y="2457" 
d="M1027 773q-35 40 -43 48q-64 61 -159 61q-86 0 -143 -55q-59 -55 -59 -150q0 -85 53 -138q61 -60 149 -60q87 0 154 56q9 7 48 45v-243q0 -38 -26 -50q-3 -2 -41 -12q-85 -23 -140 -23q-120 0 -227 57q-114 60 -173 161q-54 92 -54 208q0 126 66 228q62 97 172 153
q101 50 212 50q43 0 104.5 -12t83.5 -25q23 -13 23 -50v-249zM789 1396q191 0 361 -105q170 -106 260 -284q78 -154 78 -325q0 -201 -104 -372t-281 -262q-152 -79 -323 -79q-199 0 -369 103q-172 105 -264 285q-79 154 -79 325q0 203 105 375q103 170 286 262
q151 77 330 77zM773 1268q-152 0 -289 -85q-139 -86 -212 -233q-62 -126 -62 -267q0 -245 169 -416q167 -170 400 -170q160 0 298 87q135 87 208 234q61 124 61 263q0 166 -84 308q-81 139 -224 215q-120 64 -265 64z" />
    <glyph glyph-name="trademark" unicode="&#x2122;" horiz-adv-x="1590" vert-adv-y="2457" 
d="M375 1183v-546q0 -50 -50 -50h-112q-50 0 -50 50v546h-112q-50 0 -50 50v82q0 50 50 50h439q50 0 50 -50v-82q0 -50 -50 -50h-115zM1068 966l141 359q15 41 59 40h122q46 0 53 -45l101 -682q1 -8 1 -15q0 -36 -45 -36h-115q-46 0 -52 46l-47 376l-158 -383
q-17 -39 -54 -39h-19q-36 0 -52 40l-151 382l-55 -377q-6 -45 -52 -45h-114q-44 0 -44 35q0 8 1 16l114 683q8 44 53 44h122q43 1 57 -40z" />
    <glyph glyph-name="acute" unicode="&#xb4;" vert-adv-y="2457" 
d="M769 1292l-211 -187q-32 -28 -48 -28q-14 0 -46 24l-46 34q-26 19 -32.5 27.5t-6.5 22.5t26 46l173 211q20 25 28 31t22 6q12 0 45 -24l91 -65q39 -28 39 -50q0 -18 -34 -48z" />
    <glyph glyph-name="dieresis" unicode="&#xa8;" vert-adv-y="2457" 
d="M280 1427q74 0 126 -52t52 -125q0 -74 -52 -126t-125 -52q-75 0 -126.5 52.5t-51.5 127.5q0 72 52.5 123.5t124.5 51.5zM744 1427q74 0 126 -51.5t52 -125.5t-52 -126t-125 -52q-75 0 -126.5 52.5t-51.5 127.5q0 72 52.5 123.5t124.5 51.5z" />
    <glyph glyph-name="notequal" unicode="&#x2260;" vert-adv-y="2457" 
d="M514 1021l124 229q16 29 40 29q11 0 28 -10l149 -84q29 -16 29 -40q0 -10 -11 -28l-55 -96h87q51 0 51 -50v-223q0 -50 -51 -50h-218l-76 -135h293q50 0 50 -50v-223q0 -50 -50 -50h-411l-99 -177q-16 -29 -40 -29q-10 0 -28 10l-149 84q-28 16 -28 39q0 11 11 29l28 44
h-70q-50 0 -50 50v223q0 50 50 50h188l78 135h-265q-50 0 -50 50v223q0 50 50 50h395z" />
    <glyph glyph-name="AE" unicode="&#xc6;" horiz-adv-x="1892" vert-adv-y="2457" 
d="M966 240h-493l-66 -187q-3 -8 -6 -17q-8 -24 -19.5 -30t-49.5 -6h-231q-38 0 -53 8.5t-15 29.5q0 11 12 43l475 1232q15 38 25 45t51 7h724q41 0 51 -7t24 -45l61 -167q12 -32 12 -43q0 -21 -15 -29.5t-53 -8.5h-363l84 -228h392q41 0 51 -7t24 -45l64 -167
q12 -32 12 -43q0 -22 -15 -30t-53 -8h-364l89 -237h392q41 0 51 -7t24 -45l61 -167q11 -30 11 -43q0 -22 -14.5 -30t-52.5 -8h-682q-41 0 -51 7t-24 45zM872 509l-148 405l-153 -405h301z" />
    <glyph glyph-name="Oslash" unicode="&#xd8;" horiz-adv-x="1725" vert-adv-y="2457" 
d="M1478 1117q144 -211 144 -434q0 -205 -100 -374q-106 -181 -294 -276q-163 -82 -359 -82q-255 0 -474 148l-122 -116q-31 -29 -48 -29q-18 0 -49 32l-47 50q-30 32 -30 48q0 17 32 48l119 114q-60 89 -90 160q-51 124 -51 264q0 184 81 343q99 192 281 295q171 97 390 97
q146 0 261.5 -35.5t208.5 -109.5l124 119q31 31 48 31t48 -33l46 -49q30 -31 30 -48t-32 -48zM1054 1007q-84 54 -193 54q-172 0 -285 -133q-95 -110 -95 -244q0 -102 45 -181zM663 345q113 -50 197 -50q172 0 288 123q102 108 102 254q0 86 -48 190z" />
    <glyph glyph-name="infinity" unicode="&#x221e;" horiz-adv-x="1365" vert-adv-y="2457" 
d="M689 532q-147 -168 -323 -168q-156 0 -253 108q-78 88 -78 223q0 161 111 253q93 78 219 78q169 0 313 -167q137 167 321 167q168 0 264 -121q68 -85 68 -209q0 -157 -105 -250q-94 -82 -223 -82q-177 0 -314 168zM807 695q76 -106 155 -106q47 0 79 31t32 75t-32.5 75
t-79.5 31q-79 0 -154 -106zM559 695q-76 105 -155 105q-47 0 -79 -30.5t-32 -75.5q0 -44 32.5 -74.5t79.5 -30.5q79 0 154 106z" />
    <glyph glyph-name="plusminus" unicode="&#xb1;" horiz-adv-x="1229" vert-adv-y="2457" 
d="M499 887v319q0 50 50 50h132q50 0 50 -50v-319h318q50 0 50 -50v-132q0 -50 -50 -50h-318v-277q0 -50 -50 -50h-132q-50 0 -50 50v277h-319q-50 0 -50 50v132q0 50 50 50h319zM180 232h869q50 0 50 -50v-132q0 -50 -50 -50h-869q-50 0 -50 50v132q0 50 50 50z" />
    <glyph glyph-name="lessequal" unicode="&#x2264;" vert-adv-y="2457" 
d="M491 891l421 -111q42 -11 42 -54l2 -266q0 -39 -30 -39q-6 0 -19 5l-798 290q-41 14 -40 57v237q-1 44 40 58l798 289q10 4 19 4q30 0 30 -38v-266q0 -43 -42 -54zM956 306v-240q0 -50 -50 -50h-787q-50 0 -50 50v240q0 50 50 50h787q50 0 50 -50z" />
    <glyph glyph-name="greaterequal" unicode="&#x2265;" vert-adv-y="2457" 
d="M533 891l-423 112q-42 11 -42 54v266q0 38 30 38q9 0 19 -4l798 -289q41 -14 40 -58v-237q1 -43 -40 -57l-798 -290q-13 -5 -19 -5q-30 0 -30 39l2 266q0 43 42 54zM68 66v240q0 50 50 50h787q50 0 50 -50v-240q0 -50 -50 -50h-787q-50 0 -50 50z" />
    <glyph glyph-name="yen" unicode="&#xa5;" horiz-adv-x="1161" vert-adv-y="2457" 
d="M383 743h-159q-100 0 -100 86v15q0 86 100 86h49l-204 343q-13 23 -13 39q0 53 66 53h99q54 0 78.5 -14t51.5 -62l230 -398l226 398q27 47 51.5 61.5t78.5 14.5h102q66 0 66 -53q0 -14 -14 -38l-208 -344h54q100 0 100 -86v-15q0 -86 -100 -86h-167l-71 -127h238
q100 0 100 -86v-15q0 -86 -100 -86h-238v-329q0 -100 -96 -100h-54q-96 0 -96 100v329h-229q-100 0 -100 86v15q0 86 100 86h229z" />
    <glyph glyph-name="mu" unicode="&#xb5;" horiz-adv-x="1095" vert-adv-y="2457" 
d="M347 10l16 -383v-10q0 -90 -93 -90h-55q-96 0 -96 99v1162q0 100 96 100h56q96 0 96 -100v-407q0 -64 17 -103q42 -95 163 -95q90 0 135.5 51t45.5 151v402q0 100 96 100h56q96 0 96 -100v-444q0 -169 -95 -260q-118 -112 -324 -112q-110 0 -210 39z" />
    <glyph glyph-name="partialdiff" unicode="&#x2202;" vert-adv-y="2457" 
d="M652 820q-35 64 -68.5 97t-94.5 65q-52 27 -136 50.5t-153 31.5q-65 6 -81 13.5t-16 30.5q0 11 1 16l26 183q7 44 43 44q39 0 143 -21q408 -83 581 -366q102 -168 102 -406q0 -319 -185 -471q-128 -104 -319 -104q-209 0 -337 131q-137 139 -137 347q0 180 117.5 300.5
t293.5 120.5q140 0 220 -62zM507 613q-62 0 -109 -45q-52 -49 -52 -126q0 -71 48 -121q48 -49 113 -49q67 0 114 50t47 120q0 77 -50 125q-47 46 -111 46z" />
    <glyph glyph-name="summation" unicode="&#x2211;" horiz-adv-x="1365" vert-adv-y="2457" 
d="M927 1199h-446l463 -625q15 -21 15 -35t-14 -35l-461 -679h461l19 180q5 46 51 46h251q51 0 51 -50v-463q0 -50 -51 -50h-1147q-50 0 -50 50v271q0 47 5.5 64.5t32.5 56.5l427 609l-427 559q-27 34 -32.5 50.5t-5.5 60.5v277q0 50 50 50h1129q50 0 50 -50v-450
q0 -50 -50 -50h-236q-44 0 -52 44z" />
    <glyph glyph-name="product" unicode="&#x220f;" horiz-adv-x="1365" vert-adv-y="2457" 
d="M1190 1243v-1462h95q50 0 50 -50v-193q0 -50 -50 -50h-494q-50 0 -50 50v193q0 50 50 50h71v1462h-359v-1462h69q50 0 50 -50v-193q0 -50 -50 -50h-492q-50 0 -50 50v193q0 50 50 50h98v1462h-98q-50 0 -50 50v193q0 50 50 50h1205q50 0 50 -50v-193q0 -50 -50 -50h-95z
" />
    <glyph glyph-name="glyph155" horiz-adv-x="512" vert-adv-y="2457" 
 />
    <glyph glyph-name="integral" unicode="&#x222b;" vert-adv-y="2457" 
d="M49 -442l41 248q7 38 37 38q5 0 26 -4q19 -4 36 -4q88 0 115 71q8 20 9 49.5t1 189.5v664q0 255 3 309t20 121q38 144 171 228q107 68 268 68q110 0 155 -11.5t45 -40.5q0 -10 -1 -18l-42 -248q-7 -38 -36 -38q-7 0 -26 4t-40 4q-83 0 -111 -71q-11 -26 -11 -115v-778
q0 -240 -1.5 -288t-10.5 -96q-30 -172 -159 -267q-116 -84 -296 -84q-110 0 -152.5 11t-42.5 40q0 8 2 18z" />
    <glyph glyph-name="ordfeminine" unicode="&#xaa;" horiz-adv-x="743" vert-adv-y="2457" 
d="M486 865q-61 -77 -167 -77q-119 0 -202 91q-72 78 -72 199q0 139 96 222q76 65 176 65q102 0 169 -70v8q0 45 51 45h91q50 0 50 -50v-442q0 -50 -50 -50h-91q-51 0 -51 47v12zM367 1200q-51 0 -87 -36t-36 -89q0 -50 36.5 -86t87.5 -36t87 36.5t36 87.5t-36 87t-88 36z
M115 703h519q50 0 50 -48v-27q0 -48 -50 -48h-519q-50 0 -50 48v27q0 48 50 48z" />
    <glyph glyph-name="ordmasculine" unicode="&#xba;" horiz-adv-x="740" vert-adv-y="2457" 
d="M370 1368q161 0 252 -98q75 -81 75 -194q0 -131 -98 -216q-88 -75 -232 -75q-158 0 -248 98q-75 81 -75 198q0 126 98 211q88 76 228 76zM370 1200q-52 0 -88 -36.5t-36 -88.5q0 -50 37 -86t87 -36q52 0 88.5 36t36.5 88q0 51 -36.5 87t-88.5 36zM110 703h520
q50 0 50 -48v-27q0 -48 -50 -48h-520q-50 0 -50 48v27q0 48 50 48z" />
    <glyph glyph-name="uni2126" unicode="&#x2126;" horiz-adv-x="1365" vert-adv-y="2457" 
d="M337 239q-117 74 -175 152q-104 141 -104 359q0 268 165 450q180 198 460 198t460 -199q164 -180 164 -449q0 -179 -64.5 -298t-213.5 -213h178q100 0 100 -95v-50q0 -94 -100 -94h-352q-100 0 -100 90v44q0 46 13 66.5t72 67.5q189 148 189 453q0 170 -74 282
q-47 71 -120 114q-72 42 -152 42q-143 0 -245 -120q-102 -119 -102 -319q0 -233 112 -374q32 -41 125 -117q39 -32 39 -96v-43q0 -90 -100 -90h-354q-100 0 -100 94v50q0 95 100 95h179z" />
    <glyph glyph-name="ae" unicode="&#xe6;" horiz-adv-x="1777" vert-adv-y="2457" 
d="M1008 411q4 -88 44 -138q58 -74 167 -74q99 0 139 64q10 17 19.5 20.5t44.5 3.5h176q38 0 53 -8.5t15 -31.5q0 -22 -22.5 -62.5t-52.5 -70.5q-141 -146 -383 -146q-137 0 -230.5 46.5t-136.5 135.5q-146 -176 -382 -176q-98 0 -180.5 29.5t-130.5 81.5q-73 79 -73 188
q0 155 131 243q92 63 256 63q114 0 238 -48q1 15 1 25q0 167 -224 167q-83 0 -203 -36q-6 -2 -14 -2q-22 0 -30.5 14.5t-8.5 53.5v106q0 46 14 58q15 13 106.5 28.5t156.5 15.5q67 0 136 -17.5t114 -45.5q46 -29 93 -102q55 80 146.5 122.5t207.5 42.5q181 0 315 -90
q146 -99 179 -300q12 -70 12 -118q0 -24 -14.5 -33t-53.5 -9h-625zM1396 601q-18 62 -51 95q-56 56 -140 56q-139 0 -189 -151h380zM536 395q-64 0 -102 -27.5t-38 -73.5q0 -44 42 -72.5t108 -28.5q74 0 119 33q44 32 44 71q0 42 -50 70t-123 28z" />
    <glyph glyph-name="oslash" unicode="&#xf8;" horiz-adv-x="1419" vert-adv-y="2457" 
d="M237 173q-92 136 -92 294q0 137 72 253q149 242 487 242q117 0 203.5 -26t165.5 -86l129 105q32 26 47 26q20 0 38 -22q11 -15 13 -17q28 -33 28 -49q0 -19 -37 -49l-119 -95q50 -69 68.5 -126.5t18.5 -139.5q0 -257 -169 -393q-154 -125 -384 -125q-219 0 -368 110
l-122 -98q-32 -26 -46 -26q-20 0 -46 32q-32 41 -32 55q0 20 37 49zM507 381l316 261q-54 38 -111 38q-101 0 -166 -68q-60 -62 -60 -144q0 -38 21 -87zM592 287q50 -33 109 -33q97 0 159 68q57 63 57 141q0 33 -15 77z" />
    <glyph glyph-name="questiondown" unicode="&#xbf;" horiz-adv-x="1117" vert-adv-y="2457" 
d="M408 465v62q0 45 11.5 56.5t56.5 11.5h196q45 0 56.5 -11.5t11.5 -56.5v-212q0 -40 -9 -53.5t-36 -14.5q-83 0 -112 -6t-66 -29q-85 -52 -85 -141q0 -57 38.5 -95.5t95.5 -38.5q48 0 79 27.5t38 75.5q4 21 17.5 28t50.5 7h228q39 0 53.5 -9t14.5 -32q0 -61 -38.5 -135.5
t-96.5 -125.5q-63 -57 -158 -90t-195 -33q-204 0 -339 127q-65 61 -101.5 141t-36.5 161q0 86 39 165t106 130t181 91zM565 1092q89 0 150 -62q62 -62 62 -152q0 -86 -62.5 -147.5t-148.5 -61.5q-88 0 -150 62t-62 149q0 90 62 150q64 62 149 62z" />
    <glyph glyph-name="exclamdown" unicode="&#xa1;" horiz-adv-x="696" vert-adv-y="2457" 
d="M348 1092q88 0 150 -62t62 -149q0 -88 -62 -150t-149 -62q-89 0 -150 62q-62 63 -62 152q0 86 62.5 147.5t148.5 61.5zM246 587h205q45 0 56.5 -11.5t11.5 -56.5v-765q0 -45 -11.5 -56.5t-56.5 -11.5h-205q-45 0 -56.5 11.5t-11.5 56.5v765q0 45 11.5 56.5t56.5 11.5z
" />
    <glyph glyph-name="logicalnot" unicode="&#xac;" vert-adv-y="2457" 
d="M577 270h-459q-50 0 -50 50v240q0 50 50 50h787q50 0 50 -50v-510q0 -50 -50 -50h-278q-50 0 -50 50v220z" />
    <glyph glyph-name="radical" unicode="&#x221a;" horiz-adv-x="1365" vert-adv-y="2457" 
d="M1046 1390l-316 -1347q-10 -43 -54 -43h-344q-44 0 -53 44l-89 440h-140q-50 0 -50 50v203q0 50 50 50h303q44 0 54 -43l32 -141q22 -99 31 -297h21q23 287 100 608l176 736q10 43 54 43h494q50 0 50 -50v-203q0 -50 -50 -50h-269z" />
    <glyph glyph-name="florin" unicode="&#x192;" horiz-adv-x="1229" vert-adv-y="2457" 
d="M845 908h124q34 0 45 -4q23 -8 23 -34q0 -7 -4 -30l-1 -8q-8 -43 -19 -52t-54 -9h-137l-95 -528q-25 -136 -54 -219t-78 -156q-70 -104 -157 -148q-105 -53 -264 -53q-107 0 -145.5 10.5t-38.5 38.5q0 8 5 36l29 163q6 35 15 47.5t28 12.5q5 0 11 -1q117 -11 130 -10
q36 2 75.5 32.5t58.5 70.5q33 70 67 260l81 444h-82q-39 0 -53 8t-14 31q0 14 3 30l1 6q0 4 2 18q5 28 17.5 36t52.5 8h97l41 217q19 98 49 160t83 112q107 101 275 101q91 0 157.5 -24.5t66.5 -57.5q0 -7 -5 -37l-26 -143q-7 -34 -16 -47t-27 -13q-9 0 -23 6q-58 24 -90 24
q-56 0 -84 -38t-47 -137z" />
    <glyph glyph-name="approxequal" unicode="&#x2248;" vert-adv-y="2457" 
d="M158 742l-108 76q-26 19 -26 41q0 18 35 85q106 206 275 206q41 0 89.5 -15t210.5 -76q39 -15 68 -15q54 0 94 48q19 23 38 23q12 0 31 -13l108 -76q26 -19 26 -41q0 -21 -32 -82q-106 -208 -280 -208q-69 0 -229 65q-99 40 -142 40t-82 -42q-27 -29 -45 -29
q-12 0 -31 13zM158 247l-108 77q-26 18 -26 40q0 18 35 86q106 205 276 205q41 0 88 -14.5t211 -76.5q38 -15 67 -15q55 0 95 48q19 23 39 23q12 0 30 -13l108 -76q26 -18 26 -41q0 -20 -32 -82q-106 -208 -280 -208q-69 0 -229 65q-100 40 -141 40q-44 0 -98 -57
q-13 -13 -31 -13q-12 0 -30 12z" />
    <glyph glyph-name="Delta" unicode="&#x2206;" horiz-adv-x="1356" vert-adv-y="2457" 
d="M36 50l436 1275q13 40 56 40h295q43 0 57 -40l440 -1275q5 -13 5 -20q0 -30 -40 -30h-1213q-40 0 -40 30q0 8 4 20zM485 318h378l-184 661z" />
    <glyph glyph-name="guillemotleft" unicode="&#xab;" horiz-adv-x="1087" vert-adv-y="2457" 
d="M772 467l192 -259q24 -33 24 -46q0 -22 -40 -50l-73 -51q-33 -24 -46 -24q-14 0 -22.5 6.5t-26.5 33.5l-241 344q-22 33 -22 46t23 46l240 343q18 26 26.5 32.5t23.5 6.5q12 0 45 -22l68 -47q27 -19 33.5 -27t6.5 -24q0 -12 -23 -44zM321 467l192 -259q25 -33 25 -46
q0 -15 -6.5 -23t-33.5 -27l-74 -51q-33 -24 -46 -24q-14 0 -22 6.5t-27 33.5l-240 344q-23 33 -23 46t23 46l240 343q19 26 27 32.5t23 6.5q12 0 45 -22l68 -47q28 -19 34.5 -27t6.5 -24q0 -12 -24 -44z" />
    <glyph glyph-name="guillemotright" unicode="&#xbb;" horiz-adv-x="1087" vert-adv-y="2457" 
d="M315 467l-188 264q-24 32 -24 45q0 15 7 23t34 27l68 47q33 23 46 23q14 0 22 -6.5t27 -33.5l240 -343q23 -33 23 -46t-23 -46l-240 -344q-19 -27 -27 -33.5t-23 -6.5q-12 0 -45 24l-74 51q-27 19 -33.5 27t-6.5 23q0 13 25 46zM765 467l-187 264q-24 32 -24 45
q0 15 7 23t33 27l69 47q33 23 45 23q14 0 22 -6.5t28 -33.5l240 -343q23 -33 23 -46q0 -12 -23 -46l-240 -344q-19 -27 -27 -33.5t-23 -6.5q-12 0 -45 24l-74 51q-27 19 -33.5 27t-6.5 23q0 13 24 46z" />
    <glyph glyph-name="ellipsis" unicode="&#x2026;" horiz-adv-x="1864" vert-adv-y="2457" 
d="M310 387q88 0 150 -62t62 -150t-62 -151q-62 -62 -149 -62q-89 0 -150 62q-62 63 -62 153q0 86 62.5 148t148.5 62zM931 387q88 0 150 -62t62 -150q0 -89 -62 -151t-149 -62q-89 0 -150 62q-62 63 -62 153q0 86 62.5 148t148.5 62zM1552 387q88 0 150 -62t62 -150
q0 -89 -62 -151t-149 -62q-89 0 -150 62q-62 63 -62 153q0 86 62.5 148t148.5 62z" />
    <glyph glyph-name="glyph172" horiz-adv-x="1229" vert-adv-y="1229" 
 />
    <glyph glyph-name="Agrave" unicode="&#xc0;" horiz-adv-x="1454" vert-adv-y="2457" 
d="M973 238h-490l-73 -187q-15 -37 -25 -44t-51 -7h-233q-38 0 -53 8.5t-15 29.5q0 11 12 43l474 1232q3 8 6 17q9 24 20 29.5t49 5.5h276q41 0 51 -7t24 -45l465 -1232q12 -31 12 -43q0 -21 -15 -29.5t-53 -8.5h-237q-41 0 -51 7t-24 45zM877 508l-147 435l-149 -435h296z
M434 1766l83 75q31 29 47 29q17 0 48 -30l198 -188q33 -31 33 -48q0 -18 -34 -49l-42 -39q-31 -30 -48 -30q-13 0 -45 22l-234 160q-25 17 -32.5 26t-7.5 23q0 18 34 49z" />
    <glyph glyph-name="Atilde" unicode="&#xc3;" horiz-adv-x="1454" vert-adv-y="2457" 
d="M973 238h-490l-73 -187q-15 -37 -25 -44t-51 -7h-233q-38 0 -53 8.5t-15 29.5q0 11 12 43l474 1232q3 8 6 17q9 24 20 29.5t49 5.5h276q41 0 51 -7t24 -45l465 -1232q12 -31 12 -43q0 -21 -15 -29.5t-53 -8.5h-237q-41 0 -51 7t-24 45zM877 508l-147 435l-149 -435h296z
M443 1509h-47q-42 0 -55 9t-13 39q0 80 48 148q30 43 77.5 69t95.5 26q53 0 195 -37q105 -27 133 -27q25 0 37.5 8.5t25.5 34.5q7 15 18 19t46 4h49q38 0 53 -9t15 -33q0 -44 -40 -120q-28 -53 -72 -84q-65 -48 -146 -48q-46 0 -155 35q-103 32 -146 32q-37 0 -53 -40
q-7 -17 -18.5 -21.5t-47.5 -4.5z" />
    <glyph glyph-name="Otilde" unicode="&#xd5;" horiz-adv-x="1675" vert-adv-y="2457" 
d="M837 1406q342 0 559 -229q197 -207 197 -498q0 -200 -99 -369q-106 -182 -293 -277q-162 -82 -370 -82q-337 0 -552 228q-197 208 -197 512q0 191 99 356q111 186 293 277q165 82 363 82zM838 1062q-160 0 -271 -112q-113 -114 -113 -276q0 -153 113 -267
q111 -112 271 -112q159 0 272 112q112 113 112 272q0 161 -112 271q-116 112 -272 112zM554 1509h-48q-41 0 -54.5 9t-13.5 39q0 80 48 148q31 43 78 69t96 26q52 0 194 -37q106 -27 133 -27q26 0 38 8.5t25 34.5q8 15 19 19t45 4h49q39 0 53.5 -8.5t14.5 -32.5
q0 -45 -40 -121q-28 -52 -71 -84q-66 -48 -147 -48q-46 0 -155 35q-103 32 -145 32q-38 0 -54 -40q-6 -17 -18 -21.5t-47 -4.5z" />
    <glyph glyph-name="OE" unicode="&#x152;" horiz-adv-x="2077" vert-adv-y="2457" 
d="M1583 1063v-226h317q45 0 56.5 -11.5t11.5 -56.5v-164q0 -45 -11.5 -56.5t-56.5 -11.5h-317v-237h344q45 0 56.5 -11.5t11.5 -56.5v-164q0 -45 -11.5 -56.5t-56.5 -11.5h-631q-45 0 -56.5 11.5t-11.5 56.5v76q-188 -186 -429 -186q-163 0 -314 77q-206 104 -316 307
q-87 161 -87 343q0 203 106 375q102 167 280 263q163 88 339 88q128 0 227 -42.5t194 -138.5v67q0 45 11.5 56.5t56.5 11.5h631q44 0 56 -12t12 -56v-166q0 -45 -11.5 -56.5t-56.5 -11.5h-344zM835 1066q-159 0 -270 -112q-112 -112 -112 -273q0 -70 30 -141.5t82 -124.5
q110 -112 269 -112t270 112q112 113 112 271q0 160 -112 268q-115 112 -269 112z" />
    <glyph glyph-name="oe" unicode="&#x153;" horiz-adv-x="1918" vert-adv-y="2457" 
d="M1145 408q10 -96 44 -140q52 -69 161 -69q100 0 144 65q11 16 20 19.5t44 3.5h181q39 0 53.5 -8.5t14.5 -31.5t-20.5 -62.5t-48.5 -69.5q-138 -149 -396 -149q-123 0 -207 38t-149 124q-62 -63 -98 -88q-104 -74 -281 -74q-259 0 -398 147q-134 141 -134 347
q0 157 79 280q142 222 457 222q118 0 202.5 -33t172.5 -114q49 58 103 86q103 54 254 54q240 0 373 -144q59 -63 92.5 -156.5t33.5 -191.5q0 -35 -13 -45t-56 -10h-628zM1537 596q-23 72 -72.5 111t-118.5 39q-72 0 -122 -39t-70 -111h383zM616 671q-86 0 -144 -64
q-55 -61 -55 -149q0 -95 71 -158q57 -51 130 -51q84 0 145 66q56 60 56 147q0 97 -70 160q-55 49 -133 49z" />
    <glyph glyph-name="endash" unicode="&#x2012;" horiz-adv-x="1229" vert-adv-y="2457" 
d="M198 621h833q45 0 56.5 -11.5t11.5 -56.5v-137q0 -45 -11.5 -56.5t-56.5 -11.5h-833q-45 0 -56.5 11.5t-11.5 56.5v137q0 45 11.5 56.5t56.5 11.5z" />
    <glyph glyph-name="endash" unicode="&#x2013;" horiz-adv-x="1229" vert-adv-y="2457" 
d="M198 621h833q45 0 56.5 -11.5t11.5 -56.5v-137q0 -45 -11.5 -56.5t-56.5 -11.5h-833q-45 0 -56.5 11.5t-11.5 56.5v137q0 45 11.5 56.5t56.5 11.5z" />
    <glyph glyph-name="emdash" unicode="&#x2014;" horiz-adv-x="1570" vert-adv-y="2457" 
d="M68 621h1434q45 0 56.5 -11.5t11.5 -56.5v-137q0 -45 -11.5 -56.5t-56.5 -11.5h-1434q-45 0 -56.5 11.5t-11.5 56.5v137q0 45 11.5 56.5t56.5 11.5z" />
    <glyph glyph-name="emdash" unicode="&#x2015;" horiz-adv-x="1570" vert-adv-y="2457" 
d="M68 621h1434q45 0 56.5 -11.5t11.5 -56.5v-137q0 -45 -11.5 -56.5t-56.5 -11.5h-1434q-45 0 -56.5 11.5t-11.5 56.5v137q0 45 11.5 56.5t56.5 11.5z" />
    <glyph glyph-name="quotedblleft" unicode="&#x201c;" horiz-adv-x="1171" vert-adv-y="2457" 
d="M813 765h-157q-37 0 -52.5 8.5t-15.5 29.5q0 13 19 47l261 470q6 11 9 16q11 20 21 24.5t46 4.5h72q38 0 53 -8.5t15 -29.5q0 -11 -13 -43l-183 -468q-15 -38 -24.5 -44.5t-50.5 -6.5zM349 765h-157q-38 0 -53 8.5t-15 29.5q0 14 18 47l262 470q6 11 8 16q12 20 22 24.5
t46 4.5h71q38 0 53 -8.5t15 -29.5q0 -13 -12 -43l-183 -468q-15 -38 -24.5 -44.5t-50.5 -6.5z" />
    <glyph glyph-name="quotedblright" unicode="&#x201d;" horiz-adv-x="1171" vert-adv-y="2457" 
d="M359 1365h156q38 0 53.5 -8.5t15.5 -29.5q0 -13 -19 -47l-261 -470q-6 -10 -9 -16q-11 -20 -21 -24.5t-47 -4.5h-71q-38 0 -53 8.5t-15 29.5q0 11 12 43l183 468q15 38 25 44.5t51 6.5zM823 1365h156q38 0 53.5 -8.5t15.5 -29.5q0 -13 -19 -47l-261 -470q-6 -10 -9 -16
q-11 -20 -21 -24.5t-46 -4.5h-72q-35 0 -46 5q-22 9 -22 33q0 11 13 43l183 468q15 38 24.5 44.5t50.5 6.5z" />
    <glyph glyph-name="quoteleft" unicode="&#x2018;" horiz-adv-x="707" vert-adv-y="2457" 
d="M349 765h-157q-38 0 -53 8.5t-15 29.5q0 14 18 47l262 470q6 11 8 16q12 20 22 24.5t46 4.5h71q38 0 53 -8.5t15 -29.5q0 -13 -12 -43l-183 -468q-15 -38 -24.5 -44.5t-50.5 -6.5z" />
    <glyph glyph-name="quoteright" unicode="&#x2019;" horiz-adv-x="707" vert-adv-y="2457" 
d="M359 1365h156q38 0 53.5 -8.5t15.5 -29.5q0 -13 -19 -47l-261 -470q-6 -10 -9 -16q-11 -20 -21 -24.5t-47 -4.5h-71q-38 0 -53 8.5t-15 29.5q0 11 12 43l183 468q15 38 25 44.5t51 6.5z" />
    <glyph glyph-name="divide" unicode="&#xf7;" horiz-adv-x="1229" vert-adv-y="2457" 
d="M180 799h869q50 0 50 -50v-132q0 -50 -50 -50h-869q-50 0 -50 50v132q0 50 50 50zM612 471q60 0 102 -42t42 -101q0 -60 -42 -102t-101 -42q-60 0 -102 42.5t-42 102.5q0 58 42.5 100t100.5 42zM612 1181q60 0 102 -42t42 -101q0 -60 -42 -102t-101 -42q-60 0 -102 42.5
t-42 102.5q0 58 42.5 100t100.5 42z" />
    <glyph glyph-name="lozenge" unicode="&#x25ca;" horiz-adv-x="1365" vert-adv-y="2457" 
d="M744 1334l420 -581q29 -41 29 -70t-29 -70l-420 -581q-28 -38 -62 -38q-33 0 -61 38l-420 581q-29 41 -29 70t29 70l420 581q28 39 61 39q34 0 62 -39zM682 1238l-403 -555l403 -554l404 554z" />
    <glyph glyph-name="ydieresis" unicode="&#xff;" horiz-adv-x="1246" vert-adv-y="2457" 
d="M448 127l-400 716q-19 33 -19 47q0 21 15 29.5t53 8.5h232q40 0 49 -5.5t27 -40.5l224 -430l218 429q18 36 27 41.5t49 5.5h227q38 0 53 -8.5t15 -29.5q0 -14 -17 -46l-676 -1262q-18 -35 -27.5 -40.5t-48.5 -5.5h-221q-36 0 -47 5q-21 10 -21 33q0 13 18 46zM390 1427
q74 0 126 -52t52 -125q0 -74 -52 -126t-125 -52q-75 0 -126.5 52.5t-51.5 127.5q0 72 52.5 123.5t124.5 51.5zM855 1427q74 0 126 -52t52 -125q0 -74 -52 -126t-125 -52q-75 0 -126.5 52.5t-51.5 127.5q0 72 52.5 123.5t124.5 51.5z" />
    <glyph glyph-name="Ydieresis" unicode="&#x178;" horiz-adv-x="1311" vert-adv-y="2457" 
d="M470 656l-434 622q-23 34 -23 49q0 21 15.5 29.5t52.5 8.5h271q38 0 46 -4.5t30 -35.5l230 -332l221 331q21 32 29.5 36.5t46.5 4.5h274q68 0 68 -38q0 -16 -24 -49l-448 -622v-588q0 -45 -11.5 -56.5t-56.5 -11.5h-219q-45 0 -56.5 11.5t-11.5 56.5v588zM403 1864
q74 0 126 -52t52 -125q0 -74 -52 -126t-125 -52q-75 0 -126.5 52t-51.5 128q0 71 52.5 123t124.5 52zM908 1864q74 0 126 -52t52 -125q0 -74 -52 -126t-125 -52q-75 0 -126.5 52t-51.5 128q0 71 52.5 123t124.5 52z" />
    <glyph glyph-name="fraction" unicode="&#x2044;" horiz-adv-x="293" vert-adv-y="2457" 
d="M570 1284l-736 -1274q-25 -43 -62 -43q-26 0 -44.5 18.5t-18.5 44.5q0 16 16 44l737 1272q26 45 66 42q24 -2 40.5 -19.5t16.5 -41.5q0 -17 -15 -43z" />
    <glyph glyph-name="Euro" unicode="&#x20ac;" horiz-adv-x="1220" vert-adv-y="2457" 
d="M594 423q32 -45 72 -77q105 -84 256 -84q78 0 148 24q46 16 54 16q28 0 28 -37v-226q0 -39 -27 -51q-33 -15 -102.5 -27t-123.5 -12q-227 0 -418.5 132t-266.5 342h-170q-43 0 -43 35q0 10 10 25l65 104q15 23 27.5 30t40.5 7h30q-2 25 -2 54q0 11 1 26h-129
q-43 0 -43 35q0 10 10 25l65 104q15 23 27.5 30t40.5 7h62q30 93 72 163q101 165 278 260q162 87 340 87q55 0 131 -13t101 -26q24 -13 24 -51v-233q0 -35 -29 -35q-6 0 -18 4q-97 36 -193 36q-110 0 -199.5 -51t-135.5 -141h429q43 0 43 -35q0 -9 -10 -25l-65 -103
q-15 -24 -28 -31t-41 -7h-380q-2 -17 -2 -31q0 -20 4 -49h309q43 0 43 -35q0 -9 -10 -25l-65 -103q-15 -24 -27.5 -31t-40.5 -7h-142z" />
    <glyph glyph-name="guilsinglleft" unicode="&#x2039;" horiz-adv-x="637" vert-adv-y="2457" 
d="M321 467l192 -259q25 -33 25 -46q0 -15 -6.5 -23t-33.5 -27l-74 -51q-33 -24 -46 -24q-14 0 -22 6.5t-27 33.5l-240 344q-23 33 -23 46t23 46l240 343q19 26 27 32.5t23 6.5q12 0 45 -22l68 -47q28 -19 34.5 -27t6.5 -24q0 -12 -24 -44z" />
    <glyph glyph-name="guilsinglright" unicode="&#x203a;" horiz-adv-x="637" vert-adv-y="2457" 
d="M315 467l-188 264q-24 32 -24 45q0 15 7 23t34 27l68 47q33 23 46 23q14 0 22 -6.5t27 -33.5l240 -343q23 -33 23 -46t-23 -46l-240 -344q-19 -27 -27 -33.5t-23 -6.5q-12 0 -45 24l-74 51q-27 19 -33.5 27t-6.5 23q0 13 25 46z" />
    <glyph glyph-name="fi" unicode="&#xfb01;" horiz-adv-x="1105" vert-adv-y="2457" 
d="M467 655v-587q0 -45 -11.5 -56.5t-56.5 -11.5h-192q-45 0 -56.5 11.5t-11.5 56.5v587h-49q-45 0 -56.5 11.5t-11.5 56.5v137q0 45 11.5 56.5t56.5 11.5h49v140q0 116 23 185t81 131q130 138 311 138q44 0 83 -10t51 -25q10 -12 10 -54v-144q0 -38 -8.5 -53t-30.5 -15
q-7 0 -16 2q-52 12 -66 12q-28 0 -58 -19t-40 -42q-12 -30 -12 -129v-117h163q45 0 56.5 -11.5t11.5 -56.5v-137q0 -45 -11.5 -56.5t-56.5 -11.5h-163zM1069 860v-792q0 -45 -11.5 -56.5t-56.5 -11.5h-192q-45 0 -56.5 11.5t-11.5 56.5v792q0 45 11.5 56.5t56.5 11.5h192
q45 0 56.5 -11.5t11.5 -56.5zM905 1469q77 0 131 -54t54 -130q0 -77 -54 -131t-130 -54q-78 0 -131 54q-54 55 -54 133q0 74 54.5 128t129.5 54z" />
    <glyph glyph-name="fl" unicode="&#xfb02;" horiz-adv-x="1099" vert-adv-y="2457" 
d="M467 655v-587q0 -45 -11.5 -56.5t-56.5 -11.5h-192q-45 0 -56.5 11.5t-11.5 56.5v587h-49q-45 0 -56.5 11.5t-11.5 56.5v137q0 45 11.5 56.5t56.5 11.5h49v140q0 116 23 185t81 131q130 138 311 138q44 0 83 -10t51 -25q10 -12 10 -54v-144q0 -38 -8.5 -53t-30.5 -15
q-7 0 -16 2q-52 12 -66 12q-28 0 -58 -19t-40 -42q-12 -30 -12 -129v-117h163q45 0 56.5 -11.5t11.5 -56.5v-137q0 -45 -11.5 -56.5t-56.5 -11.5h-163zM1064 1434v-1366q0 -45 -11.5 -56.5t-56.5 -11.5h-192q-45 0 -56.5 11.5t-11.5 56.5v1366q0 45 11.5 56.5t56.5 11.5h192
q45 0 56.5 -11.5t11.5 -56.5z" />
    <glyph glyph-name="daggerdbl" unicode="&#x2021;" horiz-adv-x="1229" vert-adv-y="2457" 
d="M766 1234h268q50 0 50 -50v-159q0 -50 -50 -50h-268v-484h268q50 0 50 -50v-159q0 -50 -50 -50h-268v-496q0 -50 -50 -50h-200q-50 0 -50 50v496h-271q-50 0 -50 50v159q0 50 50 50h271v484h-271q-50 0 -50 50v159q0 50 50 50h271v218q0 50 50 50h200q50 0 50 -50v-218z
" />
    <glyph glyph-name="periodcentered" unicode="&#xb7;" horiz-adv-x="621" vert-adv-y="2457" 
d="M310 696q88 0 150 -62t62 -149q0 -88 -62 -150q-61 -62 -149 -62q-89 0 -150 62q-62 63 -62 152q0 86 62.5 147.5t148.5 61.5z" />
    <glyph glyph-name="periodcentered" unicode="&#x2219;" horiz-adv-x="621" vert-adv-y="2457" 
d="M310 696q88 0 150 -62t62 -149q0 -88 -62 -150q-61 -62 -149 -62q-89 0 -150 62q-62 63 -62 152q0 86 62.5 147.5t148.5 61.5z" />
    <glyph glyph-name="quotesinglbase" unicode="&#x201a;" horiz-adv-x="707" vert-adv-y="2457" 
d="M359 347h156q69 0 69 -38q0 -13 -19 -47l-261 -471q-6 -11 -9 -16q-11 -20 -21 -24.5t-47 -4.5h-71q-38 0 -53 8.5t-15 29.5q0 11 12 43l183 468q15 39 25 45.5t51 6.5z" />
    <glyph glyph-name="quotedblbase" unicode="&#x201e;" horiz-adv-x="1171" vert-adv-y="2457" 
d="M359 347h156q69 0 69 -38q0 -13 -19 -47l-261 -471q-6 -11 -9 -16q-11 -20 -21 -24.5t-47 -4.5h-71q-38 0 -53 8.5t-15 29.5q0 11 12 43l183 468q15 39 25 45.5t51 6.5zM823 347h156q38 0 53.5 -8.5t15.5 -29.5q0 -14 -19 -47l-261 -471q-6 -11 -9 -16q-11 -20 -21 -24.5
t-46 -4.5h-72q-35 0 -46 5q-22 9 -22 33q0 11 13 43l183 468q15 39 24.5 45.5t50.5 6.5z" />
    <glyph glyph-name="perthousand" unicode="&#x2030;" horiz-adv-x="2712" vert-adv-y="2457" 
d="M451 1380q177 0 276 -107q88 -94 88 -223q0 -160 -121 -262q-92 -77 -257 -77q-181 0 -282 106q-87 89 -87 235q0 142 99 234q101 94 284 94zM442 1200q-65 0 -109.5 -45t-44.5 -110q0 -62 45.5 -107t108.5 -45t108 45t45 109q0 63 -45 108t-108 45zM1401 1365
l-771 -1327q-13 -24 -25.5 -31t-39.5 -7h-134l770 1327q14 24 26.5 31t39.5 7h134zM1401 653q177 0 276 -107q88 -94 88 -223q0 -160 -121 -262q-92 -77 -257 -77q-181 0 -282 106q-87 90 -87 235q0 143 99 234q101 94 284 94zM1392 473q-65 0 -109.5 -45t-44.5 -110
q0 -62 45.5 -107t108.5 -45t108 45t45 109q0 63 -45 108t-108 45zM2279 653q177 0 276 -107q88 -94 88 -223q0 -160 -121 -262q-92 -77 -257 -77q-181 0 -282 106q-87 90 -87 235q0 143 99 234q101 94 284 94zM2270 473q-65 0 -109.5 -45t-44.5 -110q0 -62 45.5 -107
t107.5 -45q64 0 109 45t45 109q0 63 -45 108t-108 45z" />
    <glyph glyph-name="Acircumflex" unicode="&#xc2;" horiz-adv-x="1454" vert-adv-y="2457" 
d="M973 238h-490l-73 -187q-15 -37 -25 -44t-51 -7h-233q-38 0 -53 8.5t-15 29.5q0 11 12 43l474 1232q3 8 6 17q9 24 20 29.5t49 5.5h276q41 0 51 -7t24 -45l465 -1232q12 -31 12 -43q0 -21 -15 -29.5t-53 -8.5h-237q-41 0 -51 7t-24 45zM877 508l-147 435l-149 -435h296z
M727 1635l-288 -134q-33 -15 -44 -15q-13 0 -21.5 7.5t-26.5 34.5l-26 43q-21 33 -21 44q0 16 8 24.5t37 25.5l339 187q10 6 16 9q16 10 27 10q10 0 44 -19l339 -187q29 -17 37 -25.5t8 -24.5q0 -11 -21 -44l-27 -43q-17 -27 -25.5 -34.5t-22.5 -7.5q-10 0 -43 15z" />
    <glyph glyph-name="Ecircumflex" unicode="&#xca;" horiz-adv-x="1002" vert-adv-y="2457" 
d="M498 1065v-228h331q45 0 56.5 -11.5t11.5 -56.5v-164q0 -45 -11.5 -56.5t-56.5 -11.5h-331v-237h354q45 0 56.5 -11.5t11.5 -56.5v-164q0 -45 -11.5 -56.5t-56.5 -11.5h-641q-45 0 -56.5 11.5t-11.5 56.5v1229q0 45 11.5 56.5t56.5 11.5h641q45 0 56.5 -11.5t11.5 -56.5
v-164q0 -45 -11.5 -56.5t-56.5 -11.5h-354zM532 1635l-289 -134q-32 -15 -43 -15q-14 0 -22.5 7.5t-25.5 34.5l-27 43q-21 33 -21 44q0 16 8 24.5t37 25.5l339 187q10 6 16 9q17 10 28 10q10 0 44 -19l338 -187q29 -16 37 -25t8 -25q0 -12 -21 -44l-26 -43
q-17 -27 -26 -34.5t-22 -7.5q-11 0 -43 15z" />
    <glyph glyph-name="Aacute" unicode="&#xc1;" horiz-adv-x="1454" vert-adv-y="2457" 
d="M973 238h-490l-73 -187q-15 -37 -25 -44t-51 -7h-233q-38 0 -53 8.5t-15 29.5q0 11 12 43l474 1232q3 8 6 17q9 24 20 29.5t49 5.5h276q41 0 51 -7t24 -45l465 -1232q12 -31 12 -43q0 -21 -15 -29.5t-53 -8.5h-237q-41 0 -51 7t-24 45zM877 508l-147 435l-149 -435h296z
M1014 1668l-233 -160q-33 -22 -45 -22q-17 0 -49 30l-42 39q-33 31 -33 49q0 17 33 48l197 188q32 30 48 30t48 -29l83 -75q34 -31 34 -49q0 -22 -41 -49z" />
    <glyph glyph-name="Edieresis" unicode="&#xcb;" horiz-adv-x="1002" vert-adv-y="2457" 
d="M499 1065v-228h330q45 0 56.5 -11.5t11.5 -56.5v-164q0 -45 -11.5 -56.5t-56.5 -11.5h-330v-237h353q45 0 57 -11.5t12 -56.5v-164q0 -44 -12 -56q-13 -12 -57 -12h-640q-45 0 -56.5 11.5t-11.5 56.5v1229q0 45 11.5 56.5t56.5 11.5h640q45 0 57 -11.5t12 -56.5v-164
q0 -44 -12 -56q-13 -12 -57 -12h-353zM279 1864q74 0 126 -52t52 -125q0 -74 -52 -126t-125 -52q-75 0 -126.5 52t-51.5 128q0 71 52.5 123t124.5 52zM784 1864q74 0 126 -52t52 -125q0 -74 -52 -126t-125 -52q-75 0 -126.5 52t-51.5 128q0 71 52.5 123t124.5 52z" />
    <glyph glyph-name="Egrave" unicode="&#xc8;" horiz-adv-x="1002" vert-adv-y="2457" 
d="M498 1065v-228h331q45 0 56.5 -11.5t11.5 -56.5v-164q0 -45 -11.5 -56.5t-56.5 -11.5h-331v-237h354q45 0 56.5 -11.5t11.5 -56.5v-164q0 -45 -11.5 -56.5t-56.5 -11.5h-641q-45 0 -56.5 11.5t-11.5 56.5v1229q0 45 11.5 56.5t56.5 11.5h641q45 0 56.5 -11.5t11.5 -56.5
v-164q0 -45 -11.5 -56.5t-56.5 -11.5h-354zM314 1766l84 75q31 29 47 29q17 0 48 -30l198 -188q32 -30 32 -48q0 -19 -33 -49l-42 -39q-32 -30 -48 -30q-13 0 -45 22l-234 160q-25 17 -32.5 26t-7.5 23q0 18 33 49z" />
    <glyph glyph-name="Iacute" unicode="&#xcd;" horiz-adv-x="642" vert-adv-y="2457" 
d="M498 1297v-1229q0 -45 -11.5 -56.5t-56.5 -11.5h-219q-45 0 -56.5 11.5t-11.5 56.5v1229q0 45 11.5 56.5t56.5 11.5h219q45 0 56.5 -11.5t11.5 -56.5zM607 1668l-233 -160q-33 -22 -45 -22q-17 0 -48 30l-43 39q-33 31 -33 49q0 17 33 48l197 188q32 30 49 30
q16 0 47 -29l83 -75q34 -31 34 -49q0 -22 -41 -49z" />
    <glyph glyph-name="Icircumflex" unicode="&#xce;" horiz-adv-x="642" vert-adv-y="2457" 
d="M498 1297v-1229q0 -45 -11.5 -56.5t-56.5 -11.5h-219q-45 0 -56.5 11.5t-11.5 56.5v1229q0 45 11.5 56.5t56.5 11.5h219q45 0 56.5 -11.5t11.5 -56.5zM321 1635l-289 -134q-32 -15 -43 -15q-14 0 -22.5 7.5t-25.5 34.5l-27 43q-21 33 -21 44q0 16 8 24.5t37 25.5l339 187
q10 6 16 9q17 10 28 10q10 0 44 -19l338 -187q29 -16 37 -25t8 -25q0 -12 -21 -44l-26 -43q-17 -27 -26 -34.5t-22 -7.5q-11 0 -43 15z" />
    <glyph glyph-name="Idieresis" unicode="&#xcf;" horiz-adv-x="642" vert-adv-y="2457" 
d="M499 1297v-1229q0 -45 -11.5 -56.5t-56.5 -11.5h-219q-45 0 -56.5 11.5t-11.5 56.5v1229q0 45 11.5 56.5t56.5 11.5h219q45 0 56.5 -11.5t11.5 -56.5zM109 1864q74 0 126 -52t52 -125q0 -74 -52 -126t-125 -52q-75 0 -126.5 52t-51.5 128q0 71 52.5 123t124.5 52z
M532 1864q74 0 126 -52t52 -125q0 -74 -52 -126t-125 -52q-75 0 -126.5 52t-51.5 128q0 71 52.5 123t124.5 52z" />
    <glyph glyph-name="Igrave" unicode="&#xcc;" horiz-adv-x="642" vert-adv-y="2457" 
d="M499 1297v-1229q0 -45 -11.5 -56.5t-56.5 -11.5h-219q-45 0 -56.5 11.5t-11.5 56.5v1229q0 45 11.5 56.5t56.5 11.5h219q45 0 56.5 -11.5t11.5 -56.5zM28 1766l83 75q31 29 47 29q17 0 48 -30l198 -188q33 -31 33 -48q0 -18 -34 -49l-42 -39q-31 -30 -48 -30
q-13 0 -45 22l-234 160q-25 17 -32.5 26t-7.5 23q0 18 34 49z" />
    <glyph glyph-name="Oacute" unicode="&#xd3;" horiz-adv-x="1675" vert-adv-y="2457" 
d="M837 1406q342 0 559 -229q197 -207 197 -498q0 -200 -99 -369q-106 -182 -293 -277q-162 -82 -370 -82q-337 0 -552 228q-197 208 -197 512q0 191 99 356q111 186 293 277q165 82 363 82zM838 1062q-160 0 -271 -112q-113 -114 -113 -276q0 -153 113 -267
q111 -112 271 -112q159 0 272 112q112 113 112 272q0 161 -112 271q-116 112 -272 112zM1125 1668l-234 -160q-32 -22 -45 -22q-16 0 -48 30l-42 39q-33 30 -33 49q0 18 32 48l198 188q31 30 48 30q16 0 47 -29l84 -75q33 -31 33 -49q0 -22 -40 -49z" />
    <glyph glyph-name="Ocircumflex" unicode="&#xd4;" horiz-adv-x="1675" vert-adv-y="2457" 
d="M837 1406q342 0 559 -229q197 -207 197 -498q0 -200 -99 -369q-106 -182 -293 -277q-162 -82 -370 -82q-337 0 -552 228q-197 208 -197 512q0 191 99 356q111 186 293 277q165 82 363 82zM838 1062q-160 0 -271 -112q-113 -114 -113 -276q0 -153 113 -267
q111 -112 271 -112q159 0 272 112q112 113 112 272q0 161 -112 271q-116 112 -272 112zM838 1635l-289 -134q-33 -15 -43 -15q-14 0 -22.5 7.5t-25.5 34.5l-27 43q-21 33 -21 44q0 16 8 24.5t37 25.5l339 187q8 5 16 9q17 10 28 10q9 0 43 -19l339 -187q28 -16 36.5 -25
t8.5 -25q0 -12 -21 -44l-26 -43q-18 -27 -26.5 -34.5t-21.5 -7.5q-11 0 -44 15z" />
    <glyph glyph-name="glyph210" horiz-adv-x="512" vert-adv-y="2457" 
 />
    <glyph glyph-name="Ograve" unicode="&#xd2;" horiz-adv-x="1675" vert-adv-y="2457" 
d="M837 1406q342 0 559 -229q197 -207 197 -498q0 -200 -99 -369q-106 -182 -293 -277q-162 -82 -370 -82q-337 0 -552 228q-197 208 -197 512q0 191 99 356q111 186 293 277q165 82 363 82zM838 1062q-160 0 -271 -112q-113 -114 -113 -276q0 -153 113 -267
q111 -112 271 -112q159 0 272 112q112 113 112 272q0 161 -112 271q-116 112 -272 112zM544 1766l83 75q32 29 48 29t48 -30l197 -188q33 -31 33 -48q0 -18 -33 -49l-42 -39q-32 -30 -49 -30q-12 0 -45 22l-233 160q-26 17 -33.5 26t-7.5 23q0 18 34 49z" />
    <glyph glyph-name="Uacute" unicode="&#xda;" horiz-adv-x="1477" vert-adv-y="2457" 
d="M498 1297v-671q0 -117 6.5 -159t32.5 -85q61 -104 198 -104q67 0 123.5 30t84.5 81q22 40 29 85t7 152v671q0 45 11.5 56.5t56.5 11.5h219q45 0 56.5 -11.5t11.5 -56.5v-719q0 -196 -52 -301q-79 -160 -236 -242q-135 -70 -316 -70q-206 0 -357 89q-127 74 -178.5 192
t-51.5 332v719q0 45 11.5 56.5t56.5 11.5h219q45 0 56.5 -11.5t11.5 -56.5zM1025 1668l-233 -160q-33 -22 -45 -22q-17 0 -49 30l-42 39q-33 31 -33 49q0 17 33 48l197 188q32 30 48 30t48 -29l83 -75q34 -31 34 -49q0 -14 -7.5 -23t-33.5 -26z" />
    <glyph glyph-name="Ucircumflex" unicode="&#xdb;" horiz-adv-x="1477" vert-adv-y="2457" 
d="M498 1297v-671q0 -117 6.5 -159t32.5 -85q61 -104 198 -104q67 0 123.5 30t84.5 81q22 40 29 85t7 152v671q0 45 11.5 56.5t56.5 11.5h219q45 0 56.5 -11.5t11.5 -56.5v-719q0 -196 -52 -301q-79 -160 -236 -242q-135 -70 -316 -70q-206 0 -357 89q-127 74 -178.5 192
t-51.5 332v719q0 45 11.5 56.5t56.5 11.5h219q45 0 56.5 -11.5t11.5 -56.5zM738 1635l-288 -134q-33 -15 -44 -15q-13 0 -21.5 7.5t-26.5 34.5l-26 43q-21 32 -21 44q0 16 8.5 25t36.5 25l339 187q8 5 15 9q17 10 28 10q10 0 44 -19l339 -187q29 -17 37 -25.5t8 -24.5
q0 -11 -21 -44l-27 -43q-17 -27 -25.5 -34.5t-22.5 -7.5q-10 0 -43 15z" />
    <glyph glyph-name="Ugrave" unicode="&#xd9;" horiz-adv-x="1477" vert-adv-y="2457" 
d="M498 1297v-671q0 -117 6.5 -159t32.5 -85q61 -104 198 -104q67 0 123.5 30t84.5 81q22 40 29 85t7 152v671q0 45 11.5 56.5t56.5 11.5h219q45 0 56.5 -11.5t11.5 -56.5v-719q0 -196 -52 -301q-79 -160 -236 -242q-135 -70 -316 -70q-206 0 -357 89q-127 74 -178.5 192
t-51.5 332v719q0 45 11.5 56.5t56.5 11.5h219q45 0 56.5 -11.5t11.5 -56.5zM444 1766l84 75q31 29 47 29q17 0 48 -30l198 -188q32 -30 32 -48q0 -19 -33 -49l-42 -39q-32 -30 -48 -30q-13 0 -45 22l-234 160q-25 17 -32.5 26t-7.5 23q0 18 33 49z" />
    <glyph glyph-name="dotlessi" unicode="&#x131;" horiz-adv-x="552" vert-adv-y="2457" 
d="M440 860v-792q0 -45 -11.5 -56.5t-56.5 -11.5h-192q-45 0 -56.5 11.5t-11.5 56.5v792q0 45 11.5 56.5t56.5 11.5h192q45 0 56.5 -11.5t11.5 -56.5z" />
    <glyph glyph-name="circumflex" unicode="&#x2c6;" vert-adv-y="2457" 
d="M509 1267l-209 -162q-33 -25 -46 -25q-19 0 -50 34l-48 56q-28 32 -28 47q0 21 38 49l297 223q32 25 46 25q13 0 46 -24l302 -223q25 -19 31.5 -27.5t6.5 -22.5q0 -16 -29 -47l-52 -57q-7 -8 -12 -14q-19 -20 -37 -20q-13 0 -46 26z" />
    <glyph glyph-name="tilde" unicode="&#x2dc;" vert-adv-y="2457" 
d="M248 1072h-31q-44 0 -56 12t-12 36q0 77 44 147q26 43 70 69t88 26q46 0 176 -35q98 -27 121 -27q38 0 57 41q7 15 18.5 19.5t46.5 4.5h32q38 0 53 -9t15 -32q0 -45 -36 -120q-26 -54 -65 -85q-60 -48 -134 -48q-41 0 -140 34q-94 32 -132 32q-35 0 -49 -39
q-6 -17 -18 -21.5t-48 -4.5z" />
    <glyph glyph-name="macron" unicode="&#xaf;" vert-adv-y="2457" 
d="M174 1293h676q45 0 56.5 -11.5t11.5 -56.5v-65q0 -45 -11.5 -56.5t-56.5 -11.5h-676q-45 0 -56.5 11.5t-11.5 56.5v65q0 45 11.5 56.5t56.5 11.5z" />
    <glyph glyph-name="macron" unicode="&#x2c9;" vert-adv-y="2457" 
d="M174 1293h676q45 0 56.5 -11.5t11.5 -56.5v-65q0 -45 -11.5 -56.5t-56.5 -11.5h-676q-45 0 -56.5 11.5t-11.5 56.5v65q0 45 11.5 56.5t56.5 11.5z" />
    <glyph glyph-name="breve" unicode="&#x2d8;" vert-adv-y="2457" 
d="M228 1387h80q41 0 51 -7t25 -45q11 -31 46.5 -50.5t81.5 -19.5q56 0 86.5 21t50.5 72q7 19 18.5 24t47.5 5h80q39 0 54 -9t15 -33q0 -47 -33 -104t-84 -99q-88 -71 -235 -71q-166 0 -261 95q-91 90 -91 179q0 24 15 33t53 9z" />
    <glyph glyph-name="dotaccent" unicode="&#x2d9;" vert-adv-y="2457" 
d="M513 1445q77 0 132 -54q54 -55 54 -132q0 -78 -54.5 -132.5t-131.5 -54.5q-78 0 -132 55q-55 55 -55 134q0 75 55 129.5t132 54.5z" />
    <glyph glyph-name="ring" unicode="&#x2da;" vert-adv-y="2457" 
d="M517 1496q145 0 218 -70q59 -55 59 -143q0 -86 -59 -142q-73 -70 -222 -70q-150 0 -224 70q-58 55 -58 142q0 101 75.5 157t210.5 56zM511 1366q-50 0 -79 -22.5t-29 -61.5q0 -37 30 -59t80 -22t79.5 22t29.5 61q0 38 -29.5 60t-81.5 22z" />
    <glyph glyph-name="cedilla" unicode="&#xb8;" vert-adv-y="2457" 
d="M750 -279l-179 -170q-6 -6 -13 -12q-19 -18 -36 -18q-11 0 -44 21l-35 23q-29 18 -36 26t-7 24q0 13 27 46l153 186q29 36 50 36q11 0 44 -21l67 -43q27 -18 34 -26.5t7 -23.5q0 -18 -32 -48z" />
    <glyph glyph-name="hungarumlaut" unicode="&#x2dd;" vert-adv-y="2457" 
d="M569 1294l-182 -181q-31 -31 -48 -31t-48 31l-20 20q-31 31 -31 49q0 13 23 45l143 206q19 27 27 34t23 7q14 0 47 -29l62 -54q35 -30 35 -49q0 -17 -31 -48zM924 1294l-182 -181q-31 -31 -48 -31t-48 31l-20 20q-31 31 -31 49q0 12 23 45l143 206q19 27 27 34t23 7
q14 0 47 -29l62 -54q35 -30 35 -49q0 -17 -31 -48z" />
    <glyph glyph-name="ogonek" unicode="&#x2db;" vert-adv-y="2457" 
d="M529 0l110 -1q-84 -95 -84 -141q0 -32 23.5 -55t55.5 -23q9 0 22 2q17 3 28 3q35 0 35 -37q0 -19 -11.5 -60t-19.5 -49q-13 -13 -56 -24t-83 -11q-76 0 -129 48t-53 117t43.5 131t118.5 100z" />
    <glyph glyph-name="caron" unicode="&#x2c7;" vert-adv-y="2457" 
d="M509 1322l210 162q32 26 46 26q18 0 49 -34l52 -57q29 -31 29 -47q0 -21 -38 -50l-302 -223q-33 -24 -46 -24q-14 0 -46 25l-297 223q-38 28 -38 49q0 15 28 47l48 56q30 34 50 34q14 0 46 -25z" />
    <glyph glyph-name="currency" unicode="&#xa4;" horiz-adv-x="1365" vert-adv-y="2457" 
d="M252 492q-89 131 -89 281q0 147 91 281l-179 178q-18 18 -18 35t18 36l74 74q18 18 36 18q17 0 35 -18l178 -178q137 90 287 90q147 0 280 -87l176 174q18 18 35 18t36 -19l72 -73q19 -18 19 -35t-19 -35l-173 -174q93 -146 93 -285q0 -144 -89 -280l176 -176
q18 -18 18 -35t-18 -36l-73 -73q-18 -19 -35 -19q-16 0 -35 19l-175 174q-138 -92 -291 -92q-141 0 -287 91l-175 -173q-19 -19 -35 -19t-35 19l-73 73q-18 18 -18 35t18 35zM681 1052q-112 0 -194 -82q-81 -82 -81 -198t81 -198q82 -82 197 -82t197 82q81 82 81 198
q0 118 -81 198q-84 82 -200 82z" />
    <glyph glyph-name="brokenbar" unicode="&#xa6;" vert-adv-y="2457" 
d="M367 1365h291q50 0 50 -50v-640q0 -50 -50 -50h-291q-50 0 -50 50v640q0 50 50 50zM367 314h291q50 0 50 -50v-555q0 -50 -50 -50h-291q-50 0 -50 50v555q0 50 50 50z" />
    <glyph glyph-name="twosuperior" unicode="&#xb2;" horiz-adv-x="792" vert-adv-y="2457" 
d="M381 696h192q92 0 92 -75q0 -36 -24 -55.5t-68 -19.5h-408q-54 0 -54 45q0 16 17 36l176 200q102 115 142 180t40 113q0 50 -34.5 85.5t-82.5 35.5q-40 0 -62 -18.5t-51 -77.5q-23 -43 -77 -43h-10q-32 0 -54 21.5t-22 53.5q0 37 28 82q81 132 246 132q131 0 213 -80
q79 -79 79 -190q0 -69 -34.5 -136.5t-113.5 -150.5z" />
    <glyph glyph-name="threesuperior" unicode="&#xb3;" horiz-adv-x="792" vert-adv-y="2457" 
d="M549 984q54 -26 85 -79.5t31 -122.5q0 -132 -103 -205q-79 -57 -190 -57q-174 0 -263 141q-19 30 -19 59t20.5 49t49.5 20h14q55 0 82 -50q38 -69 119 -69q53 0 88 35t35 89q0 49 -29 82t-78 40q-22 3 -37 21t-15 43q0 49 56 63q78 19 78 100q0 43 -29 71t-73 28
q-35 0 -53.5 -12.5t-48.5 -54.5q-25 -35 -73 -35h-9q-26 0 -45 18.5t-19 45.5q0 22 15 50q71 133 243 133q117 0 186 -67q67 -64 67 -164q0 -112 -85 -172z" />
    <glyph glyph-name="onesuperior" unicode="&#xb9;" horiz-adv-x="792" vert-adv-y="2457" 
d="M317 1215h-29q-42 0 -66 20t-24 55q0 36 24 55.5t68 19.5h99q103 3 100 -100v-619q0 -100 -83 -100h-6q-87 4 -83 100v569z" />
    <glyph glyph-name="onequarter" unicode="&#xbc;" horiz-adv-x="1862" vert-adv-y="2457" 
d="M308 1215h-29q-42 0 -66 20t-24 55q0 36 24 55.5t68 19.5h99q103 3 100 -100v-619q0 -100 -83 -100h-6q-87 4 -83 100v569zM1343 1284l-736 -1274q-25 -43 -62 -43q-26 0 -44.5 18.5t-18.5 44.5q0 16 16 44l737 1272q26 45 65 42q25 -2 41.5 -19.5t16.5 -41.5
q0 -17 -15 -43zM1696 283h17q36 0 57.5 -19.5t21.5 -51.5q0 -31 -21.5 -50.5t-57.5 -19.5h-17v-44q0 -47 -21 -72.5t-59 -25.5t-59 25.5t-21 72.5v44h-363q-16 0 -29.5 14.5t-13.5 33.5q0 14 5 22l360 547q28 43 53 58.5t64 15.5h8q36 0 56 -24t20 -68v-458zM1536 283v290
l-189 -290h189z" />
    <glyph glyph-name="onehalf" unicode="&#xbd;" horiz-adv-x="1826" vert-adv-y="2457" 
d="M308 1215h-29q-42 0 -66 20t-24 55q0 36 24 55.5t68 19.5h99q103 3 100 -100v-619q0 -100 -83 -100h-6q-87 4 -83 100v569zM1343 1284l-736 -1274q-25 -43 -62 -43q-26 0 -44.5 18.5t-18.5 44.5q0 16 16 44l737 1272q26 45 65 42q25 -2 41.5 -19.5t16.5 -41.5
q0 -17 -15 -43zM1432 150h192q44 0 68 -19.5t24 -55.5t-24 -55.5t-68 -19.5h-408q-55 0 -55 45q0 15 18 36l176 200q99 113 140 179t41 115t-34.5 84.5t-82.5 35.5q-39 0 -61 -18.5t-52 -77.5q-22 -43 -76 -43h-10q-32 0 -54 22t-22 53q0 37 28 82q81 132 246 132
q131 0 212 -80q80 -79 80 -189q0 -70 -35 -137.5t-113 -150.5z" />
    <glyph glyph-name="threequarters" unicode="&#xbe;" horiz-adv-x="1855" vert-adv-y="2457" 
d="M536 984q54 -26 85 -79.5t31 -122.5q0 -132 -103 -205q-79 -57 -190 -57q-174 0 -263 141q-19 30 -19 59t20.5 49t49.5 20h14q55 0 82 -50q38 -69 119 -69q53 0 88 35t35 89q0 49 -29 82t-78 40q-22 3 -37 21t-15 43q0 49 56 63q78 19 78 100q0 43 -29 71t-73 28
q-35 0 -53.5 -12.5t-48.5 -54.5q-25 -35 -73 -35h-9q-26 0 -45 18.5t-19 45.5q0 22 15 50q71 133 243 133q117 0 186 -67q67 -64 67 -164q0 -112 -85 -172zM1335 1284l-736 -1274q-25 -43 -61 -43q-26 0 -44.5 18.5t-18.5 44.5q0 17 16 44l737 1272q26 45 65 42
q25 -2 41.5 -19.5t16.5 -42.5q0 -15 -16 -42zM1689 283h17q36 0 57.5 -19.5t21.5 -51.5q0 -31 -21.5 -50.5t-57.5 -19.5h-17v-44q0 -47 -21 -72.5t-59 -25.5t-59 25.5t-21 72.5v44h-363q-16 0 -29.5 14.5t-13.5 33.5q0 14 5 22l360 547q29 43 53.5 58.5t63.5 15.5h8
q80 -4 76 -92v-458zM1529 283v290l-189 -290h189z" />
    <glyph glyph-name="Eth" unicode="&#xd0;" horiz-adv-x="1423" vert-adv-y="2457" 
d="M143 587h-46q-45 0 -56.5 11.5t-11.5 56.5v137q0 45 11.5 56.5t56.5 11.5h46v437q0 45 11.5 56.5t56.5 11.5h456q256 0 449 -181q109 -102 169 -240q55 -129 55 -262q0 -193 -110 -365q-110 -171 -288 -255q-132 -62 -275 -62h-456q-45 0 -56.5 11.5t-11.5 56.5v519z
M498 587v-287h81q100 0 169 27t122 87q99 111 99 268q0 158 -99 269q-53 60 -122 87t-169 27h-81v-205h146q45 0 56.5 -11.5t11.5 -56.5v-137q0 -45 -11.5 -56.5t-56.5 -11.5h-146z" />
    <glyph glyph-name="Eth" unicode="&#x110;" horiz-adv-x="1423" vert-adv-y="2457" 
d="M143 587h-46q-45 0 -56.5 11.5t-11.5 56.5v137q0 45 11.5 56.5t56.5 11.5h46v437q0 45 11.5 56.5t56.5 11.5h456q256 0 449 -181q109 -102 169 -240q55 -129 55 -262q0 -193 -110 -365q-110 -171 -288 -255q-132 -62 -275 -62h-456q-45 0 -56.5 11.5t-11.5 56.5v519z
M498 587v-287h81q100 0 169 27t122 87q99 111 99 268q0 158 -99 269q-53 60 -122 87t-169 27h-81v-205h146q45 0 56.5 -11.5t11.5 -56.5v-137q0 -45 -11.5 -56.5t-56.5 -11.5h-146z" />
    <glyph glyph-name="multiply" unicode="&#xd7;" horiz-adv-x="1229" vert-adv-y="2457" 
d="M615 847l212 212q31 31 49 31q17 0 48 -31l67 -67q32 -32 32 -49q0 -16 -32 -48l-212 -212l212 -213q32 -31 32 -48t-32 -48l-67 -68q-31 -31 -49 -31q-17 0 -48 31l-212 213l-213 -213q-31 -31 -48 -31t-48 31l-68 68q-31 31 -31 48t31 48l213 213l-213 212
q-31 31 -31 48t31 49l68 67q31 31 48 31q18 0 48 -31z" />
    <glyph glyph-name="Yacute" unicode="&#xdd;" horiz-adv-x="1311" vert-adv-y="2457" 
d="M470 656l-434 622q-23 34 -23 49q0 21 15.5 29.5t52.5 8.5h271q38 0 46 -4.5t30 -35.5l230 -332l221 331q21 32 29.5 36.5t46.5 4.5h274q68 0 68 -38q0 -16 -24 -49l-448 -622v-588q0 -45 -11.5 -56.5t-56.5 -11.5h-219q-45 0 -56.5 11.5t-11.5 56.5v588zM943 1668
l-234 -160q-32 -22 -45 -22q-17 0 -48 30l-42 39q-33 30 -33 49q0 18 32 48l198 188q31 30 48 30q16 0 47 -29l83 -75q34 -31 34 -49q0 -14 -7.5 -23t-32.5 -26z" />
    <glyph glyph-name="Thorn" unicode="&#xde;" horiz-adv-x="1242" vert-adv-y="2457" 
d="M498 1191h210q119 0 196.5 -26t143.5 -88q134 -126 134 -339q0 -208 -110 -332q-112 -127 -352 -127h-222v-211q0 -45 -11.5 -56.5t-56.5 -11.5h-219q-45 0 -56.5 11.5t-11.5 56.5v1229q0 45 11.5 56.5t56.5 11.5h219q45 0 56.5 -11.5t11.5 -56.5v-106zM498 564h118
q103 0 145 39q50 46 50 130q0 173 -194 173h-119v-342z" />
    <glyph glyph-name="eth" unicode="&#xf0;" horiz-adv-x="1267" vert-adv-y="2457" 
d="M814 1243q91 -88 157 -177q221 -299 221 -588q0 -243 -167 -384q-84 -71 -209 -105q-88 -24 -183 -24q-162 0 -297 67q-127 63 -199 192q-62 108 -62 240q0 225 169 368q154 131 361 131q63 0 177 -17q-77 91 -180 188l-144 -77q-26 -14 -45 -14q-44 0 -68 44l-12 21
q-13 23 -13 42q0 45 50 71l71 38q-26 14 -50 24q-73 32 -93 50t-20 51q0 22 16 46l21 33q28 43 68 43q27 0 110 -38q24 -11 162 -94l146 77q27 14 44 14q42 0 68 -43l14 -22q14 -24 14 -44q0 -45 -49 -71zM634 680q-89 0 -150 -62q-62 -63 -62 -154q0 -85 62 -148
q61 -63 149 -63t150 63q62 62 62 151q0 90 -62 151q-63 62 -149 62z" />
    <glyph glyph-name="yacute" unicode="&#xfd;" horiz-adv-x="1246" vert-adv-y="2457" 
d="M448 127l-400 716q-19 33 -19 47q0 21 15 29.5t53 8.5h232q40 0 49 -5.5t27 -40.5l224 -430l218 429q18 36 27 41.5t49 5.5h227q38 0 53 -8.5t15 -29.5q0 -14 -17 -46l-676 -1262q-18 -35 -27.5 -40.5t-48.5 -5.5h-221q-36 0 -47 5q-21 10 -21 33q0 13 18 46zM880 1292
l-211 -187q-31 -28 -48 -28q-14 0 -46 24l-46 34q-27 19 -33 27.5t-6 22.5t26 46l173 211q20 25 28 31t22 6q12 0 45 -24l91 -65q39 -28 39 -50q0 -18 -34 -48z" />
    <glyph glyph-name="thorn" unicode="&#xfe;" horiz-adv-x="1193" vert-adv-y="2457" 
d="M380 91v-487q0 -45 -11.5 -56.5t-56.5 -11.5h-191q-46 0 -57.5 11.5t-11.5 56.5l-1 1693q0 45 11.5 56.5t56.5 11.5h192q45 0 56.5 -11.5t11.5 -56.5l1 -472q106 133 286 133q117 0 224 -59q117 -66 182 -181q63 -112 63 -256q0 -237 -165 -379q-131 -113 -301 -113
q-90 0 -159 29t-130 92zM582 675q-88 0 -150 -62t-62 -149q0 -88 62 -150t150 -62q89 0 150 62q62 63 62 152q0 86 -62.5 147.5t-149.5 61.5z" />
    <glyph glyph-name="Amacron" unicode="&#x100;" horiz-adv-x="1454" vert-adv-y="2457" 
d="M973 238h-490l-73 -187q-15 -37 -25 -44t-51 -7h-233q-38 0 -53 8.5t-15 29.5q0 11 12 43l474 1232q3 8 6 17q9 24 20 29.5t49 5.5h276q41 0 51 -7t24 -45l465 -1232q12 -31 12 -43q0 -21 -15 -29.5t-53 -8.5h-237q-41 0 -51 7t-24 45zM877 508l-147 435l-149 -435h296z
M389 1750h676q45 0 56.5 -11.5t11.5 -56.5v-65q0 -45 -11.5 -56.5t-56.5 -11.5h-676q-45 0 -56.5 11.5t-11.5 56.5v65q0 45 11.5 56.5t56.5 11.5z" />
    <glyph glyph-name="amacron" unicode="&#x101;" horiz-adv-x="1270" vert-adv-y="2457" 
d="M830 103q-105 -133 -286 -133q-117 0 -223 59q-118 66 -183 181q-63 112 -63 256q0 237 165 379q131 113 301 113q90 0 159.5 -29t129.5 -92v23q0 45 12 56.5t57 11.5h191q45 0 56.5 -11.5t11.5 -56.5v-792q0 -45 -11.5 -56.5t-56.5 -11.5h-191q-45 0 -57 11.5t-12 56.5
v35zM628 675q-88 0 -150 -62t-62 -151q0 -84 62 -147q61 -62 150 -62q88 0 150 62t62 149q0 89 -62 149q-64 62 -150 62zM297 1293h676q45 0 56.5 -11.5t11.5 -56.5v-65q0 -45 -11.5 -56.5t-56.5 -11.5h-676q-45 0 -56.5 11.5t-11.5 56.5v65q0 45 11.5 56.5t56.5 11.5z" />
    <glyph glyph-name="Abreve" unicode="&#x102;" horiz-adv-x="1454" vert-adv-y="2457" 
d="M973 238h-490l-73 -187q-15 -37 -25 -44t-51 -7h-233q-38 0 -53 8.5t-15 29.5q0 11 12 43l474 1232q3 8 6 17q9 24 20 29.5t49 5.5h276q41 0 51 -7t24 -45l465 -1232q12 -31 12 -43q0 -21 -15 -29.5t-53 -8.5h-237q-41 0 -51 7t-24 45zM877 508l-147 435l-149 -435h296z
M408 1810h100q36 0 47.5 -5t19.5 -25q37 -91 152 -91q116 0 153 91q8 20 19 25t48 5h99q39 0 53.5 -8.5t14.5 -31.5q0 -48 -37 -106.5t-92 -98.5q-96 -70 -258 -70q-184 0 -287 93q-45 42 -72.5 91.5t-27.5 90.5q0 23 15 31.5t53 8.5z" />
    <glyph glyph-name="abreve" unicode="&#x103;" horiz-adv-x="1270" vert-adv-y="2457" 
d="M830 103q-105 -133 -286 -133q-117 0 -223 59q-118 66 -183 181q-63 112 -63 256q0 237 165 379q131 113 301 113q90 0 159.5 -29t129.5 -92v23q0 45 12 56.5t57 11.5h191q45 0 56.5 -11.5t11.5 -56.5v-792q0 -45 -11.5 -56.5t-56.5 -11.5h-191q-45 0 -57 11.5t-12 56.5
v35zM628 675q-88 0 -150 -62t-62 -151q0 -84 62 -147q61 -62 150 -62q88 0 150 62t62 149q0 89 -62 149q-64 62 -150 62zM351 1387h81q40 0 50 -7t25 -45q12 -31 47.5 -50.5t80.5 -19.5q56 0 86.5 21t50.5 72q7 19 18.5 24t47.5 5h81q38 0 53 -9t15 -33q0 -47 -33 -104
t-84 -99q-88 -71 -235 -71q-166 0 -261 95q-91 90 -91 179q0 24 15 33t53 9z" />
    <glyph glyph-name="Aogonek" unicode="&#x104;" horiz-adv-x="1454" vert-adv-y="2457" 
d="M1370 0l-8 -8q-69 -68 -81 -84.5t-12 -45.5q0 -34 23.5 -55.5t60.5 -21.5q9 0 35 5q7 1 14 1q37 0 37 -35q0 -15 -16 -77q-3 -11 -5 -18q-6 -25 -22 -34q-44 -24 -132 -24q-103 0 -162 58q-51 49 -51 118q0 59 39 120t102 101h-75q-41 0 -51 7t-24 45l-69 186h-490
l-73 -187q-15 -37 -25 -44t-51 -7h-233q-38 0 -53 8.5t-15 29.5q0 11 12 43l474 1232q3 8 6 17q9 24 20 29.5t49 5.5h276q41 0 51 -7t24 -45l465 -1232q12 -31 12 -43q0 -37 -52 -38zM877 508l-147 435l-149 -435h296z" />
    <glyph glyph-name="aogonek" unicode="&#x105;" horiz-adv-x="1270" vert-adv-y="2457" 
d="M1081 0q-72 -82 -72 -127q0 -32 23.5 -55t54.5 -23q9 0 23 2q16 3 28 3q34 0 34 -37q0 -19 -11.5 -60t-19.5 -49q-13 -13 -55.5 -24t-83.5 -11q-75 0 -128 48t-53 117q0 60 38 121.5t96 94.5h-56q-45 0 -57 11.5t-12 56.5v35q-105 -133 -286 -133q-117 0 -223 59
q-118 66 -183 181q-63 112 -63 256q0 237 165 379q131 113 301 113q90 0 159.5 -29t129.5 -92v23q0 45 12 56.5t57 11.5h191q45 0 56.5 -11.5t11.5 -56.5v-792q0 -45 -11.5 -56.5t-56.5 -11.5h-9zM628 675q-88 0 -150 -62t-62 -151q0 -84 62 -147q61 -62 150 -62
q88 0 150 62t62 149q0 89 -62 149q-64 62 -150 62z" />
    <glyph glyph-name="Cacute" unicode="&#x106;" horiz-adv-x="1208" vert-adv-y="2457" 
d="M1126 1269v-246q0 -39 -9 -54t-32 -15q-10 0 -25 12q-112 84 -240 84q-164 0 -272 -113q-95 -100 -95 -263q0 -176 120 -277q106 -90 253 -90q143 0 245 84q12 10 25 10q18 0 24 -14t6 -54v-246q0 -32 -3 -42.5t-14 -17.5q-6 -5 -21 -10q-109 -34 -160.5 -44t-115.5 -10
q-192 0 -365 95q-184 101 -278 268q-87 154 -87 345q0 213 106 384q100 162 277 254q162 85 341 85q143 0 287 -57q23 -8 28 -19t5 -49zM891 1668l-233 -160q-33 -22 -45 -22q-17 0 -48 30l-43 39q-33 31 -33 49q0 17 33 48l197 188q32 30 49 30q15 0 47 -29l83 -75
q34 -31 34 -49q0 -22 -41 -49z" />
    <glyph glyph-name="cacute" unicode="&#x107;" horiz-adv-x="887" vert-adv-y="2457" 
d="M812 852v-127q0 -37 -5 -48q-10 -21 -33 -21q-9 0 -24 6q-60 24 -107 24q-107 0 -173 -73q-54 -60 -54 -152q0 -100 66 -161q67 -62 160 -62q52 0 107 22q17 6 25 6q38 0 38 -68v-123q0 -32 -2.5 -41t-11.5 -17q-23 -18 -90.5 -33t-124.5 -15q-145 0 -271 75
q-237 140 -237 412q0 230 166 375q143 126 350 126q61 0 123 -14t84 -33q14 -11 14 -58zM700 1292l-210 -187q-32 -28 -48 -28q-14 0 -46 24l-47 34q-26 19 -32.5 27t-6.5 23q0 13 27 46l173 211q20 25 28 31t22 6q12 0 45 -24l90 -65q40 -28 40 -50q0 -18 -35 -48z" />
    <glyph glyph-name="Ccircumflex" unicode="&#x108;" horiz-adv-x="1208" vert-adv-y="2457" 
d="M1126 1269v-246q0 -39 -9 -54t-32 -15q-10 0 -25 12q-112 84 -240 84q-164 0 -272 -113q-95 -100 -95 -263q0 -176 120 -277q106 -90 253 -90q143 0 245 84q12 10 25 10q18 0 24 -14t6 -54v-246q0 -32 -3 -42.5t-14 -17.5q-6 -5 -21 -10q-109 -34 -160.5 -44t-115.5 -10
q-192 0 -365 95q-184 101 -278 268q-87 154 -87 345q0 213 106 384q100 162 277 254q162 85 341 85q143 0 287 -57q23 -8 28 -19t5 -49zM725 1635l-288 -134q-33 -15 -44 -15q-13 0 -22 7.5t-26 34.5l-26 43q-21 32 -21 44q0 16 8 25t37 25l338 187q11 6 16 9q17 10 28 10
q10 0 44 -19l339 -187q29 -17 37 -25.5t8 -24.5q0 -11 -21 -44l-27 -43q-17 -27 -25.5 -34.5t-22.5 -7.5q-11 0 -43 15z" />
    <glyph glyph-name="ccircumflex" unicode="&#x109;" horiz-adv-x="887" vert-adv-y="2457" 
d="M812 852v-127q0 -37 -5 -48q-10 -21 -33 -21q-9 0 -24 6q-60 24 -107 24q-107 0 -173 -73q-54 -60 -54 -152q0 -100 66 -161q67 -62 160 -62q52 0 107 22q17 6 25 6q38 0 38 -68v-123q0 -32 -2.5 -41t-11.5 -17q-23 -18 -90.5 -33t-124.5 -15q-145 0 -271 75
q-237 140 -237 412q0 230 166 375q143 126 350 126q61 0 123 -14t84 -33q14 -11 14 -58zM485 1267l-209 -162q-34 -25 -47 -25q-19 0 -49 34l-48 56q-29 32 -29 47q0 14 6 22t33 27l296 223q33 25 47 25q13 0 46 -24l301 -223q26 -20 32.5 -28t6.5 -22q0 -15 -29 -47
l-52 -57q-7 -8 -13 -14q-18 -20 -37 -20q-12 0 -46 26z" />
    <glyph glyph-name="Cdotaccent" unicode="&#x10a;" horiz-adv-x="1208" vert-adv-y="2457" 
d="M1126 1269v-246q0 -39 -9 -54t-32 -15q-10 0 -25 12q-112 84 -240 84q-164 0 -272 -113q-95 -100 -95 -263q0 -176 120 -277q106 -90 253 -90q143 0 245 84q12 10 25 10q18 0 24 -14t6 -54v-246q0 -32 -3 -42.5t-14 -17.5q-6 -5 -21 -10q-109 -34 -160.5 -44t-115.5 -10
q-192 0 -365 95q-184 101 -278 268q-87 154 -87 345q0 213 106 384q100 162 277 254q162 85 341 85q143 0 287 -57q23 -8 28 -19t5 -49zM680 1864q74 0 126 -52t52 -125q0 -74 -52 -126t-125 -52q-75 0 -126.5 52.5t-51.5 127.5q0 71 52.5 123t124.5 52z" />
    <glyph glyph-name="cdotaccent" unicode="&#x10b;" horiz-adv-x="887" vert-adv-y="2457" 
d="M812 852v-127q0 -37 -5 -48q-10 -21 -33 -21q-9 0 -24 6q-60 24 -107 24q-107 0 -173 -73q-54 -60 -54 -152q0 -100 66 -161q67 -62 160 -62q52 0 107 22q17 6 25 6q38 0 38 -68v-123q0 -32 -2.5 -41t-11.5 -17q-23 -18 -90.5 -33t-124.5 -15q-145 0 -271 75
q-237 140 -237 412q0 230 166 375q143 126 350 126q61 0 123 -14t84 -33q14 -11 14 -58zM468 1445q77 0 131 -54q55 -55 55 -132q0 -78 -54.5 -132.5t-131.5 -54.5q-78 0 -132 55q-55 55 -55 134q0 75 55 129.5t132 54.5z" />
    <glyph glyph-name="Ccaron" unicode="&#x10c;" horiz-adv-x="1208" vert-adv-y="2457" 
d="M1126 1269v-246q0 -39 -9 -54t-32 -15q-10 0 -25 12q-112 84 -240 84q-164 0 -272 -113q-95 -100 -95 -263q0 -176 120 -277q106 -90 253 -90q143 0 245 84q12 10 25 10q18 0 24 -14t6 -54v-246q0 -32 -3 -42.5t-14 -17.5q-6 -5 -21 -10q-109 -34 -160.5 -44t-115.5 -10
q-192 0 -365 95q-184 101 -278 268q-87 154 -87 345q0 213 106 384q100 162 277 254q162 85 341 85q143 0 287 -57q23 -8 28 -19t5 -49zM675 1716l289 134q33 15 43 15q21 0 48 -42l27 -43q21 -33 21 -45q0 -15 -8 -23.5t-38 -25.5l-338 -187q-10 -5 -16 -9q-17 -10 -28 -10
q-10 0 -44 19l-338 187q-30 17 -38 25.5t-8 24.5q0 11 22 44l26 43q27 42 48 42q10 0 43 -15z" />
    <glyph glyph-name="ccaron" unicode="&#x10d;" horiz-adv-x="887" vert-adv-y="2457" 
d="M812 852v-127q0 -37 -5 -48q-10 -21 -33 -21q-9 0 -24 6q-60 24 -107 24q-107 0 -173 -73q-54 -60 -54 -152q0 -100 66 -161q67 -62 160 -62q52 0 107 22q17 6 25 6q38 0 38 -68v-123q0 -32 -2.5 -41t-11.5 -17q-23 -18 -90.5 -33t-124.5 -15q-145 0 -271 75
q-237 140 -237 412q0 230 166 375q143 126 350 126q61 0 123 -14t84 -33q14 -11 14 -58zM475 1322l210 162q32 26 46 26q18 0 49 -34l52 -57q29 -31 29 -47q0 -21 -38 -50l-302 -223q-32 -24 -46 -24t-46 25l-297 223q-38 28 -38 49q0 15 28 47l49 56q30 34 49 34
q14 0 46 -25z" />
    <glyph glyph-name="Dcaron" unicode="&#x10e;" horiz-adv-x="1423" vert-adv-y="2457" 
d="M143 68v1229q0 45 11.5 56.5t56.5 11.5h456q256 0 449 -181q110 -102 169 -240q55 -129 55 -261q0 -194 -110 -366q-110 -171 -288 -255q-132 -62 -275 -62h-456q-45 0 -56.5 11.5t-11.5 56.5zM498 300h81q100 0 169 27t122 87q99 111 99 269q0 157 -99 268
q-53 60 -122 87t-169 27h-81v-765zM593 1716l289 134q33 15 43 15q21 0 48 -42l27 -43q21 -33 21 -45q0 -15 -8 -23.5t-38 -25.5l-338 -187q-10 -5 -16 -9q-17 -10 -28 -10q-10 0 -44 19l-338 187q-29 16 -37 25t-8 25q0 12 21 44l26 43q27 42 48 42q10 0 44 -15z" />
    <glyph glyph-name="dcaron" unicode="&#x10f;" horiz-adv-x="1290" vert-adv-y="2457" 
d="M830 103q-106 -133 -286 -133q-117 0 -224 59q-117 66 -182 181q-63 112 -63 256q0 237 165 379q131 113 301 113q90 0 159 -29t130 -92v597q0 45 11.5 56.5t56.5 11.5h192q45 0 56.5 -11.5t11.5 -56.5v-1366q0 -45 -11.5 -56.5t-56.5 -11.5h-192q-45 0 -56.5 11.5
t-11.5 56.5v35zM628 675q-88 0 -150 -62t-62 -151q0 -84 62 -147q61 -62 150 -62q88 0 150 62t62 149q0 89 -62 149q-64 62 -150 62zM1580 1357l-184 -180q-31 -30 -49 -30q-12 0 -45 23l-51 36q-26 18 -33 26.5t-7 23.5q0 13 25 46l156 199q20 25 28 31t22 6q11 0 45 -23
l85 -60q27 -19 33.5 -27t6.5 -23q0 -17 -32 -48z" />
    <glyph glyph-name="dcroat" unicode="&#x111;" horiz-adv-x="1270" vert-adv-y="2457" 
d="M830 1087h-195q-45 0 -56.5 11.5t-11.5 56.5v137q0 45 11.5 56.5t56.5 11.5h195v74q0 45 11.5 56.5t56.5 11.5h192q45 0 56.5 -11.5t11.5 -56.5v-74h8h9q30 0 39.5 -13.5t9.5 -54.5v-137q0 -41 -9.5 -54.5t-39.5 -13.5h-9h-8v-1019q0 -45 -11.5 -56.5t-56.5 -11.5h-192
q-45 0 -56.5 11.5t-11.5 56.5v35q-106 -133 -286 -133q-117 0 -224 59q-117 66 -182 181q-63 112 -63 256q0 237 165 379q132 113 301 113q90 0 159 -29t130 -92v250zM628 675q-88 0 -150 -62t-62 -151q0 -84 62 -147q62 -62 150 -62t150 62t62 149q0 89 -62 149
q-64 62 -150 62z" />
    <glyph glyph-name="Emacron" unicode="&#x112;" horiz-adv-x="1002" vert-adv-y="2457" 
d="M498 1065v-228h331q45 0 56.5 -11.5t11.5 -56.5v-164q0 -45 -11.5 -56.5t-56.5 -11.5h-331v-237h354q45 0 56.5 -11.5t11.5 -56.5v-164q0 -45 -11.5 -56.5t-56.5 -11.5h-641q-45 0 -56.5 11.5t-11.5 56.5v1229q0 45 11.5 56.5t56.5 11.5h641q45 0 56.5 -11.5t11.5 -56.5
v-164q0 -45 -11.5 -56.5t-56.5 -11.5h-354zM190 1750h676q45 0 56.5 -11.5t11.5 -56.5v-65q0 -45 -11.5 -56.5t-56.5 -11.5h-676q-45 0 -56.5 11.5t-11.5 56.5v65q0 45 11.5 56.5t56.5 11.5z" />
    <glyph glyph-name="emacron" unicode="&#x113;" horiz-adv-x="1172" vert-adv-y="2457" 
d="M406 404q3 -209 199 -209q55 0 89.5 16t60.5 54q8 12 17.5 15t43.5 3h180q38 0 53 -8.5t15 -30.5t-19 -60t-44 -66q-139 -155 -395 -155t-402 150q-129 133 -129 344q0 150 70 273q127 224 445 224q282 0 413 -187q94 -133 94 -308q0 -35 -13 -45t-56 -10h-622zM791 594
q-17 69 -67.5 108.5t-123.5 39.5q-75 0 -123.5 -39t-61.5 -109h376zM248 1293h676q45 0 56.5 -11.5t11.5 -56.5v-65q0 -45 -11.5 -56.5t-56.5 -11.5h-676q-45 0 -56.5 11.5t-11.5 56.5v65q0 45 11.5 56.5t56.5 11.5z" />
    <glyph glyph-name="Ebreve" unicode="&#x114;" horiz-adv-x="1002" vert-adv-y="2457" 
d="M498 1065v-228h331q45 0 56.5 -11.5t11.5 -56.5v-164q0 -45 -11.5 -56.5t-56.5 -11.5h-331v-237h354q45 0 56.5 -11.5t11.5 -56.5v-164q0 -45 -11.5 -56.5t-56.5 -11.5h-641q-45 0 -56.5 11.5t-11.5 56.5v1229q0 45 11.5 56.5t56.5 11.5h641q45 0 56.5 -11.5t11.5 -56.5
v-164q0 -45 -11.5 -56.5t-56.5 -11.5h-354zM182 1810h100q36 0 47 -5t20 -25q36 -91 152 -91t152 91q8 20 19.5 25t47.5 5h99q39 0 54 -9t15 -31q0 -48 -36.5 -106t-92.5 -99q-96 -70 -258 -70q-184 0 -287 93q-45 42 -72.5 91.5t-27.5 90.5q0 23 15 31.5t53 8.5z" />
    <glyph glyph-name="ebreve" unicode="&#x115;" horiz-adv-x="1172" vert-adv-y="2457" 
d="M406 404q3 -209 199 -209q55 0 89.5 16t60.5 54q8 12 17.5 15t43.5 3h180q38 0 53 -8.5t15 -30.5t-19 -60t-44 -66q-139 -155 -395 -155t-402 150q-129 133 -129 344q0 150 70 273q127 224 445 224q282 0 413 -187q94 -133 94 -308q0 -35 -13 -45t-56 -10h-622zM791 594
q-17 69 -67.5 108.5t-123.5 39.5q-75 0 -123.5 -39t-61.5 -109h376zM317 1387h80q41 0 51 -7t24 -45q12 -31 47.5 -50.5t81.5 -19.5q56 0 86.5 21t49.5 72q7 19 19 24t48 5h80q38 0 53 -9t15 -33q0 -47 -33 -104t-84 -99q-88 -71 -235 -71q-165 0 -260 95q-91 90 -91 179
q0 24 15 33t53 9z" />
    <glyph glyph-name="Edotaccent" unicode="&#x116;" horiz-adv-x="1002" vert-adv-y="2457" 
d="M498 1065v-228h331q45 0 56.5 -11.5t11.5 -56.5v-164q0 -45 -11.5 -56.5t-56.5 -11.5h-331v-237h354q45 0 56.5 -11.5t11.5 -56.5v-164q0 -45 -11.5 -56.5t-56.5 -11.5h-641q-45 0 -56.5 11.5t-11.5 56.5v1229q0 45 11.5 56.5t56.5 11.5h641q45 0 56.5 -11.5t11.5 -56.5
v-164q0 -45 -11.5 -56.5t-56.5 -11.5h-354zM530 1864q74 0 126 -52t52 -125q0 -74 -52 -126t-125 -52q-75 0 -126.5 52t-51.5 128q0 71 52.5 123t124.5 52z" />
    <glyph glyph-name="edotaccent" unicode="&#x117;" horiz-adv-x="1172" vert-adv-y="2457" 
d="M406 404q3 -209 199 -209q55 0 89.5 16t60.5 54q8 12 17.5 15t43.5 3h180q38 0 53 -8.5t15 -30.5t-19 -60t-44 -66q-139 -155 -395 -155t-402 150q-129 133 -129 344q0 150 70 273q127 224 445 224q282 0 413 -187q94 -133 94 -308q0 -35 -13 -45t-56 -10h-622zM791 594
q-17 69 -67.5 108.5t-123.5 39.5q-75 0 -123.5 -39t-61.5 -109h376zM603 1445q77 0 131 -54q55 -55 55 -132q0 -78 -54.5 -132.5t-131.5 -54.5q-78 0 -132 55q-55 55 -55 134q0 75 55 129.5t132 54.5z" />
    <glyph glyph-name="Eogonek" unicode="&#x118;" horiz-adv-x="1002" vert-adv-y="2457" 
d="M888 1q-75 -71 -91.5 -93t-16.5 -51q0 -34 23.5 -55.5t60.5 -21.5q10 0 35 5q7 1 14 1q37 0 37 -35q0 -15 -16 -77q-3 -11 -5 -18q-6 -25 -22 -34q-43 -24 -132 -24q-103 0 -162 58q-51 49 -51 118q0 62 39.5 121.5t109.5 104.5h-500q-45 0 -56.5 11.5t-11.5 56.5v1229
q0 45 11.5 56.5t56.5 11.5h641q45 0 56.5 -11.5t11.5 -56.5v-164q0 -45 -11.5 -56.5t-56.5 -11.5h-354v-228h331q45 0 56.5 -11.5t11.5 -56.5v-164q0 -45 -11.5 -56.5t-56.5 -11.5h-331v-237h354q45 0 56.5 -11.5t11.5 -56.5v-164q0 -36 -6 -49t-26 -18z" />
    <glyph glyph-name="eogonek" unicode="&#x119;" horiz-adv-x="1172" vert-adv-y="2457" 
d="M406 404q3 -208 199 -208q55 0 89 16t61 54q8 11 18 14t43 3h180q38 0 53 -8.5t15 -29.5q0 -36 -32 -87q-47 -76 -199 -154q-82 -42 -117.5 -78.5t-35.5 -77.5q0 -32 23.5 -55t55.5 -23q8 0 22 2q17 3 28 3q35 0 35 -37q0 -19 -11.5 -60t-19.5 -49q-13 -13 -56 -24
t-83 -11q-76 0 -129 48t-53 117q0 54 33 111.5t83 93.5q-218 -1 -357 107q-176 137 -176 387q0 150 70 272q127 224 445 224q282 0 413 -187q94 -133 94 -308q0 -35 -13 -45t-56 -10h-622zM791 594q-17 69 -67.5 108.5t-123.5 39.5q-75 0 -123.5 -39t-61.5 -109h376z" />
    <glyph glyph-name="Ecaron" unicode="&#x11a;" horiz-adv-x="1002" vert-adv-y="2457" 
d="M499 1065v-228h330q45 0 56.5 -11.5t11.5 -56.5v-164q0 -45 -11.5 -56.5t-56.5 -11.5h-330v-237h353q45 0 56.5 -11.5t11.5 -56.5v-164q0 -45 -11.5 -56.5t-56.5 -11.5h-640q-45 0 -56.5 11.5t-11.5 56.5v1229q0 45 11.5 56.5t56.5 11.5h640q45 0 56.5 -11.5t11.5 -56.5
v-164q0 -45 -11.5 -56.5t-56.5 -11.5h-353zM535 1716l289 134q33 15 43 15q21 0 48 -42l26 -43q21 -32 21 -45q0 -15 -8 -24t-37 -25l-338 -187q-10 -5 -16 -9q-17 -10 -29 -10q-9 0 -43 19l-339 187q-29 17 -37 25.5t-8 24.5q0 11 21 44l27 43q27 42 48 42q10 0 43 -15z
" />
    <glyph glyph-name="ecaron" unicode="&#x11b;" horiz-adv-x="1172" vert-adv-y="2457" 
d="M406 404q3 -209 199 -209q55 0 89.5 16t60.5 54q8 12 17.5 15t43.5 3h180q38 0 53 -8.5t15 -30.5t-19 -60t-44 -66q-139 -155 -395 -155t-402 150q-129 133 -129 344q0 150 70 273q127 224 445 224q282 0 413 -187q94 -133 94 -308q0 -35 -13 -45t-56 -10h-622zM791 594
q-17 69 -67.5 108.5t-123.5 39.5q-75 0 -123.5 -39t-61.5 -109h376zM601 1322l210 162q33 26 46 26q19 0 49 -34l52 -57q30 -32 30 -47t-6 -22.5t-33 -27.5l-301 -223q-33 -24 -47 -24t-46 25l-297 223q-25 19 -31.5 27t-6.5 22q0 15 28 47l49 56q30 34 49 34q14 0 46 -25z
" />
    <glyph glyph-name="Gcircumflex" unicode="&#x11c;" horiz-adv-x="1593" vert-adv-y="2457" 
d="M1098 482h-223q-45 0 -56.5 11.5t-11.5 56.5v140q0 45 11.5 56.5t56.5 11.5h566q42 0 52 -8q18 -14 18 -56q0 -196 -71 -356q-84 -187 -245 -286q-163 -100 -384 -100q-224 0 -401 102q-172 100 -258 288q-71 155 -71 333q0 203 91 375q94 180 268 270q172 89 382 89
q351 0 537 -252q63 -85 63 -113q0 -16 -9.5 -25t-40.5 -22l-209 -86q-33 -14 -43 -14q-22 0 -36 25q-58 102 -121 139q-72 41 -157 41q-157 0 -255 -125q-99 -125 -99 -301q0 -201 122 -332q92 -98 243 -98q153 0 231 100q37 47 50 136zM797 1635l-289 -134q-33 -15 -43 -15
q-14 0 -22.5 7.5t-25.5 34.5l-27 43q-21 33 -21 44q0 16 8 24.5t37 25.5l339 187q10 6 16 9q17 10 28 10q9 0 43 -19l339 -187q29 -16 37 -25t8 -25q0 -11 -21 -44l-26 -43q-18 -27 -26.5 -34.5t-21.5 -7.5q-11 0 -44 15z" />
    <glyph glyph-name="gcircumflex" unicode="&#x11d;" horiz-adv-x="1263" vert-adv-y="2457" 
d="M823 103q-73 -68 -137.5 -95t-154.5 -27q-228 0 -359 166q-97 123 -97 303q0 228 145 371q135 133 327 133q89 0 153.5 -28.5t122.5 -94.5v29q0 44 12 56q13 12 57 12h191q45 0 56.5 -11.5t11.5 -56.5v-796q0 -190 -47 -278q-74 -140 -222 -204q-113 -50 -266 -50
q-316 0 -469 208q-44 60 -44 109q0 21 15 29.5t53 8.5h230q36 0 47 -5t20 -25q11 -27 53 -45t92 -18q112 0 172 78q38 50 38 143v88zM628 678q-89 0 -150 -62q-62 -62 -62 -152q0 -85 62 -147q61 -62 150 -62q88 0 149 62q63 63 63 150q0 88 -63 149q-63 62 -149 62z
M629 1267l-210 -162q-33 -25 -46 -25q-19 0 -49 34l-49 56q-28 32 -28 47q0 14 6 22t32 27l297 223q32 25 47 25q13 0 46 -24l301 -223q26 -19 32.5 -27.5t6.5 -22.5q0 -15 -29 -47l-52 -57q-7 -8 -13 -14q-18 -20 -37 -20q-13 0 -46 26z" />
    <glyph glyph-name="Gbreve" unicode="&#x11e;" horiz-adv-x="1593" vert-adv-y="2457" 
d="M1098 482h-223q-45 0 -56.5 11.5t-11.5 56.5v140q0 45 11.5 56.5t56.5 11.5h566q42 0 52 -8q18 -14 18 -56q0 -196 -71 -356q-84 -187 -245 -286q-163 -100 -384 -100q-224 0 -401 102q-172 100 -258 288q-71 155 -71 333q0 203 91 375q94 180 268 270q172 89 382 89
q351 0 537 -252q63 -85 63 -113q0 -16 -9.5 -25t-40.5 -22l-209 -86q-33 -14 -43 -14q-22 0 -36 25q-58 102 -121 139q-72 41 -157 41q-157 0 -255 -125q-99 -125 -99 -301q0 -201 122 -332q92 -98 243 -98q153 0 231 100q37 47 50 136zM478 1810h99q37 0 48 -5t19 -25
q37 -91 153 -91t152 91q8 20 19 25t48 5h99q39 0 54 -9t15 -31q0 -48 -37 -106t-92 -99q-96 -70 -259 -70q-184 0 -287 93q-45 42 -72.5 91.5t-27.5 90.5q0 23 15 31.5t54 8.5z" />
    <glyph glyph-name="gbreve" unicode="&#x11f;" horiz-adv-x="1263" vert-adv-y="2457" 
d="M823 103q-73 -68 -137.5 -95t-154.5 -27q-228 0 -359 166q-97 123 -97 303q0 228 145 371q135 133 327 133q89 0 153.5 -28.5t122.5 -94.5v29q0 44 12 56q13 12 57 12h191q45 0 56.5 -11.5t11.5 -56.5v-796q0 -190 -47 -278q-74 -140 -222 -204q-113 -50 -266 -50
q-316 0 -469 208q-44 60 -44 109q0 21 15 29.5t53 8.5h230q36 0 47 -5t20 -25q11 -27 53 -45t92 -18q112 0 172 78q38 50 38 143v88zM628 678q-89 0 -150 -62q-62 -62 -62 -152q0 -85 62 -147q61 -62 150 -62q88 0 149 62q63 63 63 150q0 88 -63 149q-63 62 -149 62z
M348 1387h80q41 0 51 -7t24 -45q12 -31 47.5 -50.5t81.5 -19.5q56 0 86.5 21t49.5 72q7 19 19 24t48 5h80q38 0 53 -9t15 -33q0 -47 -33 -104t-84 -99q-88 -71 -235 -71q-165 0 -260 95q-91 90 -91 179q0 24 15 33t53 9z" />
    <glyph glyph-name="Gdotaccent" unicode="&#x120;" horiz-adv-x="1593" vert-adv-y="2457" 
d="M1098 482h-223q-45 0 -56.5 11.5t-11.5 56.5v140q0 45 11.5 56.5t56.5 11.5h566q42 0 52 -8q18 -14 18 -56q0 -196 -71 -356q-84 -187 -245 -286q-163 -100 -384 -100q-224 0 -401 102q-172 100 -258 288q-71 155 -71 333q0 203 91 375q94 180 268 270q172 89 382 89
q351 0 537 -252q63 -85 63 -113q0 -16 -9.5 -25t-40.5 -22l-209 -86q-33 -14 -43 -14q-22 0 -36 25q-58 102 -121 139q-72 41 -157 41q-157 0 -255 -125q-99 -125 -99 -301q0 -201 122 -332q92 -98 243 -98q153 0 231 100q37 47 50 136zM796 1864q74 0 126 -52t52 -125
q0 -74 -52 -126t-125 -52q-75 0 -126.5 52t-51.5 128q0 71 52.5 123t124.5 52z" />
    <glyph glyph-name="gdotaccent" unicode="&#x121;" horiz-adv-x="1263" vert-adv-y="2457" 
d="M823 103q-73 -68 -137.5 -95t-154.5 -27q-228 0 -359 166q-97 123 -97 303q0 228 145 371q135 133 327 133q89 0 153.5 -28.5t122.5 -94.5v29q0 44 12 56q13 12 57 12h191q45 0 56.5 -11.5t11.5 -56.5v-796q0 -190 -47 -278q-74 -140 -222 -204q-113 -50 -266 -50
q-316 0 -469 208q-44 60 -44 109q0 21 15 29.5t53 8.5h230q36 0 47 -5t20 -25q11 -27 53 -45t92 -18q112 0 172 78q38 50 38 143v88zM628 678q-89 0 -150 -62q-62 -62 -62 -152q0 -85 62 -147q61 -62 150 -62q88 0 149 62q63 63 63 150q0 88 -63 149q-63 62 -149 62z
M632 1445q77 0 132 -54q54 -55 54 -132q0 -78 -54.5 -132.5t-131.5 -54.5q-78 0 -132 55q-55 55 -55 134q0 75 55 129.5t132 54.5z" />
    <glyph glyph-name="Gcommaaccent" unicode="&#x122;" horiz-adv-x="1593" vert-adv-y="2457" 
d="M1098 482h-223q-45 0 -56.5 11.5t-11.5 56.5v140q0 45 11.5 56.5t56.5 11.5h566q42 0 52 -8q18 -14 18 -56q0 -196 -71 -356q-84 -187 -245 -286q-163 -100 -384 -100q-224 0 -401 102q-172 100 -258 288q-71 155 -71 333q0 203 91 375q94 180 268 270q172 89 382 89
q351 0 537 -252q63 -85 63 -113q0 -16 -9.5 -25t-40.5 -22l-209 -86q-33 -14 -43 -14q-22 0 -36 25q-58 102 -121 139q-72 41 -157 41q-157 0 -255 -125q-99 -125 -99 -301q0 -201 122 -332q92 -98 243 -98q153 0 231 100q37 47 50 136zM919 -349l-183 -180q-32 -31 -49 -31
q-12 0 -45 23l-52 36q-25 18 -32 26.5t-7 23.5q0 14 25 46l155 199q20 25 28 31t23 6q12 0 44 -23l86 -60q39 -28 39 -50q0 -17 -32 -47z" />
    <glyph glyph-name="gcommaaccent" unicode="&#x123;" horiz-adv-x="1263" vert-adv-y="2457" 
d="M823 103q-73 -68 -137.5 -95t-154.5 -27q-228 0 -359 166q-97 123 -97 303q0 228 145 371q135 133 327 133q89 0 153.5 -28.5t122.5 -94.5v29q0 44 12 56q13 12 57 12h191q45 0 56.5 -11.5t11.5 -56.5v-796q0 -190 -47 -278q-74 -140 -222 -204q-113 -50 -266 -50
q-316 0 -469 208q-44 60 -44 109q0 21 15 29.5t53 8.5h230q36 0 47 -5t20 -25q11 -27 53 -45t92 -18q112 0 172 78q38 50 38 143v88zM628 678q-89 0 -150 -62q-62 -62 -62 -152q0 -85 62 -147q61 -62 150 -62q88 0 149 62q63 63 63 150q0 88 -63 149q-63 62 -149 62z
M469 1242l184 180q31 30 49 30q12 0 45 -23l51 -35q26 -19 33 -27.5t7 -22.5t-26 -46l-155 -199q-6 -8 -11 -15q-18 -23 -39 -23q-11 0 -45 23l-85 60q-27 19 -33.5 27t-6.5 23q0 17 32 48z" />
    <glyph glyph-name="Hcircumflex" unicode="&#x124;" horiz-adv-x="1509" vert-adv-y="2457" 
d="M498 838h512v459q0 45 11.5 56.5t56.5 11.5h219q45 0 56.5 -11.5t11.5 -56.5v-1229q0 -45 -11.5 -56.5t-56.5 -11.5h-219q-45 0 -56.5 11.5t-11.5 56.5v494h-512v-494q0 -45 -11.5 -56.5t-56.5 -11.5h-219q-45 0 -56.5 11.5t-11.5 56.5v1229q0 45 11.5 56.5t56.5 11.5
h219q45 0 56.5 -11.5t11.5 -56.5v-459zM754 1635l-289 -134q-32 -15 -43 -15q-14 0 -22.5 7.5t-25.5 34.5l-26 43q-21 32 -21 44q0 16 8.5 25t36.5 25l338 187q11 6 16 9q17 10 28 10q10 0 44 -19l338 -187q30 -17 38 -25.5t8 -24.5q0 -11 -21 -44l-27 -43
q-17 -27 -25.5 -34.5t-22.5 -7.5q-11 0 -43 15z" />
    <glyph glyph-name="hcircumflex" unicode="&#x125;" horiz-adv-x="1203" vert-adv-y="2457" 
d="M440 811q57 66 105 93q79 45 192 45q169 0 268 -102q59 -60 75 -131q11 -50 11 -125v-523q0 -45 -11.5 -56.5t-56.5 -11.5h-192q-45 0 -56.5 11.5t-11.5 56.5v402q0 107 -20 146q-16 32 -52.5 52t-78.5 20q-86 0 -137 -62q-35 -43 -35 -129v-429q0 -45 -11.5 -56.5
t-56.5 -11.5h-192q-45 0 -56.5 11.5t-11.5 56.5v1366q0 45 11.5 56.5t56.5 11.5h192q45 0 56.5 -11.5t11.5 -56.5v-623zM281 1635l-289 -134q-32 -15 -43 -15q-14 0 -22.5 7.5t-25.5 34.5l-27 43q-21 33 -21 44q0 16 8 24.5t37 25.5l339 187q10 6 16 9q17 10 28 10
q10 0 44 -19l338 -187q29 -16 37 -25t8 -25q0 -12 -21 -44l-26 -43q-17 -27 -26 -34.5t-22 -7.5q-11 0 -43 15z" />
    <glyph glyph-name="Hbar" unicode="&#x126;" horiz-adv-x="1509" vert-adv-y="2457" 
d="M1010 1210v87q0 45 11.5 56.5t56.5 11.5h219q45 0 56.5 -11.5t11.5 -56.5v-87h58q45 0 56.5 -11.5t11.5 -56.5v-65q0 -45 -11.5 -56.5t-56.5 -11.5h-58v-941q0 -45 -11.5 -56.5t-56.5 -11.5h-219q-45 0 -56.5 11.5t-11.5 56.5v494h-512v-494q0 -45 -11.5 -56.5
t-56.5 -11.5h-219q-45 0 -56.5 11.5t-11.5 56.5v941h-57q-45 0 -56.5 11.5t-11.5 56.5v65q0 45 11.5 56.5t56.5 11.5h57v87q0 45 11.5 56.5t56.5 11.5h219q45 0 56.5 -11.5t11.5 -56.5v-87h512zM1010 1009h-512v-171h512v171z" />
    <glyph glyph-name="hbar" unicode="&#x127;" horiz-adv-x="1203" vert-adv-y="2457" 
d="M112 1161h-59q-45 0 -56.5 11.5t-11.5 56.5v65q0 44 12 56t56 12h59v72q0 45 11.5 56.5t56.5 11.5h192q45 0 56.5 -11.5t11.5 -56.5v-72h208q45 0 56.5 -11.5t11.5 -56.5v-65q0 -45 -11.5 -56.5t-56.5 -11.5h-208v-350q57 66 105 93q79 45 192 45q169 0 268 -102
q59 -61 75 -131q11 -49 11 -125v-523q0 -45 -11.5 -56.5t-56.5 -11.5h-192q-45 0 -56.5 11.5t-11.5 56.5v402q0 107 -20 146q-16 32 -52.5 52t-78.5 20q-86 0 -137 -62q-35 -43 -35 -129v-429q0 -45 -11.5 -56.5t-56.5 -11.5h-192q-45 0 -56.5 11.5t-11.5 56.5v1093z" />
    <glyph glyph-name="Itilde" unicode="&#x128;" horiz-adv-x="642" vert-adv-y="2457" 
d="M498 1297v-1229q0 -45 -11.5 -56.5t-56.5 -11.5h-219q-45 0 -56.5 11.5t-11.5 56.5v1229q0 45 11.5 56.5t56.5 11.5h219q45 0 56.5 -11.5t11.5 -56.5zM37 1509h-48q-41 0 -54.5 9t-13.5 39q0 80 48 148q31 43 78 69t96 26q52 0 194 -37q106 -27 133 -27q26 0 38 8.5
t25 34.5q8 15 19 19t45 4h49q39 0 54 -9t15 -32q0 -45 -40 -121q-28 -53 -71 -84q-66 -48 -147 -48q-46 0 -156 35q-103 32 -145 32q-38 0 -54 -40q-7 -17 -18.5 -21.5t-46.5 -4.5z" />
    <glyph glyph-name="itilde" unicode="&#x129;" horiz-adv-x="552" vert-adv-y="2457" 
d="M440 860v-792q0 -45 -11.5 -56.5t-56.5 -11.5h-192q-45 0 -56.5 11.5t-11.5 56.5v792q0 45 11.5 56.5t56.5 11.5h192q45 0 56.5 -11.5t11.5 -56.5zM11 1072h-31q-44 0 -56 12t-12 36q0 77 44 147q26 43 70 69t88 26q46 0 176 -35q98 -27 121 -27q38 0 57 41
q7 15 18.5 19.5t46.5 4.5h32q38 0 53 -9t15 -32q0 -45 -36 -120q-26 -54 -65 -85q-60 -48 -134 -48q-41 0 -140 34q-94 32 -132 32q-35 0 -49 -39q-6 -17 -18 -21.5t-48 -4.5z" />
    <glyph glyph-name="Imacron" unicode="&#x12a;" horiz-adv-x="642" vert-adv-y="2457" 
d="M499 1297v-1229q0 -45 -11.5 -56.5t-56.5 -11.5h-219q-45 0 -56.5 11.5t-11.5 56.5v1229q0 45 11.5 56.5t56.5 11.5h219q45 0 56.5 -11.5t11.5 -56.5zM-17 1750h676q45 0 56.5 -11.5t11.5 -56.5v-65q0 -45 -11.5 -56.5t-56.5 -11.5h-676q-45 0 -56.5 11.5t-11.5 56.5v65
q0 45 11.5 56.5t56.5 11.5z" />
    <glyph glyph-name="imacron" unicode="&#x12b;" horiz-adv-x="552" vert-adv-y="2457" 
d="M440 860v-792q0 -45 -11.5 -56.5t-56.5 -11.5h-192q-45 0 -56.5 11.5t-11.5 56.5v792q0 45 11.5 56.5t56.5 11.5h192q45 0 56.5 -11.5t11.5 -56.5zM-62 1293h676q45 0 56.5 -11.5t11.5 -56.5v-65q0 -45 -11.5 -56.5t-56.5 -11.5h-676q-45 0 -56.5 11.5t-11.5 56.5v65
q0 45 11.5 56.5t56.5 11.5z" />
    <glyph glyph-name="Ibreve" unicode="&#x12c;" horiz-adv-x="642" vert-adv-y="2457" 
d="M498 1297v-1229q0 -45 -11.5 -56.5t-56.5 -11.5h-219q-45 0 -56.5 11.5t-11.5 56.5v1229q0 45 11.5 56.5t56.5 11.5h219q45 0 56.5 -11.5t11.5 -56.5zM2 1810h100q36 0 47 -5t20 -25q36 -91 152 -91t152 91q8 20 19.5 25t47.5 5h99q39 0 54 -9t15 -31q0 -48 -36.5 -106
t-92.5 -99q-96 -70 -258 -70q-184 0 -287 93q-45 42 -72.5 91.5t-27.5 90.5q0 23 15 31.5t53 8.5z" />
    <glyph glyph-name="ibreve" unicode="&#x12d;" horiz-adv-x="552" vert-adv-y="2457" 
d="M440 860v-792q0 -45 -11.5 -56.5t-56.5 -11.5h-192q-45 0 -56.5 11.5t-11.5 56.5v792q0 45 11.5 56.5t56.5 11.5h192q45 0 56.5 -11.5t11.5 -56.5zM-8 1387h80q41 0 51 -7t25 -45q11 -31 46.5 -50.5t81.5 -19.5q56 0 86.5 21t50.5 72q7 19 18.5 24t47.5 5h80q39 0 54 -9
t15 -33q0 -47 -33 -104t-84 -99q-88 -71 -235 -71q-166 0 -261 95q-91 90 -91 179q0 24 15 33t53 9z" />
    <glyph glyph-name="Iogonek" unicode="&#x12e;" horiz-adv-x="642" vert-adv-y="2457" 
d="M458 0l-9 -8q-69 -68 -80.5 -84.5t-11.5 -45.5q0 -34 23.5 -55.5t60.5 -21.5q9 0 35 5q7 1 14 1q37 0 37 -35q0 -15 -16 -77q-3 -11 -5 -18q-6 -25 -22 -34q-44 -24 -132 -24q-103 0 -162 58q-51 49 -51 118q0 59 38 119t101 102h-67q-45 0 -56.5 11.5t-11.5 56.5v1229
q0 45 11.5 56.5t56.5 11.5h219q45 0 56.5 -11.5t11.5 -56.5v-1229q0 -39 -8 -52.5t-32 -15.5z" />
    <glyph glyph-name="iogonek" unicode="&#x12f;" horiz-adv-x="552" vert-adv-y="2457" 
d="M391 0q-72 -83 -72 -128q0 -32 23.5 -55t54.5 -23q10 0 23 2q17 3 27 3q35 0 35 -37q0 -19 -11.5 -60t-19.5 -49q-13 -13 -56 -24t-83 -11q-76 0 -129 48t-53 117q0 61 38.5 122.5t97.5 94.5h-87q-45 0 -56.5 11.5t-11.5 56.5v792q0 45 11.5 56.5t56.5 11.5h192
q45 0 56.5 -11.5t11.5 -56.5v-792q0 -41 -9 -54t-39 -14zM275 1469q77 0 131 -54t54 -130q0 -77 -54 -131t-130 -54q-78 0 -131 54q-54 55 -54 133q0 74 54.5 128t129.5 54z" />
    <glyph glyph-name="Idotaccent" unicode="&#x130;" horiz-adv-x="642" vert-adv-y="2457" 
d="M498 1297v-1229q0 -45 -11.5 -56.5t-56.5 -11.5h-219q-45 0 -56.5 11.5t-11.5 56.5v1229q0 45 11.5 56.5t56.5 11.5h219q45 0 56.5 -11.5t11.5 -56.5zM320 1864q74 0 126 -52t52 -125q0 -74 -52 -126t-125 -52q-75 0 -126.5 52t-51.5 128q0 71 52.5 123t124.5 52z" />
    <glyph glyph-name="IJ" unicode="&#x132;" horiz-adv-x="1564" vert-adv-y="2457" 
d="M498 1297v-1229q0 -45 -11.5 -56.5t-56.5 -11.5h-219q-45 0 -56.5 11.5t-11.5 56.5v1229q0 45 11.5 56.5t56.5 11.5h219q45 0 56.5 -11.5t11.5 -56.5zM1402 1297v-876q0 -140 -35 -213q-61 -124 -186 -191q-102 -54 -225 -54q-187 0 -310 139q-34 39 -34 58q0 17 31 49
l124 127q31 32 48 32q15 0 35 -33q39 -67 97 -67q101 0 101 158l-1 76v795q0 45 11.5 56.5t56.5 11.5h219q45 0 56.5 -11.5t11.5 -56.5z" />
    <glyph glyph-name="ij" unicode="&#x133;" horiz-adv-x="961" vert-adv-y="2457" 
d="M439 860v-792q0 -45 -11.5 -56.5t-56.5 -11.5h-192q-45 0 -56.5 11.5t-11.5 56.5v792q0 45 11.5 56.5t56.5 11.5h192q45 0 56.5 -11.5t11.5 -56.5zM680 1469q77 0 131 -54t54 -130q0 -77 -54 -131t-130 -54q-77 0 -131 54q-54 55 -54 133q0 74 54.5 128t129.5 54z
M844 860v-1256q0 -45 -11.5 -56.5t-56.5 -11.5h-192q-45 0 -56.5 11.5t-11.5 56.5v1256q0 45 11.5 56.5t56.5 11.5h192q45 0 56.5 -11.5t11.5 -56.5zM275 1469q77 0 131 -54t54 -130q0 -77 -54 -131t-130 -54q-78 0 -131 54q-54 55 -54 133q0 74 54.5 128t129.5 54z" />
    <glyph glyph-name="Jcircumflex" unicode="&#x134;" horiz-adv-x="959" vert-adv-y="2457" 
d="M816 1297v-876q0 -140 -35 -213q-61 -124 -186 -191q-102 -54 -225 -54q-187 0 -310 139q-34 39 -34 58q0 17 31 49l124 127q31 32 48 32q15 0 35 -33q39 -67 97 -67q101 0 101 158l-1 76v795q0 45 11.5 56.5t56.5 11.5h219q45 0 56.5 -11.5t11.5 -56.5zM637 1635
l-289 -134q-32 -15 -43 -15q-14 0 -22.5 7.5t-25.5 34.5l-26 43q-21 32 -21 44q0 16 8.5 25t36.5 25l338 187q11 6 16 9q17 10 28 10q10 0 44 -19l338 -187q30 -17 38 -25.5t8 -24.5q0 -11 -21 -44l-27 -43q-17 -27 -25.5 -34.5t-22.5 -7.5q-11 0 -43 15z" />
    <glyph glyph-name="jcircumflex" unicode="&#x135;" horiz-adv-x="552" vert-adv-y="2457" 
d="M440 860v-1256q0 -45 -11.5 -56.5t-56.5 -11.5h-192q-45 0 -56.5 11.5t-11.5 56.5v1256q0 45 11.5 56.5t56.5 11.5h192q45 0 56.5 -11.5t11.5 -56.5zM273 1267l-209 -162q-33 -25 -46 -25q-19 0 -50 34l-48 56q-28 32 -28 47q0 21 38 49l297 223q32 25 46 25q13 0 46 -24
l302 -223q25 -19 31.5 -27.5t6.5 -22.5q0 -16 -29 -47l-52 -57q-7 -8 -12 -14q-19 -20 -37 -20q-13 0 -46 26z" />
    <glyph glyph-name="Kcommaaccent" unicode="&#x136;" horiz-adv-x="1433" vert-adv-y="2457" 
d="M498 802l404 525q8 11 11 15q12 17 21 20t44 3h276q38 0 53.5 -9t15.5 -31q0 -16 -28 -48l-468 -558l520 -631q27 -33 27 -49q0 -39 -69 -39h-298q-38 0 -46 4t-31 33l-432 555v-524q0 -45 -11.5 -56.5t-56.5 -11.5h-219q-45 0 -56.5 11.5t-11.5 56.5v1229
q0 45 11.5 56.5t56.5 11.5h219q45 0 56.5 -11.5t11.5 -56.5v-495zM824 -332l-184 -180q-7 -6 -13 -13q-18 -18 -36 -18q-11 0 -45 23l-51 36q-26 18 -33 27t-7 23t25 46l156 199q19 25 27.5 31t22.5 6q12 0 45 -23l85 -60q27 -18 33.5 -26t6.5 -23q0 -17 -32 -48z" />
    <glyph glyph-name="kcommaaccent" unicode="&#x137;" horiz-adv-x="1264" vert-adv-y="2457" 
d="M440 594l312 303q26 26 32.5 28.5t42.5 2.5h274q38 0 53 -9t15 -33q0 -17 -33 -48l-368 -338l405 -411q32 -32 32 -48q0 -23 -15 -32t-54 -9h-291q-36 0 -43 3t-32 29l-330 346v-310q0 -45 -11.5 -56.5t-56.5 -11.5h-192q-45 0 -56.5 11.5t-11.5 56.5v1366
q0 45 11.5 56.5t56.5 11.5h192q45 0 56.5 -11.5t11.5 -56.5v-840zM750 -325l-184 -180q-31 -30 -49 -30q-13 0 -45 23l-51 35q-26 19 -33 27.5t-7 22.5t25 46l156 199q4 5 11 15q18 23 39 23q11 0 44 -23l86 -60q27 -19 33.5 -27t6.5 -23q0 -17 -32 -48z" />
    <glyph glyph-name="kgreenlandic" unicode="&#x138;" horiz-adv-x="1264" vert-adv-y="2457" 
d="M440 594l305 297q26 25 40.5 31t50.5 6h397l-465 -428l493 -500h-410q-34 0 -48 6t-38 31l-325 341v-328q0 -50 -50 -50h-228q-50 0 -50 50v828q0 50 50 50h228q50 0 50 -50v-284z" />
    <glyph glyph-name="Lacute" unicode="&#x139;" horiz-adv-x="963" vert-adv-y="2457" 
d="M498 300h358q45 0 56.5 -11.5t11.5 -56.5v-164q0 -45 -11.5 -56.5t-56.5 -11.5h-645q-45 0 -56.5 11.5t-11.5 56.5v1229q0 45 11.5 56.5t56.5 11.5h219q45 0 56.5 -11.5t11.5 -56.5v-997zM768 1668l-233 -160q-33 -22 -46 -22q-16 0 -48 30l-42 39q-33 31 -33 49
q0 17 32 48l198 188q32 30 48 30t48 -29l83 -75q33 -31 33 -49q0 -22 -40 -49z" />
    <glyph glyph-name="lacute" unicode="&#x13a;" horiz-adv-x="552" vert-adv-y="2457" 
d="M440 1434v-1366q0 -45 -11.5 -56.5t-56.5 -11.5h-192q-45 0 -56.5 11.5t-11.5 56.5v1366q0 45 11.5 56.5t56.5 11.5h192q45 0 56.5 -11.5t11.5 -56.5zM495 1791l-211 -187q-32 -28 -48 -28q-13 0 -46 24l-46 34q-26 19 -32.5 27.5t-6.5 22.5q0 15 26 47l173 211
q21 25 28.5 30.5t21.5 5.5q12 0 45 -24l91 -65q39 -28 39 -49q0 -18 -34 -49z" />
    <glyph glyph-name="Lcommaaccent" unicode="&#x13b;" horiz-adv-x="963" vert-adv-y="2457" 
d="M498 300h358q45 0 56.5 -11.5t11.5 -56.5v-164q0 -45 -11.5 -56.5t-56.5 -11.5h-645q-45 0 -56.5 11.5t-11.5 56.5v1229q0 45 11.5 56.5t56.5 11.5h219q45 0 56.5 -11.5t11.5 -56.5v-997zM640 -335l-184 -180l-13 -13q-18 -18 -36 -18q-12 0 -45 23l-51 36q-26 18 -33 27
t-7 23t25 46l156 199q20 25 27.5 31t22.5 6q12 0 44 -23l86 -60q40 -28 40 -49q0 -17 -32 -48z" />
    <glyph glyph-name="lcommaaccent" unicode="&#x13c;" horiz-adv-x="552" vert-adv-y="2457" 
d="M440 1434v-1366q0 -45 -11.5 -56.5t-56.5 -11.5h-192q-45 0 -56.5 11.5t-11.5 56.5v1366q0 45 11.5 56.5t56.5 11.5h192q45 0 56.5 -11.5t11.5 -56.5zM419 -325l-183 -180q-32 -30 -49 -30q-13 0 -45 23l-52 35q-25 18 -32 27t-7 23t25 46l155 199q4 5 11 15q18 23 40 23
q11 0 44 -23l85 -60q27 -19 33.5 -27t6.5 -23q0 -17 -32 -48z" />
    <glyph glyph-name="Lcaron" unicode="&#x13d;" horiz-adv-x="963" vert-adv-y="2457" 
d="M498 300h358q45 0 56.5 -11.5t11.5 -56.5v-164q0 -45 -11.5 -56.5t-56.5 -11.5h-645q-45 0 -56.5 11.5t-11.5 56.5v1229q0 45 11.5 56.5t56.5 11.5h219q45 0 56.5 -11.5t11.5 -56.5v-997zM990 1239l-184 -179q-31 -31 -49 -31q-12 0 -45 23l-51 36q-26 18 -33 26.5
t-7 23.5q0 13 26 46l155 199q20 25 28 31t22 6q12 0 45 -23l85 -60q27 -19 33.5 -27t6.5 -23q0 -16 -32 -48z" />
    <glyph glyph-name="lcaron" unicode="&#x13e;" horiz-adv-x="552" vert-adv-y="2457" 
d="M440 1434v-1366q0 -45 -11.5 -56.5t-56.5 -11.5h-192q-45 0 -56.5 11.5t-11.5 56.5v1366q0 45 11.5 56.5t56.5 11.5h192q45 0 56.5 -11.5t11.5 -56.5zM875 1359l-184 -179q-31 -31 -49 -31q-12 0 -45 23l-51 36q-26 18 -33 26.5t-7 23.5q0 13 25 46l156 199
q20 25 27.5 31t22.5 6q12 0 45 -23l85 -60q27 -19 33.5 -27t6.5 -23q0 -17 -32 -48z" />
    <glyph glyph-name="Ldot" unicode="&#x13f;" horiz-adv-x="963" vert-adv-y="2457" 
d="M498 300h358q45 0 56.5 -11.5t11.5 -56.5v-164q0 -45 -11.5 -56.5t-56.5 -11.5h-645q-45 0 -56.5 11.5t-11.5 56.5v1229q0 45 11.5 56.5t56.5 11.5h219q45 0 56.5 -11.5t11.5 -56.5v-997zM807 893q88 0 150 -62t62 -149q0 -88 -62 -150t-149 -62q-89 0 -150 62
q-62 63 -62 152q0 86 62.5 147.5t148.5 61.5z" />
    <glyph glyph-name="ldot" unicode="&#x140;" horiz-adv-x="619" vert-adv-y="2457" 
d="M440 1434v-1366q0 -45 -11.5 -56.5t-56.5 -11.5h-192q-45 0 -56.5 11.5t-11.5 56.5v1366q0 45 11.5 56.5t56.5 11.5h192q45 0 56.5 -11.5t11.5 -56.5zM708 757q88 0 150 -62t62 -149q0 -88 -62 -150t-149 -62q-89 0 -150 62q-62 63 -62 152q0 86 62.5 147.5t148.5 61.5z
" />
    <glyph glyph-name="Lslash" unicode="&#x141;" horiz-adv-x="983" vert-adv-y="2457" 
d="M515 1025l122 87q33 23 49 23q21 0 29.5 -15.5t8.5 -52.5v-141q0 -38 -4.5 -46.5t-36.5 -29.5l-168 -114v-436h362q45 0 56.5 -11.5t11.5 -56.5v-164q0 -45 -11.5 -56.5t-56.5 -11.5h-649q-45 0 -56.5 11.5t-11.5 56.5v470l-59 -43q-33 -25 -48 -25q-39 0 -39 69v134
q0 37 4 45.5t35 30.5l107 78v470q0 45 11.5 56.5t56.5 11.5h219q45 0 56.5 -11.5t11.5 -56.5v-272z" />
    <glyph glyph-name="lslash" unicode="&#x142;" horiz-adv-x="676" vert-adv-y="2457" 
d="M505 959l70 48q33 23 49 23q21 0 29.5 -15.5t8.5 -52.5v-142q0 -39 -4.5 -47.5t-36.5 -29.5l-116 -76v-599q0 -45 -11.5 -56.5t-56.5 -11.5h-192q-45 0 -56.5 11.5t-11.5 56.5v421l-63 -45q-33 -23 -49 -23q-38 0 -38 68v141q0 38 4.5 47t36.5 30l109 72v655
q0 45 11.5 56.5t56.5 11.5h192q45 0 56.5 -11.5t11.5 -56.5v-475z" />
    <glyph glyph-name="Nacute" unicode="&#x143;" horiz-adv-x="1649" vert-adv-y="2457" 
d="M1151 530v767q0 45 11.5 56.5t56.5 11.5h219q45 0 56.5 -11.5t11.5 -56.5v-1229q0 -45 -11.5 -56.5t-56.5 -11.5h-240q-37 0 -45 4t-31 33l-624 799v-768q0 -45 -11.5 -56.5t-56.5 -11.5h-219q-45 0 -56.5 11.5t-11.5 56.5v1229q0 45 11.5 56.5t56.5 11.5h240q37 0 45 -4
t31 -33zM1111 1668l-233 -160q-33 -22 -45 -22q-17 0 -48 30l-43 39q-33 30 -33 49q0 17 33 48l197 188q32 30 49 30q15 0 47 -29l83 -75q34 -31 34 -49q0 -14 -7.5 -23t-33.5 -26z" />
    <glyph glyph-name="nacute" unicode="&#x144;" horiz-adv-x="1203" vert-adv-y="2457" 
d="M440 811q57 66 105 93q78 44 192 44q170 0 268 -102q48 -49 67 -105t19 -150v-523q0 -45 -11.5 -56.5t-56.5 -11.5h-192q-45 0 -56.5 11.5t-11.5 56.5v402q0 107 -20 145q-16 33 -52.5 52.5t-78.5 19.5q-86 0 -137 -62q-35 -43 -35 -128v-429q0 -45 -11.5 -56.5
t-56.5 -11.5h-192q-45 0 -56.5 11.5t-11.5 56.5v792q0 45 11.5 56.5t56.5 11.5h192q45 0 56.5 -11.5t11.5 -56.5v-49zM858 1292l-210 -187q-32 -28 -48 -28q-14 0 -46 24l-47 34q-26 19 -32.5 27.5t-6.5 22.5q0 13 27 46l172 211q21 25 29 31t22 6q12 0 44 -24l91 -65
q40 -28 40 -50q0 -17 -35 -48z" />
    <glyph glyph-name="Ncommaaccent" unicode="&#x145;" horiz-adv-x="1649" vert-adv-y="2457" 
d="M1151 530v767q0 45 11.5 56.5t56.5 11.5h219q45 0 56.5 -11.5t11.5 -56.5v-1229q0 -45 -11.5 -56.5t-56.5 -11.5h-240q-37 0 -45 4t-31 33l-624 799v-768q0 -45 -11.5 -56.5t-56.5 -11.5h-219q-45 0 -56.5 11.5t-11.5 56.5v1229q0 45 11.5 56.5t56.5 11.5h240q37 0 45 -4
t31 -33zM930 -337l-184 -180q-32 -31 -49 -31q-12 0 -45 23l-51 36q-26 18 -33 26.5t-7 23.5q0 14 25 46l155 199q20 25 28 31t23 6q12 0 44 -23l86 -60q27 -19 33.5 -27t6.5 -23q0 -16 -32 -47z" />
    <glyph glyph-name="ncommaaccent" unicode="&#x146;" horiz-adv-x="1203" vert-adv-y="2457" 
d="M440 811q57 66 105 93q78 44 192 44q170 0 268 -102q48 -49 67 -105t19 -150v-523q0 -45 -11.5 -56.5t-56.5 -11.5h-192q-45 0 -56.5 11.5t-11.5 56.5v402q0 107 -20 145q-16 33 -52.5 52.5t-78.5 19.5q-86 0 -137 -62q-35 -43 -35 -128v-429q0 -45 -11.5 -56.5
t-56.5 -11.5h-192q-45 0 -56.5 11.5t-11.5 56.5v792q0 45 11.5 56.5t56.5 11.5h192q45 0 56.5 -11.5t11.5 -56.5v-49zM734 -325l-184 -180q-31 -30 -49 -30q-13 0 -45 23l-51 35q-40 28 -40 50q0 14 25 46l155 199l12 15q17 23 39 23q11 0 44 -23l86 -60q27 -19 33.5 -27
t6.5 -23q0 -17 -32 -48z" />
    <glyph glyph-name="Ncaron" unicode="&#x147;" horiz-adv-x="1649" vert-adv-y="2457" 
d="M1151 530v767q0 45 11.5 56.5t56.5 11.5h219q45 0 56.5 -11.5t11.5 -56.5v-1229q0 -45 -11.5 -56.5t-56.5 -11.5h-240q-37 0 -45 4t-31 33l-624 799v-768q0 -45 -11.5 -56.5t-56.5 -11.5h-219q-45 0 -56.5 11.5t-11.5 56.5v1229q0 45 11.5 56.5t56.5 11.5h240q37 0 45 -4
t31 -33zM824 1716l289 134q34 15 43 15q22 0 48 -42l27 -43q21 -33 21 -45q0 -15 -8 -23.5t-37 -25.5l-339 -187q-9 -5 -16 -9q-17 -10 -28 -10q-10 0 -43 19l-339 187q-29 17 -37 25.5t-8 24.5q0 11 21 44l26 43q27 42 48 42q10 0 44 -15z" />
    <glyph glyph-name="ncaron" unicode="&#x148;" horiz-adv-x="1203" vert-adv-y="2457" 
d="M440 811q57 66 105 93q78 44 192 44q170 0 268 -102q48 -49 67 -105t19 -150v-523q0 -45 -11.5 -56.5t-56.5 -11.5h-192q-45 0 -56.5 11.5t-11.5 56.5v402q0 107 -20 145q-16 33 -52.5 52.5t-78.5 19.5q-86 0 -137 -62q-35 -43 -35 -128v-429q0 -45 -11.5 -56.5
t-56.5 -11.5h-192q-45 0 -56.5 11.5t-11.5 56.5v792q0 45 11.5 56.5t56.5 11.5h192q45 0 56.5 -11.5t11.5 -56.5v-49zM599 1322l209 162q33 26 47 26q18 0 49 -34l52 -57q29 -32 29 -47q0 -14 -6.5 -22t-32.5 -28l-301 -223q-33 -24 -46 -24q-14 0 -47 25l-297 223
q-26 19 -32 27t-6 22q0 15 29 47l48 56q30 34 50 34q13 0 45 -25z" />
    <glyph glyph-name="napostrophe" unicode="&#x149;" horiz-adv-x="1315" vert-adv-y="2457" 
d="M553 811q57 66 105 93q79 44 192 44q169 0 268 -102q49 -49 67.5 -105t18.5 -150v-523q0 -45 -11.5 -56.5t-56.5 -11.5h-192q-45 0 -56.5 11.5t-11.5 56.5v402q0 107 -20 145q-16 33 -52.5 52.5t-78.5 19.5q-86 0 -137 -62q-35 -42 -35 -128v-429q0 -45 -11.5 -56.5
t-56.5 -11.5h-192q-45 0 -56.5 11.5t-11.5 56.5v792q0 45 11.5 56.5t56.5 11.5h192q45 0 56.5 -11.5t11.5 -56.5v-49zM329 1126l-183 -180q-32 -31 -49 -31q-13 0 -45 23l-52 36q-25 18 -32 26.5t-7 23.5q0 14 25 46l155 199q20 26 28 31.5t23 5.5q12 0 44 -23l85 -60
q27 -19 33.5 -27t6.5 -22q0 -17 -32 -48z" />
    <glyph glyph-name="Eng" unicode="&#x14a;" horiz-adv-x="1509" vert-adv-y="2457" 
d="M498 1193q75 101 138 143q105 70 257 70q225 0 357 -153q80 -92 100 -197q15 -76 15 -188v-644q0 -138 -33 -215q-59 -136 -206 -214q-129 -68 -278 -68q-57 0 -114.5 13t-80.5 32q-18 14 -18 49v215q0 36 28 36q7 0 27 -8q55 -21 114 -21q122 0 174 71q32 42 32 206v421
q0 105 -5.5 142t-26.5 73q-27 48 -84 77t-124 29q-136 0 -216 -91q-56 -63 -56 -190v-731q0 -50 -50 -50h-255q-50 0 -50 50v1265q0 50 50 50h255q50 0 50 -50v-122z" />
    <glyph glyph-name="eng" unicode="&#x14b;" horiz-adv-x="1203" vert-adv-y="2457" 
d="M440 811q57 66 105 93q79 44 192 44q170 0 268 -102q48 -49 67 -105t19 -150v-411q0 -115 -23 -184t-81 -131q-130 -138 -312 -138q-75 0 -108.5 18.5t-33.5 59.5v186q0 36 29 36q4 0 48 -9q17 -4 34 -4q35 0 65.5 17.5t41.5 43.5q12 30 12 129v266q0 107 -20 145
q-16 33 -52 52.5t-79 19.5q-86 0 -137 -62q-35 -43 -35 -128v-447q0 -50 -50 -50h-228q-50 0 -50 50v828q0 50 50 50h228q50 0 50 -50v-67z" />
    <glyph glyph-name="Omacron" unicode="&#x14c;" horiz-adv-x="1675" vert-adv-y="2457" 
d="M837 1406q342 0 559 -229q197 -207 197 -498q0 -200 -99 -369q-106 -182 -293 -277q-162 -82 -370 -82q-337 0 -552 228q-197 208 -197 512q0 191 99 356q111 186 293 277q165 82 363 82zM838 1062q-160 0 -271 -112q-113 -114 -113 -276q0 -153 113 -267
q111 -112 271 -112q159 0 272 112q112 113 112 272q0 161 -112 271q-116 112 -272 112zM500 1750h676q45 0 56.5 -11.5t11.5 -56.5v-65q0 -45 -11.5 -56.5t-56.5 -11.5h-676q-45 0 -56.5 11.5t-11.5 56.5v65q0 45 11.5 56.5t56.5 11.5z" />
    <glyph glyph-name="omacron" unicode="&#x14d;" horiz-adv-x="1267" vert-adv-y="2457" 
d="M633 962q276 0 431 -168q128 -138 128 -330q0 -226 -168 -370q-150 -129 -396 -129q-156 0 -292 67q-127 63 -199 192q-62 109 -62 248q0 215 168 361q84 72 208 105q92 24 182 24zM634 679q-89 0 -150 -62q-62 -63 -62 -153q0 -86 62 -149q61 -62 149 -62t150 62
q62 63 62 151q0 90 -62 151q-63 62 -149 62zM296 1293h675q46 0 57.5 -11.5t11.5 -56.5v-65q0 -45 -11.5 -56.5t-57.5 -11.5h-675q-46 0 -57.5 11.5t-11.5 56.5v65q0 45 11.5 56.5t57.5 11.5z" />
    <glyph glyph-name="Obreve" unicode="&#x14e;" horiz-adv-x="1675" vert-adv-y="2457" 
d="M837 1406q342 0 559 -229q197 -207 197 -498q0 -200 -99 -369q-106 -182 -293 -277q-162 -82 -370 -82q-337 0 -552 228q-197 208 -197 512q0 191 99 356q111 186 293 277q165 82 363 82zM838 1062q-160 0 -271 -112q-113 -114 -113 -276q0 -153 113 -267
q111 -112 271 -112q159 0 272 112q112 113 112 272q0 161 -112 271q-116 112 -272 112zM519 1810h99q37 0 48 -5t19 -25q37 -91 153 -91t152 91q8 20 19 25t48 5h99q39 0 54 -9t15 -31q0 -48 -36.5 -106t-92.5 -99q-96 -70 -258 -70q-184 0 -287 93q-45 42 -72.5 91.5
t-27.5 90.5q0 23 14.5 31.5t53.5 8.5z" />
    <glyph glyph-name="obreve" unicode="&#x14f;" horiz-adv-x="1267" vert-adv-y="2457" 
d="M633 962q276 0 431 -168q128 -138 128 -330q0 -226 -168 -370q-150 -129 -396 -129q-156 0 -292 67q-127 63 -199 192q-62 109 -62 248q0 215 168 361q84 72 208 105q92 24 182 24zM634 679q-89 0 -150 -62q-62 -63 -62 -153q0 -86 62 -149q61 -62 149 -62t150 62
q62 63 62 151q0 90 -62 151q-63 62 -149 62zM350 1387h80q41 0 51 -7t24 -45q12 -31 47.5 -50.5t81.5 -19.5q56 0 86.5 21t50.5 72q6 19 18 24t48 5h80q38 0 53 -9t15 -33q0 -47 -33 -104t-84 -99q-88 -71 -235 -71q-165 0 -260 95q-91 90 -91 179q0 24 15 33t53 9z" />
    <glyph glyph-name="Ohungarumlaut" unicode="&#x150;" horiz-adv-x="1675" vert-adv-y="2457" 
d="M837 1406q342 0 559 -229q197 -207 197 -498q0 -200 -99 -369q-106 -182 -293 -277q-162 -82 -370 -82q-337 0 -552 228q-197 208 -197 512q0 191 99 356q111 186 293 277q165 82 363 82zM838 1062q-160 0 -271 -112q-113 -114 -113 -276q0 -153 113 -267
q111 -112 271 -112q159 0 272 112q112 113 112 272q0 161 -112 271q-116 112 -272 112zM848 1659l-182 -150q-32 -27 -46 -27q-19 0 -49 35l-27 31q-27 32 -27 47t27 47l150 178q29 36 49 36q17 0 48 -33l63 -67q30 -32 30 -49q0 -19 -36 -48zM1308 1659l-181 -150
q-33 -27 -47 -27q-19 0 -49 35l-26 31q-28 32 -28 47t27 47l150 178q30 36 49 36q18 0 48 -33l63 -67q30 -32 30 -49q0 -19 -36 -48z" />
    <glyph glyph-name="ohungarumlaut" unicode="&#x151;" horiz-adv-x="1267" vert-adv-y="2457" 
d="M633 962q276 0 431 -168q128 -138 128 -330q0 -226 -168 -370q-150 -129 -396 -129q-156 0 -292 67q-127 63 -199 192q-62 109 -62 248q0 215 168 361q84 72 208 105q92 24 182 24zM634 679q-89 0 -150 -62q-62 -63 -62 -153q0 -86 62 -149q61 -62 149 -62t150 62
q62 63 62 151q0 90 -62 151q-63 62 -149 62zM690 1294l-181 -181q-32 -31 -49 -31t-48 31l-20 20q-31 31 -31 49q0 12 23 45l143 206q19 27 27.5 34t22.5 7q15 0 47 -29l63 -54q34 -30 34 -49q0 -17 -31 -48zM1045 1294l-181 -181q-32 -31 -49 -31t-48 31l-20 20
q-31 31 -31 49q0 12 23 45l143 206q19 27 27.5 34t22.5 7q15 0 47 -29l63 -54q34 -30 34 -49q0 -17 -31 -48z" />
    <glyph glyph-name="Racute" unicode="&#x154;" horiz-adv-x="1284" vert-adv-y="2457" 
d="M849 560l362 -472q26 -34 26 -50q0 -38 -69 -38h-282q-39 0 -47.5 4.5t-29.5 37.5l-311 482v-456q0 -45 -11.5 -56.5t-56.5 -11.5h-219q-45 0 -56.5 11.5t-11.5 56.5v1229q0 45 11.5 56.5t56.5 11.5h484q115 0 195 -29t140 -91q117 -124 117 -302q0 -90 -33.5 -171
t-90.5 -132q-64 -55 -174 -80zM498 754h66q101 0 152 36q28 21 47 58.5t19 74.5q0 36 -19 74t-47 59q-50 36 -152 36h-66v-338zM712 1668l-233 -160q-33 -22 -45 -22q-17 0 -49 30l-42 39q-33 31 -33 49q0 17 32 48l198 188q32 30 48 30t48 -29l83 -75q34 -32 34 -49
q0 -14 -7.5 -23t-33.5 -26z" />
    <glyph glyph-name="racute" unicode="&#x155;" horiz-adv-x="842" vert-adv-y="2457" 
d="M440 776q56 88 127.5 126.5t176.5 38.5q42 0 53 -12t11 -57v-162q0 -38 -8.5 -53t-29.5 -15q-7 0 -17 2q-68 15 -97 15q-91 0 -154 -63q-34 -34 -48 -79.5t-14 -119.5v-329q0 -45 -11.5 -56.5t-56.5 -11.5h-192q-45 0 -56.5 11.5t-11.5 56.5v792q0 45 11.5 56.5
t56.5 11.5h192q45 0 56.5 -11.5t11.5 -56.5v-84zM678 1292l-211 -187q-31 -28 -47 -28q-14 0 -47 24l-46 34q-26 19 -32.5 27t-6.5 23q0 14 26 46l173 211q21 25 28.5 31t21.5 6q12 0 45 -24l91 -65q39 -28 39 -50q0 -18 -34 -48z" />
    <glyph glyph-name="Rcommaaccent" unicode="&#x156;" horiz-adv-x="1284" vert-adv-y="2457" 
d="M849 560l362 -472q26 -34 26 -50q0 -38 -69 -38h-282q-39 0 -47.5 4.5t-29.5 37.5l-311 482v-456q0 -45 -11.5 -56.5t-56.5 -11.5h-219q-45 0 -56.5 11.5t-11.5 56.5v1229q0 45 11.5 56.5t56.5 11.5h484q115 0 195 -29t140 -91q117 -124 117 -302q0 -90 -33.5 -171
t-90.5 -132q-64 -55 -174 -80zM498 754h66q101 0 152 36q28 21 47 58.5t19 74.5q0 36 -19 74t-47 59q-50 36 -152 36h-66v-338zM780 -311l-183 -180l-13 -13q-19 -18 -36 -18q-12 0 -46 23l-51 36q-27 19 -33.5 27t-6.5 23q0 13 26 46l155 199q20 25 28 31t23 6q12 0 44 -23
l85 -60q27 -19 33.5 -27t6.5 -22q0 -17 -32 -48z" />
    <glyph glyph-name="rcommaaccent" unicode="&#x157;" horiz-adv-x="842" vert-adv-y="2457" 
d="M440 776q57 88 128.5 126.5t176.5 38.5q41 0 52.5 -12t11.5 -57v-162q0 -38 -8.5 -53t-29.5 -15q-7 0 -17 2q-68 15 -97 15q-91 0 -155 -63q-34 -34 -48 -79.5t-14 -119.5v-329q0 -45 -11.5 -56.5t-56.5 -11.5h-192q-45 0 -56.5 11.5t-11.5 56.5v792q0 45 11.5 56.5
t56.5 11.5h192q45 0 56.5 -11.5t11.5 -56.5v-84zM414 -317l-183 -180l-13 -13q-19 -18 -36 -18q-12 0 -45 23l-52 36q-25 18 -32 26.5t-7 23.5q0 14 25 46l155 199q20 25 28 31t23 6q12 0 44 -23l85 -60q27 -19 33.5 -27t6.5 -22q0 -17 -32 -48z" />
    <glyph glyph-name="Rcaron" unicode="&#x158;" horiz-adv-x="1284" vert-adv-y="2457" 
d="M850 560l362 -472q26 -34 26 -50q0 -38 -69 -38h-282q-39 0 -47.5 4.5t-29.5 37.5l-311 482v-456q0 -45 -11.5 -56.5t-56.5 -11.5h-219q-45 0 -56.5 11.5t-11.5 56.5v1229q0 45 11.5 56.5t56.5 11.5h484q115 0 195 -29t140 -91q117 -124 117 -302q0 -90 -33.5 -171
t-90.5 -132q-64 -55 -174 -80zM499 754h66q101 0 152 36q28 21 47 58.5t19 74.5q0 36 -19 74t-47 59q-50 36 -152 36h-66v-338zM501 1716l289 134q33 15 43 15q21 0 48 -42l26 -43q21 -32 21 -45q0 -15 -8 -24t-37 -25l-338 -187q-10 -5 -16 -9q-17 -10 -29 -10q-9 0 -43 19
l-339 187q-29 17 -37 25.5t-8 24.5q0 11 21 44l27 43q27 42 48 42q10 0 43 -15z" />
    <glyph glyph-name="rcaron" unicode="&#x159;" horiz-adv-x="842" vert-adv-y="2457" 
d="M440 776q56 88 127.5 126.5t176.5 38.5q42 0 53 -12t11 -57v-162q0 -38 -8.5 -53t-29.5 -15q-7 0 -17 2q-68 15 -97 15q-91 0 -154 -63q-34 -34 -48 -79.5t-14 -119.5v-329q0 -45 -11.5 -56.5t-56.5 -11.5h-192q-45 0 -56.5 11.5t-11.5 56.5v792q0 45 11.5 56.5
t56.5 11.5h192q45 0 56.5 -11.5t11.5 -56.5v-84zM418 1322l210 162q32 26 46 26q18 0 49 -34l52 -57q29 -31 29 -47q0 -21 -38 -50l-302 -223q-33 -24 -46 -24q-14 0 -46 25l-297 223q-38 28 -38 49q0 15 28 47l48 56q30 34 50 34q14 0 46 -25z" />
    <glyph glyph-name="Sacute" unicode="&#x15a;" horiz-adv-x="1170" vert-adv-y="2457" 
d="M1003 1226l-77 -150q-15 -30 -24 -38.5t-25 -8.5q-9 0 -109 55q-36 19 -107 19q-75 0 -117 -41q-35 -35 -35 -78q0 -40 32 -67q30 -25 62 -38t151 -48q169 -50 249 -136q86 -93 86 -247q0 -235 -140 -356q-150 -128 -394 -128q-108 0 -232.5 37.5t-206.5 94.5
q-22 15 -22 37q0 9 18 43l86 161q16 30 24.5 38t24.5 8q10 0 21 -7t70 -48q89 -62 211 -62q92 0 135 49q34 39 34 83q0 57 -44 89.5t-169 69.5q-196 57 -260 110q-108 89 -108 270q0 214 141 343q128 118 317 118q99 0 216.5 -27t187.5 -65q22 -13 22 -35q0 -11 -18 -45z
M872 1668l-233 -160q-33 -22 -45 -22q-17 0 -48 30l-43 39q-33 31 -33 49q0 17 33 48l197 188q32 30 49 30q15 0 47 -29l83 -75q34 -31 34 -49q0 -22 -41 -49z" />
    <glyph glyph-name="sacute" unicode="&#x15b;" horiz-adv-x="922" vert-adv-y="2457" 
d="M806 837l-47 -90q-15 -29 -23.5 -37.5t-23.5 -8.5q-7 0 -19 4q-88 29 -141 29q-45 0 -73.5 -18.5t-28.5 -47.5q0 -31 27.5 -45.5t119.5 -33.5q270 -54 270 -275q0 -171 -136 -267q-117 -82 -304 -82q-174 0 -317 77q-41 22 -41 46q0 12 17 45l55 107q15 30 24 38.5
t25 8.5q10 0 70 -32q35 -19 88.5 -32.5t90.5 -13.5q42 0 70.5 21t28.5 52q0 33 -28 50t-112 35q-117 24 -176 63q-96 64 -96 194q0 146 103 239q107 98 309 98q160 0 259 -43q26 -12 26 -35q0 -14 -17 -46zM718 1292l-211 -187q-32 -28 -48 -28q-14 0 -46 24l-46 34
q-26 19 -32.5 27.5t-6.5 22.5t26 46l173 211q20 25 28 31t22 6q12 0 45 -24l91 -65q39 -28 39 -50q0 -18 -34 -48z" />
    <glyph glyph-name="Scircumflex" unicode="&#x15c;" horiz-adv-x="1170" vert-adv-y="2457" 
d="M1003 1226l-77 -150q-15 -30 -24 -38.5t-25 -8.5q-9 0 -109 55q-36 19 -107 19q-75 0 -117 -41q-35 -35 -35 -78q0 -40 32 -67q30 -25 62 -38t151 -48q169 -50 249 -136q86 -93 86 -247q0 -235 -140 -356q-150 -128 -394 -128q-108 0 -232.5 37.5t-206.5 94.5
q-22 15 -22 37q0 9 18 43l86 161q16 30 24.5 38t24.5 8q10 0 21 -7t70 -48q89 -62 211 -62q92 0 135 49q34 39 34 83q0 57 -44 89.5t-169 69.5q-196 57 -260 110q-108 89 -108 270q0 214 141 343q128 118 317 118q99 0 216.5 -27t187.5 -65q22 -13 22 -35q0 -11 -18 -45z
M586 1635l-289 -134q-33 -15 -44 -15q-13 0 -21.5 7.5t-25.5 34.5l-27 43q-21 33 -21 44q0 16 8 25t37 25l339 187q10 6 16 9q17 10 28 10q9 0 43 -19l339 -187q29 -17 37 -25.5t8 -24.5q0 -11 -21 -44l-27 -43q-17 -27 -25.5 -34.5t-21.5 -7.5q-11 0 -44 15z" />
    <glyph glyph-name="scircumflex" unicode="&#x15d;" horiz-adv-x="922" vert-adv-y="2457" 
d="M806 837l-47 -90q-15 -29 -23.5 -37.5t-23.5 -8.5q-7 0 -19 4q-88 29 -141 29q-45 0 -73.5 -18.5t-28.5 -47.5q0 -31 27.5 -45.5t119.5 -33.5q270 -54 270 -275q0 -171 -136 -267q-117 -82 -304 -82q-174 0 -317 77q-41 22 -41 46q0 12 17 45l55 107q15 30 24 38.5
t25 8.5q10 0 70 -32q35 -19 88.5 -32.5t90.5 -13.5q42 0 70.5 21t28.5 52q0 33 -28 50t-112 35q-117 24 -176 63q-96 64 -96 194q0 146 103 239q107 98 309 98q160 0 259 -43q26 -12 26 -35q0 -14 -17 -46zM458 1267l-209 -162q-33 -25 -46 -25q-19 0 -49 34l-49 56
q-28 32 -28 47q0 14 6 22t32 27l297 223q32 25 46 25q13 0 46 -24l302 -223q25 -19 31.5 -27.5t6.5 -22.5q0 -16 -29 -47l-52 -57q-7 -8 -12 -14q-19 -20 -37 -20q-13 0 -46 26z" />
    <glyph glyph-name="Scedilla" unicode="&#x15e;" horiz-adv-x="1170" vert-adv-y="2457" 
d="M1003 1226l-77 -150q-15 -30 -24 -38.5t-25 -8.5q-9 0 -109 55q-36 19 -107 19q-75 0 -117 -41q-35 -35 -35 -78q0 -40 32 -67q30 -25 62 -38t151 -48q169 -50 249 -136q86 -93 86 -247q0 -235 -140 -356q-150 -128 -394 -128q-108 0 -232.5 37.5t-206.5 94.5
q-22 15 -22 37q0 9 18 43l86 161q16 30 24.5 38t24.5 8q10 0 21 -7t70 -48q89 -62 211 -62q92 0 135 49q34 39 34 83q0 57 -44 89.5t-169 69.5q-196 57 -260 110q-108 89 -108 270q0 214 141 343q128 118 317 118q99 0 216.5 -27t187.5 -65q22 -13 22 -35q0 -11 -18 -45z
M714 -289l-184 -180q-3 -2 -13 -13q-18 -18 -36 -18q-12 0 -45 23l-51 36q-27 19 -33.5 27t-6.5 23q0 14 25 46l156 199q20 26 27.5 31.5t22.5 5.5q12 0 44 -23l86 -60q27 -18 33.5 -26t6.5 -23q0 -17 -32 -48z" />
    <glyph glyph-name="scedilla" unicode="&#x15f;" horiz-adv-x="922" vert-adv-y="2457" 
d="M806 837l-47 -90q-15 -29 -23.5 -37.5t-23.5 -8.5q-7 0 -19 4q-88 29 -141 29q-45 0 -73.5 -18.5t-28.5 -47.5q0 -31 27.5 -45.5t119.5 -33.5q270 -54 270 -275q0 -171 -136 -267q-117 -82 -304 -82q-174 0 -317 77q-41 22 -41 46q0 12 17 45l55 107q15 30 24 38.5
t25 8.5q10 0 70 -32q35 -19 88.5 -32.5t90.5 -13.5q42 0 70.5 21t28.5 52q0 33 -28 50t-112 35q-117 24 -176 63q-96 64 -96 194q0 146 103 239q107 98 309 98q160 0 259 -43q26 -12 26 -35q0 -14 -17 -46zM558 -304l-178 -170q-32 -30 -49 -30q-11 0 -44 21l-35 22
q-29 18 -36 26.5t-7 24.5q0 13 27 46l152 186q30 36 50 36q12 0 45 -21l66 -44q28 -18 35 -26t7 -23q0 -18 -33 -48z" />
    <glyph glyph-name="Scaron" unicode="&#x160;" horiz-adv-x="1170" vert-adv-y="2457" 
d="M1003 1226l-77 -150q-15 -30 -24 -38.5t-25 -8.5q-9 0 -109 55q-36 19 -107 19q-75 0 -117 -41q-35 -35 -35 -78q0 -40 32 -67q30 -25 62 -38t151 -48q169 -50 249 -136q86 -93 86 -247q0 -235 -140 -356q-150 -128 -394 -128q-108 0 -232.5 37.5t-206.5 94.5
q-22 15 -22 37q0 9 18 43l86 161q16 30 24.5 38t24.5 8q10 0 21 -7t70 -48q89 -62 211 -62q92 0 135 49q34 39 34 83q0 57 -44 89.5t-169 69.5q-196 57 -260 110q-108 89 -108 270q0 214 141 343q128 118 317 118q99 0 216.5 -27t187.5 -65q22 -13 22 -35q0 -11 -18 -45z
M613 1716l288 134q34 15 44 15q21 0 48 -42l26 -43q21 -33 21 -45q0 -15 -8 -24t-37 -25l-339 -187q-9 -5 -16 -9q-16 -10 -28 -10q-9 0 -43 19l-339 187q-29 17 -37 25.5t-8 24.5q0 11 21 44l27 43q26 42 48 42q9 0 43 -15z" />
    <glyph glyph-name="scaron" unicode="&#x161;" horiz-adv-x="922" vert-adv-y="2457" 
d="M806 837l-47 -90q-15 -29 -23.5 -37.5t-23.5 -8.5q-7 0 -19 4q-88 29 -141 29q-45 0 -73.5 -18.5t-28.5 -47.5q0 -31 27.5 -45.5t119.5 -33.5q270 -54 270 -275q0 -171 -136 -267q-117 -82 -304 -82q-174 0 -317 77q-41 22 -41 46q0 12 17 45l55 107q15 30 24 38.5
t25 8.5q10 0 70 -32q35 -19 88.5 -32.5t90.5 -13.5q42 0 70.5 21t28.5 52q0 33 -28 50t-112 35q-117 24 -176 63q-96 64 -96 194q0 146 103 239q107 98 309 98q160 0 259 -43q26 -12 26 -35q0 -14 -17 -46zM499 1322l210 162q32 26 46 26q18 0 49 -34l52 -57q29 -32 29 -47
q0 -21 -38 -50l-302 -223q-33 -24 -46 -24q-14 0 -46 25l-297 223q-38 28 -38 50q0 15 28 46l48 56q31 34 50 34q14 0 46 -25z" />
    <glyph glyph-name="Tcommaaccent" unicode="&#x162;" horiz-adv-x="965" vert-adv-y="2457" 
d="M658 1065v-997q0 -45 -11.5 -56.5t-56.5 -11.5h-219q-45 0 -56.5 11.5t-11.5 56.5v997h-221q-45 0 -56.5 11.5t-11.5 56.5v164q0 45 11.5 56.5t56.5 11.5h802q45 0 56.5 -11.5t11.5 -56.5v-164q0 -45 -11.5 -56.5t-56.5 -11.5h-226zM592 -325l-184 -180q-31 -30 -49 -30
q-12 0 -45 23l-51 35q-26 19 -33 27.5t-7 22.5t26 46l155 199q4 5 11 15q18 23 39 23q11 0 45 -23l85 -60q27 -19 33.5 -27t6.5 -23q0 -17 -32 -48z" />
    <glyph glyph-name="Tcommaaccent" unicode="&#x21a;" horiz-adv-x="965" vert-adv-y="2457" 
d="M658 1065v-997q0 -45 -11.5 -56.5t-56.5 -11.5h-219q-45 0 -56.5 11.5t-11.5 56.5v997h-221q-45 0 -56.5 11.5t-11.5 56.5v164q0 45 11.5 56.5t56.5 11.5h802q45 0 56.5 -11.5t11.5 -56.5v-164q0 -45 -11.5 -56.5t-56.5 -11.5h-226zM592 -325l-184 -180q-31 -30 -49 -30
q-12 0 -45 23l-51 35q-26 19 -33 27.5t-7 22.5t26 46l155 199q4 5 11 15q18 23 39 23q11 0 45 -23l85 -60q27 -19 33.5 -27t6.5 -23q0 -17 -32 -48z" />
    <glyph glyph-name="tcommaaccent" unicode="&#x163;" horiz-adv-x="675" vert-adv-y="2457" 
d="M478 655v-587q0 -45 -11.5 -56.5t-56.5 -11.5h-192q-45 0 -56.5 11.5t-11.5 56.5v587h-40q-45 0 -56.5 11.5t-11.5 56.5v137q0 45 11.5 56.5t56.5 11.5h40v211q0 45 11.5 56.5t56.5 11.5h192q45 0 56.5 -11.5t11.5 -56.5v-211h119q45 0 56.5 -11.5t11.5 -56.5v-137
q0 -45 -11.5 -56.5t-56.5 -11.5h-119zM454 -325l-183 -180q-32 -30 -49 -30q-13 0 -45 23l-52 35q-39 28 -39 50q0 14 25 46l155 199l12 15q17 23 39 23q11 0 44 -23l86 -60q39 -28 39 -50q0 -17 -32 -48z" />
    <glyph glyph-name="tcommaaccent" unicode="&#x21b;" horiz-adv-x="675" vert-adv-y="2457" 
d="M478 655v-587q0 -45 -11.5 -56.5t-56.5 -11.5h-192q-45 0 -56.5 11.5t-11.5 56.5v587h-40q-45 0 -56.5 11.5t-11.5 56.5v137q0 45 11.5 56.5t56.5 11.5h40v211q0 45 11.5 56.5t56.5 11.5h192q45 0 56.5 -11.5t11.5 -56.5v-211h119q45 0 56.5 -11.5t11.5 -56.5v-137
q0 -45 -11.5 -56.5t-56.5 -11.5h-119zM454 -325l-183 -180q-32 -30 -49 -30q-13 0 -45 23l-52 35q-39 28 -39 50q0 14 25 46l155 199l12 15q17 23 39 23q11 0 44 -23l86 -60q39 -28 39 -50q0 -17 -32 -48z" />
    <glyph glyph-name="Tcaron" unicode="&#x164;" horiz-adv-x="965" vert-adv-y="2457" 
d="M658 1065v-997q0 -45 -11.5 -56.5t-56.5 -11.5h-219q-45 0 -56.5 11.5t-11.5 56.5v997h-221q-45 0 -56.5 11.5t-11.5 56.5v164q0 45 11.5 56.5t56.5 11.5h802q45 0 56.5 -11.5t11.5 -56.5v-164q0 -45 -11.5 -56.5t-56.5 -11.5h-226zM483 1716l289 134q33 15 43 15
q21 0 48 -42l27 -43q21 -33 21 -45q0 -15 -8 -23.5t-38 -25.5l-338 -187q-10 -5 -16 -9q-17 -10 -28 -10q-10 0 -44 19l-338 187q-29 16 -37 25t-8 25q0 12 21 44l26 43q27 42 48 42q10 0 43 -15z" />
    <glyph glyph-name="tcaron" unicode="&#x165;" horiz-adv-x="675" vert-adv-y="2457" 
d="M478 655v-587q0 -45 -11.5 -56.5t-56.5 -11.5h-192q-45 0 -56.5 11.5t-11.5 56.5v587h-40q-45 0 -56.5 11.5t-11.5 56.5v137q0 45 11.5 56.5t56.5 11.5h40v211q0 45 11.5 56.5t56.5 11.5h192q45 0 56.5 -11.5t11.5 -56.5v-211h119q45 0 56.5 -11.5t11.5 -56.5v-137
q0 -45 -11.5 -56.5t-56.5 -11.5h-119zM899 1285l-184 -180q-31 -30 -49 -30q-12 0 -45 23l-51 35q-26 18 -33 27t-7 23t25 46l156 199q5 8 11 15q18 23 39 23q11 0 44 -24l86 -59q27 -19 33.5 -27t6.5 -23q0 -17 -32 -48z" />
    <glyph glyph-name="Tbar" unicode="&#x166;" horiz-adv-x="965" vert-adv-y="2457" 
d="M658 746h97q45 0 56.5 -11.5t11.5 -56.5v-137q0 -45 -11.5 -56.5t-56.5 -11.5h-97v-405q0 -45 -11.5 -56.5t-56.5 -11.5h-219q-45 0 -56.5 11.5t-11.5 56.5v405h-109q-45 0 -56.5 11.5t-11.5 56.5v137q0 45 11.5 56.5t56.5 11.5h109v319h-221q-45 0 -56.5 11.5
t-11.5 56.5v164q0 45 11.5 56.5t56.5 11.5h802q45 0 56.5 -11.5t11.5 -56.5v-164q0 -45 -11.5 -56.5t-56.5 -11.5h-226v-319z" />
    <glyph glyph-name="tbar" unicode="&#x167;" horiz-adv-x="675" vert-adv-y="2457" 
d="M478 554h121q46 0 57 -11t11 -57v-137q0 -45 -11 -56q-12 -12 -57 -12h-121v-213q0 -45 -11.5 -56.5t-56.5 -11.5h-192q-45 0 -56.5 11.5t-11.5 56.5v213h-38q-46 0 -57.5 11.5t-11.5 56.5v137q0 45 11.5 56.5t57.5 11.5h38v101h-40q-45 0 -56.5 11.5t-11.5 56.5v137
q0 44 12 56t56 12h40v211q0 45 11.5 56.5t56.5 11.5h192q45 0 56.5 -11.5t11.5 -56.5v-211h119q45 0 56.5 -11.5t11.5 -56.5v-137q0 -45 -11.5 -56.5t-56.5 -11.5h-119v-101z" />
    <glyph glyph-name="Utilde" unicode="&#x168;" horiz-adv-x="1477" vert-adv-y="2457" 
d="M498 1297v-671q0 -117 6.5 -159t32.5 -85q61 -104 198 -104q67 0 123.5 30t84.5 81q22 40 29 85t7 152v671q0 45 11.5 56.5t56.5 11.5h219q45 0 56.5 -11.5t11.5 -56.5v-719q0 -196 -52 -301q-79 -160 -236 -242q-135 -70 -316 -70q-206 0 -357 89q-127 74 -178.5 192
t-51.5 332v719q0 45 11.5 56.5t56.5 11.5h219q45 0 56.5 -11.5t11.5 -56.5zM454 1509h-47q-42 0 -55 9t-13 39q0 80 48 148q30 43 77.5 69t95.5 26q53 0 195 -37q105 -27 133 -27q25 0 37.5 8.5t25.5 34.5q7 15 18 19t46 4h49q38 0 53 -9t15 -32q0 -45 -40 -121
q-28 -53 -71 -84q-66 -48 -147 -48q-46 0 -155 35q-103 32 -145 32q-38 0 -54 -40q-7 -17 -18.5 -21.5t-47.5 -4.5z" />
    <glyph glyph-name="utilde" unicode="&#x169;" horiz-adv-x="1212" vert-adv-y="2457" 
d="M440 860v-458q0 -172 167 -172q166 0 166 172v458q0 45 11.5 56.5t56.5 11.5h192q45 0 56.5 -11.5t11.5 -56.5v-521q0 -167 -103 -261q-130 -118 -391 -118q-262 0 -392 118q-103 94 -103 261v521q0 45 11.5 56.5t56.5 11.5h192q45 0 56.5 -11.5t11.5 -56.5zM342 1072
h-31q-44 0 -56 12t-12 36q0 77 44 147q26 43 70 69t88 26q46 0 176 -35q98 -27 121 -27q38 0 57 41q7 15 18.5 19.5t45.5 4.5h33q38 0 53 -9t15 -32q0 -45 -36 -120q-26 -54 -65 -85q-60 -48 -134 -48q-41 0 -140 34q-94 32 -132 32q-35 0 -49 -39q-6 -17 -18 -21.5
t-48 -4.5z" />
    <glyph glyph-name="Umacron" unicode="&#x16a;" horiz-adv-x="1477" vert-adv-y="2457" 
d="M498 1297v-671q0 -117 6.5 -159t32.5 -85q61 -104 198 -104q67 0 123.5 30t84.5 81q22 40 29 85t7 152v671q0 45 11.5 56.5t56.5 11.5h219q45 0 56.5 -11.5t11.5 -56.5v-719q0 -196 -52 -301q-79 -160 -236 -242q-135 -70 -316 -70q-206 0 -357 89q-127 74 -178.5 192
t-51.5 332v719q0 45 11.5 56.5t56.5 11.5h219q45 0 56.5 -11.5t11.5 -56.5zM401 1750h675q46 0 57.5 -11.5t11.5 -56.5v-65q0 -45 -11.5 -56.5t-57.5 -11.5h-675q-46 0 -57.5 11.5t-11.5 56.5v65q0 45 11.5 56.5t57.5 11.5z" />
    <glyph glyph-name="umacron" unicode="&#x16b;" horiz-adv-x="1212" vert-adv-y="2457" 
d="M440 860v-458q0 -172 167 -172q166 0 166 172v458q0 45 11.5 56.5t56.5 11.5h192q45 0 56.5 -11.5t11.5 -56.5v-521q0 -167 -103 -261q-130 -118 -391 -118q-262 0 -392 118q-103 94 -103 261v521q0 45 11.5 56.5t56.5 11.5h192q45 0 56.5 -11.5t11.5 -56.5zM268 1293
h676q46 0 57.5 -11.5t11.5 -56.5v-65q0 -45 -11.5 -56.5t-57.5 -11.5h-676q-45 0 -56.5 11.5t-11.5 56.5v65q0 45 11.5 56.5t56.5 11.5z" />
    <glyph glyph-name="Ubreve" unicode="&#x16c;" horiz-adv-x="1477" vert-adv-y="2457" 
d="M498 1297v-671q0 -117 6.5 -159t32.5 -85q61 -104 198 -104q67 0 123.5 30t84.5 81q22 40 29 85t7 152v671q0 45 11.5 56.5t56.5 11.5h219q45 0 56.5 -11.5t11.5 -56.5v-719q0 -196 -52 -301q-79 -160 -236 -242q-135 -70 -316 -70q-206 0 -357 89q-127 74 -178.5 192
t-51.5 332v719q0 45 11.5 56.5t56.5 11.5h219q45 0 56.5 -11.5t11.5 -56.5zM419 1810h100q36 0 47.5 -5t19.5 -25q37 -91 152 -91q116 0 153 91q8 20 19 25t48 5h99q38 0 53 -9t15 -31q0 -48 -36.5 -106t-92.5 -99q-96 -70 -258 -70q-184 0 -287 93q-45 42 -72.5 91.5
t-27.5 90.5q0 23 15 31.5t53 8.5z" />
    <glyph glyph-name="ubreve" unicode="&#x16d;" horiz-adv-x="1212" vert-adv-y="2457" 
d="M440 860v-458q0 -172 167 -172q166 0 166 172v458q0 45 11.5 56.5t56.5 11.5h192q45 0 56.5 -11.5t11.5 -56.5v-521q0 -167 -103 -261q-130 -118 -391 -118q-262 0 -392 118q-103 94 -103 261v521q0 45 11.5 56.5t56.5 11.5h192q45 0 56.5 -11.5t11.5 -56.5zM323 1387h80
q41 0 51 -7t24 -45q12 -31 47.5 -50.5t80.5 -19.5q57 0 87.5 21t49.5 72q7 19 19 24t48 5h80q38 0 53 -9t15 -33q0 -47 -33 -104t-84 -99q-88 -71 -235 -71q-165 0 -260 95q-91 90 -91 179q0 24 15 33t53 9z" />
    <glyph glyph-name="Uring" unicode="&#x16e;" horiz-adv-x="1477" vert-adv-y="2457" 
d="M498 1297v-671q0 -117 6.5 -159t32.5 -85q61 -104 198 -104q67 0 123.5 30t84.5 81q22 40 29 85t7 152v671q0 45 11.5 56.5t56.5 11.5h219q45 0 56.5 -11.5t11.5 -56.5v-719q0 -196 -52 -301q-79 -160 -236 -242q-135 -70 -316 -70q-206 0 -357 89q-127 74 -178.5 192
t-51.5 332v719q0 45 11.5 56.5t56.5 11.5h219q45 0 56.5 -11.5t11.5 -56.5zM743 1906q145 0 219 -70q58 -55 58 -143q0 -87 -58 -142q-74 -70 -223 -70q-150 0 -224 70q-58 55 -58 142q0 101 75.5 157t210.5 56zM737 1772q-48 0 -76 -21t-28 -58q0 -35 28.5 -56t77.5 -21
t77 21t28 57q0 37 -28.5 57.5t-78.5 20.5z" />
    <glyph glyph-name="uring" unicode="&#x16f;" horiz-adv-x="1212" vert-adv-y="2457" 
d="M440 860v-458q0 -172 167 -172q166 0 166 172v458q0 45 11.5 56.5t56.5 11.5h192q45 0 56.5 -11.5t11.5 -56.5v-521q0 -167 -103 -261q-130 -118 -391 -118q-262 0 -392 118q-103 94 -103 261v521q0 45 11.5 56.5t56.5 11.5h192q45 0 56.5 -11.5t11.5 -56.5zM611 1496
q145 0 218 -70q59 -55 59 -143q0 -87 -59 -142q-73 -70 -222 -70q-150 0 -224 70q-58 55 -58 142q0 101 75.5 157t210.5 56zM605 1366q-50 0 -79 -22.5t-29 -61.5q0 -37 30 -59t80 -22t79.5 22t29.5 61q0 38 -29.5 60t-81.5 22z" />
    <glyph glyph-name="Uhungarumlaut" unicode="&#x170;" horiz-adv-x="1477" vert-adv-y="2457" 
d="M498 1297v-671q0 -117 6.5 -159t32.5 -85q61 -104 198 -104q67 0 123.5 30t84.5 81q22 40 29 85t7 152v671q0 45 11.5 56.5t56.5 11.5h219q45 0 56.5 -11.5t11.5 -56.5v-719q0 -196 -52 -301q-79 -160 -236 -242q-135 -70 -316 -70q-206 0 -357 89q-127 74 -178.5 192
t-51.5 332v719q0 45 11.5 56.5t56.5 11.5h219q45 0 56.5 -11.5t11.5 -56.5zM749 1659l-182 -150q-33 -27 -47 -27q-19 0 -49 35l-26 31q-3 4 -12 14q-16 18 -16 33t27 47l150 178q30 36 49 36q18 0 49 -33l63 -67q30 -32 30 -49q0 -19 -36 -48zM1209 1659l-182 -150
q-33 -27 -47 -27q-19 0 -49 35l-26 31q-5 5 -12 14q-16 18 -16 33t28 47l149 178q30 36 49 36q18 0 49 -33l63 -67q30 -32 30 -49q0 -19 -36 -48z" />
    <glyph glyph-name="uhungarumlaut" unicode="&#x171;" horiz-adv-x="1212" vert-adv-y="2457" 
d="M440 860v-458q0 -172 167 -172q166 0 166 172v458q0 45 11.5 56.5t56.5 11.5h192q45 0 56.5 -11.5t11.5 -56.5v-521q0 -167 -103 -261q-130 -118 -391 -118q-262 0 -392 118q-103 94 -103 261v521q0 45 11.5 56.5t56.5 11.5h192q45 0 56.5 -11.5t11.5 -56.5zM663 1294
l-182 -181q-31 -31 -48 -31t-48 31l-20 20q-31 31 -31 49q0 13 23 45l143 206q19 27 27 34t23 7q14 0 47 -29l62 -54q35 -30 35 -49q0 -17 -31 -48zM1018 1294l-182 -181q-31 -31 -48 -31t-48 31l-20 20q-31 31 -31 49q0 13 23 45l143 206q19 27 27 34t23 7q14 0 47 -29
l62 -54q35 -30 35 -49q0 -17 -31 -48z" />
    <glyph glyph-name="Uogonek" unicode="&#x172;" horiz-adv-x="1477" vert-adv-y="2457" 
d="M738 -36h-7h-9q-197 0 -349 90q-127 75 -178.5 192.5t-51.5 331.5v719q0 45 11.5 56.5t56.5 11.5h219q45 0 56.5 -11.5t11.5 -56.5v-671q0 -118 6.5 -160t32.5 -85q61 -104 198 -104q67 0 123.5 30t84.5 81q22 40 29 85.5t7 152.5v671q0 45 11.5 56.5t56.5 11.5h219
q45 0 56.5 -11.5t11.5 -56.5v-719q0 -226 -73 -345q-73 -118 -257 -222q-90 -50 -122.5 -84t-32.5 -77q0 -33 23.5 -54.5t60.5 -21.5q9 0 35 5q7 1 14 1q37 0 37 -35q0 -15 -16 -77q-3 -11 -5 -18q-6 -25 -22 -34q-44 -24 -132 -24q-103 0 -162 58q-51 49 -51 118
q0 50 28.5 102.5t78.5 93.5z" />
    <glyph glyph-name="uogonek" unicode="&#x173;" horiz-adv-x="1212" vert-adv-y="2457" 
d="M670 -38q-28 -2 -63 -2q-136 0 -230 28.5t-162 89.5q-103 93 -103 261v521q0 45 11.5 56.5t56.5 11.5h192q45 0 56.5 -11.5t11.5 -56.5v-458q0 -172 167 -172q166 0 166 172v458q0 45 11.5 56.5t56.5 11.5h192q45 0 56.5 -11.5t11.5 -56.5v-521q0 -125 -46.5 -194
t-184.5 -150q-111 -65 -111 -137q0 -31 23.5 -54t54.5 -23q10 0 23 2q17 3 28 3q34 0 34 -37q0 -19 -11.5 -60t-19.5 -49q-13 -13 -55.5 -24t-83.5 -11q-75 0 -128 48t-53 117q0 107 99 192z" />
    <glyph glyph-name="Wcircumflex" unicode="&#x174;" horiz-adv-x="2076" vert-adv-y="2457" 
d="M608 483l271 828q13 39 23.5 46.5t51.5 7.5h168q41 0 51.5 -7.5t22.5 -47.5l253 -827l241 826q3 10 5 18q8 25 19.5 31.5t50.5 6.5h228q39 0 53.5 -8.5t14.5 -30.5q0 -10 -10 -40l-393 -1232q-13 -39 -23.5 -46.5t-51.5 -7.5h-247q-41 0 -51.5 7.5t-22.5 47.5l-232 736
l-244 -737q-13 -39 -23 -46.5t-52 -7.5h-246q-42 0 -52.5 7.5t-21.5 47.5l-367 1231q-9 30 -9 41q0 21 14.5 29.5t53.5 8.5h229q42 0 52.5 -8t21.5 -49zM1026 1635l-289 -134q-33 -15 -43 -15q-14 0 -22.5 7.5t-25.5 34.5l-27 43q-21 33 -21 44q0 16 8 24.5t37 25.5l339 187
q10 6 16 9q17 10 28 10q9 0 43 -19l339 -187q29 -17 37 -25.5t8 -24.5q0 -11 -21 -44l-26 -43q-18 -27 -26.5 -34.5t-21.5 -7.5q-11 0 -44 15z" />
    <glyph glyph-name="wcircumflex" unicode="&#x175;" horiz-adv-x="1857" vert-adv-y="2457" 
d="M588 439l210 441q16 36 26 42t50 6h99q40 0 49.5 -6t26.5 -43l210 -454l211 455q17 36 26.5 42t49.5 6h216q68 0 68 -36q0 -15 -17 -48l-418 -798q-18 -35 -27 -40.5t-49 -5.5h-114q-40 0 -49.5 6t-26.5 43l-209 460l-200 -459q-16 -37 -26 -43.5t-50 -6.5h-115
q-40 0 -49 5.5t-27 41.5l-410 797q-17 33 -17 46q0 21 15 29.5t53 8.5h218q40 0 49.5 -6t26.5 -43zM925 1267l-209 -162q-33 -25 -46 -25q-19 0 -49 34l-49 56q-28 32 -28 47q0 14 6 22t32 27l297 223q32 25 47 25q13 0 46 -24l301 -223q26 -19 32.5 -27.5t6.5 -22.5
q0 -15 -29 -47l-53 -57q-6 -8 -12 -14q-18 -20 -37 -20q-13 0 -46 26z" />
    <glyph glyph-name="Ycircumflex" unicode="&#x176;" horiz-adv-x="1311" vert-adv-y="2457" 
d="M470 656l-434 622q-23 34 -23 49q0 21 15.5 29.5t52.5 8.5h271q38 0 46 -4.5t30 -35.5l230 -332l221 331q21 32 29.5 36.5t46.5 4.5h274q68 0 68 -38q0 -16 -24 -49l-448 -622v-588q0 -45 -11.5 -56.5t-56.5 -11.5h-219q-45 0 -56.5 11.5t-11.5 56.5v588zM656 1635
l-289 -134q-32 -15 -43 -15q-14 0 -22.5 7.5t-25.5 34.5l-27 43q-21 33 -21 44q0 16 8 24.5t37 25.5l339 187q10 6 16 9q17 10 28 10q9 0 43 -19l339 -187q29 -16 37 -25t8 -25q0 -11 -21 -44l-26 -43q-17 -27 -26 -34.5t-22 -7.5q-11 0 -44 15z" />
    <glyph glyph-name="ycircumflex" unicode="&#x177;" horiz-adv-x="1246" vert-adv-y="2457" 
d="M448 127l-400 716q-19 33 -19 47q0 21 15 29.5t53 8.5h232q40 0 49 -5.5t27 -40.5l224 -430l218 429q18 36 27 41.5t49 5.5h227q38 0 53 -8.5t15 -29.5q0 -14 -17 -46l-676 -1262q-18 -35 -27.5 -40.5t-48.5 -5.5h-221q-36 0 -47 5q-21 10 -21 33q0 13 18 46zM620 1267
l-209 -162q-33 -25 -46 -25q-19 0 -49 34l-49 56q-28 32 -28 47q0 21 38 49l297 223q32 25 46 25t46 -24l302 -223q38 -29 38 -50q0 -16 -29 -47l-52 -57q-7 -8 -12 -14q-18 -20 -37 -20q-13 0 -46 26z" />
    <glyph glyph-name="Zacute" unicode="&#x179;" horiz-adv-x="1293" vert-adv-y="2457" 
d="M623 300h505q45 0 56.5 -11.5t11.5 -56.5v-164q0 -45 -11.5 -56.5t-56.5 -11.5h-1001q-38 0 -53 8.5t-15 30.5q0 14 20 46l594 980h-469q-45 0 -56.5 11.5t-11.5 56.5v164q0 45 11.5 56.5t56.5 11.5h962q38 0 53.5 -8.5t15.5 -30.5q0 -13 -21 -46zM933 1668l-233 -160
q-33 -22 -45 -22q-17 0 -48 30l-43 39q-33 31 -33 49q0 17 33 48l197 188q32 30 49 30q15 0 47 -29l83 -75q34 -31 34 -49q0 -22 -41 -49z" />
    <glyph glyph-name="zacute" unicode="&#x17a;" horiz-adv-x="1067" vert-adv-y="2457" 
d="M591 273h323q45 0 56.5 -11.5t11.5 -56.5v-137q0 -45 -11.5 -56.5t-56.5 -11.5h-769q-37 0 -49 6q-20 10 -20 32q0 15 23 48l380 569h-311q-45 0 -56.5 11.5t-11.5 56.5v137q0 45 11.5 56.5t56.5 11.5h754q69 0 69 -38q0 -15 -22 -48zM790 1292l-210 -187
q-32 -28 -48 -28q-14 0 -46 24l-47 34q-26 19 -32.5 27t-6.5 23q0 13 27 46l173 211q20 25 28 31t22 6q12 0 45 -24l90 -65q40 -28 40 -50q0 -18 -35 -48z" />
    <glyph glyph-name="Zdotaccent" unicode="&#x17b;" horiz-adv-x="1293" vert-adv-y="2457" 
d="M623 300h505q45 0 56.5 -11.5t11.5 -56.5v-164q0 -45 -11.5 -56.5t-56.5 -11.5h-1001q-38 0 -53 8.5t-15 30.5q0 14 20 46l594 980h-469q-45 0 -56.5 11.5t-11.5 56.5v164q0 45 11.5 56.5t56.5 11.5h962q38 0 53.5 -8.5t15.5 -30.5q0 -13 -21 -46zM646 1864q74 0 126 -52
t52 -125q0 -74 -52 -126t-125 -52q-75 0 -126.5 52t-51.5 128q0 71 52.5 123t124.5 52z" />
    <glyph glyph-name="zdotaccent" unicode="&#x17c;" horiz-adv-x="1067" vert-adv-y="2457" 
d="M591 273h323q45 0 56.5 -11.5t11.5 -56.5v-137q0 -45 -11.5 -56.5t-56.5 -11.5h-769q-37 0 -49 6q-20 10 -20 32q0 15 23 48l380 569h-311q-45 0 -56.5 11.5t-11.5 56.5v137q0 45 11.5 56.5t56.5 11.5h754q69 0 69 -38q0 -15 -22 -48zM534 1445q77 0 132 -54
q54 -55 54 -132q0 -78 -54.5 -132.5t-131.5 -54.5q-78 0 -132 55q-55 55 -55 134q0 75 55 129.5t132 54.5z" />
    <glyph glyph-name="Zcaron" unicode="&#x17d;" horiz-adv-x="1293" vert-adv-y="2457" 
d="M623 300h505q45 0 56.5 -11.5t11.5 -56.5v-164q0 -45 -11.5 -56.5t-56.5 -11.5h-1001q-38 0 -53 8.5t-15 30.5q0 14 20 46l594 980h-469q-45 0 -56.5 11.5t-11.5 56.5v164q0 45 11.5 56.5t56.5 11.5h962q38 0 53.5 -8.5t15.5 -30.5q0 -13 -21 -46zM646 1716l289 134
q34 15 44 15q13 0 21.5 -7.5t25.5 -34.5l27 -43q21 -33 21 -45q0 -15 -8 -23.5t-37 -25.5l-339 -187q-8 -5 -16 -9q-17 -10 -28 -10q-10 0 -43 19l-339 187q-29 17 -37 25.5t-8 24.5q0 11 21 44l27 43q16 27 25 34.5t22 7.5q10 0 44 -15z" />
    <glyph glyph-name="zcaron" unicode="&#x17e;" horiz-adv-x="1067" vert-adv-y="2457" 
d="M591 273h323q45 0 56.5 -11.5t11.5 -56.5v-137q0 -45 -11.5 -56.5t-56.5 -11.5h-769q-37 0 -49 6q-20 10 -20 32q0 15 23 48l380 569h-311q-45 0 -56.5 11.5t-11.5 56.5v137q0 45 11.5 56.5t56.5 11.5h754q69 0 69 -38q0 -15 -22 -48zM531 1322l210 162q32 26 46 26
q18 0 49 -34l52 -57q29 -32 29 -47q0 -14 -6.5 -22t-32.5 -28l-301 -223q-33 -24 -46 -24q-14 0 -47 25l-296 223q-27 20 -33 27.5t-6 21.5q0 15 29 47l48 56q30 34 50 34q13 0 46 -25z" />
    <glyph glyph-name="uni01CD" unicode="&#x1cd;" horiz-adv-x="1454" vert-adv-y="2457" 
d="M973 238h-490l-73 -187q-15 -37 -25 -44t-51 -7h-233q-38 0 -53 8.5t-15 29.5q0 11 12 43l474 1232q3 8 6 17q9 24 20 29.5t49 5.5h276q41 0 51 -7t24 -45l465 -1232q12 -31 12 -43q0 -21 -15 -29.5t-53 -8.5h-237q-41 0 -51 7t-24 45zM877 508l-147 435l-149 -435h296z
M727 1716l289 134q34 15 43 15q22 0 48 -42l27 -43q21 -33 21 -45q0 -15 -8 -23.5t-37 -25.5l-339 -187q-9 -5 -16 -9q-17 -10 -28 -10q-10 0 -43 19l-339 187q-29 17 -37 25.5t-8 24.5q0 11 21 44l26 43q27 42 48 42q10 0 44 -15z" />
    <glyph glyph-name="uni01CE" unicode="&#x1ce;" horiz-adv-x="1270" vert-adv-y="2457" 
d="M830 103q-105 -133 -286 -133q-117 0 -223 59q-118 66 -183 181q-63 112 -63 256q0 237 165 379q131 113 301 113q90 0 159.5 -29t129.5 -92v23q0 45 12 56.5t57 11.5h191q45 0 56.5 -11.5t11.5 -56.5v-792q0 -45 -11.5 -56.5t-56.5 -11.5h-191q-45 0 -57 11.5t-12 56.5
v35zM628 675q-88 0 -150 -62t-62 -151q0 -84 62 -147q61 -62 150 -62q88 0 150 62t62 149q0 89 -62 149q-64 62 -150 62zM632 1322l210 162q32 26 46 26q18 0 49 -34l52 -57q29 -32 29 -47q0 -14 -6.5 -22.5t-31.5 -27.5l-302 -223q-33 -24 -46 -24q-14 0 -47 25l-296 223
q-38 28 -38 49q0 16 28 47l48 56q30 34 50 34q13 0 46 -25z" />
    <glyph glyph-name="uni01D2" unicode="&#x1d2;" horiz-adv-x="1267" vert-adv-y="2457" 
d="M633 962q276 0 431 -168q128 -138 128 -330q0 -226 -168 -370q-150 -129 -396 -129q-156 0 -292 67q-127 63 -199 192q-62 109 -62 248q0 215 168 361q84 72 208 105q92 24 182 24zM634 679q-89 0 -150 -62q-62 -63 -62 -153q0 -86 62 -149q61 -62 149 -62t150 62
q62 63 62 151q0 90 -62 151q-63 62 -149 62zM631 1322l209 162q33 26 47 26q18 0 49 -34l52 -57q29 -31 29 -47q0 -14 -6.5 -22.5t-32.5 -27.5l-301 -223q-33 -24 -46 -24q-15 0 -47 25l-297 223q-38 28 -38 49q0 15 28 47l49 56q30 34 50 34q13 0 45 -25z" />
    <glyph glyph-name="uni01D3" unicode="&#x1d3;" horiz-adv-x="1477" vert-adv-y="2457" 
d="M498 1297v-671q0 -117 6.5 -159t32.5 -85q61 -104 198 -104q67 0 123.5 30t84.5 81q22 40 29 85t7 152v671q0 45 11.5 56.5t56.5 11.5h219q45 0 56.5 -11.5t11.5 -56.5v-719q0 -196 -52 -301q-79 -160 -236 -242q-135 -70 -316 -70q-206 0 -357 89q-127 74 -178.5 192
t-51.5 332v719q0 45 11.5 56.5t56.5 11.5h219q45 0 56.5 -11.5t11.5 -56.5zM738 1716l289 134q34 15 43 15q22 0 48 -42l27 -43q21 -33 21 -45q0 -15 -8 -23.5t-37 -25.5l-339 -187q-9 -5 -16 -9q-17 -10 -28 -10q-10 0 -43 19l-339 187q-29 16 -37 25t-8 25q0 11 21 44
l26 43q27 42 48 42q10 0 44 -15z" />
    <glyph glyph-name="uni01D4" unicode="&#x1d4;" horiz-adv-x="1212" vert-adv-y="2457" 
d="M440 860v-458q0 -172 167 -172q166 0 166 172v458q0 45 11.5 56.5t56.5 11.5h192q45 0 56.5 -11.5t11.5 -56.5v-521q0 -167 -103 -261q-130 -118 -391 -118q-262 0 -392 118q-103 94 -103 261v521q0 45 11.5 56.5t56.5 11.5h192q45 0 56.5 -11.5t11.5 -56.5zM603 1322
l210 162q33 26 46 26q19 0 49 -34l52 -57q30 -32 30 -47q0 -14 -6.5 -22.5t-32.5 -27.5l-301 -223q-33 -24 -46 -24q-15 0 -47 25l-297 223q-25 19 -31.5 27t-6.5 22q0 15 28 47l49 56q30 34 49 34q14 0 46 -25z" />
    <glyph glyph-name="Gcaron" unicode="&#x1e6;" horiz-adv-x="1593" vert-adv-y="2457" 
d="M1098 482h-223q-45 0 -56.5 11.5t-11.5 56.5v140q0 45 11.5 56.5t56.5 11.5h566q42 0 52 -8q18 -14 18 -56q0 -196 -71 -356q-84 -187 -245 -286q-163 -100 -384 -100q-224 0 -401 102q-172 100 -258 288q-71 155 -71 333q0 203 91 375q94 180 268 270q172 89 382 89
q351 0 537 -252q63 -85 63 -113q0 -16 -9.5 -25t-40.5 -22l-209 -86q-33 -14 -43 -14q-22 0 -36 25q-58 102 -121 139q-72 41 -157 41q-157 0 -255 -125q-99 -125 -99 -301q0 -201 122 -332q92 -98 243 -98q153 0 231 100q37 47 50 136zM797 1716l288 134q34 15 44 15
q21 0 48 -42l26 -43q21 -33 21 -45q0 -15 -8 -24t-37 -25l-339 -187q-9 -5 -16 -9q-16 -10 -28 -10q-9 0 -43 19l-339 187q-29 17 -37 25.5t-8 24.5q0 11 21 44l27 43q26 42 48 42q9 0 43 -15z" />
    <glyph glyph-name="gcaron" unicode="&#x1e7;" horiz-adv-x="1263" vert-adv-y="2457" 
d="M823 103q-73 -68 -137.5 -95t-154.5 -27q-228 0 -359 166q-97 123 -97 303q0 228 145 371q135 133 327 133q89 0 153.5 -28.5t122.5 -94.5v29q0 44 12 56q13 12 57 12h191q45 0 56.5 -11.5t11.5 -56.5v-796q0 -190 -47 -278q-74 -140 -222 -204q-113 -50 -266 -50
q-316 0 -469 208q-44 60 -44 109q0 21 15 29.5t53 8.5h230q36 0 47 -5t20 -25q11 -27 53 -45t92 -18q112 0 172 78q38 50 38 143v88zM628 678q-89 0 -150 -62q-62 -62 -62 -152q0 -85 62 -147q61 -62 150 -62q88 0 149 62q63 63 63 150q0 88 -63 149q-63 62 -149 62z
M629 1322l209 162q33 26 47 26q18 0 49 -34l52 -57q29 -31 29 -47q0 -14 -6.5 -22.5t-32.5 -27.5l-301 -223q-33 -24 -46 -24q-15 0 -47 25l-297 223q-26 19 -32 27t-6 22q0 15 28 47l49 56q30 34 49 34q14 0 46 -25z" />
    <glyph glyph-name="uni01F4" unicode="&#x1f4;" horiz-adv-x="1593" vert-adv-y="2457" 
d="M1098 482h-223q-45 0 -56.5 11.5t-11.5 56.5v140q0 45 11.5 56.5t56.5 11.5h566q42 0 52 -8q18 -14 18 -56q0 -196 -71 -356q-84 -187 -245 -286q-163 -100 -384 -100q-224 0 -401 102q-172 100 -258 288q-71 155 -71 333q0 203 91 375q94 180 268 270q172 89 382 89
q351 0 537 -252q63 -85 63 -113q0 -16 -9.5 -25t-40.5 -22l-209 -86q-33 -14 -43 -14q-22 0 -36 25q-58 102 -121 139q-72 41 -157 41q-157 0 -255 -125q-99 -125 -99 -301q0 -201 122 -332q92 -98 243 -98q153 0 231 100q37 47 50 136zM1084 1668l-234 -160
q-32 -22 -45 -22q-17 0 -48 30l-42 39q-34 31 -34 49q0 17 33 48l198 188q31 30 48 30q16 0 47 -29l83 -75q34 -31 34 -49q0 -22 -40 -49z" />
    <glyph glyph-name="uni01F5" unicode="&#x1f5;" horiz-adv-x="1263" vert-adv-y="2457" 
d="M823 103q-73 -68 -137.5 -95t-154.5 -27q-228 0 -359 166q-97 123 -97 303q0 228 145 371q135 133 327 133q89 0 153.5 -28.5t122.5 -94.5v29q0 44 12 56q13 12 57 12h191q45 0 56.5 -11.5t11.5 -56.5v-796q0 -190 -47 -278q-74 -140 -222 -204q-113 -50 -266 -50
q-316 0 -469 208q-44 60 -44 109q0 21 15 29.5t53 8.5h230q36 0 47 -5t20 -25q11 -27 53 -45t92 -18q112 0 172 78q38 50 38 143v88zM628 678q-89 0 -150 -62q-62 -62 -62 -152q0 -85 62 -147q61 -62 150 -62q88 0 149 62q63 63 63 150q0 88 -63 149q-63 62 -149 62z
M758 1292l-211 -187q-32 -28 -48 -28q-14 0 -46 24l-46 34q-26 19 -32.5 27.5t-6.5 22.5t26 46l173 211q20 25 28 31t22 6q12 0 45 -24l91 -65q39 -28 39 -50q0 -18 -34 -48z" />
    <glyph glyph-name="Aringacute" unicode="&#x1fa;" horiz-adv-x="1454" vert-adv-y="2457" 
d="M973 238h-490l-73 -187q-15 -37 -25 -44t-51 -7h-233q-38 0 -53 8.5t-15 29.5q0 11 12 43l474 1232q3 8 6 17q9 24 20 29.5t49 5.5h276q41 0 51 -7t24 -45l465 -1232q12 -31 12 -43q0 -21 -15 -29.5t-53 -8.5h-237q-41 0 -51 7t-24 45zM877 508l-147 435l-149 -435h296z
M732 1906q145 0 219 -70q58 -55 58 -143q0 -87 -58 -142q-74 -70 -223 -70q-150 0 -224 70q-58 55 -58 142q0 101 75.5 157t210.5 56zM726 1772q-48 0 -76 -21t-28 -58q0 -35 28.5 -56t77.5 -21t77 21t28 57q0 37 -28.5 57.5t-78.5 20.5zM731 2058l-234 -159l-15 -10
q-18 -13 -30 -13q-16 0 -48 30l-43 39q-33 31 -33 49q0 17 33 49l198 187q31 30 48 30q16 0 47 -28l83 -76q34 -31 34 -49q0 -21 -40 -49z" />
    <glyph glyph-name="aringacute" unicode="&#x1fb;" horiz-adv-x="1270" vert-adv-y="2457" 
d="M830 103q-105 -133 -285 -133q-118 0 -224 59q-118 66 -183 181q-63 112 -63 256q0 237 165 379q131 113 301 113q90 0 159.5 -29t129.5 -92v41q0 50 51 50h227q50 0 50 -50v-828q0 -50 -50 -50h-227q-51 0 -51 50v53zM628 675q-88 0 -150 -62t-62 -151q0 -84 62 -147
q61 -62 150 -62q88 0 150 62t62 149q0 89 -62 149q-64 62 -150 62zM642 1496h13q142 0 217 -70q58 -55 58 -142q0 -88 -58 -143q-75 -69 -217 -69h-13q-143 0 -216 69q-59 56 -59 145q0 84 59 140q73 70 216 70zM647 1366q-50 0 -79 -22t-29 -61q0 -37 29.5 -59t80.5 -22
q50 0 79.5 22t29.5 60q0 39 -29.5 60.5t-81.5 21.5zM754 1729l-243 -215q-19 -17 -36 -17q-14 0 -33 14l-76 55q-23 17 -23 38q0 14 14 31l197 241q18 22 38 22q14 0 31 -13l127 -91q21 -15 21 -33q0 -16 -17 -32z" />
    <glyph glyph-name="AEacute" unicode="&#x1fc;" horiz-adv-x="1892" vert-adv-y="2457" 
d="M966 240h-493l-66 -187q-3 -8 -6 -17q-8 -24 -19.5 -30t-49.5 -6h-231q-38 0 -53 8.5t-15 29.5q0 11 12 43l475 1232q15 38 25 45t51 7h724q41 0 51 -7t24 -45l61 -167q12 -32 12 -43q0 -21 -15 -29.5t-53 -8.5h-363l84 -228h392q41 0 51 -7t24 -45l64 -167
q12 -32 12 -43q0 -22 -15 -30t-53 -8h-364l89 -237h392q41 0 51 -7t24 -45l61 -167q11 -30 11 -43q0 -22 -14.5 -30t-52.5 -8h-682q-41 0 -51 7t-24 45zM872 509l-148 405l-153 -405h301zM1183 1668l-233 -160q-33 -22 -46 -22q-16 0 -48 30l-42 39q-33 31 -33 49
q0 17 32 48l198 188q32 30 48 30t48 -29l83 -75q33 -31 33 -49q0 -22 -40 -49z" />
    <glyph glyph-name="aeacute" unicode="&#x1fd;" horiz-adv-x="1777" vert-adv-y="2457" 
d="M1008 411q4 -88 44 -138q58 -74 167 -74q99 0 139 64q10 17 19.5 20.5t44.5 3.5h176q38 0 53 -8.5t15 -31.5q0 -22 -22.5 -62.5t-52.5 -70.5q-141 -146 -383 -146q-137 0 -230.5 46.5t-136.5 135.5q-146 -176 -382 -176q-98 0 -180.5 29.5t-130.5 81.5q-73 79 -73 188
q0 155 131 243q92 63 256 63q114 0 238 -48q1 15 1 25q0 167 -224 167q-83 0 -203 -36q-6 -2 -14 -2q-22 0 -30.5 14.5t-8.5 53.5v106q0 46 14 58q15 13 106.5 28.5t156.5 15.5q67 0 136 -17.5t114 -45.5q46 -29 93 -102q55 80 146.5 122.5t207.5 42.5q181 0 315 -90
q146 -99 179 -300q12 -70 12 -118q0 -24 -14.5 -33t-53.5 -9h-625zM1396 601q-18 62 -51 95q-56 56 -140 56q-139 0 -189 -151h380zM536 395q-64 0 -102 -27.5t-38 -73.5q0 -44 42 -72.5t108 -28.5q74 0 119 33q44 32 44 71q0 42 -50 70t-123 28zM1028 1292l-211 -187
q-32 -28 -48 -28q-14 0 -46 24l-47 34q-26 19 -32.5 27.5t-6.5 22.5q0 13 27 46l173 211q20 25 28 31t22 6q12 0 45 -24l91 -65q39 -28 39 -50q0 -17 -34 -48z" />
    <glyph glyph-name="Oslashacute" unicode="&#x1fe;" horiz-adv-x="1725" vert-adv-y="2457" 
d="M1478 1117q144 -211 144 -434q0 -205 -100 -374q-106 -181 -294 -276q-163 -82 -359 -82q-255 0 -474 148l-122 -116q-31 -29 -48 -29q-18 0 -49 32l-47 50q-30 32 -30 48q0 17 32 48l119 114q-60 89 -90 160q-51 124 -51 264q0 184 81 343q99 192 281 295q171 97 390 97
q146 0 261.5 -35.5t208.5 -109.5l124 119q31 31 48 31t48 -33l46 -49q30 -31 30 -48t-32 -48zM1054 1007q-84 54 -193 54q-172 0 -285 -133q-95 -110 -95 -244q0 -102 45 -181zM663 345q113 -50 197 -50q172 0 288 123q102 108 102 254q0 86 -48 190zM1106 1668l-233 -160
q-33 -22 -45 -22q-17 0 -48 30l-43 39q-33 31 -33 49q0 17 33 48l197 188q32 30 49 30q15 0 47 -29l83 -75q34 -31 34 -49q0 -14 -7.5 -23t-33.5 -26z" />
    <glyph glyph-name="oslashacute" unicode="&#x1ff;" horiz-adv-x="1419" vert-adv-y="2457" 
d="M237 173q-92 136 -92 294q0 137 72 253q149 242 487 242q117 0 203.5 -26t165.5 -86l129 105q32 26 47 26q20 0 38 -22q11 -15 13 -17q28 -33 28 -49q0 -19 -37 -49l-119 -95q50 -69 68.5 -126.5t18.5 -139.5q0 -257 -169 -393q-154 -125 -384 -125q-219 0 -368 110
l-122 -98q-32 -26 -46 -26q-20 0 -46 32q-32 41 -32 55q0 20 37 49zM507 381l316 261q-54 38 -111 38q-101 0 -166 -68q-60 -62 -60 -144q0 -38 21 -87zM592 287q50 -33 109 -33q97 0 159 68q57 63 57 141q0 33 -15 77zM919 1292l-211 -187q-31 -28 -47 -28q-14 0 -46 24
l-47 34q-26 19 -32.5 27t-6.5 23q0 14 27 46l172 211q21 25 29 31t21 6q12 0 45 -24l91 -65q39 -28 39 -50q0 -18 -34 -48z" />
    <glyph glyph-name="Scommaaccent" unicode="&#x218;" horiz-adv-x="1170" vert-adv-y="2457" 
d="M1003 1226l-77 -150q-15 -30 -24 -38.5t-25 -8.5q-9 0 -109 55q-36 19 -107 19q-75 0 -117 -41q-35 -35 -35 -78q0 -40 32 -67q30 -25 62 -38t151 -48q169 -50 249 -136q86 -93 86 -247q0 -235 -140 -356q-150 -128 -394 -128q-108 0 -232.5 37.5t-206.5 94.5
q-22 15 -22 37q0 9 18 43l86 161q16 30 24.5 38t24.5 8q10 0 21 -7t70 -48q89 -62 211 -62q92 0 135 49q34 39 34 83q0 57 -44 89.5t-169 69.5q-196 57 -260 110q-108 89 -108 270q0 214 141 343q128 118 317 118q99 0 216.5 -27t187.5 -65q22 -13 22 -35q0 -11 -18 -45z
M728 -340l-184 -180q-31 -31 -48 -31q-13 0 -46 24l-51 35q-27 19 -33.5 27t-6.5 23q0 14 26 46l155 199q6 8 11 15q18 23 39 23q12 0 45 -24l85 -59q27 -19 33.5 -27t6.5 -23q0 -17 -32 -48z" />
    <glyph glyph-name="scommaaccent" unicode="&#x219;" horiz-adv-x="922" vert-adv-y="2457" 
d="M806 837l-47 -90q-15 -29 -23.5 -37.5t-23.5 -8.5q-7 0 -19 4q-88 29 -141 29q-45 0 -73.5 -18.5t-28.5 -47.5q0 -31 27.5 -45.5t119.5 -33.5q270 -54 270 -275q0 -171 -136 -267q-117 -82 -304 -82q-174 0 -317 77q-41 22 -41 46q0 12 17 45l55 107q15 30 24 38.5
t25 8.5q10 0 70 -32q35 -19 88.5 -32.5t90.5 -13.5q42 0 70.5 21t28.5 52q0 33 -28 50t-112 35q-117 24 -176 63q-96 64 -96 194q0 146 103 239q107 98 309 98q160 0 259 -43q26 -12 26 -35q0 -14 -17 -46zM628 -325l-184 -180q-31 -30 -49 -30q-13 0 -45 23l-51 35
q-26 19 -33 27.5t-7 22.5t25 46l156 199q4 5 11 15q18 23 39 23q11 0 45 -23l85 -60q40 -28 40 -50q0 -17 -32 -48z" />
    <glyph glyph-name="uni0226" unicode="&#x226;" horiz-adv-x="1454" vert-adv-y="2457" 
d="M973 238h-490l-73 -187q-15 -37 -25 -44t-51 -7h-233q-38 0 -53 8.5t-15 29.5q0 11 12 43l474 1232q3 8 6 17q9 24 20 29.5t49 5.5h276q41 0 51 -7t24 -45l465 -1232q12 -31 12 -43q0 -21 -15 -29.5t-53 -8.5h-237q-41 0 -51 7t-24 45zM877 508l-147 435l-149 -435h296z
M727 1864q74 0 126 -52t52 -125q0 -74 -52 -126t-125 -52q-75 0 -126.5 52t-51.5 128q0 71 52.5 123t124.5 52z" />
    <glyph glyph-name="uni0227" unicode="&#x227;" horiz-adv-x="1270" vert-adv-y="2457" 
d="M830 103q-105 -133 -286 -133q-117 0 -223 59q-118 66 -183 181q-63 112 -63 256q0 237 165 379q131 113 301 113q90 0 159.5 -29t129.5 -92v23q0 45 12 56.5t57 11.5h191q45 0 56.5 -11.5t11.5 -56.5v-792q0 -45 -11.5 -56.5t-56.5 -11.5h-191q-45 0 -57 11.5t-12 56.5
v35zM628 675q-88 0 -150 -62t-62 -151q0 -84 62 -147q61 -62 150 -62q88 0 150 62t62 149q0 89 -62 149q-64 62 -150 62zM605 1445q78 0 132 -54q55 -55 55 -132q0 -78 -54.5 -132.5t-131.5 -54.5q-78 0 -132 55q-55 55 -55 134q0 75 55 129.5t131 54.5z" />
    <glyph glyph-name="dotlessj" unicode="&#x237;" horiz-adv-x="552" vert-adv-y="2457" 
d="M440 860v-1256q0 -45 -11.5 -56.5t-56.5 -11.5h-192q-45 0 -56.5 11.5t-11.5 56.5v1256q0 45 11.5 56.5t56.5 11.5h192q45 0 56.5 -11.5t11.5 -56.5z" />
    <glyph glyph-name="uni1E1E" unicode="&#x1e1e;" horiz-adv-x="994" vert-adv-y="2457" 
d="M498 1065v-228h321q45 0 56.5 -11.5t11.5 -56.5v-164q0 -45 -11.5 -56.5t-56.5 -11.5h-321v-469q0 -45 -11.5 -56.5t-56.5 -11.5h-219q-45 0 -56.5 11.5t-11.5 56.5v1229q0 45 11.5 56.5t56.5 11.5h646q45 0 56.5 -11.5t11.5 -56.5v-164q0 -45 -11.5 -56.5t-56.5 -11.5
h-359zM496 1864q74 0 126 -52t52 -125q0 -74 -52 -126t-125 -52q-75 0 -126.5 52t-51.5 128q0 71 52.5 123t124.5 52z" />
    <glyph glyph-name="Wgrave" unicode="&#x1e80;" horiz-adv-x="2076" vert-adv-y="2457" 
d="M608 483l271 828q13 39 23.5 46.5t51.5 7.5h168q41 0 51.5 -7.5t22.5 -47.5l253 -827l241 826q3 10 5 18q8 25 19.5 31.5t50.5 6.5h228q39 0 53.5 -8.5t14.5 -30.5q0 -10 -10 -40l-393 -1232q-13 -39 -23.5 -46.5t-51.5 -7.5h-247q-41 0 -51.5 7.5t-22.5 47.5l-232 736
l-244 -737q-13 -39 -23 -46.5t-52 -7.5h-246q-42 0 -52.5 7.5t-21.5 47.5l-367 1231q-9 30 -9 41q0 21 14.5 29.5t53.5 8.5h229q42 0 52.5 -8t21.5 -49zM745 1766l83 75q32 29 47 29q17 0 48 -30l198 -188q33 -31 33 -48q0 -18 -33 -49l-43 -39q-31 -30 -48 -30
q-12 0 -45 22l-234 160q-25 17 -32.5 26t-7.5 23q0 18 34 49z" />
    <glyph glyph-name="wgrave" unicode="&#x1e81;" horiz-adv-x="1857" vert-adv-y="2457" 
d="M588 439l210 441q16 36 26 42t50 6h99q40 0 49.5 -6t26.5 -43l210 -454l211 455q17 36 26.5 42t49.5 6h216q68 0 68 -36q0 -15 -17 -48l-418 -798q-18 -35 -27 -40.5t-49 -5.5h-114q-40 0 -49.5 6t-26.5 43l-209 460l-200 -459q-16 -37 -26 -43.5t-50 -6.5h-115
q-40 0 -49 5.5t-27 41.5l-410 797q-17 33 -17 46q0 21 15 29.5t53 8.5h218q40 0 49.5 -6t26.5 -43zM677 1390l91 65q33 24 45 24q13 0 21 -6t29 -31l172 -211q27 -33 27 -46q0 -15 -6.5 -23t-32.5 -27l-47 -34q-32 -24 -46 -24q-16 0 -48 28l-210 187q-34 30 -34 49
q0 21 39 49z" />
    <glyph glyph-name="Wacute" unicode="&#x1e82;" horiz-adv-x="2076" vert-adv-y="2457" 
d="M608 483l271 828q13 39 23.5 46.5t51.5 7.5h168q41 0 51.5 -7.5t22.5 -47.5l253 -827l241 826q3 10 5 18q8 25 19.5 31.5t50.5 6.5h228q39 0 53.5 -8.5t14.5 -30.5q0 -10 -10 -40l-393 -1232q-13 -39 -23.5 -46.5t-51.5 -7.5h-247q-41 0 -51.5 7.5t-22.5 47.5l-232 736
l-244 -737q-13 -39 -23 -46.5t-52 -7.5h-246q-42 0 -52.5 7.5t-21.5 47.5l-367 1231q-9 30 -9 41q0 21 14.5 29.5t53.5 8.5h229q42 0 52.5 -8t21.5 -49zM1325 1668l-233 -160q-33 -22 -45 -22q-17 0 -48 30l-43 39q-33 31 -33 49q0 17 33 48l197 188q32 30 49 30
q15 0 47 -29l83 -75q34 -31 34 -49q0 -22 -41 -49z" />
    <glyph glyph-name="wacute" unicode="&#x1e83;" horiz-adv-x="1857" vert-adv-y="2457" 
d="M588 439l210 441q16 36 26 42t50 6h99q40 0 49.5 -6t26.5 -43l210 -454l211 455q17 36 26.5 42t49.5 6h216q68 0 68 -36q0 -15 -17 -48l-418 -798q-18 -35 -27 -40.5t-49 -5.5h-114q-40 0 -49.5 6t-26.5 43l-209 460l-200 -459q-16 -37 -26 -43.5t-50 -6.5h-115
q-40 0 -49 5.5t-27 41.5l-410 797q-17 33 -17 46q0 21 15 29.5t53 8.5h218q40 0 49.5 -6t26.5 -43zM1185 1292l-211 -187q-31 -28 -47 -28q-14 0 -46 24l-47 34q-26 19 -32.5 27t-6.5 23q0 13 27 46l172 211q21 25 29 31t21 6q12 0 45 -24l91 -65q39 -28 39 -50
q0 -18 -34 -48z" />
    <glyph glyph-name="Wdieresis" unicode="&#x1e84;" horiz-adv-x="2076" vert-adv-y="2457" 
d="M608 483l271 828q13 39 23.5 46.5t51.5 7.5h168q41 0 51.5 -7.5t22.5 -47.5l253 -827l241 826q3 10 5 18q8 25 19.5 31.5t50.5 6.5h228q39 0 53.5 -8.5t14.5 -30.5q0 -10 -10 -40l-393 -1232q-13 -39 -23.5 -46.5t-51.5 -7.5h-247q-41 0 -51.5 7.5t-22.5 47.5l-232 736
l-244 -737q-13 -39 -23 -46.5t-52 -7.5h-246q-42 0 -52.5 7.5t-21.5 47.5l-367 1231q-9 30 -9 41q0 21 14.5 29.5t53.5 8.5h229q42 0 52.5 -8t21.5 -49zM785 1864q74 0 126 -52t52 -125q0 -74 -52 -126t-125 -52q-75 0 -126.5 52t-51.5 128q0 71 52.5 123t124.5 52z
M1291 1864q74 0 126 -52t52 -125q0 -74 -52 -126t-125 -52q-75 0 -126.5 52t-51.5 128q0 71 52.5 123t124.5 52z" />
    <glyph glyph-name="wdieresis" unicode="&#x1e85;" horiz-adv-x="1857" vert-adv-y="2457" 
d="M588 439l210 441q16 36 26 42t50 6h99q40 0 49.5 -6t26.5 -43l210 -454l211 455q17 36 26.5 42t49.5 6h216q68 0 68 -36q0 -15 -17 -48l-418 -798q-18 -35 -27 -40.5t-49 -5.5h-114q-40 0 -49.5 6t-26.5 43l-209 460l-200 -459q-16 -37 -26 -43.5t-50 -6.5h-115
q-40 0 -49 5.5t-27 41.5l-410 797q-17 33 -17 46q0 21 15 29.5t53 8.5h218q40 0 49.5 -6t26.5 -43zM696 1427q74 0 126 -52t52 -125q0 -74 -52 -126t-125 -52q-75 0 -126.5 52.5t-51.5 127.5q0 72 52.5 123.5t124.5 51.5zM1160 1427q74 0 126 -52t52 -125q0 -74 -52 -126
t-125 -52q-75 0 -126.5 52.5t-51.5 127.5q0 72 52.5 123.5t124.5 51.5z" />
    <glyph glyph-name="Ygrave" unicode="&#x1ef2;" horiz-adv-x="1311" vert-adv-y="2457" 
d="M470 656l-434 622q-23 34 -23 49q0 21 15.5 29.5t52.5 8.5h271q38 0 46 -4.5t30 -35.5l230 -332l221 331q21 32 29.5 36.5t46.5 4.5h274q68 0 68 -38q0 -16 -24 -49l-448 -622v-588q0 -45 -11.5 -56.5t-56.5 -11.5h-219q-45 0 -56.5 11.5t-11.5 56.5v588zM362 1766l83 75
q32 29 48 29t48 -30l197 -188q33 -31 33 -48q0 -18 -33 -49l-42 -39q-32 -30 -49 -30q-12 0 -45 22l-233 160q-26 17 -33.5 26t-7.5 23q0 18 34 49z" />
    <glyph glyph-name="ygrave" unicode="&#x1ef3;" horiz-adv-x="1246" vert-adv-y="2457" 
d="M448 127l-400 716q-19 33 -19 47q0 21 15 29.5t53 8.5h232q40 0 49 -5.5t27 -40.5l224 -430l218 429q18 36 27 41.5t49 5.5h227q38 0 53 -8.5t15 -29.5q0 -14 -17 -46l-676 -1262q-18 -35 -27.5 -40.5t-48.5 -5.5h-221q-36 0 -47 5q-21 10 -21 33q0 13 18 46zM372 1390
l90 65q33 24 46 24t21 -6t28 -31l173 -211q27 -33 27 -46q0 -15 -6.5 -23t-32.5 -27l-47 -34q-32 -24 -46 -24q-16 0 -48 28l-210 187q-35 30 -35 49q0 21 40 49z" />
    <glyph glyph-name="underscoredbl" unicode="&#x2017;" vert-adv-y="2457" 
d="M50 -97h924q50 0 50 -50v-55q0 -50 -50 -50h-924q-50 0 -50 50v55q0 50 50 50zM50 -337h924q50 0 50 -50v-55q0 -50 -50 -50h-924q-50 0 -50 50v55q0 50 50 50z" />
    <glyph glyph-name="uni203E" unicode="&#x203e;" vert-adv-y="2457" 
d="M50 1821h924q50 0 50 -50v-125q0 -50 -50 -50h-924q-50 0 -50 50v125q0 50 50 50z" />
    <glyph glyph-name="franc" unicode="&#x20a3;" horiz-adv-x="1434" vert-adv-y="2457" 
d="M441 1134v-303h329q100 0 100 -93v-45q0 -93 -100 -93h-329v-500q0 -100 -99 -100h-68q-99 0 -99 100v1165q-3 103 100 100h523q100 0 100 -93v-45q0 -93 -100 -93h-357zM1163 541q29 53 60 77q56 42 111 42q32 0 57 -27t25 -63q0 -8 -1 -15l-2 -12q-8 -58 -64 -58h-35
q-151 0 -151 -187v-198q0 -100 -88 -100h-25q-88 0 -88 100v435q0 100 88 100h25q40 0 64 -23.5t24 -62.5v-8z" />
    <glyph glyph-name="uni2101" unicode="&#x2101;" horiz-adv-x="2010" vert-adv-y="2457" 
d="M626 685h-280l-39 -99q-16 -41 -59 -40h-141q-38 0 -38 29q0 8 5 20l280 730q15 41 58 40h152q43 0 58 -40l275 -730q5 -12 5 -20q0 -29 -39 -29h-142q-43 0 -58 40zM564 860l-77 228l-78 -228h155zM1628 1365l-770 -1327q-14 -24 -26.5 -31t-39.5 -7h-133l770 1327
q14 24 26 31t40 7h133zM1888 723l-44 -85q-13 -26 -35 -26q-8 0 -39 16q-44 24 -90 24q-35 0 -58.5 -18.5t-23.5 -44.5q0 -27 26 -42.5t115 -41.5q102 -31 150 -83q53 -56 53 -146q0 -147 -85 -220q-90 -78 -238 -78q-92 0 -183 37t-91 75q0 10 9 28l50 94q14 25 35 25
q11 0 33 -16q71 -50 143 -50q43 0 68.5 19.5t25.5 52.5q0 30 -25 47.5t-96 38.5q-116 34 -155 66q-66 55 -66 165q0 129 85 207q77 72 194 72q119 0 212 -44q39 -19 39 -45q0 -9 -9 -27z" />
    </font>
</defs>
</svg>
